<?xml version="1.0" encoding="UTF-8" standalone="no"?>
<!-- Created with Inkscape (http://www.inkscape.org/) -->

<svg
   width="120.0mm"
   height="120.0mm"
   viewBox="0 0 120.0 120.0"
   version="1.1"
   id="svg1"
   xml:space="preserve"
   inkscape:version="1.4.2 (f4327f4, 2025-05-13)"
   sodipodi:docname="BL_Santa.svg"
   xmlns:inkscape="http://www.inkscape.org/namespaces/inkscape"
   xmlns:sodipodi="http://sodipodi.sourceforge.net/DTD/sodipodi-0.dtd"
   xmlns="http://www.w3.org/2000/svg"
   xmlns:svg="http://www.w3.org/2000/svg"><sodipodi:namedview
     id="namedview1"
     pagecolor="#ffffff"
     bordercolor="#666666"
     borderopacity="1.0"
     inkscape:showpageshadow="2"
     inkscape:pageopacity="0.0"
     inkscape:pagecheckerboard="0"
     inkscape:deskcolor="#d1d1d1"
     inkscape:document-units="mm"
     inkscape:zoom="2"
     inkscape:cx="221.75"
     inkscape:cy="242.75"
     inkscape:window-width="1920"
     inkscape:window-height="1009"
     inkscape:window-x="-8"
     inkscape:window-y="-8"
     inkscape:window-maximized="1"
     inkscape:current-layer="g1949"
     inkscape:pageshadow="2"
     showgrid="false"
     borderlayer="true"
     showguides="false"
     inkscape:snap-global="false"><inkscape:grid
       spacingx="2.54"
       spacingy="2.54"
       empspacing="1"
       type="xygrid"
       units="mm"
       id="grid1929"
       originx="0"
       originy="0"
       visible="false" /></sodipodi:namedview><defs
     id="defs1" /><g
     inkscape:label="Ebene 1"
     inkscape:groupmode="layer"
     id="layer1"
     style="display:inline" /><g
     inkscape:groupmode="layer"
     id="layer2"
     inkscape:label="bild"
     style="display:inline" /><g
     inkscape:label="[fixed] BG"
     inkscape:groupmode="layer"
     sodipodi:insensitive="true"
     id="g1947"
     style="display:inline"><rect
       x="0"
       y="0"
       width="120"
       height="120"
       style="fill:#ffffff;fill-opacity:1;stroke:none"
       id="rect1945" /></g><g
     inkscape:label="Edge.Cuts"
     inkscape:groupmode="layer"
     id="g1949"
     style="display:inline"><path
       id="path1-1-9"
       style="display:inline;fill:#ff0003;fill-opacity:1;stroke:#000000;stroke-width:0.213415;stroke-dasharray:none;stroke-opacity:1"
       d="m 67.568359,12.193359 c -2.963428,0.469626 -5.059853,2.840427 -6.934013,4.980275 -1.294409,1.509666 -2.82294,2.790496 -4.104,4.31243 -3.939954,4.29468 -7.825964,8.717857 -10.71394,13.810811 -0.227028,1.366797 1.001154,2.399506 2.211017,2.696704 0.399603,0.180886 0.975499,0.106871 1.261639,0.369702 0.207043,1.114984 -0.994025,1.749895 -1.607658,2.491454 -0.917045,1.182384 -1.794274,2.407672 -2.70311,3.604051 -4.537486,6.186469 -8.471408,12.931828 -10.695091,20.314652 0.137596,1.553621 1.568169,2.58945 3.003609,2.868535 0.958564,0.265269 1.988731,0.263634 2.941704,0.449824 0.148859,0.558639 -0.613967,0.892331 -0.946471,1.25712 -2.246812,2.294066 -4.310496,4.777826 -6.218625,7.361682 -2.892825,3.984421 -5.267005,8.455122 -6.204045,13.32651 0.275274,1.624835 1.819904,2.636298 3.349879,2.894189 2.44101,0.418533 4.900155,0.632441 7.385277,0.656593 4.973697,0.03683 10.028064,-0.578895 14.872266,0.849609 1.975193,1.42727 2.356396,4.035144 2.445503,6.29968 0.04868,2.26091 0.35192,4.50204 0.389747,6.76296 0.09343,1.54944 0.403842,3.31645 1.658891,4.34361 3.269759,1.0012 6.724926,0.26385 10.04565,0.66866 2.701892,0.0312 5.570473,0.47553 8.171146,-0.5671 1.598176,-1.98708 1.202123,-4.6711 1.458539,-7.03258 0.434089,-2.05654 0.219566,-4.19941 0.735628,-6.248961 0.383767,-1.907075 1.67032,-3.940189 3.754161,-4.19802 3.066019,-0.589071 6.173033,0.211852 9.296577,-0.07246 4.67748,0.02318 9.430035,0.488065 14.034391,-0.576882 1.55181,-0.980769 1.96092,-3.019803 1.52343,-4.70398 -0.37388,-1.810154 -1.42537,-3.365983 -2.11022,-5.060864 -2.66703,-5.630055 -6.437737,-10.693631 -10.823365,-15.10039 1.862376,-0.545325 4.113002,-0.420154 5.556641,-1.916016 0.702192,-0.73017 0.889733,-1.777624 0.646304,-2.740988 -0.445274,-2.568207 -1.946163,-4.773222 -2.796769,-7.20462 C 93.417187,50.477934 89.394184,44.346567 84.75,38.757812 c 0.454061,-0.844176 1.602898,-0.627719 2.384766,-0.884765 1.012538,-0.141093 1.745924,-1.159835 1.498521,-2.165474 C 88.37662,33.653207 86.536036,32.368433 85.634116,30.62061 81.212307,24.566608 76.517644,18.655313 70.976434,13.582427 70.009177,12.810459 68.837742,12.171433 67.568359,12.193359 Z"
       sodipodi:nodetypes="ccccccccccccccccccccccccccccccccccccccc" /></g><g
     inkscape:label="B.Cu"
     inkscape:groupmode="layer"
     id="g1951"
     style="display:inline" /><g
     inkscape:label="B.Mask"
     inkscape:groupmode="layer"
     id="g1953"
     style="display:inline"><path
       id="path1-16-6-0-8"
       style="display:inline;fill:#fa9b00;fill-opacity:1;stroke:#000000;stroke-width:0.213415;stroke-dasharray:none;stroke-opacity:1"
       d="m 68.072802,20.635692 c -6.20498,-0.0144 -11.827077,9.907391 -15.787787,15.255321 1.8021,0.70134 2.353473,3.23975 1.758153,5.24472 -0.56362,2.05256 -2.432524,3.319721 -3.564124,5.033801 -4.69618,5.88692 -7.643474,10.298571 -10.536614,17.247491 1.85809,0.30208 3.798041,0.315297 5.107751,1.857067 2.165838,3.195559 0.132983,6.363543 -1.910224,8.153722 -5.693069,5.894923 -9.704421,15.09579 -9.54257,14.71745 1.16804,-0.20915 2.93917,-0.48952 5.34231,-0.86248 1.724004,-2.48169 3.520541,-1.5995 5.292183,-0.81907 1.519742,-1.10664 3.07689,-2.17733 5.303552,-0.0563 0.670982,-1.48289 1.455752,-2.87816 4.867404,-2.26704 1.293214,-1.6528 2.902739,-2.16508 5.159375,-0.9555 0.769115,0.25307 1.481876,0.64029 2.577103,0.37724 0,0 1.074289,-0.28234 1.661914,-0.43719 0.67359,-0.41036 1.762718,-0.9164 2.744019,-0.90175 0.322673,0.005 0.621145,0.0827 0.891935,0.19689 l -0.03411,-0.0243 c -0.26584,-0.25983 -0.317231,-0.44835 -0.461471,-0.66766 -0.0579,-0.28417 -0.114598,-0.56873 -0.06098,-0.91984 0.0464,-0.1879 0.188129,-0.35495 0.345199,-0.47646 -0.21737,-0.17615 -0.377401,-0.45846 -0.320911,-0.77153 0.0458,-0.19994 0.171266,-0.32726 0.331246,-0.50436 0.14206,-0.0942 0.172954,-0.17087 -0.04703,-0.2651 -0.68093,-0.52762 -1.3729,-0.73755 -2.25826,0.007 -0.11038,0.20254 -0.0298,0.30913 0.132809,0.37517 0.28613,0.38775 0.307125,0.76007 -0.181385,1.10226 0.12213,0.24903 0.302968,0.48341 0.254248,0.77515 0.13482,0.53334 -0.166423,0.8631 -0.350883,1.24746 -0.51269,0.29829 -1.0252,0.50444 -1.53789,0.66611 -2.52783,0.87379 -3.502258,0.0804 -3.887618,-0.29042 -0.28764,-0.33103 -0.343147,-0.57642 -0.460437,-0.90744 0.0556,-0.22354 0.0836,-0.56306 0.26665,-0.78806 0.29715,-0.44128 0.489499,-0.69518 1.035079,-1.07229 -0.53759,-0.47289 -0.250886,-0.88599 0.04082,-1.13378 0.0841,-0.0714 0.129645,-0.0133 0.219625,-0.0832 0.003,-1.27469 -0.216278,-1.48227 -0.342098,-2.02882 -0.31368,-0.1397 -0.641235,-0.24865 -0.893485,-0.52658 l -0.835608,-0.90847 c -0.58739,-0.40885 -0.573294,-0.70612 -0.762744,-1.04128 -0.25218,-0.33796 -0.421957,-0.74811 -0.545187,-1.19889 l -0.375171,-1.24747 c -0.0511,-0.42016 -0.163055,-0.88991 -0.04857,-1.17461 -0.0756,-0.17655 -0.140793,-0.36145 -0.120923,-0.61753 -0.0242,-0.88411 0.0951,-1.62529 0.157613,-2.42259 -0.76738,-0.5565 -1.439779,-0.9631 -2.095479,-1.34411 -0.19377,0.0444 -0.387074,0.0932 -0.580844,0.0119 -0.21043,-0.0345 -0.262266,-0.13247 -0.315226,-0.22996 -0.51954,0.1126 -0.828599,-0.0831 -0.896069,-0.63252 l -0.133325,-0.094 c -0.45255,-0.21939 -0.826818,-0.55596 -1.150318,-0.96893 L 50.7369,63.671674 c -0.2918,-0.1496 -0.242799,-0.54904 -0.314709,-0.8599 -0.0793,-0.9672 0.681803,-1.94743 1.780253,-2.13785 0.41935,-0.0654 0.775398,0.0272 1.065568,0.28473 0.11306,-0.19781 0.206551,-0.39543 0.411861,-0.59324 0.50313,-0.43423 0.88987,-0.25496 1.19941,0.32711 l 0.108521,0.62942 c 0.0781,0.019 0.17517,0.0585 0.24908,0.014 0.23398,-0.1413 0.944355,0.0768 0.871265,0.68264 l 0.732772,0.36949 0.363285,0.44804 c 0.0646,-0.87334 -0.0702,-1.67095 1.296045,-3.04013 -0.0754,-0.6769 -0.975739,-1.25439 0.411861,-2.10685 0.0172,-0.37815 -0.150868,-0.6939 0.168982,-1.04179 -0.16183,-0.21215 -0.278018,-0.25621 -0.375688,-0.48938 -0.4142,-0.98882 -0.474286,-2.53716 0.920874,-3.54345 l 0.375688,-0.1819 c -0.22567,-0.0434 -0.44185,-0.0963 -0.47749,-0.3297 0.42751,-0.82403 0.631151,-1.44768 1.663981,-2.69544 0.65587,-0.61402 1.368049,-1.24136 2.148189,-1.4826 1.01148,-0.4136 1.974384,-0.69136 2.985864,-0.71778 0.33509,-0.0101 0.627735,-0.0147 0.888835,-0.0145 v -5.2e-4 c 0.7833,5.3e-4 1.285775,0.0436 1.823145,0.10697 l 2.309419,0.66507 c 0.88968,0.37575 1.778313,0.84934 2.393653,1.38648 0.55482,0.52776 1.164467,1.02459 1.661397,1.78387 l 0.959115,1.53169 c 0.61934,-0.0108 0.962658,0.21011 1.244368,0.39378 0.32977,0.40346 0.518252,0.71436 0.557072,1.20716 0.005,0.87671 -0.450853,1.22549 -0.719853,1.49035 -0.52825,0.34588 -1.109714,0.34837 -1.524454,0.15399 -0.34845,-0.14877 -0.603816,-0.40908 -0.839226,-0.69349 -0.2563,-0.49482 -0.313042,-1.04629 -0.419612,-1.58389 0.0296,0.76426 0.0285,1.50838 -0.140043,2.13734 -0.0557,0.20798 -0.135846,0.39857 -0.190686,0.60823 -0.0432,0.16525 -0.131813,0.43499 -0.08423,0.69402 0.0273,0.14881 0.129002,0.27611 0.149862,0.36277 0.32619,0.21436 0.59885,0.50803 0.8816,0.78754 0.0317,0.31971 0.13687,0.63941 0,0.95912 l -0.205156,0.41083 c 0.52051,0.80853 0.800878,1.81999 1.027328,2.87734 0.27029,-0.30137 0.777301,-0.40084 1.156001,-0.28267 0.36708,-0.32248 0.677054,-0.78191 1.147734,-0.85576 0.30438,0.0434 0.832498,0.39927 0.766878,1.2454 0.6588,-0.15174 1.322831,0.21959 1.540991,0.57826 0.23295,0.37146 0.455018,0.75931 0.479558,1.18597 0.0711,0.56287 -0.217859,1.00868 -0.397909,1.43454 -0.30438,0.38408 -0.818791,0.5078 -1.258321,0.54622 -0.23846,0.0208 -0.400542,0.16758 -0.625802,0.25838 -0.31321,0.10491 -0.600087,0.11781 -0.867647,0.0631 -0.21947,0.21216 -0.371455,0.50067 -1.085205,0.36794 -0.2587,0.0913 -0.649628,0.30441 -0.976168,0.55397 l 0.162781,2.82619 c 0.12132,1.2911 -0.366642,2.31117 -0.873332,3.13469 -0.39459,0.72524 -0.796728,1.41966 -1.258838,1.87482 -0.38231,0.21563 -1.061133,0.40738 -1.130163,0.65112 -0.7728,0.84519 -1.408883,1.81613 -1.053683,2.52595 0.57185,0.30501 0.516345,1.05924 0.411345,1.41335 l 0.162781,0.42839 c 0.44936,0.39946 0.508097,0.87539 0.588077,1.27486 l -0.278019,1.02526 c -0.1452,0.20952 -0.293081,0.41801 -0.392741,0.49093 -0.34239,0.26303 -0.708252,0.29127 -1.072802,0.33279 -0.40709,0.0676 -0.802748,0.0505 -1.187008,-0.0646 0,0 -0.638107,-0.32295 -0.741557,-0.32504 -0.0411,-8e-4 -0.210586,-0.0762 -0.419096,-0.11059 -0.183078,-0.0302 -0.392014,-0.0557 -0.552421,-0.0816 0.02632,0.0197 0.05235,0.0392 0.07752,0.0584 -0.03252,0.0655 0.450138,0.16615 0.840259,0.231 0.220068,0.0366 0.39896,0.11646 0.44235,0.1173 0.109186,0.002 0.782898,0.34572 0.782898,0.34572 0.405561,0.12236 0.822979,0.14007 1.252637,0.0682 0.384758,-0.0441 0.807024,0.0166 1.168404,-0.26304 0.105186,-0.0775 0.603306,-0.50901 0.756543,-0.73174 0.787228,-0.0609 1.388393,0.0519 1.599902,0.61909 2.150513,-1.69495 3.900545,-1.22185 5.328357,0.91674 1.86641,-0.58557 3.736797,-1.10128 6.074048,1.53789 3.694793,-3.15529 11.330039,-0.13043 12.18892,1.52084 0.349291,0.94987 0.767071,-1.1075 -0.913639,-3.77855 -2.3665,-3.8884 -5.844093,-7.036776 -8.583456,-10.63346 -1.88028,-1.48202 -3.486942,-6.533937 0.01292,-8.682239 1.19117,-0.4773 3.152583,-0.375308 4.400783,-0.556948 -5.8762,-15.6008 -10.91686,-17.305222 -13.05969,-22.159932 -2.151004,-1.77961 -1.135593,-5.751152 0.999187,-6.303742 -2.06461,-2.75337 -2.339294,-4.362264 -4.530754,-7.024644 -1.77008,-2.57826 -6.232561,-7.725601 -9.104871,-7.608321 z m 0.267684,62.327462 c -0.251218,-0.18828 -0.554304,-0.3959 -0.903304,-0.54312 l 0.642338,0.45889 c -0.01555,0.0311 0.09752,0.0579 0.260966,0.0842 z"
       sodipodi:nodetypes="cccccccccccccccccccccccccccccccccccccccccccccccccccccccccccccccccscccccccccccccccccccccccccccccccccccccccccccccccccccscccccccccccccccccccccccccc" /></g><g
     inkscape:label="B.SilkS"
     inkscape:groupmode="layer"
     id="g1955"
     style="display:inline" /><g
     inkscape:label="F.Cu"
     inkscape:groupmode="layer"
     id="g1957"
     style="display:inline" /><g
     inkscape:label="F.Mask"
     inkscape:groupmode="layer"
     id="g1959"
     style="display:inline"><path
       id="path1-16-6-0-8-4"
       style="display:inline;fill:#faf500;fill-opacity:1;stroke:#000000;stroke-width:0.213415;stroke-dasharray:none;stroke-opacity:1"
       d="m 68.060653,20.674127 c -6.20498,-0.0144 -11.827077,9.907391 -15.787787,15.255321 1.8021,0.70134 2.353473,3.23975 1.758153,5.24472 -0.56362,2.05256 -2.432524,3.319721 -3.564124,5.033801 -4.69618,5.88692 -7.643474,10.298571 -10.536614,17.247491 1.85809,0.30208 3.798041,0.315297 5.107751,1.857067 2.165838,3.195559 0.132983,6.363543 -1.910224,8.153722 -5.693069,5.894923 -9.704421,15.09579 -9.54257,14.71745 1.16804,-0.20915 2.93917,-0.48952 5.34231,-0.86248 1.724004,-2.48169 3.520541,-1.5995 5.292183,-0.81907 1.519742,-1.10664 3.07689,-2.17733 5.303552,-0.0563 0.670982,-1.48289 1.455752,-2.87816 4.867404,-2.26704 1.293214,-1.6528 2.902739,-2.16508 5.159375,-0.9555 0.769115,0.25307 1.481876,0.64029 2.577103,0.37724 0,0 1.074289,-0.28234 1.661914,-0.43719 0.67359,-0.41036 1.762718,-0.9164 2.744019,-0.90175 0.322673,0.005 0.621145,0.0827 0.891935,0.19689 l -0.03411,-0.0243 c -0.26584,-0.25983 -0.317231,-0.44835 -0.461471,-0.66766 -0.0579,-0.28417 -0.114598,-0.56873 -0.06098,-0.91984 0.0464,-0.1879 0.188129,-0.35495 0.345199,-0.47646 -0.21737,-0.17615 -0.377401,-0.45846 -0.320911,-0.77153 0.0458,-0.19994 0.171266,-0.32726 0.331246,-0.50436 0.14206,-0.0942 0.172954,-0.17087 -0.04703,-0.2651 -0.68093,-0.52762 -1.3729,-0.73755 -2.25826,0.007 -0.11038,0.20254 -0.0298,0.30913 0.132809,0.37517 0.28613,0.38775 0.307125,0.76007 -0.181385,1.10226 0.12213,0.24903 0.302968,0.48341 0.254248,0.77515 0.13482,0.53334 -0.166423,0.8631 -0.350883,1.24746 -0.51269,0.29829 -1.0252,0.50444 -1.53789,0.66611 -2.52783,0.87379 -3.502258,0.0804 -3.887618,-0.29042 -0.28764,-0.33103 -0.343147,-0.57642 -0.460437,-0.90744 0.0556,-0.22354 0.0836,-0.56306 0.26665,-0.78806 0.29715,-0.44128 0.489499,-0.69518 1.035079,-1.07229 -0.53759,-0.47289 -0.250886,-0.88599 0.04082,-1.13378 0.0841,-0.0714 0.129645,-0.0133 0.219625,-0.0832 0.003,-1.27469 -0.216278,-1.48227 -0.342098,-2.02882 -0.31368,-0.1397 -0.641235,-0.24865 -0.893485,-0.52658 l -0.835608,-0.90847 c -0.58739,-0.40885 -0.573294,-0.70612 -0.762744,-1.04128 -0.25218,-0.33796 -0.421957,-0.74811 -0.545187,-1.19889 l -0.375171,-1.24747 c -0.0511,-0.42016 -0.163055,-0.88991 -0.04857,-1.17461 -0.0756,-0.17655 -0.140793,-0.36145 -0.120923,-0.61753 -0.0242,-0.88411 0.0951,-1.62529 0.157613,-2.42259 -0.76738,-0.5565 -1.439779,-0.9631 -2.095479,-1.34411 -0.19377,0.0444 -0.387074,0.0932 -0.580844,0.0119 -0.21043,-0.0345 -0.262266,-0.13247 -0.315226,-0.22996 -0.51954,0.1126 -0.828599,-0.0831 -0.896069,-0.63252 l -0.133325,-0.094 c -0.45255,-0.21939 -0.826818,-0.55596 -1.150318,-0.96893 l -0.787549,-0.59324 c -0.2918,-0.1496 -0.242799,-0.54904 -0.314709,-0.8599 -0.0793,-0.9672 0.681803,-1.94743 1.780253,-2.13785 0.41935,-0.0654 0.775398,0.0272 1.065568,0.28473 0.11306,-0.19781 0.206551,-0.39543 0.411861,-0.59324 0.50313,-0.43423 0.88987,-0.25496 1.19941,0.32711 l 0.108521,0.62942 c 0.0781,0.019 0.17517,0.0585 0.24908,0.014 0.23398,-0.1413 0.944355,0.0768 0.871265,0.68264 l 0.732772,0.36949 0.363285,0.44804 c 0.0646,-0.87334 -0.0702,-1.67095 1.296045,-3.04013 -0.0754,-0.6769 -0.975739,-1.25439 0.411861,-2.10685 0.0172,-0.37815 -0.150868,-0.6939 0.168982,-1.04179 -0.16183,-0.21215 -0.278018,-0.25621 -0.375688,-0.48938 -0.4142,-0.98882 -0.474286,-2.53716 0.920874,-3.54345 l 0.375688,-0.1819 c -0.22567,-0.0434 -0.44185,-0.0963 -0.47749,-0.3297 0.42751,-0.82403 0.631151,-1.44768 1.663981,-2.69544 0.65587,-0.61402 1.368049,-1.24136 2.148189,-1.4826 1.01148,-0.4136 1.974384,-0.69136 2.985864,-0.71778 0.33509,-0.0101 0.627735,-0.0147 0.888835,-0.0145 v -5.2e-4 c 0.7833,5.3e-4 1.285775,0.0436 1.823145,0.10697 l 2.309419,0.66507 c 0.88968,0.37575 1.778313,0.84934 2.393653,1.38648 0.55482,0.52776 1.164467,1.02459 1.661397,1.78387 l 0.959115,1.53169 c 0.61934,-0.0108 0.962658,0.21011 1.244368,0.39378 0.32977,0.40346 0.518252,0.71436 0.557072,1.20716 0.005,0.87671 -0.450853,1.22549 -0.719853,1.49035 -0.52825,0.34588 -1.109714,0.34837 -1.524454,0.15399 -0.34845,-0.14877 -0.603816,-0.40908 -0.839226,-0.69349 -0.2563,-0.49482 -0.313042,-1.04629 -0.419612,-1.58389 0.0296,0.76426 0.0285,1.50838 -0.140043,2.13734 -0.0557,0.20798 -0.135846,0.39857 -0.190686,0.60823 -0.0432,0.16525 -0.131813,0.43499 -0.08423,0.69402 0.0273,0.14881 0.129002,0.27611 0.149862,0.36277 0.32619,0.21436 0.59885,0.50803 0.8816,0.78754 0.0317,0.31971 0.13687,0.63941 0,0.95912 l -0.205156,0.41083 c 0.52051,0.80853 0.800878,1.81999 1.027328,2.87734 0.27029,-0.30137 0.777301,-0.40084 1.156001,-0.28267 0.36708,-0.32248 0.677054,-0.78191 1.147734,-0.85576 0.30438,0.0434 0.832498,0.39927 0.766878,1.2454 0.6588,-0.15174 1.322831,0.21959 1.540991,0.57826 0.23295,0.37146 0.455018,0.75931 0.479558,1.18597 0.0711,0.56287 -0.217859,1.00868 -0.397909,1.43454 -0.30438,0.38408 -0.818791,0.5078 -1.258321,0.54622 -0.23846,0.0208 -0.400542,0.16758 -0.625802,0.25838 -0.31321,0.10491 -0.600087,0.11781 -0.867647,0.0631 -0.21947,0.21216 -0.371455,0.50067 -1.085205,0.36794 -0.2587,0.0913 -0.649628,0.30441 -0.976168,0.55397 l 0.162781,2.82619 c 0.12132,1.2911 -0.366642,2.31117 -0.873332,3.13469 -0.39459,0.72524 -0.796728,1.41966 -1.258838,1.87482 -0.38231,0.21563 -1.061133,0.40738 -1.130163,0.65112 -0.7728,0.84519 -1.408883,1.81613 -1.053683,2.52595 0.57185,0.30501 0.516345,1.05924 0.411345,1.41335 l 0.162781,0.42839 c 0.44936,0.39946 0.508097,0.87539 0.588077,1.27486 l -0.278019,1.02526 c -0.1452,0.20952 -0.293081,0.41801 -0.392741,0.49093 -0.34239,0.26303 -0.708252,0.29127 -1.072802,0.33279 -0.40709,0.0676 -0.802748,0.0505 -1.187008,-0.0646 0,0 -0.638107,-0.32295 -0.741557,-0.32504 -0.0411,-8e-4 -0.210586,-0.0762 -0.419096,-0.11059 -0.183078,-0.0302 -0.392014,-0.0557 -0.552421,-0.0816 0.02632,0.0197 0.05235,0.0392 0.07752,0.0584 -0.03252,0.0655 0.450138,0.16615 0.840259,0.231 0.220068,0.0366 0.39896,0.11646 0.44235,0.1173 0.109186,0.002 0.782898,0.34572 0.782898,0.34572 0.405561,0.12236 0.822979,0.14007 1.252637,0.0682 0.384758,-0.0441 0.807024,0.0166 1.168404,-0.26304 0.105186,-0.0775 0.603306,-0.50901 0.756543,-0.73174 0.787228,-0.0609 1.388393,0.0519 1.599902,0.61909 2.150513,-1.69495 3.900545,-1.22185 5.328357,0.91674 1.86641,-0.58557 3.736797,-1.10128 6.074048,1.53789 3.694793,-3.15529 11.330039,-0.13043 12.18892,1.52084 0.349291,0.94987 0.767071,-1.1075 -0.913639,-3.77855 -2.3665,-3.8884 -5.844093,-7.036776 -8.583456,-10.63346 -1.88028,-1.48202 -3.486942,-6.533937 0.01292,-8.682239 1.19117,-0.4773 3.152583,-0.375308 4.400783,-0.556948 -5.8762,-15.6008 -10.91686,-17.305222 -13.05969,-22.159932 -2.151004,-1.77961 -1.135593,-5.751152 0.999187,-6.303742 -2.06461,-2.75337 -2.339294,-4.362264 -4.530754,-7.024644 -1.77008,-2.57826 -6.232561,-7.725601 -9.104871,-7.608321 z m 0.267684,62.327462 c -0.251218,-0.18828 -0.554304,-0.3959 -0.903304,-0.54312 l 0.642338,0.45889 c -0.01555,0.0311 0.09752,0.0579 0.260966,0.0842 z"
       sodipodi:nodetypes="cccccccccccccccccccccccccccccccccccccccccccccccccccccccccccccccccscccccccccccccccccccccccccccccccccccccccccccccccccccscccccccccccccccccccccccccc" /></g><g
     inkscape:label="F.SilkS"
     inkscape:groupmode="layer"
     id="g1961"
     style="display:inline"><path
       id="rect1202-8"
       style="display:inline;fill:#e0e0e0;stroke:#000000;stroke-width:0.093129;stroke-linecap:round;paint-order:stroke fill markers"
       transform="matrix(0.98208259,-0.188451,0.17808161,0.98401572,0,0)"
       d="m 64.343388,75.628044 c 0.338078,0 0.629764,0.280177 0.610249,0.626507 -0.06179,1.096602 -0.09466,2.198742 0,3.325307 0.02909,0.34617 -0.272171,0.626507 -0.610249,0.626507 -0.338078,0 -0.641824,-0.281195 -0.610249,-0.626507 0.09961,-1.089359 0.08982,-2.199669 0,-3.325307 -0.02763,-0.346275 0.272171,-0.626507 0.610249,-0.626507 z"
       sodipodi:nodetypes="sssssss" /><path
       id="path4-1"
       style="display:inline;fill:#e0e0e0;fill-opacity:1;stroke:#000000;stroke-width:0.213415;stroke-linecap:round;stroke-dasharray:none;stroke-opacity:1;paint-order:stroke fill markers"
       d="m 67.182622,51.359635 c -0.16969,-0.003 -0.34064,-0.003 -0.5132,0.001 -0.23008,0.005 -0.4632,0.0175 -0.69958,0.0375 -0.93019,-0.0486 -2.0707,0.17328 -3.14864,0.31468 -0.98626,0.20466 -1.93377,0.46465 -2.76118,0.89625 -0.51824,0.31118 -0.81883,0.76738 -1.13851,1.21093 -0.20388,0.83983 -0.16132,1.46616 -0.0243,2.0105 0.13134,0.26458 0.31814,0.50457 0.65399,0.67825 -0.30046,0.37064 -0.38036,0.77046 -0.33894,1.18668 -0.22979,0.13106 -0.44703,0.33778 -0.65399,0.60583 -0.25581,0.52061 0.1905,1.24439 0.31468,1.42893 -0.63216,0.76761 -1.33982,1.4809 -1.35615,2.68839 -0.14956,0.96887 -0.0353,1.93789 0.36321,2.90675 0.41602,1.20824 1.07052,2.2575 2.0344,3.10049 -0.0304,0.0304 3.30788,1.99633 3.48796,1.96161 0.1211,0.0861 3.68169,0.52915 3.68169,0.4121 1.32694,-0.0437 2.55585,-0.25144 3.60927,-0.75104 1.31437,-0.64923 2.64906,-1.2577 3.6089,-2.61597 0.6604,-1.45527 1.28991,-2.94758 1.50172,-4.94115 -0.22373,-1.29023 -0.62799,-2.3277 -1.30798,-2.97917 0.17025,-0.0544 0.33324,-0.13056 0.43599,-0.38747 0.13534,-0.19026 0.0611,-0.50055 0.0485,-0.77531 -0.26928,-0.34694 -0.60906,-0.5883 -0.96904,-0.7992 0.0489,-0.14298 0.0695,-0.42819 0.0728,-0.7992 -0.0305,-1.14691 1.16322,-1.7721 -0.14521,-3.4637 -0.24311,-0.2885 -0.56356,-0.53084 -0.92051,-0.75104 -0.54038,-0.37845 -1.2192,-0.51478 -1.84103,-0.75067 -0.76528,-0.15283 -1.61589,-0.25459 -2.49466,-0.33932 -0.49369,-0.044 -0.99118,-0.079 -1.50025,-0.0871 z m -0.10183,4.22135 c 1.68785,0.0141 3.41781,0.28572 5.18672,0.9525 0.24942,0.2314 0.59407,0.31993 0.67825,0.7992 l 0.0118,1.59841 c -0.0248,0.24975 -0.33462,0.53247 -0.76685,0.51061 -1.16516,0.34115 -2.26781,-0.53662 -3.35047,-0.85544 -0.10802,-0.43043 -1.10249,-1.36985 -1.12197,-1.38077 -0.15255,-0.0855 -1.81364,-0.15611 -1.95462,-0.004 -0.46892,0.36961 -0.90356,0.84773 -1.0047,1.36643 l -2.73692,0.872 c -0.84901,0.17517 -1.28617,-0.1647 -1.62303,-0.62973 l -0.14521,-1.40504 c 0.0996,-0.4027 0.24074,-0.74993 0.53268,-0.89625 v 3.6e-4 c 2.02369,-0.53892 4.12425,-0.94633 6.29435,-0.92823 z m 1.73515,0.9661 a 0.53094289,0.5138157 0 0 0 -0.53084,0.51356 0.53094289,0.5138157 0 0 0 0.53084,0.51394 0.53094289,0.5138157 0 0 0 0.53084,-0.51394 0.53094289,0.5138157 0 0 0 -0.53084,-0.51356 z m -4.05004,0.0224 a 0.53094289,0.5138157 0 0 0 -0.53121,0.51357 0.53094289,0.5138157 0 0 0 0.53121,0.51393 0.53094289,0.5138157 0 0 0 0.53084,-0.51393 0.53094289,0.5138157 0 0 0 -0.53084,-0.51357 z m 1.90646,1.15065 a 1.5986192,1.0536355 0 0 1 1.59877,1.05359 1.5986192,1.0536355 0 0 1 -1.59877,1.0536 1.5986192,1.0536355 0 0 1 -1.5984,-1.0536 1.5986192,1.0536355 0 0 1 1.5984,-1.05359 z" /><path
       d="m 56.966574,70.388085 c -0.11635,0.15346 -0.25474,0.8146 0.21395,1.34475 2.09633,1.01763 4.92828,1.84157 7.64719,1.71678 l -0.0857,-1.31866 c -2.54841,-0.13839 -5.13029,-1.06526 -7.77549,-1.74287 z m 18.80107,0.15991 c -0.11158,-0.006 -0.80802,0.17919 -1.61825,0.43121 -1.20292,0.37419 -5.58047,1.2153 -6.39618,1.22895 -0.15082,0.003 -0.3455,0.98806 -0.2316,1.17235 0.0468,0.0756 0.44131,0.10014 0.87677,0.0544 0.43546,-0.0457 1.26407,-0.12724 1.8414,-0.18123 1.06435,-0.0995 3.23036,-0.60473 4.5897,-1.0705 0.62639,-0.21456 0.76715,-0.36082 0.87971,-0.91317 0.0736,-0.36161 0.10644,-0.68467 0.0728,-0.71833 -0.002,-0.002 -0.007,-0.003 -0.0143,-0.004 z m -18.42059,1.85097 c -0.14381,0.004 -0.0281,0.36082 0.18491,0.63744 0.18262,0.2371 0.49827,0.28042 1.04294,0.44482 1.03767,0.31318 3.84686,1.12075 4.69815,1.10653 1.06696,-0.0179 5.08376,0.26023 6.57823,-0.0941 2.3339,-0.5534 4.09003,-0.63854 4.67308,-0.99882 0.29033,-0.17941 0.62758,-0.82897 0.57937,-0.87456 -0.0482,-0.0456 -1.13106,0.2997 -2.08808,0.53009 -0.957,0.23042 -3.90161,0.76638 -5.04849,0.88046 -1.79006,0.43297 -2.28528,0.39596 -3.91733,-0.0989 -1.35321,-0.0247 -5.16755,-0.89782 -5.99475,-1.32121 -0.1992,-0.10196 -0.44933,-0.19623 -0.53562,-0.1941 z m 0.67201,1.20578 c -0.13514,0.004 -0.13033,0.15815 -0.0114,0.48451 0.0992,0.27217 0.39574,0.47988 0.91463,0.64076 0.97811,0.30326 3.71145,0.91036 4.50699,1.00103 1.2487,0.14233 5.17722,0.13093 6.37119,-0.0184 2.23865,-0.27994 3.75642,-0.69235 4.21327,-1.14476 0.23509,-0.23282 0.3905,-0.46084 0.34519,-0.50658 -0.0453,-0.0457 -0.8182,0.10604 -1.71751,0.33711 -0.8993,0.23109 -2.51685,0.51385 -3.59457,0.62826 -1.69057,0.12746 -3.38051,0.15835 -5.06945,-0.0507 -1.2716,-0.0247 -4.78143,-0.79439 -5.55875,-1.21902 -0.18719,-0.10225 -0.31852,-0.15433 -0.3996,-0.15219 z"
       style="display:inline;fill:#e0e0e0;fill-opacity:1;stroke:#000000;stroke-width:0.0564661;stroke-dasharray:none;stroke-opacity:1"
       id="path908-8-0"
       sodipodi:nodetypes="scccsscscsccccccccsscssscccsccsssscsssccsss" /><path
       d="m 60.481603,78.848022 c -0.419963,0.0041 -0.708479,0.711913 -0.06725,0.959654 1.425212,0.01594 2.8505,0.03757 4.279781,0.280707 0.471606,0.03435 0.709094,-0.841439 0.07481,-0.973232 -1.391457,-0.01428 -2.881675,-0.01951 -4.201934,-0.258059 -0.02892,-0.0068 -0.05744,-0.0096 -0.08541,-0.0093 z"
       style="display:inline;fill:#e0e0e0;fill-opacity:1;stroke:#000000;stroke-width:0.0586143;stroke-dasharray:none;stroke-opacity:1"
       id="path1517-6-1"
       sodipodi:nodetypes="sccccss" /><path
       d="m 67.363667,79.193623 c -0.643617,0.139542 -0.396849,1.041249 0.08206,1.0032 1.415204,-0.126991 2.728045,-0.200362 4.346684,-0.313319 0.637585,-0.0039 0.47713,-1.093631 0.02875,-1.051129 -1.460532,0.285245 -2.986495,0.377395 -4.457498,0.361248 z"
       style="display:inline;fill:#e0e0e0;fill-opacity:1;stroke:#000000;stroke-width:0.0600101;stroke-dasharray:none;stroke-opacity:1"
       id="path1-2-5"
       sodipodi:nodetypes="cccccc" /><path
       id="rect986-2"
       style="display:inline;fill:#e0e0e0;stroke:#000000;stroke-width:0.0855702;stroke-linecap:round;paint-order:stroke fill markers"
       transform="matrix(0.85052889,0.52592833,-0.5181029,0.8553183,0,0)"
       d="m 79.574765,23.037968 c 0.40992,0 0.789471,0.334094 0.739927,0.743403 -0.136078,1.124215 -0.189144,2.25127 0,3.386615 0.06758,0.405643 -0.330007,0.743403 -0.739927,0.743403 -0.409919,0 -0.768546,-0.332291 -0.739926,-0.743403 0.07668,-1.101462 0.186135,-2.191209 0,-3.386615 -0.06328,-0.406375 0.330007,-0.743403 0.739926,-0.743403 z"
       sodipodi:nodetypes="sssssss" /><path
       id="path1-16-6-0-8-4-7"
       style="display:inline;fill:#e0e0e0;fill-opacity:1;stroke:#ec0000;stroke-width:0.013;stroke-dasharray:none;stroke-opacity:1"
       d="m 68.329819,83.108534 c 0.02632,0.0197 0.05235,0.0392 0.07752,0.0584 -0.03252,0.0655 0.450138,0.16615 0.840259,0.231 0.220068,0.0366 0.39896,0.11646 0.44235,0.1173 0.109186,0.002 0.782898,0.34572 0.782898,0.34572 0.405561,0.12236 0.822979,0.14007 1.252637,0.0682 0.384758,-0.0441 0.807024,0.0166 1.168404,-0.26304 0.105186,-0.0775 0.603306,-0.50901 0.756543,-0.73174 0.787228,-0.0609 1.388393,0.0519 1.599902,0.61909 2.150513,-1.69495 3.900545,-1.22185 5.328357,0.91674 1.86641,-0.58557 3.736797,-1.10128 6.074048,1.53789 3.694793,-3.15529 11.376811,-0.08366 12.330966,1.600905 0.662219,0.928004 0.853396,1.900967 0.330847,3.303642 -0.156395,1.11584 -7.466783,0.51932 -8.767916,0.6848 -3.208073,-0.0675 -6.309716,-0.30065 -9.262047,-0.24075 -4.027289,0.42919 -6.327995,2.6814 -6.58352,4.24669 -0.26404,1.46172 -1.504353,12.884639 -1.461163,13.718599 l -13.876614,0.16106 c -1.645284,-7.15856 0.761799,-17.01702 -6.505281,-18.628199 -5.468224,-0.151161 -13.08102,-0.75188 -18.660178,-0.15654 -0.871821,-0.38134 -0.85535,-1.863793 -0.69299,-2.428603 1.190494,-0.2914 3.021055,-0.468537 5.424195,-0.841495 1.724004,-2.481687 3.520541,-1.599497 5.292183,-0.819067 1.519742,-1.10664 3.07689,-2.17733 5.303552,-0.0563 0.670982,-1.48289 1.455752,-2.87816 4.867404,-2.26704 1.293214,-1.6528 2.902739,-2.16508 5.159375,-0.9555 0.769115,0.25307 1.481876,0.64029 2.577103,0.37724 0,0 1.074289,-0.28234 1.661914,-0.43719 0.67359,-0.41036 1.762718,-0.9164 2.744019,-0.90175 0.322673,0.005 0.621145,0.0827 0.896069,0.202043 l 0.638204,0.453707 c -0.01555,0.0311 0.09752,0.0579 0.260966,0.0842 v 3e-5"
       sodipodi:nodetypes="ccccccccccccccccccccccccccccccccc" /><path
       d="m 65.244443,72.186743 1.97481,-0.017 -0.01,0.49868 -1.28387,0.0121 0.0341,0.32346 1.22489,-0.024 0.007,0.52276 -1.91291,-0.005 z"
       style="display:inline;fill:#e0e0e0;fill-opacity:1;stroke:#000000;stroke-width:0.1;stroke-linecap:round;stroke-dasharray:none;paint-order:stroke fill markers"
       id="path1-5" /></g></svg>
