<?xml version="1.0" encoding="UTF-8" standalone="no"?>
<!-- Created with Inkscape (http://www.inkscape.org/) -->

<svg
   width="120.0mm"
   height="120.0mm"
   viewBox="0 0 120.0 120.0"
   version="1.1"
   id="svg1"
   xml:space="preserve"
   inkscape:version="1.1 (c68e22c387, 2021-05-23)"
   sodipodi:docname="BL_Santa.svg"
   xmlns:inkscape="http://www.inkscape.org/namespaces/inkscape"
   xmlns:sodipodi="http://sodipodi.sourceforge.net/DTD/sodipodi-0.dtd"
   xmlns="http://www.w3.org/2000/svg"
   xmlns:svg="http://www.w3.org/2000/svg"><sodipodi:namedview
     id="namedview1"
     pagecolor="#ffffff"
     bordercolor="#666666"
     borderopacity="1.0"
     inkscape:showpageshadow="2"
     inkscape:pageopacity="0.0"
     inkscape:pagecheckerboard="0"
     inkscape:deskcolor="#d1d1d1"
     inkscape:document-units="mm"
     inkscape:zoom="1.3736954"
     inkscape:cx="71.704397"
     inkscape:cy="228.21653"
     inkscape:window-width="1920"
     inkscape:window-height="1009"
     inkscape:window-x="-8"
     inkscape:window-y="-8"
     inkscape:window-maximized="1"
     inkscape:current-layer="g1961"
     inkscape:pageshadow="2"
     showgrid="false"
     borderlayer="true"
     showguides="false"
     inkscape:snap-global="false"><inkscape:grid
       spacingx="2.54"
       spacingy="2.54"
       empspacing="1"
       type="xygrid"
       units="mm"
       id="grid1929"
       originx="0"
       originy="0"
       visible="false" /></sodipodi:namedview><defs
     id="defs1" /><g
     inkscape:label="Ebene 1"
     inkscape:groupmode="layer"
     id="layer1"
     style="display:inline"><path
       style="fill:none;stroke:#000000;stroke-width:0.213415;stroke-dasharray:none;stroke-opacity:1"
       d="m -137.4986,274.25503 c -3.383,-0.0849 -5.42959,-0.21071 -5.68935,-0.34973 -0.82402,-0.44101 -0.80638,-0.3237 -1.44693,-9.61951 -0.14623,-2.12219 -0.37188,-4.19732 -0.50145,-4.61141 -0.47786,-1.52723 -1.69524,-3.00299 -3.05488,-3.70327 -0.91653,-0.47206 -4.40044,-0.52991 -11.03335,-0.72382 -3.11228,-0.091 -10.33653,0.42552 -12.70133,-1.04064 -1.08208,-1.21628 -1.04761,-2.00271 0.22232,-5.0726 2.46004,-5.94684 6.18475,-11.35734 11.20852,-16.28147 2.29463,-2.24912 2.35649,-2.69776 0.40451,-2.934 -1.39681,-0.16905 -3.68403,-0.62619 -4.23861,-0.84716 -0.27125,-0.10807 -0.58887,-0.40651 -0.70583,-0.66318 -0.46867,-1.02862 -0.26201,-1.8579 1.3005,-5.21883 3.81522,-8.20641 7.891,-14.61808 13.01675,-20.47686 0.60082,-0.68675 1.0924,-1.37238 1.0924,-1.52365 0,-0.49382 -0.63266,-0.86251 -2.16453,-1.26139 -2.6146,-0.6808 -2.62615,-1.1569 -0.11117,-4.58272 1.02583,-1.39735 2.03196,-2.74067 2.23584,-2.98518 0.20388,-0.24449 1.42897,-1.71503 2.72242,-3.26785 4.0583,-4.8721 10.1087,-11.15888 11.87891,-12.34301 0.96599,-0.64617 1.23929,-0.7383 2.19015,-0.7383 1.80308,0 3.05912,1.01591 7.81113,6.31779 3.72763,4.15896 8.46177,10.19129 11.26912,14.35933 1.54998,2.30124 1.42488,2.85398 -0.72878,3.22005 -1.72985,0.29403 -2.15577,0.58533 -2.41415,0.97416 -0.51922,0.78135 2.07148,3.45567 2.58659,4.22998 1.974,2.96727 4.44927,5.94775 5.89581,8.44866 2.48912,4.3034 6.4484,13.21598 6.4484,14.51574 0,0.67918 -0.48037,1.29577 -1.27463,1.6361 -0.78333,0.33565 -2.97115,0.69388 -4.2377,0.69388 -0.90413,0 -1.45182,0.40251 -1.45182,1.06697 0,0.22666 0.64716,1.01372 1.61286,1.96149 4.79191,4.703 8.649415,10.61173 11.232408,17.20522 0.94126,2.40272 1.01264,3.01185 0.4726,4.03307 -0.289682,0.5478 -0.694047,0.96492 -1.185123,1.22253 -0.705721,0.37019 -1.041103,0.39101 -6.297915,0.39101 -3.05387,0 -8.05112,-0.0423 -11.10499,-0.0941 l -5.5525,-0.0941 -1.07879,0.538 c -1.27943,0.63805 -2.2836,1.68957 -2.87982,3.0156 -0.33965,0.75543 -0.49781,1.67553 -0.73187,4.25755 -0.16423,1.81162 -0.44547,4.72113 -0.62501,6.46558 -0.44057,4.28091 -0.23884,4.08522 -4.16825,4.04374 -1.61634,-0.0171 -5.31645,-0.0907 -8.22246,-0.16364 z m 6.88353,-30.01475 c -0.25881,-0.14794 -0.70999,-0.27199 -1.00264,-0.27566 -1.02678,-0.0129 -1.97082,-1.44051 -1.47225,-2.22642 0.204,-0.32156 4.52126,-0.48138 4.88347,-0.18077 0.87668,0.72757 0.83334,2.33758 -0.074,2.75102 -0.63921,0.29125 -1.76322,0.25842 -2.33453,-0.0681 z m -9.53205,-0.13304 c -0.53241,-0.22532 -1.00829,-0.87616 -1.00829,-1.4332 0,-0.25671 0.24665,-0.67767 0.57897,-0.9881 l 0.57897,-0.54084 2.10317,0.1113 c 2.35004,0.12436 2.68114,0.29574 2.48709,1.28738 -0.15015,0.76737 -0.41671,0.98857 -1.61431,1.33963 -0.59209,0.17356 -1.08995,0.34003 -1.61113,0.39587 -0.61874,0.0663 -1.23068,-0.0519 -1.51447,-0.17204 z m 1.34446,-4.26975 c -0.74565,-0.11336 -0.75381,-0.12349 -0.85034,-1.05556 -0.10849,-1.04751 -0.27447,-1.41165 -0.64348,-1.41165 -0.1365,0 -0.35362,-0.12705 -0.48249,-0.28233 -0.28946,-0.34877 -0.0281,-0.37378 0.94234,-0.0901 1.30515,0.38146 3.30881,0.64737 5.95078,0.64828 2.88361,7.1e-4 4.03315,-0.0803 5.42858,-0.47696 0.74055,-0.21052 0.81586,-0.29561 0.734,-0.0821 -0.0537,0.1399 -0.22193,0.30206 -0.37388,0.36037 -0.33554,0.12876 -0.82394,1.24306 -0.82394,1.87982 0,0.42066 -0.0957,0.475 -1.04543,0.59367 -1.56224,0.19519 -2.77618,0.0275 -3.25307,-0.44941 -0.571,-0.571 -1.55596,-0.54309 -2.12829,0.0603 -0.3826,0.40335 -0.5978,0.46409 -1.57258,0.44384 -0.62112,-0.0129 -1.46811,-0.075 -1.8822,-0.13791 z m 1.78809,-3.72859 c -0.84686,-0.17961 -3.81904,-0.73584 -4.87814,-1.05858 -0.56186,-0.17121 -0.88355,-0.39427 -0.99221,-0.688 -0.20848,-0.56358 -0.0982,-0.65353 0.4429,-0.36133 0.84265,0.45503 4.64116,1.26882 6.01612,1.2889 0.37554,0.006 0.78822,0.13703 0.9171,0.29231 0.25192,0.30355 2.47255,0.26296 2.47255,-0.0275 0,-0.0857 0.92718,-0.10743 2.09179,-0.23679 1.16461,-0.12936 2.91202,-0.44346 3.88311,-0.69802 0.97111,-0.25456 1.80591,-0.42257 1.85512,-0.37336 0.0492,0.0492 -0.11749,0.29643 -0.37044,0.54939 -0.49156,0.49156 -2.17421,0.70415 -4.54935,1.25982 -1.31338,0.30726 -5.56013,0.33494 -6.88855,0.0532 z m -2.08783,-1.56241 c -2.09904,-0.45284 -3.57037,-0.92584 -3.98227,-1.28022 -0.26869,-0.23116 -0.48987,-1.35437 -0.2667,-1.35437 0.0345,0 0.85059,0.25324 1.81359,0.56276 1.73917,0.55898 4.52011,1.12947 5.51138,1.13063 0.46595,5.4e-4 0.5176,0.0664 0.5176,0.65936 v 0.65878 l -0.98816,-0.014 c -0.54349,-0.008 -1.71593,-0.17103 -2.60544,-0.36292 z m 1.99372,-1.44592 c -1.8069,-0.23186 -5.35189,-1.20217 -6.04047,-1.65334 -0.3604,-0.23615 -0.39015,-0.39225 -0.31242,-1.63921 l 0.0859,-1.37821 -1.22505,-0.79993 c -1.26047,-0.82307 -1.34875,-0.51468 -1.66803,-0.61652 -0.15405,-0.0492 -0.10922,-0.10757 0.0314,-0.31474 0.0767,-0.11304 1.72258,-2.92739 1.99999,-3.24021 0.0379,-0.0427 0.26969,0.0139 0.51516,0.12572 0.37469,0.17072 0.47795,0.41646 0.64339,1.53114 0.36115,2.43329 1.41588,4.11976 3.41516,5.46075 3.0778,2.06437 7.28717,2.32843 10.60912,0.66552 1.62827,-0.81509 2.40769,-1.41312 3.05031,-2.34042 0.6553,-0.9456 1.41221,-3.02384 1.41221,-3.87749 0,-0.57365 0.6134,-1.53743 0.6459,-0.92969 0.13337,2.49435 0.55304,3.73433 0.22733,3.89916 l -0.96734,0.48956 0.0667,1.5055 0.0667,1.50551 -1.10192,0.41474 c -2.54461,0.95774 -5.82427,1.44274 -7.8897,1.16675 -0.92074,-0.12303 -1.59498,-0.13099 -1.80005,-0.0213 -0.32656,0.17477 -0.69066,0.18439 -1.76429,0.0466 z m -11.69006,-8.06074 c -0.7599,-0.4456 -0.82659,-0.54557 -0.82659,-1.24384 0,-0.5884 0.1239,-0.88332 0.55019,-1.3096 0.58874,-0.58875 1.44814,-0.73341 1.87076,-0.31491 0.19029,0.18844 0.29333,0.17945 0.42343,-0.0941 0.46189,-0.97119 1.05314,-0.72776 1.18642,0.0294 0.0795,0.45166 0.26521,0.34738 -0.0127,0.75289 -0.53945,0.78726 -0.63206,0.93596 -1.11492,1.73408 -0.28138,0.44572 -0.52527,0.97625 -0.6081,1.16117 -0.56486,0.54816 -0.98414,-0.39895 -1.46852,-0.71513 z m 22.01428,-11.36789 c -1.30799,-1.62144 -8.23997,-2.04961 -12.2753,-0.75821 -0.65902,0.21089 -1.2266,0.35506 -1.2613,0.32036 -0.17204,-0.17204 0.86583,-1.8439 1.61528,-2.60198 1.04105,-1.05305 2.15055,-1.59961 3.77706,-1.86068 1.6752,-0.26887 2.53707,-0.25063 4.14577,0.0878 2.54633,0.53564 4.85838,2.08065 6.13143,4.09729 0.4301,0.68132 0.43967,0.74793 0.13898,0.9678 -0.17761,0.12987 -0.67047,0.239 -1.09525,0.2425 -0.61409,0.005 -0.85517,-0.0963 -1.17667,-0.49485 z"
       id="path1"
       sodipodi:nodetypes="sssssscsssssssssssssssssssssssssssssccssssssssssssssssscssssscsssscscsssssscccssscssssssssccssssccsscsscsssssssssssscccsscccsssssssssssssssssscss" /><path
       d="m -120.76145,227.119 c 0.87578,-0.0949 0.97759,-0.15876 1.26384,-0.79567 0.24121,-0.53668 0.2491,-0.85647 0.035,-1.42005 -0.29565,-0.77834 -1.02022,-1.2626 -1.57725,-1.05412 -0.25082,0.0939 -0.34112,0.0434 -0.34764,-0.25943 -0.0232,-1.07517 -0.66224,-1.09551 -1.09423,-0.4595 -0.25766,0.37937 -0.35292,0.20351 -0.29708,0.69191 0.10876,0.95133 0.0959,1.12492 0.20918,2.05084 0.0739,0.5219 0.17578,1.09368 0.17552,1.2963 0.29051,0.73155 1.06119,0.0395 1.63262,-0.0503 z"
       style="fill:none;stroke:#000000;stroke-width:0.213415;stroke-dasharray:none;stroke-opacity:1"
       id="path1-8"
       sodipodi:nodetypes="csssssscccc" /><ellipse
       style="opacity:1;fill:#000000;fill-opacity:0.121678;stroke:#000000;stroke-width:0.213415;stroke-linecap:round;stroke-dasharray:none;stroke-opacity:1;paint-order:stroke fill markers"
       id="path3"
       cx="-123.80514"
       cy="215.43083"
       rx="1.3893142"
       ry="1.4197371" /><path
       style="opacity:1;fill:#000000;fill-opacity:0.121678;stroke:#000000;stroke-width:0.0711384;stroke-linecap:round;stroke-dasharray:none;stroke-opacity:1;paint-order:stroke fill markers"
       d="m -134.8411,235.18011 c 0.43126,0.0714 0.92723,0.0656 1.39274,-2e-5 v -0.47231 c -0.33103,0.0553 -0.66206,0.0474 -0.99308,0 -0.0738,-0.19447 -0.0378,-0.39992 0,-0.60554 0.26467,-0.04 0.52619,-0.0823 0.96886,0 l -0.003,-0.36181 c -0.41331,-0.073 -0.88859,-0.10233 -1.14624,0.009 -0.10173,0.0441 -0.1623,0.084 -0.20819,0.21518 -0.091,0.26002 -0.10028,0.63885 -0.011,1.21519 z"
       id="path11"
       sodipodi:nodetypes="cccccccssc" /><path
       style="fill:#00fd00;fill-opacity:0.121678;stroke:#fe0000;stroke-width:0.0775408;stroke-linecap:round;stroke-dasharray:none;stroke-opacity:1;paint-order:stroke fill markers"
       d="m -347.35406,215.26474 c 0.42752,-0.82403 0.63145,-1.44796 1.66428,-2.69571 0.65587,-0.61402 1.36785,-1.24138 2.14799,-1.48262 1.01148,-0.4136 1.97453,-0.69118 2.98601,-0.71761 1.34037,-0.0402 1.99547,0.008 2.71197,0.0927 l 2.30924,0.66502 c 0.88969,0.37575 1.7783,0.84894 2.39365,1.38609 0.55481,0.52775 1.1644,1.02487 1.66134,1.78416 l 0.95911,1.53141 c 0.61934,-0.0108 0.9627,0.21052 1.24441,0.39418 0.32977,0.40346 0.51781,0.71467 0.55664,1.20747 0.005,0.87671 -0.45034,1.22521 -0.71935,1.49006 -0.52826,0.34589 -1.10958,0.34854 -1.52431,0.15415 -0.34845,-0.14877 -0.60383,-0.40923 -0.83924,-0.69365 -0.2563,-0.49482 -0.31303,-1.04666 -0.41961,-1.58426 0.0296,0.76426 0.0286,1.50857 -0.13998,2.13753 -0.0558,0.20798 -0.13636,0.39867 -0.1912,0.60832 -0.0433,0.16526 -0.13121,0.43495 -0.0837,0.69398 0.0273,0.14881 0.12854,0.27573 0.1494,0.3624 0.32619,0.21436 0.5993,0.50833 0.88204,0.78785 0.0317,0.31971 0.13687,0.63941 0,0.95912 l -0.20552,0.41106 c 0.52051,0.80853 0.80118,1.82002 1.02763,2.87737 0.27029,-0.30137 0.77738,-0.40079 1.15609,-0.28261 0.36707,-0.32248 0.67684,-0.78251 1.14752,-0.85635 0.30438,0.0434 0.83205,0.39986 0.76644,1.24599 0.6588,-0.15174 1.32329,0.21939 1.54145,0.57805 0.23294,0.37146 0.45503,0.7594 0.47956,1.18606 0.0711,0.56287 -0.21816,1.00855 -0.39821,1.4344 -0.30438,0.38408 -0.81854,0.50807 -1.25806,0.54649 -0.23846,0.0208 -0.40067,0.16769 -0.62593,0.25849 -0.31321,0.10492 -0.60004,0.11752 -0.86761,0.0627 -0.21946,0.21216 -0.37148,0.50037 -1.08524,0.36764 -0.25871,0.0913 -0.64936,0.30493 -0.9759,0.55449 l 0.16271,2.82599 c 0.12131,1.29111 -0.36679,2.31075 -0.87349,3.13427 -0.39459,0.72524 -0.79674,1.42027 -1.25885,1.87543 -0.38231,0.21564 -1.06137,0.4071 -1.13039,0.65084 -0.77281,0.84519 -1.40853,1.81642 -1.05333,2.52625 0.57186,0.30501 0.51606,1.05889 0.41106,1.413 l 0.1627,0.42818 c 0.44936,0.39946 0.50817,0.876 0.58815,1.27546 l -0.27793,1.02501 c -0.1452,0.20952 -0.2929,0.41799 -0.39257,0.49091 -0.34239,0.26303 -0.70829,0.2911 -1.07284,0.33262 -0.40709,0.0676 -0.8026,0.051 -1.18685,-0.0641 0,0 -0.6386,-0.32343 -0.74205,-0.32552 -0.041,-7.2e-4 -0.2105,-0.0759 -0.41901,-0.1103 -0.36963,-0.061 -0.8438,-0.10456 -0.813,-0.16618 l -0.67673,-0.48296 c -0.26584,-0.25983 -0.31743,-0.44825 -0.46167,-0.66756 -0.0579,-0.28417 -0.11425,-0.56929 -0.0605,-0.92042 0.0464,-0.18789 0.18792,-0.35471 0.34498,-0.47622 -0.21737,-0.17614 -0.37725,-0.45811 -0.32077,-0.77118 0.0458,-0.19993 0.17143,-0.32739 0.33141,-0.50449 0.14205,-0.0942 0.17273,-0.17135 -0.0472,-0.26558 -0.68092,-0.52762 -1.37287,-0.73737 -2.25823,0.007 -0.11038,0.20254 -0.0294,0.30939 0.13322,0.37543 0.28613,0.38776 0.30684,0.75989 -0.18166,1.10208 0.12212,0.24903 0.30305,0.48335 0.25432,0.77509 0.13483,0.53336 -0.16675,0.86305 -0.35121,1.24741 -0.51269,0.29829 -1.02537,0.50441 -1.53806,0.66609 -0.55676,0.14567 -1.22014,0.36749 -1.63495,0.41177 -0.48928,0.0341 -0.89598,-0.0309 -1.27163,-0.13322 -0.28174,-0.063 -0.58604,-0.18922 -0.98097,-0.56921 -0.28764,-0.33103 -0.34292,-0.57641 -0.46021,-0.90744 0.0556,-0.22354 0.0834,-0.56306 0.26644,-0.78807 0.29714,-0.44127 0.48988,-0.69469 1.03547,-1.07179 -0.53759,-0.4729 -0.25107,-0.88656 0.0407,-1.13435 0.0841,-0.0714 0.12973,-0.013 0.2197,-0.0828 0.003,-1.27469 -0.21622,-1.48218 -0.34204,-2.02872 -0.31368,-0.13971 -0.64101,-0.24871 -0.89326,-0.52664 l -0.83564,-0.90831 c -0.58739,-0.40885 -0.57352,-0.70636 -0.76297,-1.04152 -0.25218,-0.33796 -0.42175,-0.74819 -0.54498,-1.19897 l -0.37544,-1.24741 c -0.0511,-0.42016 -0.16293,-0.89004 -0.0484,-1.17474 -0.0756,-0.17654 -0.14098,-0.36157 -0.12111,-0.61765 -0.0243,-0.88411 0.0949,-1.62485 0.15744,-2.42215 -0.76739,-0.55651 -1.43947,-0.96328 -2.09516,-1.34429 -0.19378,0.0444 -0.38754,0.0933 -0.58132,0.0121 -0.21042,-0.0345 -0.26191,-0.1326 -0.31488,-0.2301 -0.51955,0.11261 -0.82855,-0.0831 -0.89601,-0.63248 l -0.1334,-0.0942 c -0.45255,-0.21939 -0.82702,-0.55589 -1.15052,-0.96886 l -0.7872,-0.59343 c -0.29181,-0.1496 -0.24297,-0.54901 -0.31488,-0.85986 -0.0793,-0.9672 0.68183,-1.94712 1.78028,-2.13755 0.41935,-0.0654 0.77557,0.027 1.06575,0.28461 0.11305,-0.19781 0.20644,-0.39562 0.41176,-0.59343 0.50313,-0.43422 0.88942,-0.25508 1.19897,0.32699 l 0.109,0.62976 c 0.0781,0.019 0.17482,0.0585 0.24873,0.0139 0.23398,-0.1413 0.9446,0.0767 0.87151,0.68251 l 0.7327,0.36938 0.36332,0.4481 c 0.0647,-0.87334 -0.0704,-1.67062 1.29585,-3.0398 -0.0754,-0.67691 -0.97584,-1.25481 0.41176,-2.10727 0.0172,-0.37815 -0.1503,-0.69364 0.16956,-1.04153 -0.16184,-0.21214 -0.27792,-0.25641 -0.37559,-0.48958 -0.41421,-0.98881 -0.4746,-2.537 0.92057,-3.5433 l 0.37543,-0.18166 c -0.22566,-0.0434 -0.44171,-0.0964 -0.47736,-0.32978 z"
       id="path12-3"
       sodipodi:nodetypes="cccccccccccccccssscccccccccccsccccccccccccccccssccccccccccccccccccccscccccccccccccccccccccccsccccccsccc" /></g><g
     inkscape:groupmode="layer"
     id="layer2"
     inkscape:label="bild"
     style="display:inline" /><g
     inkscape:label="[fixed] BG"
     inkscape:groupmode="layer"
     sodipodi:insensitive="true"
     id="g1947"
     style="display:inline"><rect
       x="0"
       y="0"
       width="120"
       height="120"
       style="fill:#ffffff;fill-opacity:1;stroke:none"
       id="rect1945" /></g><g
     inkscape:label="Edge.Cuts"
     inkscape:groupmode="layer"
     id="g1949"
     style="display:inline"><path
       id="path1-1"
       style="fill:none;stroke:#000000;stroke-width:0.806608;stroke-dasharray:none;stroke-opacity:1"
       d="M 239.314 41.084 L 238.211 41.0938 L 237.133 41.1993 L 236.08 41.3926 L 235.053 41.6641 L 234.051 42.0118 L 233.072 42.4258 L 232.117 42.8985 L 231.184 43.4278 L 229.383 44.6192 L 227.666 45.9453 L 226.023 47.3535 L 224.455 48.793 L 220.977 52.0762 L 217.543 55.4043 L 210.793 62.1758 L 204.193 69.0957 L 197.732 76.1446 L 191.393 83.3067 L 185.166 90.5684 L 179.037 97.9102 L 172.992 105.318 L 169.439 109.961 L 165.922 114.639 L 164.217 117.012 L 162.564 119.422 L 160.98 121.877 L 159.484 124.385 L 158.926 125.4 L 158.475 126.5 L 158.156 127.648 L 158 128.814 L 158.037 129.971 L 158.137 130.533 L 158.295 131.082 L 158.516 131.611 L 158.803 132.119 L 159.158 132.6 L 159.586 133.051 L 160.297 133.693 L 161.055 134.244 L 161.853 134.715 L 162.686 135.115 L 164.434 135.754 L 166.25 136.26 L 168.09 136.727 L 169.902 137.248 L 170.785 137.561 L 171.643 137.922 L 172.471 138.346 L 173.264 138.842 L 171.619 140.971 L 169.934 143.066 L 166.492 147.199 L 163.047 151.332 L 161.359 153.428 L 159.715 155.555 L 156.363 159.941 L 153.098 164.389 L 149.916 168.895 L 146.82 173.459 L 143.805 178.076 L 140.871 182.748 L 138.02 187.469 L 135.248 192.238 L 132.553 197.053 L 129.939 201.912 L 127.4 206.811 L 124.937 211.75 L 122.553 216.725 L 120.24 221.732 L 118.002 226.773 L 115.834 231.844 L 115.277 233.516 L 114.865 235.279 L 114.635 237.086 L 114.6 237.992 L 114.625 238.895 L 114.713 239.783 L 114.871 240.654 L 115.102 241.504 L 115.412 242.322 L 115.803 243.107 L 116.283 243.854 L 116.855 244.553 L 117.523 245.201 L 118.172 245.684 L 118.85 246.107 L 120.269 246.791 L 121.764 247.303 L 123.311 247.689 L 126.471 248.273 L 128.043 248.568 L 129.582 248.926 L 131.922 249.316 L 134.268 249.664 L 136.611 250.033 L 138.941 250.48 L 137.758 251.943 L 136.514 253.359 L 133.91 256.09 L 131.24 258.77 L 128.619 261.488 L 125.225 265.096 L 121.914 268.787 L 118.693 272.561 L 115.568 276.416 L 112.541 280.35 L 109.615 284.361 L 106.799 288.449 L 104.094 292.609 L 101.506 296.842 L 99.0371 301.145 L 96.6953 305.516 L 94.4824 309.951 L 92.4043 314.453 L 90.4648 319.016 L 88.666 323.641 L 87.0175 328.324 L 86.623 330.01 L 86.4492 331.736 L 86.4941 333.471 L 86.6015 334.328 L 86.7656 335.178 L 86.9863 336.012 L 87.2636 336.826 L 87.5996 337.617 L 87.9921 338.383 L 88.4453 339.115 L 88.957 339.814 L 89.5253 340.473 L 90.1562 341.088 L 91.7363 341.752 L 93.4355 342.359 L 95.2441 342.912 L 97.1582 343.41 L 99.1699 343.859 L 101.271 344.26 L 105.723 344.93 L 110.461 345.439 L 115.434 345.809 L 120.586 346.061 L 125.869 346.213 L 131.227 346.285 L 136.611 346.301 L 147.242 346.236 L 157.342 346.184 L 162.062 346.211 L 166.494 346.303 L 170.033 346.549 L 173.539 346.869 L 175.279 347.098 L 177.006 347.397 L 178.721 347.781 L 180.422 348.266 L 181.353 348.77 L 182.254 349.326 L 183.121 349.934 L 183.953 350.59 L 184.748 351.291 L 185.506 352.035 L 186.904 353.637 L 188.139 355.373 L 189.197 357.219 L 190.07 359.151 L 190.75 361.147 L 191.115 363.194 L 191.402 365.25 L 191.816 369.387 L 192.137 373.537 L 192.508 377.68 L 193.098 386.147 L 193.67 394.617 L 194.012 398.846 L 194.426 403.069 L 194.937 407.278 L 195.568 411.473 L 195.992 412.615 L 196.609 413.651 L 197.391 414.569 L 198.311 415.344 L 199.346 415.951 L 200.471 416.379 L 201.654 416.602 L 202.264 416.633 L 202.877 416.602 L 208.699 417.018 L 214.525 417.321 L 220.357 417.531 L 226.191 417.68 L 237.863 417.887 L 249.535 418.141 L 256.988 418.221 L 258.852 418.198 L 260.711 418.121 L 262.562 417.979 L 264.406 417.748 L 265.014 417.563 L 265.598 417.328 L 266.678 416.711 L 267.637 415.93 L 268.459 415 L 269.133 413.957 L 269.646 412.819 L 269.984 411.617 L 270.135 410.369 L 270.605 407.524 L 270.99 404.666 L 271.592 398.926 L 272.107 393.176 L 272.709 387.44 L 273.299 381.086 L 273.867 374.744 L 274.213 371.582 L 274.635 368.434 L 275.164 365.297 L 275.828 362.178 L 276.277 361.006 L 276.803 359.869 L 277.4 358.772 L 278.066 357.717 L 278.797 356.703 L 279.588 355.735 L 280.434 354.813 L 281.334 353.94 L 282.281 353.119 L 283.273 352.352 L 284.307 351.639 L 285.375 350.985 L 286.477 350.389 L 287.607 349.858 L 288.762 349.389 L 289.937 348.987 L 295.162 349.067 L 297.777 349.121 L 300.394 349.135 L 318.32 349.393 L 336.248 349.608 L 345.211 349.655 L 354.174 349.637 L 363.135 349.537 L 372.096 349.338 L 373.43 349.145 L 374.721 348.805 L 375.965 348.328 L 377.15 347.725 L 378.269 347.004 L 379.312 346.176 L 380.277 345.254 L 381.146 344.242 L 381.918 343.157 L 382.582 342.002 L 383.131 340.791 L 383.551 339.535 L 383.842 338.241 L 383.988 336.92 L 383.984 335.582 L 383.822 334.239 L 383.406 332.491 L 382.908 330.768 L 382.338 329.063 L 381.713 327.373 L 380.394 324.018 L 379.09 320.666 L 377.385 316.707 L 375.594 312.787 L 373.715 308.907 L 371.754 305.069 L 369.709 301.276 L 367.58 297.53 L 365.367 293.83 L 363.074 290.184 L 360.699 286.588 L 358.244 283.047 L 355.709 279.565 L 353.096 276.141 L 350.402 272.778 L 347.631 269.477 L 344.783 266.242 L 341.857 263.075 L 339.568 260.645 L 337.199 258.283 L 334.873 255.887 L 333.767 254.639 L 332.721 253.344 L 332.668 252.889 L 332.82 252.533 L 333.133 252.266 L 333.558 252.076 L 334.049 251.948 L 334.56 251.867 L 335.453 251.803 L 340.25 251.496 L 342.682 251.244 L 345.105 250.891 L 347.51 250.41 L 349.869 249.774 L 352.168 248.961 L 353.289 248.477 L 354.389 247.94 L 355.078 247.473 L 355.717 246.944 L 356.299 246.358 L 356.826 245.721 L 357.291 245.037 L 357.697 244.317 L 358.037 243.565 L 358.31 242.785 L 358.514 241.987 L 358.646 241.174 L 358.703 240.354 L 358.685 239.531 L 358.588 238.715 L 358.408 237.908 L 358.144 237.119 L 357.795 236.354 L 355.947 231.078 L 353.943 225.864 L 351.808 220.701 L 349.564 215.584 L 347.234 210.502 L 344.84 205.449 L 339.961 195.397 L 337.168 190.051 L 334.222 184.793 L 331.129 179.621 L 327.898 174.531 L 324.541 169.526 L 321.064 164.602 L 317.478 159.754 L 313.789 154.987 L 307.886 147.348 L 304.924 143.539 L 301.928 139.768 L 301.72 139.576 L 301.701 139.367 L 301.824 139.151 L 302.049 138.936 L 302.633 138.555 L 303.115 138.313 L 303.957 137.91 L 304.83 137.576 L 306.642 137.069 L 308.51 136.688 L 310.383 136.332 L 312.219 135.903 L 313.109 135.629 L 313.974 135.299 L 314.806 134.899 L 315.601 134.418 L 316.353 133.844 L 317.056 133.16 L 317.443 132.533 L 317.73 131.893 L 317.928 131.237 L 318.039 130.573 L 318.072 129.901 L 318.035 129.225 L 317.931 128.547 L 317.773 127.873 L 317.31 126.539 L 316.703 125.248 L 316.006 124.022 L 315.275 122.883 L 311.23 116.848 L 307.054 110.905 L 302.767 105.041 L 298.383 99.2483 L 293.918 93.5178 L 289.385 87.8381 L 280.187 76.594 L 273.508 68.7952 L 270.115 64.9377 L 266.672 61.1252 L 263.17 57.3674 L 259.599 53.676 L 255.951 50.0647 L 252.215 46.5413 L 250.828 45.4241 L 249.365 44.383 L 247.832 43.4455 L 246.236 42.633 L 244.58 41.967 L 242.871 41.4709 L 241.113 41.1702 L 240.219 41.0979 L 239.314 41.084 M 239.295 48.4219 L 239.635 48.4303 L 239.973 48.4555 L 240.309 48.4972 L 240.64 48.5551 L 240.968 48.6291 L 241.291 48.7188 L 241.609 48.8241 L 241.922 48.9447 L 242.228 49.0804 L 242.527 49.2309 L 242.819 49.3961 L 243.103 49.5756 L 243.379 49.7693 L 243.645 49.9769 L 243.902 50.1982 L 244.149 50.433 L 244.383 50.6797 L 244.604 50.9365 L 244.812 51.203 L 245.006 51.4786 L 245.185 51.7626 L 245.35 52.0546 L 245.501 52.354 L 245.636 52.6601 L 245.757 52.9726 L 245.862 53.2907 L 245.952 53.6139 L 246.025 53.9417 L 246.083 54.2734 L 246.125 54.6086 L 246.15 54.9467 L 246.158 55.2871 L 246.149 55.6403 L 246.123 55.9888 L 246.079 56.3323 L 246.019 56.6702 L 245.942 57.0023 L 245.85 57.328 L 245.742 57.6468 L 245.619 57.9585 L 245.481 58.2625 L 245.33 58.5584 L 245.164 58.8458 L 244.986 59.1243 L 244.795 59.3933 L 244.591 59.6526 L 244.375 59.9016 L 244.148 60.14 L 243.909 60.3672 L 243.66 60.583 L 243.401 60.7867 L 243.132 60.978 L 242.854 61.1566 L 242.566 61.3218 L 242.27 61.4734 L 241.966 61.6109 L 241.655 61.7338 L 241.336 61.8417 L 241.01 61.9342 L 240.678 62.0108 L 240.34 62.0712 L 239.997 62.1149 L 239.648 62.1414 L 239.295 62.1504 L 238.942 62.1414 L 238.593 62.1149 L 238.25 62.0712 L 237.912 62.0108 L 237.58 61.9342 L 237.254 61.8417 L 236.935 61.7338 L 236.624 61.6109 L 236.32 61.4734 L 236.024 61.3218 L 235.736 61.1566 L 235.458 60.978 L 235.189 60.7867 L 234.929 60.583 L 234.68 60.3672 L 234.442 60.14 L 234.215 59.9016 L 233.999 59.6526 L 233.795 59.3933 L 233.604 59.1243 L 233.425 58.8458 L 233.26 58.5584 L 233.109 58.2625 L 232.971 57.9585 L 232.848 57.6468 L 232.74 57.328 L 232.648 57.0023 L 232.571 56.6702 L 232.511 56.3323 L 232.467 55.9888 L 232.441 55.6403 L 232.432 55.2871 L 232.44 54.9467 L 232.465 54.6086 L 232.507 54.2734 L 232.565 53.9417 L 232.638 53.6139 L 232.728 53.2907 L 232.833 52.9726 L 232.954 52.6601 L 233.089 52.354 L 233.24 52.0546 L 233.405 51.7626 L 233.584 51.4786 L 233.778 51.203 L 233.985 50.9365 L 234.207 50.6797 L 234.441 50.433 L 234.688 50.1982 L 234.945 49.9769 L 235.211 49.7693 L 235.487 49.5756 L 235.771 49.3961 L 236.063 49.2309 L 236.362 49.0804 L 236.668 48.9447 L 236.981 48.8241 L 237.299 48.7188 L 237.622 48.6291 L 237.95 48.5551 L 238.281 48.4972 L 238.616 48.4555 L 238.955 48.4303 L 239.295 48.4219 L 239.295 48.4219"
       transform="scale(0.264583, 0.264583)" /></g><g
     inkscape:label="B.Cu"
     inkscape:groupmode="layer"
     id="g1951"
     style="display:inline" /><g
     inkscape:label="B.Mask"
     inkscape:groupmode="layer"
     id="g1953"
     style="display:inline"><path
       d="m 63.356368,43.419355 c 0.78331,5.3e-4 1.28601,0.0436 1.82339,0.10698 l 2.30937,0.66502 c 0.8897,0.37576 1.77822,0.84914 2.39356,1.38628 0.55482,0.52776 1.16433,1.02477 1.66127,1.78406 l 0.95911,1.53149 c 0.61934,-0.0108 0.96268,0.21042 1.24439,0.39409 0.32977,0.40346 0.51811,0.71446 0.55694,1.20726 0.005,0.87671 -0.45043,1.22546 -0.71943,1.49032 -0.52826,0.34588 -1.10977,0.34841 -1.52451,0.15403 -0.34845,-0.14877 -0.60386,-0.40928 -0.83927,-0.69369 -0.25631,-0.49482 -0.31288,-1.04647 -0.41945,-1.58407 0.0296,0.76426 0.0285,1.50837 -0.14006,2.13733 -0.0557,0.20798 -0.13632,0.39875 -0.19116,0.60841 -0.0432,0.16525 -0.13134,0.43503 -0.0838,0.69406 0.0273,0.14881 0.12876,0.27581 0.14962,0.36247 0.32619,0.21436 0.59916,0.50829 0.88191,0.7878 0.0317,0.31971 0.13687,0.63941 0,0.95912 l -0.2055,0.411 c 0.52051,0.80853 0.80104,1.81999 1.02749,2.87734 0.27029,-0.30137 0.77746,-0.40087 1.15616,-0.2827 0.36708,-0.32248 0.67703,-0.78233 1.14771,-0.85618 0.30438,0.0434 0.8321,0.39973 0.76648,1.24586 0.6588,-0.15174 1.32326,0.21923 1.54142,0.5779 0.23295,0.37146 0.45484,0.75964 0.47938,1.1863 0.0711,0.56287 -0.21809,1.00858 -0.39814,1.43444 -0.30438,0.38408 -0.81845,0.50786 -1.25798,0.54628 -0.23846,0.0208 -0.4008,0.16764 -0.62606,0.25844 -0.31321,0.10491 -0.60001,0.11771 -0.86757,0.0629 -0.21947,0.21216 -0.37146,0.50035 -1.08521,0.36762 -0.25871,0.0913 -0.64949,0.3048 -0.97603,0.55436 l 0.16286,2.82625 c 0.12131,1.2911 -0.36677,2.31079 -0.87346,3.13431 -0.39459,0.72524 -0.79662,1.42006 -1.25873,1.87522 -0.38231,0.21563 -1.06139,0.40694 -1.13042,0.65068 -0.77281,0.84519 -1.40879,1.81645 -1.05359,2.52627 0.57185,0.30501 0.51636,1.05901 0.41136,1.41312 l 0.16249,0.42828 c 0.44936,0.39946 0.50821,0.8758 0.58819,1.27527 l -0.27792,1.02528 c -0.1452,0.20952 -0.29296,0.41785 -0.39262,0.49077 -0.3424,0.26303 -0.70816,0.29117 -1.07271,0.33269 -0.40709,0.0676 -0.80278,0.0508 -1.18704,-0.0643 0,0 -0.6384,-0.32325 -0.74185,-0.32534 -0.0411,-8e-4 -0.21057,-0.0759 -0.41909,-0.11028 -0.36962,-0.061 -0.84397,-0.10455 -0.81317,-0.16617 l -0.67641,-0.48305 c -0.26584,-0.25983 -0.31749,-0.44828 -0.46173,-0.66759 -0.0579,-0.28417 -0.11434,-0.56903 -0.0607,-0.92015 0.0464,-0.1879 0.18776,-0.35492 0.34483,-0.47643 -0.21737,-0.17615 -0.37706,-0.45819 -0.32057,-0.77126 0.0458,-0.19994 0.17125,-0.32727 0.33123,-0.50437 0.14206,-0.0942 0.17291,-0.1712 -0.0471,-0.26543 -0.68093,-0.52762 -1.37292,-0.7375 -2.25828,0.007 -0.11038,0.20254 -0.0295,0.3093 0.13308,0.37534 0.28613,0.38775 0.3069,0.75993 -0.18161,1.10212 0.12212,0.24903 0.30312,0.4832 0.2544,0.77494 0.13482,0.53334 -0.16662,0.86333 -0.35108,1.24769 -0.51269,0.29829 -1.02542,0.50445 -1.53811,0.66612 -0.55676,0.14567 -1.22035,0.36746 -1.63517,0.41174 -0.48928,0.0341 -0.89594,-0.0312 -1.27159,-0.13345 -0.28174,-0.063 -0.58587,-0.18909 -0.9808,-0.56907 -0.28764,-0.33103 -0.34297,-0.57626 -0.46026,-0.90728 0.0557,-0.22354 0.0835,-0.56318 0.26652,-0.78818 0.29715,-0.44128 0.48964,-0.69486 1.03522,-1.07197 -0.53759,-0.47289 -0.25094,-0.88631 0.0408,-1.1341 0.0841,-0.0714 0.12985,-0.0132 0.21983,-0.0831 0.003,-1.27469 -0.21643,-1.48197 -0.34225,-2.02852 -0.31368,-0.1397 -0.64107,-0.24887 -0.89331,-0.5268 l -0.8356,-0.90839 c -0.58739,-0.40885 -0.57335,-0.7063 -0.7628,-1.04146 -0.25218,-0.33796 -0.42195,-0.74802 -0.54518,-1.1988 l -0.37534,-1.24732 c -0.0511,-0.42016 -0.163,-0.8902 -0.0485,-1.1749 -0.0756,-0.17655 -0.14082,-0.36152 -0.12095,-0.6176 -0.0242,-0.88411 0.0948,-1.62494 0.15734,-2.42224 -0.76738,-0.55651 -1.43935,-0.96337 -2.09505,-1.34438 -0.19377,0.0444 -0.38743,0.0934 -0.5812,0.0121 -0.21043,-0.0345 -0.26209,-0.13264 -0.31505,-0.23013 -0.51955,0.1126 -0.82842,-0.0829 -0.89589,-0.6323 l -0.13344,-0.0941 c -0.45255,-0.21939 -0.82715,-0.55608 -1.15065,-0.96905 l -0.78707,-0.59333 c -0.2918,-0.1496 -0.24313,-0.549 -0.31504,-0.85986 -0.0793,-0.9672 0.68192,-1.94728 1.78037,-2.1377 0.41935,-0.0654 0.77555,0.027 1.06572,0.28454 0.11306,-0.19781 0.20642,-0.39553 0.41173,-0.59334 0.50313,-0.43423 0.88963,-0.25489 1.19917,0.32718 l 0.10882,0.62974 c 0.0781,0.019 0.17497,0.0582 0.24888,0.0136 0.23398,-0.1413 0.94434,0.0768 0.87125,0.68266 l 0.73266,0.36946 0.36358,0.44812 c 0.0646,-0.87334 -0.0704,-1.67065 1.29585,-3.03983 -0.0754,-0.67691 -0.97587,-1.25472 0.41173,-2.10718 0.0173,-0.37815 -0.15038,-0.69394 0.16947,-1.04183 -0.16183,-0.21215 -0.27803,-0.25613 -0.3757,-0.4893 -0.4142,-0.98882 -0.47429,-2.53718 0.92088,-3.54347 l 0.37534,-0.1816 c -0.22567,-0.0434 -0.44189,-0.0964 -0.47754,-0.32976 0.42752,-0.82403 0.63138,-1.44798 1.66421,-2.69574 0.65587,-0.61402 1.36785,-1.24136 2.14799,-1.4826 1.01148,-0.4136 1.97468,-0.69117 2.98616,-0.71759 0.33509,-0.0101 0.62743,-0.0145 0.88853,-0.0143 z m -27.21625,39.76071 c 1.63345,-2.33461 3.35488,-1.50782 5.03346,-0.77364 1.43992,-1.041 2.89137,-2.02989 5.00107,-0.0346 0.63575,-1.395 1.39217,-2.69862 4.62464,-2.12373 1.22529,-1.55484 2.82877,-1.99443 4.96688,-0.85654 0.72872,0.23807 1.42865,0.52133 2.46635,0.27387 l 1.57561,-0.44519 1.26718,-0.54774 c 0.3218,-0.10267 0.64366,-0.20588 0.98926,-0.2294 v -3.8e-4 2.6e-4 c 0.11519,-0.008 0.23303,-0.007 0.35438,0.006 0.1618,0.0169 0.32976,0.0548 0.50621,0.12058 0.65302,0.2963 1.48825,0.92069 1.92632,0.83008 l 0.4029,0.0607 c 0.2705,0.0941 0.54801,0.15997 0.78781,0.37681 0.17784,0.0514 0.26879,0.12724 0.71943,0.10293 0.49266,-0.013 1.00565,-0.0354 1.47304,-0.2055 0.19114,-0.11711 0.40247,-0.21744 0.50143,-0.41136 l 0.28638,-0.37645 c 0.74588,-0.0573 1.34102,0.0487 1.54142,0.58231 2.03756,-1.59449 3.68244,-1.12147 5.03526,0.89037 1.76838,-0.55086 3.54057,-1.07808 5.75506,1.40467 4.27115,-2.34231 10.83935,0.16108 11.65312,1.71448 -0.70459,-1.27857 -1.50247,-2.5131 -2.25755,-3.76441 -2.82027,-4.67779 -6.59081,-10.19284 -9.88891,-14.46429 -1.41367,-1.83089 -1.54721,-2.32528 -0.82384,-3.04865 0.44479,-0.4448 0.55651,-0.4621 2.99793,-0.4621 2.51532,0 2.53892,-0.004 2.92587,-0.49592 0.21455,-0.27276 0.39004,-0.69604 0.39004,-0.94073 0,-2.058 -7.13603,-12.91287 -12.16594,-23.58158 -1.67381,-3.76922 -2.00808,-3.669041 0.81581,-4.146069 1.16793,-0.197294 1.21851,-0.135852 1.41812,-0.849167 -0.0189,-0.548862 -4.74832,-5.849239 -6.34767,-7.766893 -2.63706,-2.545781 -2.67402,-3.742429 -5.29581,-5.389097 -1.4584,-0.639897 -2.07845,-0.301712 -2.79554,-0.07674 -1.00524,0.65364 -4.56368,3.504523 -6.34752,5.331533 -3.4929,3.57736 -6.11217,7.229146 -6.41861,7.685321 -0.47668,0.509009 -0.92698,1.147374 0.94408,1.080564 1.68359,-0.0601 2.0033,-0.14983 2.46819,0.35181 0.5501,0.59358 0.22591,1.16922 -0.0768,1.84765 -1.88033,4.21359 -4.94722,9.08975 -7.71961,14.14372 -0.3159,0.57589 -1.18144,2.18534 -1.91161,3.5828 -0.73017,1.39754 -1.80909,3.4304 -2.39761,4.51729 -1.22839,2.26882 -1.43133,3.09547 -0.91389,3.72067 0.31442,0.37983 0.56748,0.43081 2.60677,0.52642 2.97217,0.13935 3.06095,0.16333 3.4229,0.92235 0.36119,0.75744 0.33188,0.81656 -1.53003,3.11226 -6.9439,8.56158 -13.01981,17.98587 -13.01771,18.741158 l 5.05176,-0.936428"
       style="display:inline;fill:#000403;fill-opacity:1;stroke:#000000;stroke-width:0.0564661;stroke-dasharray:none;stroke-opacity:1"
       id="path1230-6-7-0"
       sodipodi:nodetypes="ccsssssccssssccssscccssssscccssccccccccccccccsssccccccccccccccccccccccccccccscccccccccccccccccccccscccccccccccccccccccccccscccccccsccccsscccccccccccccccccc" /></g><g
     inkscape:label="B.SilkS"
     inkscape:groupmode="layer"
     id="g1955"
     style="display:inline" /><g
     inkscape:label="F.Cu"
     inkscape:groupmode="layer"
     id="g1957"
     style="display:inline" /><g
     inkscape:label="F.Mask"
     inkscape:groupmode="layer"
     id="g1959"
     style="display:inline"><path
       d="m 63.326435,43.555858 c 0.783302,5.3e-4 1.28601,0.0436 1.823384,0.10698 l 2.309376,0.66502 c 0.889691,0.37576 1.778217,0.84914 2.393559,1.38628 0.55482,0.52776 1.16433,1.02477 1.661266,1.78406 l 0.959114,1.53149 c 0.619337,-0.0108 0.962676,0.21042 1.244386,0.39409 0.329769,0.40346 0.518115,0.71446 0.556943,1.20726 0.0047,0.87671 -0.45043,1.22546 -0.719429,1.49032 -0.528259,0.34588 -1.109776,0.34841 -1.524511,0.15403 -0.348451,-0.14877 -0.603864,-0.40928 -0.839271,-0.69369 -0.256307,-0.49482 -0.312881,-1.04647 -0.419452,-1.58407 0.0296,0.76426 0.02851,1.50837 -0.140063,2.13733 -0.05574,0.20798 -0.136321,0.39875 -0.191161,0.60841 -0.04322,0.16525 -0.131337,0.43503 -0.08382,0.69406 0.0273,0.14881 0.128767,0.27581 0.149619,0.36247 0.326192,0.21436 0.599168,0.50829 0.881915,0.7878 0.03171,0.31971 0.136866,0.63941 0,0.95912 l -0.205497,0.411 c 0.520507,0.80853 0.801039,1.81999 1.027491,2.87734 0.270288,-0.30137 0.777452,-0.40087 1.156158,-0.2827 0.367077,-0.32248 0.677026,-0.78233 1.147704,-0.85618 0.304385,0.0434 0.832099,0.39973 0.766482,1.24586 0.658799,-0.15174 1.323263,0.21923 1.541423,0.5779 0.232944,0.37146 0.454842,0.75964 0.479374,1.1863 0.07114,0.56287 -0.218085,1.00858 -0.398131,1.43444 -0.304385,0.38408 -0.818457,0.50786 -1.257988,0.54628 -0.238453,0.0208 -0.400794,0.16764 -0.626055,0.25844 -0.313208,0.10491 -0.600014,0.11771 -0.867576,0.0629 -0.219467,0.21216 -0.371454,0.50035 -1.08521,0.36762 -0.258704,0.0913 -0.649486,0.3048 -0.976024,0.55436 l 0.162856,2.82625 c 0.121317,1.2911 -0.366771,2.31079 -0.873461,3.13431 -0.394591,0.72524 -0.796613,1.42006 -1.258723,1.87522 -0.38231,0.21563 -1.061395,0.40694 -1.130425,0.65068 -0.772811,0.84519 -1.408792,1.81645 -1.053592,2.52627 0.57185,0.30501 0.516366,1.05901 0.411364,1.41312 l 0.162486,0.42828 c 0.44936,0.39946 0.508209,0.8758 0.58819,1.27527 l -0.277921,1.02528 c -0.145196,0.20952 -0.292952,0.41785 -0.392615,0.49077 -0.342398,0.26303 -0.70816,0.29117 -1.072709,0.33269 -0.40709,0.0676 -0.802782,0.0508 -1.187037,-0.0643 0,0 -0.6384,-0.32325 -0.741854,-0.32534 -0.04108,-8e-4 -0.210569,-0.0759 -0.419085,-0.11028 -0.369628,-0.061 -0.843975,-0.10455 -0.81317,-0.16617 l -0.676415,-0.48305 c -0.265838,-0.25983 -0.317487,-0.44828 -0.46173,-0.66759 -0.05791,-0.28417 -0.11434,-0.56903 -0.06066,-0.92015 0.04641,-0.1879 0.187764,-0.35492 0.344826,-0.47643 -0.217366,-0.17615 -0.377052,-0.45819 -0.320564,-0.77126 0.04581,-0.19994 0.171252,-0.32727 0.331224,-0.50437 0.14206,-0.0942 0.172911,-0.1712 -0.04706,-0.26543 -0.680922,-0.52762 -1.372918,-0.7375 -2.258275,0.007 -0.110379,0.20254 -0.02954,0.3093 0.133075,0.37534 0.286134,0.38775 0.306904,0.75993 -0.181602,1.10212 0.122121,0.24903 0.303115,0.4832 0.254392,0.77494 0.134826,0.53334 -0.166616,0.86333 -0.351076,1.24769 -0.512686,0.29829 -1.025424,0.50445 -1.538113,0.66612 -0.556757,0.14567 -1.220351,0.36746 -1.635162,0.41174 -0.489281,0.0341 -0.89594,-0.0312 -1.271591,-0.13345 -0.281739,-0.063 -0.585869,-0.18909 -0.980805,-0.56907 -0.287642,-0.33103 -0.342971,-0.57626 -0.460258,-0.90728 0.05565,-0.22354 0.08347,-0.56318 0.266522,-0.78818 0.297146,-0.44128 0.489636,-0.69486 1.035214,-1.07197 -0.537583,-0.47289 -0.250941,-0.88631 0.04081,-1.1341 0.08409,-0.0714 0.129857,-0.0132 0.219834,-0.0831 0.0027,-1.27469 -0.216434,-1.48197 -0.342252,-2.02852 -0.313684,-0.1397 -0.641064,-0.24887 -0.893312,-0.5268 l -0.835594,-0.90839 c -0.587393,-0.40885 -0.573353,-0.7063 -0.762803,-1.04146 -0.25218,-0.33796 -0.42195,-0.74802 -0.54518,-1.1988 l -0.37534,-1.24732 c -0.0511,-0.42016 -0.163,-0.8902 -0.0485,-1.1749 -0.0756,-0.17655 -0.14082,-0.36152 -0.12095,-0.6176 -0.0242,-0.88411 0.0948,-1.62494 0.15734,-2.42224 -0.76738,-0.55651 -1.43935,-0.96337 -2.09505,-1.34438 -0.19377,0.0444 -0.38743,0.0934 -0.5812,0.0121 -0.21043,-0.0345 -0.26209,-0.13264 -0.31505,-0.23013 -0.51955,0.1126 -0.82842,-0.0829 -0.89589,-0.6323 l -0.13344,-0.0941 c -0.45255,-0.21939 -0.82715,-0.55608 -1.15065,-0.96905 l -0.78707,-0.59333 c -0.2918,-0.1496 -0.24313,-0.549 -0.31504,-0.85986 -0.0793,-0.9672 0.68192,-1.94728 1.78037,-2.1377 0.41935,-0.0654 0.77555,0.027 1.06572,0.28454 0.11306,-0.19781 0.20642,-0.39553 0.41173,-0.59334 0.50313,-0.43423 0.88963,-0.25489 1.19917,0.32718 l 0.10882,0.62974 c 0.0781,0.019 0.17497,0.0582 0.24888,0.0136 0.23398,-0.1413 0.94434,0.0768 0.87125,0.68266 l 0.73266,0.36946 0.36358,0.44812 c 0.0646,-0.87334 -0.0704,-1.67065 1.295848,-3.03983 -0.07538,-0.67691 -0.975868,-1.25472 0.411734,-2.10718 0.01725,-0.37815 -0.150381,-0.69394 0.169471,-1.04183 -0.161835,-0.21215 -0.278032,-0.25613 -0.375705,-0.4893 -0.4142,-0.98882 -0.474288,-2.53718 0.920882,-3.54347 l 0.375338,-0.1816 c -0.225666,-0.0434 -0.441889,-0.0964 -0.477533,-0.32976 0.427516,-0.82403 0.631377,-1.44798 1.664205,-2.69574 0.655873,-0.61402 1.367854,-1.24136 2.147991,-1.4826 1.011481,-0.4136 1.974678,-0.69117 2.986159,-0.71759 0.335092,-0.0101 0.627433,-0.0145 0.888532,-0.0143 z M 36.11018,83.316568 c 1.63345,-2.33461 3.35488,-1.50782 5.03346,-0.77364 1.43992,-1.041 2.89137,-2.02989 5.00107,-0.0346 0.63575,-1.395 1.39217,-2.69862 4.62464,-2.12373 1.22529,-1.55484 2.82877,-1.99443 4.96688,-0.85654 0.72872,0.23807 1.428646,0.52133 2.466348,0.27387 l 1.57561,-0.44519 1.267179,-0.54774 c 0.321808,-0.10267 0.643665,-0.20588 0.989259,-0.2294 v -3.8e-4 2.6e-4 c 0.115199,-0.008 0.233032,-0.007 0.354385,0.006 0.161801,0.0169 0.329756,0.0548 0.506209,0.12058 0.653016,0.2963 1.48825,0.92069 1.926318,0.83008 l 0.402907,0.0607 c 0.270492,0.0941 0.548003,0.15997 0.787805,0.37681 0.177837,0.0514 0.268793,0.12724 0.719429,0.10293 0.492659,-0.013 1.005654,-0.0354 1.473043,-0.2055 0.191143,-0.11711 0.402471,-0.21744 0.501433,-0.41136 l 0.286372,-0.37645 c 0.745879,-0.0573 1.341022,0.0487 1.541423,0.58231 2.037564,-1.59449 3.682439,-1.12147 5.035262,0.89037 1.768377,-0.55086 3.540566,-1.07808 5.755058,1.40467 4.271155,-2.34231 10.839351,0.16108 11.653116,1.71448 -0.70459,-1.27857 -1.50247,-2.5131 -2.257541,-3.76441 -2.820278,-4.67779 -6.590816,-10.19284 -9.888919,-14.46429 -1.413663,-1.83089 -1.547201,-2.32528 -0.823833,-3.04865 0.444786,-0.4448 0.556506,-0.4621 2.997925,-0.4621 2.515325,0 2.538926,-0.004 2.925871,-0.49592 0.214554,-0.27276 0.390041,-0.69604 0.390041,-0.94073 0,-2.058 -7.136032,-12.91287 -12.165944,-23.58158 -1.673804,-3.76922 -2.008071,-3.669041 0.815811,-4.146069 1.167931,-0.197294 1.218513,-0.135852 1.41812,-0.849167 -0.01891,-0.548862 -4.748313,-5.849239 -6.347671,-7.766893 -2.63706,-2.545781 -2.674017,-3.742429 -5.295809,-5.389097 -1.458401,-0.639897 -2.078447,-0.301712 -2.795534,-0.07674 -1.005242,0.65364 -4.563683,3.504523 -6.34752,5.331533 -3.492898,3.57736 -6.112175,7.229146 -6.418611,7.685321 -0.476678,0.509009 -0.926982,1.147374 0.944078,1.080564 1.68359,-0.0601 2.0033,-0.14983 2.46819,0.35181 0.5501,0.59358 0.22591,1.16922 -0.0768,1.84765 -1.88033,4.21359 -4.94722,9.08975 -7.71961,14.14372 -0.3159,0.57589 -1.18144,2.18534 -1.91161,3.5828 -0.73017,1.39754 -1.80909,3.4304 -2.39761,4.51729 -1.22839,2.26882 -1.43133,3.09547 -0.91389,3.72067 0.31442,0.37983 0.56748,0.43081 2.60677,0.52642 2.97217,0.13935 3.06095,0.16333 3.4229,0.92235 0.36119,0.75744 0.33188,0.81656 -1.53003,3.11226 -6.9439,8.56158 -13.01981,17.98587 -13.01771,18.741158 l 5.05176,-0.936428"
       style="display:inline;fill:#000403;fill-opacity:1;stroke:#000000;stroke-width:0.0564661;stroke-dasharray:none;stroke-opacity:1"
       id="path1230-6-7"
       sodipodi:nodetypes="ccsssssccssssccssscccssssscccssccccccccccccccsssccccccccccccccccccccccccccccscccccccccccccccccccccscccccccccccccccccccccccscccccccsccccsscccccccccccccccccc" /></g><g
     inkscape:label="F.SilkS"
     inkscape:groupmode="layer"
     id="g1961"
     style="display:inline"><path
       id="path4"
       style="display:inline;opacity:1;fill:#000000;fill-opacity:0.121678;stroke:#000000;stroke-width:0.213415;stroke-linecap:round;stroke-dasharray:none;stroke-opacity:1;paint-order:stroke fill markers"
       d="m 63.286025,47.797352 c -0.169688,-0.003 -0.340636,-0.003 -0.513194,0.001 -0.230077,0.005 -0.463203,0.0175 -0.699577,0.0375 -0.930191,-0.0486 -2.070706,0.17328 -3.148647,0.31468 -0.986262,0.20466 -1.933772,0.46465 -2.761177,0.89625 -0.518236,0.31118 -0.818834,0.76738 -1.138512,1.21093 -0.203877,0.83983 -0.161322,1.46616 -0.02426,2.0105 0.131339,0.26458 0.318144,0.50457 0.653992,0.67825 -0.300459,0.37064 -0.38036,0.77046 -0.338944,1.18668 -0.22979,0.13106 -0.447032,0.33778 -0.653992,0.60583 -0.255803,0.52061 0.190506,1.24439 0.314682,1.42893 -0.632154,0.76761 -1.339817,1.4809 -1.356143,2.68839 -0.149568,0.96887 -0.03528,1.93789 0.363206,2.90675 0.416021,1.20824 1.070517,2.2575 2.034398,3.10049 -0.03036,0.0304 3.307883,1.99633 3.487957,1.96161 0.121107,0.0861 3.681693,0.52915 3.681693,0.4121 1.326945,-0.0437 2.555855,-0.25144 3.609272,-0.75104 1.314371,-0.64923 2.649057,-1.2577 3.608903,-2.61597 0.660397,-1.45527 1.289912,-2.94758 1.501719,-4.94115 -0.223729,-1.29023 -0.627991,-2.3277 -1.307984,-2.97917 0.170255,-0.0544 0.333239,-0.13056 0.435995,-0.38747 0.135341,-0.19026 0.06107,-0.50055 0.04853,-0.77531 -0.269286,-0.34694 -0.609066,-0.5883 -0.969041,-0.7992 0.04891,-0.14298 0.06952,-0.42819 0.07279,-0.7992 -0.0305,-1.14691 1.163215,-1.7721 -0.145209,-3.4637 -0.243113,-0.2885 -0.563562,-0.53084 -0.920515,-0.75104 -0.540377,-0.37845 -1.219197,-0.51478 -1.84103,-0.75067 -0.765283,-0.15283 -1.615884,-0.25459 -2.494654,-0.33932 -0.493689,-0.044 -0.991182,-0.079 -1.500249,-0.0871 z m -0.10183,4.22135 c 1.687855,0.0141 3.417819,0.28572 5.18672,0.9525 0.249425,0.2314 0.594078,0.31993 0.678255,0.7992 l 0.01176,1.59841 c -0.02482,0.24975 -0.334622,0.53247 -0.76685,0.51061 -1.165159,0.34115 -2.267809,-0.53662 -3.350469,-0.85544 -0.108026,-0.43043 -1.102494,-1.36985 -1.12197,-1.38077 -0.152554,-0.0855 -1.813639,-0.15611 -1.954624,-0.004 -0.468915,0.36961 -0.90356,0.84773 -1.004699,1.36643 l -2.736914,0.872 c -0.849018,0.17517 -1.286179,-0.1647 -1.623033,-0.62973 l -0.14521,-1.40504 c 0.09965,-0.4027 0.240741,-0.74993 0.532679,-0.89625 v 3.6e-4 c 2.023694,-0.53892 4.124252,-0.94633 6.294352,-0.92823 z m 1.735156,0.9661 a 0.53094289,0.5138157 0 0 0 -0.53084,0.51356 0.53094289,0.5138157 0 0 0 0.53084,0.51394 0.53094289,0.5138157 0 0 0 0.53084,-0.51394 0.53094289,0.5138157 0 0 0 -0.53084,-0.51356 z m -4.050045,0.0224 a 0.53094289,0.5138157 0 0 0 -0.531208,0.51357 0.53094289,0.5138157 0 0 0 0.531208,0.51393 0.53094289,0.5138157 0 0 0 0.53084,-0.51393 0.53094289,0.5138157 0 0 0 -0.53084,-0.51357 z m 1.906466,1.15065 a 1.5986192,1.0536355 0 0 1 1.59877,1.05359 1.5986192,1.0536355 0 0 1 -1.59877,1.0536 1.5986192,1.0536355 0 0 1 -1.598403,-1.0536 1.5986192,1.0536355 0 0 1 1.598403,-1.05359 z" /><path
       d="m 68.310979,79.853093 c -0.342398,0.26303 -0.742211,0.206049 -1.106757,0.247569 -0.407093,0.0676 -0.802785,0.0508 -1.187039,-0.0643 0,0 -0.6384,-0.32325 -0.741852,-0.32534 -0.04108,-7.9e-4 -0.210569,-0.0759 -0.419085,-0.11028 -0.36963,-0.061 -0.826954,-0.155623 -0.796146,-0.217243 -0.428043,-0.3245 -1.033165,-0.740036 -1.774186,-0.751078 -0.929761,-0.01385 -1.961601,0.462398 -2.59981,0.848444 -0.55676,0.14567 -1.575005,0.410965 -1.575005,0.410965 -1.037702,0.24746 -1.712697,-0.116488 -2.441418,-0.354558 -2.138113,-1.13789 -3.663347,-0.656167 -4.888638,0.898673 -3.232465,-0.57489 -3.975942,0.737794 -4.611686,2.132794 -2.109703,-1.99529 -3.585227,-0.988343 -5.025151,0.05266 -1.678582,-0.73418 -3.380433,-1.563695 -5.013888,0.770915 -2.27692,0.350845 -3.955089,0.716453 -5.061774,0.913207 0.08753,0.46855 0.757937,1.790979 1.629758,2.172319 5.446493,-0.19734 10.776765,-0.483095 16.291761,-1.892405 3.155755,-0.1898 4.116772,0.65179 4.881765,1.05941 4.50835,3.74685 2.20785,8.328922 2.979909,13.600762 l 9.831206,0.2055 c 0.03338,-0.69769 0.391091,-3.86171 0.323871,-5.77271 -0.03794,-1.078572 0.06548,-2.126262 0.188219,-3.183572 0.265399,-1.32942 0.914263,-2.58601 1.819709,-3.57655 1.076241,-1.31056 2.580879,-1.98214 4.416193,-1.81567 1.278815,0.0757 2.509199,0.27473 3.836458,0.6812 2.935748,0.70296 5.937893,1.25115 9.145966,1.31865 1.80404,0.15669 3.608072,0.39566 5.412065,0.20549 0.373782,-0.0991 1.180663,-0.313422 1.268623,-1.486102 0.100724,-0.98085 0.229179,-1.207507 -0.119238,-2.148268 -0.813766,-1.5534 -7.356503,-3.959343 -11.627661,-1.617033 -2.214489,-2.48275 -3.986681,-1.997663 -5.755058,-1.446803 -1.35282,-2.01184 -3.010517,-2.457081 -5.048079,-0.862591 -0.200403,-0.53361 -0.77001,-0.63961 -1.515887,-0.58231 -0.145198,0.20952 -0.617485,0.615338 -0.717145,0.688258 z"
       style="display:inline;fill:#000000;fill-opacity:0.121569;stroke:#000000;stroke-width:0.0564661;stroke-dasharray:none;stroke-opacity:1"
       id="path1977"
       sodipodi:nodetypes="ccccccscccccccccccccscccccccccccccc" /><path
       id="path1-16"
       style="display:inline;fill:#fa0000;fill-opacity:1;stroke:#000000;stroke-width:0.806608;stroke-dasharray:none;stroke-opacity:1"
       d="m 238.5,40.740234 -1.10352,0.0098 -1.07812,0.105469 -1.05274,0.193359 -1.02734,0.271484 -1.00195,0.347657 -0.97852,0.414062 -0.95508,0.472657 -0.93359,0.529296 -1.80078,1.191407 -1.7168,1.326171 -1.64258,1.408204 -1.56836,1.439453 -3.47851,3.283203 -3.43359,3.328125 -6.75,6.771484 -6.59961,6.919922 -6.46094,7.048828 -6.33985,7.16211 -6.22656,7.261718 -6.1289,7.341797 -6.04493,7.4082 -3.55273,4.64258 -3.51758,4.67773 -1.70508,2.37305 -1.65234,2.41015 -1.58398,2.45508 -1.4961,2.50782 -0.55859,1.01562 -0.45117,1.09961 -0.31836,1.14844 -0.15625,1.16601 0.0371,1.15625 0.0996,0.5625 0.1582,0.54883 0.2207,0.5293 0.28711,0.50781 0.35547,0.48047 0.42773,0.45117 0.71094,0.64258 0.75781,0.55078 0.79883,0.4707 0.83203,0.40039 1.74805,0.63868 1.81641,0.50586 1.83984,0.46679 1.8125,0.52149 0.88281,0.3125 0.85742,0.36132 0.82813,0.42383 0.79297,0.4961 -1.64453,2.1289 -1.68555,2.09571 -3.44141,4.13281 -3.44531,4.13281 -1.6875,2.0957 -1.64453,2.12696 -3.35156,4.38672 -3.26563,4.44726 -3.18164,4.50586 -3.0957,4.56445 -3.01563,4.61719 -2.93359,4.67188 -2.85156,4.7207 -2.77149,4.76953 -2.69531,4.81445 -2.61328,4.85938 -2.53906,4.89844 -2.46289,4.93945 -2.38477,4.97461 -2.3125,5.00781 -2.23828,5.04102 -2.16797,5.07031 -0.55664,1.67188 -0.41211,1.76367 -0.23047,1.80664 -0.0352,0.90625 0.0254,0.90234 0.0879,0.88867 0.1582,0.8711 0.23047,0.84961 0.31055,0.81836 0.39062,0.78515 0.48047,0.7461 0.57227,0.69921 0.66796,0.64844 0.64844,0.48242 0.67774,0.42383 1.41992,0.6836 1.49414,0.51171 1.54687,0.38672 3.16016,0.58399 1.57227,0.29492 1.53906,0.35742 2.33984,0.39063 2.3457,0.34765 2.34376,0.36914 2.33007,0.44727 -1.18359,1.46289 -1.24414,1.41601 -2.60352,2.73047 -2.66992,2.67969 -2.62109,2.71875 -3.39453,3.60742 -3.31055,3.69141 -3.2207,3.77344 -3.125,3.85547 -3.02735,3.93359 -2.92578,4.01172 -2.8164,4.08789 -2.70508,4.16015 -2.58789,4.23243 -2.468754,4.30273 -2.341797,4.3711 -2.21289,4.43554 -2.078125,4.50196 -1.939453,4.5625 -1.798829,4.625 -1.648437,4.68359 -0.394531,1.68555 -0.173828,1.72656 0.04492,1.73437 0.107421,0.85743 0.164063,0.8496 0.220703,0.83399 0.277344,0.81445 0.335937,0.79102 0.392578,0.76562 0.453125,0.73242 0.511719,0.69922 0.56836,0.65821 0.630859,0.61523 1.580078,0.66406 1.699219,0.60742 1.808594,0.55274 1.914062,0.49805 2.011719,0.44921 2.101563,0.4004 4.45117,0.66992 4.73828,0.50976 4.97266,0.36914 5.15234,0.25196 5.28321,0.15234 5.35742,0.0723 5.38477,0.0156 10.63085,-0.0644 10.09961,-0.0527 4.72071,0.0274 4.43164,0.0918 3.53906,0.2461 3.50586,0.32031 1.74023,0.22852 1.72657,0.29882 1.71484,0.38477 1.70117,0.48438 0.93164,0.5039 0.90039,0.55664 0.86719,0.60742 0.83203,0.65625 0.79492,0.70118 0.75782,0.74414 1.39843,1.60156 1.23438,1.73633 1.05859,1.8457 0.87305,1.93164 0.67969,1.99609 0.36523,2.04688 0.28711,2.05664 0.41406,4.13672 0.32032,4.15039 0.37109,4.14258 0.58984,8.46679 0.57227,8.47071 0.3418,4.22851 0.41406,4.22266 0.51172,4.20898 0.63086,4.19532 0.42382,1.14062 0.61719,1.03711 0.78125,0.91797 0.91992,0.77539 1.03516,0.60742 1.125,0.42774 1.18359,0.22265 0.60938,0.0293 0.61328,-0.0293 5.82227,0.41602 5.82617,0.30273 5.83203,0.21094 5.83398,0.14844 11.67188,0.20703 11.67187,0.25391 7.45313,0.0801 1.86328,-0.0234 1.85937,-0.0762 1.85157,-0.14257 1.84375,-0.23047 0.60742,-0.18555 0.58398,-0.23437 1.08008,-0.61719 0.95899,-0.78125 0.82226,-0.92969 0.67383,-1.04297 0.51367,-1.13867 0.33789,-1.20117 0.15039,-1.24805 0.47071,-2.8457 0.38476,-2.85742 0.60156,-5.74024 0.51563,-5.75 0.60156,-5.73633 0.58985,-6.35351 0.56835,-6.3418 0.34571,-3.16211 0.42187,-3.14844 0.5293,-3.13672 0.66406,-3.11914 0.44922,-1.17187 0.52539,-1.13672 0.59766,-1.09766 0.66601,-1.05468 0.73047,-1.01367 0.79102,-0.96876 0.8457,-0.92187 0.90039,-0.87305 0.94727,-0.82031 0.99218,-0.76758 1.03321,-0.71289 1.06836,-0.6543 1.10156,-0.5957 1.13086,-0.53125 1.1543,-0.46875 1.17578,-0.40234 5.22461,0.0801 2.61523,0.0547 2.61719,0.0137 17.92578,0.25781 17.92773,0.21484 8.96289,0.0469 8.9629,-0.0176 8.96093,-0.0996 8.96094,-0.19922 1.33398,-0.19336 1.29102,-0.33984 1.24414,-0.47656 1.18555,-0.60352 1.11914,-0.7207 1.04297,-0.82813 0.96484,-0.92187 0.86914,-1.01172 0.77149,-1.08594 0.66406,-1.1543 0.54883,-1.21093 0.41992,-1.25586 0.29101,-1.29493 0.14649,-1.32031 -0.004,-1.33789 -0.16211,-1.34375 -0.41601,-1.74805 -0.49805,-1.72265 -0.57031,-1.70508 -0.625,-1.68945 -1.31836,-3.35547 -1.30469,-3.35156 -1.70508,-3.95899 -1.79101,-3.91992 -1.87891,-3.88086 -1.96094,-3.83789 -2.04492,-3.79297 -2.12891,-3.74609 -2.21289,-3.69922 -2.29296,-3.64649 -2.375,-3.5957 -2.45508,-3.54102 -2.53516,-3.48242 -2.61328,-3.42382 -2.69336,-3.36329 -2.77148,-3.30078 -2.84766,-3.23437 -2.92578,-3.16797 -2.28906,-2.42969 -2.36914,-2.36133 -2.32618,-2.39648 -1.10547,-1.24805 -1.04687,-1.29492 -0.0527,-0.45508 0.15234,-0.35547 0.3125,-0.26757 0.42578,-0.18946 0.49024,-0.1289 0.51171,-0.0801 0.89258,-0.0645 4.79688,-0.30664 2.43164,-0.25195 2.42383,-0.35351 2.40429,-0.48047 2.35938,-0.63672 2.29883,-0.8125 1.12109,-0.48438 1.09961,-0.53711 0.68945,-0.46679 0.63867,-0.5293 0.58204,-0.58594 0.52734,-0.63672 0.46484,-0.68359 0.40625,-0.7207 0.33985,-0.75196 0.27343,-0.77929 0.20313,-0.79883 0.13281,-0.8125 0.0566,-0.82031 -0.0176,-0.82227 -0.0976,-0.81641 -0.17969,-0.80664 -0.26367,-0.78906 -0.34961,-0.76562 -1.84766,-5.27539 -2.0039,-5.21485 -2.13477,-5.16211 -2.24414,-5.11719 -2.33008,-5.08203 -2.39453,-5.05273 -4.87891,-10.05274 -2.79296,-5.3457 -2.94532,-5.25781 -3.09375,-5.17188 -3.23047,-5.08984 -3.35742,-5.00586 -3.47656,-4.92383 -3.58594,-4.84765 -3.68945,-4.76758 -5.90234,-7.63867 -2.96289,-3.8086 -2.9961,-3.77148 -0.20703,-0.19141 -0.0195,-0.20898 0.12305,-0.2168 0.22461,-0.21484 0.58398,-0.38086 0.48242,-0.24219 0.8418,-0.40234 0.87304,-0.33399 1.8125,-0.50781 1.86719,-0.38086 1.87305,-0.35547 1.83594,-0.42969 0.89062,-0.27343 0.86524,-0.33008 0.83203,-0.40039 0.79492,-0.48047 0.75195,-0.57422 0.70313,-0.68359 0.38672,-0.62696 0.28711,-0.64062 0.19726,-0.65625 0.11133,-0.66406 0.0332,-0.67188 -0.0371,-0.67578 -0.10351,-0.67774 -0.15821,-0.67382 -0.46289,-1.33399 -0.60742,-1.29101 -0.69726,-1.22657 -0.73047,-1.13867 -4.04492,-6.03515 -4.17579,-5.94336 -4.28711,-5.86328 -4.38476,-5.792969 -4.46484,-5.730469 -4.53321,-5.679687 -9.19726,-11.244141 -6.67969,-7.798828 -3.39258,-3.857422 -3.44336,-3.8125 -3.50195,-3.757812 -3.57031,-3.691407 -3.64844,-3.611328 -3.73633,-3.523437 -1.38672,-1.117188 -1.46289,-1.041016 -1.5332,-0.9375 -1.5957,-0.8125 -1.65626,-0.666015 -1.70898,-0.496094 -1.75781,-0.300781 -0.89453,-0.07227 z m 1.58203,22.570313 c 10.85598,-0.443248 27.72201,19.011273 34.41211,28.755859 8.28266,10.062534 15.8725,20.693204 23.67578,31.099614 -8.06851,2.08854 -12.81622,11.45735 -10.32812,19.27539 4.0211,9.11007 11.04727,16.46053 16.72265,24.54687 16.0954,20.58468 28.08325,44.08393 37.26953,68.47266 -4.71762,0.68651 -9.66589,0.31727 -14.16796,2.12109 -9.588,2.65982 -13.1611,15.92989 -7.14649,23.5332 12.17341,12.13781 23.4971,25.49311 32.44141,40.18946 6.3523,10.09534 11.20616,21.0313 15.40234,32.1582 -23.85212,0.96295 -47.87122,0.0124 -71.80078,-0.0703 -14.31642,-1.77067 -28.60627,7.56053 -34.03711,20.68945 -4.86432,15.57833 -4.31987,32.23792 -6.625,48.20117 -15.80258,0.0349 -31.50765,-0.33188 -47.29492,-1.02539 -1.18427,-10.75011 -1.69785,-21.55873 -2.62109,-32.33203 0.23708,-13.61295 -6.39327,-27.95187 -18.84571,-34.33398 -10.12613,-4.18447 -21.3883,-3.47531 -32.12695,-4.01758 -17.76515,-1.50443 -35.83815,0.87568 -53.34766,-1.88086 1.84631,-5.85302 4.24701,-11.32412 7.07032,-16.80078 9.19632,-18.59355 22.75302,-34.35148 37.11328,-49.05274 6.8124,-4.76415 9.94585,-15.28172 4.67187,-22.26367 -4.95007,-5.82719 -13.19212,-6.24109 -20.21484,-7.38281 10.9347,-26.26368 25.53191,-51.12717 43.28125,-73.37695 4.27692,-6.47842 11.3405,-11.26768 13.4707,-19.02539 2.25004,-7.57786 -3.6557,-14.98795 -10.4668,-17.63868 14.9696,-20.21267 40.04027,-59.896067 63.49219,-59.841793 z"
       transform="scale(0.26458333)" /><path
       d="m 53.053456,66.950307 c -0.116342,0.15346 -0.25474,0.8146 0.213953,1.34475 2.096326,1.01763 4.928283,1.84157 7.647186,1.71678 l -0.08566,-1.31866 c -2.548404,-0.13839 -5.130282,-1.06526 -7.775483,-1.74287 z m 18.801078,0.15991 c -0.111588,-0.006 -0.808025,0.17919 -1.618256,0.43121 -1.202922,0.37419 -5.580472,1.2153 -6.39618,1.22895 -0.15082,0.003 -0.345501,0.98806 -0.2316,1.17235 0.04675,0.0756 0.441309,0.10014 0.876768,0.0544 0.435459,-0.0457 1.264073,-0.12724 1.841399,-0.18123 1.06435,-0.0995 3.230365,-0.60473 4.589706,-1.0705 0.626388,-0.21456 0.767149,-0.36082 0.879711,-0.91317 0.07357,-0.36161 0.106436,-0.68467 0.07279,-0.71833 -0.0021,-0.002 -0.0069,-0.003 -0.01434,-0.004 z m -18.420593,1.85097 c -0.143809,0.004 -0.02814,0.36082 0.184911,0.63744 0.182613,0.2371 0.498266,0.28042 1.042932,0.44482 1.037673,0.31318 3.84687,1.12075 4.698154,1.10653 1.066959,-0.0179 5.083764,0.260235 6.578231,-0.09412 2.333898,-0.5534 4.090033,-0.638535 4.67308,-0.998815 0.290335,-0.17941 0.627583,-0.82897 0.579366,-0.87456 -0.04819,-0.0456 -1.131052,0.2997 -2.088071,0.53009 -0.957008,0.23042 -3.901614,0.76638 -5.048493,0.88046 -1.790057,0.43297 -2.285286,0.39596 -3.917336,-0.0989 -1.353201,-0.0247 -5.167548,-0.89782 -5.994744,-1.32121 -0.1992,-0.10196 -0.449334,-0.19623 -0.535617,-0.1941 z m 0.672004,1.20578 c -0.135133,0.004 -0.130328,0.15815 -0.0114,0.48451 0.09917,0.27217 0.395743,0.47988 0.914633,0.64076 0.978106,0.30326 3.711456,0.91036 4.506995,1.00103 1.248696,0.14233 5.177216,0.13093 6.371185,-0.0184 2.23865,-0.27994 3.756422,-0.69235 4.213267,-1.14476 0.235091,-0.23282 0.390501,-0.46084 0.345192,-0.50658 -0.04529,-0.0457 -0.818203,0.10604 -1.717509,0.33711 -0.8993,0.23109 -2.516846,0.51385 -3.594568,0.62826 -1.690566,0.12746 -3.380515,0.15835 -5.069448,-0.0507 -1.271601,-0.0247 -4.781434,-0.79439 -5.558751,-1.21902 -0.187187,-0.10225 -0.318518,-0.15433 -0.3996,-0.15219 z"
       style="display:inline;fill:#000000;fill-opacity:0.121569;stroke:#000000;stroke-width:0.0564661;stroke-dasharray:none;stroke-opacity:1"
       id="path908-8"
       sodipodi:nodetypes="scccsscscsccccccccsscssscccsccsssscsssccsss" /><path
       d="m 56.659814,75.301259 c -0.396508,0.01439 -0.650832,0.716566 -0.03895,0.944041 1.346391,-0.01952 2.693008,-0.03345 4.049066,0.170119 0.446268,0.02211 0.648103,-0.843776 0.04573,-0.957564 -1.314473,0.02029 -2.721978,0.05189 -3.974965,-0.149797 -0.0275,-0.0059 -0.05445,-0.0079 -0.08088,-0.0069 z"
       style="display:inline;fill:#000000;fill-opacity:0.121569;stroke:#000000;stroke-width:0.0564661;stroke-dasharray:none;stroke-opacity:1"
       id="path1517-6"
       sodipodi:nodetypes="sccccss" /><path
       style="display:inline;fill:#000000;fill-opacity:0.121569;stroke:#000000;stroke-width:0.1;stroke-linecap:round;stroke-dasharray:none;paint-order:stroke fill markers"
       d="m 61.43489,68.714919 1.974808,-0.017 -0.01,0.498682 -1.283868,0.01206 0.03406,0.32346 1.224888,-0.02405 0.0071,0.522758 -1.912906,-0.005 z"
       id="path2-0"
       sodipodi:nodetypes="ccccccccc" /><path
       d="m 67.656255,75.115683 c -0.01344,0.0014 -0.02723,0.0041 -0.04091,0.0066 -1.238108,0.397078 -2.645904,0.284783 -3.977176,0.402254 -0.598453,0.132876 -0.369,0.991474 0.07633,0.955238 1.31589,-0.120916 2.552426,-0.296147 4.041654,-0.298336 0.6245,-0.254987 0.317002,-1.106194 -0.09989,-1.065718 z"
       style="display:inline;fill:#000000;fill-opacity:0.121569;stroke:#000000;stroke-width:0.0564661;stroke-dasharray:none;stroke-opacity:1"
       id="path1-2" /><rect
       style="fill:#e0e0e0;fill-opacity:1;stroke:#000000;stroke-width:0.09787;stroke-linecap:round;paint-order:stroke fill markers"
       id="rect986"
       width="1.6925673"
       height="5.5739284"
       x="73.823364"
       y="21.596697"
       ry="0.85026032"
       transform="matrix(0.8505289,0.52592832,-0.5181029,0.85531829,0,0)" /><rect
       style="fill:#e0e0e0;fill-opacity:1;stroke:#000000;stroke-width:0.1;stroke-linecap:round;paint-order:stroke fill markers"
       id="rect1202"
       width="1.3278886"
       height="4.8519006"
       x="59.666302"
       y="71.251839"
       ry="0.6639443"
       transform="rotate(-10.928378)" /></g></svg>
