%TF.GenerationSoftware,KiCad,Pcbnew,9.0.6*%
%TF.CreationDate,2025-12-01T09:21:34+01:00*%
%TF.ProjectId,BL_Santa,424c5f53-616e-4746-912e-6b696361645f,rev?*%
%TF.SameCoordinates,Original*%
%TF.FileFunction,Copper,L2,Bot*%
%TF.FilePolarity,Positive*%
%FSLAX46Y46*%
G04 Gerber Fmt 4.6, Leading zero omitted, Abs format (unit mm)*
G04 Created by KiCad (PCBNEW 9.0.6) date 2025-12-01 09:21:34*
%MOMM*%
%LPD*%
G01*
G04 APERTURE LIST*
G04 Aperture macros list*
%AMRoundRect*
0 Rectangle with rounded corners*
0 $1 Rounding radius*
0 $2 $3 $4 $5 $6 $7 $8 $9 X,Y pos of 4 corners*
0 Add a 4 corners polygon primitive as box body*
4,1,4,$2,$3,$4,$5,$6,$7,$8,$9,$2,$3,0*
0 Add four circle primitives for the rounded corners*
1,1,$1+$1,$2,$3*
1,1,$1+$1,$4,$5*
1,1,$1+$1,$6,$7*
1,1,$1+$1,$8,$9*
0 Add four rect primitives between the rounded corners*
20,1,$1+$1,$2,$3,$4,$5,0*
20,1,$1+$1,$4,$5,$6,$7,0*
20,1,$1+$1,$6,$7,$8,$9,0*
20,1,$1+$1,$8,$9,$2,$3,0*%
G04 Aperture macros list end*
%ADD10C,0.150000*%
%TA.AperFunction,NonConductor*%
%ADD11C,0.150000*%
%TD*%
%TA.AperFunction,SMDPad,CuDef*%
%ADD12RoundRect,0.250000X-1.050000X0.500000X-1.050000X-0.500000X1.050000X-0.500000X1.050000X0.500000X0*%
%TD*%
%TA.AperFunction,SMDPad,CuDef*%
%ADD13R,5.000000X2.000000*%
%TD*%
%TA.AperFunction,SMDPad,CuDef*%
%ADD14C,17.780000*%
%TD*%
%TA.AperFunction,ComponentPad*%
%ADD15C,2.000000*%
%TD*%
%TA.AperFunction,ComponentPad*%
%ADD16C,1.600000*%
%TD*%
%TA.AperFunction,Conductor*%
%ADD17C,0.250000*%
%TD*%
G04 APERTURE END LIST*
D10*
D11*
X124013220Y-142399819D02*
X124013220Y-141399819D01*
X123441792Y-142399819D02*
X123870363Y-141828390D01*
X123441792Y-141399819D02*
X124013220Y-141971247D01*
X123013220Y-142399819D02*
X123013220Y-141399819D01*
X123013220Y-141876009D02*
X122441792Y-141876009D01*
X122441792Y-142399819D02*
X122441792Y-141399819D01*
X121632268Y-141876009D02*
X121965601Y-141876009D01*
X121965601Y-142399819D02*
X121965601Y-141399819D01*
X121965601Y-141399819D02*
X121489411Y-141399819D01*
X119822744Y-142399819D02*
X120394172Y-142399819D01*
X120108458Y-142399819D02*
X120108458Y-141399819D01*
X120108458Y-141399819D02*
X120203696Y-141542676D01*
X120203696Y-141542676D02*
X120298934Y-141637914D01*
X120298934Y-141637914D02*
X120394172Y-141685533D01*
X118870363Y-142399819D02*
X119441791Y-142399819D01*
X119156077Y-142399819D02*
X119156077Y-141399819D01*
X119156077Y-141399819D02*
X119251315Y-141542676D01*
X119251315Y-141542676D02*
X119346553Y-141637914D01*
X119346553Y-141637914D02*
X119441791Y-141685533D01*
X118441791Y-142304580D02*
X118394172Y-142352200D01*
X118394172Y-142352200D02*
X118441791Y-142399819D01*
X118441791Y-142399819D02*
X118489410Y-142352200D01*
X118489410Y-142352200D02*
X118441791Y-142304580D01*
X118441791Y-142304580D02*
X118441791Y-142399819D01*
X118013220Y-141495057D02*
X117965601Y-141447438D01*
X117965601Y-141447438D02*
X117870363Y-141399819D01*
X117870363Y-141399819D02*
X117632268Y-141399819D01*
X117632268Y-141399819D02*
X117537030Y-141447438D01*
X117537030Y-141447438D02*
X117489411Y-141495057D01*
X117489411Y-141495057D02*
X117441792Y-141590295D01*
X117441792Y-141590295D02*
X117441792Y-141685533D01*
X117441792Y-141685533D02*
X117489411Y-141828390D01*
X117489411Y-141828390D02*
X118060839Y-142399819D01*
X118060839Y-142399819D02*
X117441792Y-142399819D01*
X116822744Y-141399819D02*
X116727506Y-141399819D01*
X116727506Y-141399819D02*
X116632268Y-141447438D01*
X116632268Y-141447438D02*
X116584649Y-141495057D01*
X116584649Y-141495057D02*
X116537030Y-141590295D01*
X116537030Y-141590295D02*
X116489411Y-141780771D01*
X116489411Y-141780771D02*
X116489411Y-142018866D01*
X116489411Y-142018866D02*
X116537030Y-142209342D01*
X116537030Y-142209342D02*
X116584649Y-142304580D01*
X116584649Y-142304580D02*
X116632268Y-142352200D01*
X116632268Y-142352200D02*
X116727506Y-142399819D01*
X116727506Y-142399819D02*
X116822744Y-142399819D01*
X116822744Y-142399819D02*
X116917982Y-142352200D01*
X116917982Y-142352200D02*
X116965601Y-142304580D01*
X116965601Y-142304580D02*
X117013220Y-142209342D01*
X117013220Y-142209342D02*
X117060839Y-142018866D01*
X117060839Y-142018866D02*
X117060839Y-141780771D01*
X117060839Y-141780771D02*
X117013220Y-141590295D01*
X117013220Y-141590295D02*
X116965601Y-141495057D01*
X116965601Y-141495057D02*
X116917982Y-141447438D01*
X116917982Y-141447438D02*
X116822744Y-141399819D01*
X116108458Y-141495057D02*
X116060839Y-141447438D01*
X116060839Y-141447438D02*
X115965601Y-141399819D01*
X115965601Y-141399819D02*
X115727506Y-141399819D01*
X115727506Y-141399819D02*
X115632268Y-141447438D01*
X115632268Y-141447438D02*
X115584649Y-141495057D01*
X115584649Y-141495057D02*
X115537030Y-141590295D01*
X115537030Y-141590295D02*
X115537030Y-141685533D01*
X115537030Y-141685533D02*
X115584649Y-141828390D01*
X115584649Y-141828390D02*
X116156077Y-142399819D01*
X116156077Y-142399819D02*
X115537030Y-142399819D01*
X114632268Y-141399819D02*
X115108458Y-141399819D01*
X115108458Y-141399819D02*
X115156077Y-141876009D01*
X115156077Y-141876009D02*
X115108458Y-141828390D01*
X115108458Y-141828390D02*
X115013220Y-141780771D01*
X115013220Y-141780771D02*
X114775125Y-141780771D01*
X114775125Y-141780771D02*
X114679887Y-141828390D01*
X114679887Y-141828390D02*
X114632268Y-141876009D01*
X114632268Y-141876009D02*
X114584649Y-141971247D01*
X114584649Y-141971247D02*
X114584649Y-142209342D01*
X114584649Y-142209342D02*
X114632268Y-142304580D01*
X114632268Y-142304580D02*
X114679887Y-142352200D01*
X114679887Y-142352200D02*
X114775125Y-142399819D01*
X114775125Y-142399819D02*
X115013220Y-142399819D01*
X115013220Y-142399819D02*
X115108458Y-142352200D01*
X115108458Y-142352200D02*
X115156077Y-142304580D01*
D12*
%TO.P,D3,1,K*%
%TO.N,Net-(D1-A)*%
X143600000Y-110200000D03*
%TO.P,D3,2,A*%
%TO.N,Net-(D1-K)*%
X143600000Y-107200000D03*
%TD*%
%TO.P,D3,1,K*%
%TO.N,Net-(D1-K)*%
X102870000Y-76170000D03*
%TO.P,D3,2,A*%
%TO.N,Net-(D1-A)*%
X102870000Y-73170000D03*
%TD*%
%TO.P,D3,1,K*%
%TO.N,Net-(D1-K)*%
X95400000Y-109700000D03*
%TO.P,D3,2,A*%
%TO.N,Net-(D1-A)*%
X95400000Y-106700000D03*
%TD*%
D13*
%TO.P,U1,*%
%TO.N,*%
X106136000Y-128828000D03*
X106136000Y-132384000D03*
%TO.P,U1,1*%
%TO.N,Net-(S1-A-Pad1)*%
X132030000Y-128828000D03*
X132030000Y-132384000D03*
D14*
%TO.P,U1,2*%
%TO.N,Net-(D1-K)*%
X119090000Y-130860000D03*
%TD*%
D15*
%TO.P,S1,1,A*%
%TO.N,Net-(S1-A-Pad1)*%
X140000000Y-130000000D03*
%TO.P,S1,2,E*%
%TO.N,Net-(S1-E)*%
X142540000Y-130000000D03*
%TO.P,S1,3,A*%
X145080000Y-130000000D03*
%TD*%
D16*
%TO.P,R2,1*%
%TO.N,Net-(S1-E)*%
X153010000Y-132702000D03*
%TO.P,R2,2*%
%TO.N,Net-(D1-A)*%
X153010000Y-122542000D03*
%TD*%
D12*
%TO.P,D3,1,K*%
%TO.N,Net-(D1-A)*%
X137150000Y-76300000D03*
%TO.P,D3,2,A*%
%TO.N,Net-(D1-K)*%
X137150000Y-73300000D03*
%TD*%
D17*
%TO.N,Net-(D1-A)*%
X93700000Y-105000000D02*
X95400000Y-106700000D01*
X92600000Y-105000000D02*
X93700000Y-105000000D01*
X92600000Y-100600000D02*
X92600000Y-105000000D01*
X93500000Y-99700000D02*
X92600000Y-100600000D01*
X93500000Y-97600000D02*
X93500000Y-99700000D01*
X101000000Y-87500000D02*
X95600000Y-92900000D01*
X105000000Y-81000000D02*
X101000000Y-85000000D01*
X105000000Y-73200000D02*
X105000000Y-81000000D01*
X101000000Y-85000000D02*
X101000000Y-87500000D01*
X95600000Y-92900000D02*
X95600000Y-95500000D01*
X104970000Y-73170000D02*
X105000000Y-73200000D01*
X95600000Y-95500000D02*
X93500000Y-97600000D01*
X102870000Y-73170000D02*
X104970000Y-73170000D01*
%TO.N,Net-(D1-K)*%
X93300000Y-109900000D02*
X93500000Y-109700000D01*
X93300000Y-113500000D02*
X93300000Y-109900000D01*
X93500000Y-109700000D02*
X95400000Y-109700000D01*
X93500000Y-107400000D02*
X93500000Y-109700000D01*
X93100000Y-107000000D02*
X93500000Y-107400000D01*
X89600000Y-105500000D02*
X91100000Y-107000000D01*
X89600000Y-100700000D02*
X89600000Y-105500000D01*
X89400000Y-100500000D02*
X89600000Y-100700000D01*
X91800000Y-98100000D02*
X89400000Y-100500000D01*
X91800000Y-96600000D02*
X91800000Y-98100000D01*
X93500000Y-94900000D02*
X91800000Y-96600000D01*
X93500000Y-93200000D02*
X93500000Y-94900000D01*
X95900000Y-90800000D02*
X93500000Y-93200000D01*
X95900000Y-90400000D02*
X95900000Y-90800000D01*
X99500000Y-86800000D02*
X95900000Y-90400000D01*
X99500000Y-83300000D02*
X99500000Y-86800000D01*
X102700000Y-80100000D02*
X99500000Y-83300000D01*
X102700000Y-78800000D02*
X102700000Y-80100000D01*
X91100000Y-107000000D02*
X93100000Y-107000000D01*
X103000000Y-78500000D02*
X102700000Y-78800000D01*
X102000000Y-77500000D02*
X103000000Y-78500000D01*
X101000000Y-77500000D02*
X102000000Y-77500000D01*
X100870000Y-77370000D02*
X101000000Y-77500000D01*
X100870000Y-76170000D02*
X100870000Y-77370000D01*
%TO.N,Net-(D1-A)*%
X143500000Y-111800000D02*
X143600000Y-111700000D01*
X142200000Y-111800000D02*
X143500000Y-111800000D01*
X141500000Y-111100000D02*
X142200000Y-111800000D01*
X141500000Y-105900000D02*
X141500000Y-111100000D01*
X142200000Y-105200000D02*
X141500000Y-105900000D01*
X147200000Y-105200000D02*
X142200000Y-105200000D01*
X147200000Y-100000000D02*
X147200000Y-105200000D01*
X145320000Y-98120000D02*
X147200000Y-100000000D01*
X145320000Y-96180000D02*
X145320000Y-98120000D01*
X143500000Y-92580000D02*
X143500000Y-94360000D01*
X140940000Y-90020000D02*
X143500000Y-92580000D01*
X140940000Y-88460000D02*
X140940000Y-90020000D01*
X135610000Y-83130000D02*
X140940000Y-88460000D01*
X143500000Y-94360000D02*
X145320000Y-96180000D01*
X135610000Y-81740000D02*
X135610000Y-83130000D01*
X133610000Y-79740000D02*
X135610000Y-81740000D01*
X133610000Y-77340000D02*
X133610000Y-79740000D01*
X134650000Y-76300000D02*
X133610000Y-77340000D01*
X135100000Y-76300000D02*
X134650000Y-76300000D01*
%TO.N,Net-(D1-K)*%
X147800000Y-107200000D02*
X143600000Y-107200000D01*
X148320000Y-106680000D02*
X147800000Y-107200000D01*
X148320000Y-96820000D02*
X148320000Y-106680000D01*
X145500000Y-94000000D02*
X148320000Y-96820000D01*
X145500000Y-92100000D02*
X145500000Y-94000000D01*
X142500000Y-87000000D02*
X142500000Y-89100000D01*
X140300000Y-84800000D02*
X142500000Y-87000000D01*
X140200000Y-84800000D02*
X140300000Y-84800000D01*
X142500000Y-89100000D02*
X145500000Y-92100000D01*
X140200000Y-83800000D02*
X140200000Y-84800000D01*
X135600000Y-79200000D02*
X140200000Y-83800000D01*
X138000000Y-77500000D02*
X137500000Y-78000000D01*
X139500000Y-77500000D02*
X138000000Y-77500000D01*
X139500000Y-73500000D02*
X139500000Y-77500000D01*
X135600000Y-78000000D02*
X135600000Y-79200000D01*
X139600000Y-73400000D02*
X139500000Y-73500000D01*
X137500000Y-78000000D02*
X135600000Y-78000000D01*
X139500000Y-73300000D02*
X139600000Y-73400000D01*
%TO.N,Net-(D1-A)*%
X148720000Y-116820000D02*
X143600000Y-111700000D01*
X150730000Y-120262000D02*
X150730000Y-116820000D01*
X143600000Y-111700000D02*
X143600000Y-110200000D01*
X153010000Y-122542000D02*
X150730000Y-120262000D01*
X150730000Y-116820000D02*
X148720000Y-116820000D01*
%TO.N,Net-(S1-E)*%
X147782000Y-132702000D02*
X153010000Y-132702000D01*
X145080000Y-130000000D02*
X147782000Y-132702000D01*
X142540000Y-130000000D02*
X145080000Y-130000000D01*
%TO.N,Net-(S1-A-Pad1)*%
X138336000Y-131664000D02*
X140000000Y-130000000D01*
X138336000Y-132384000D02*
X138336000Y-131664000D01*
%TO.N,Net-(D1-K)*%
X114830000Y-126600000D02*
X119090000Y-130860000D01*
X103200000Y-126600000D02*
X114830000Y-126600000D01*
X100900000Y-128900000D02*
X103200000Y-126600000D01*
X85000000Y-128900000D02*
X100900000Y-128900000D01*
X84800000Y-128700000D02*
X85000000Y-128900000D01*
X84800000Y-121000000D02*
X84800000Y-128700000D01*
X88500000Y-117300000D02*
X84800000Y-121000000D01*
X89500000Y-117300000D02*
X88500000Y-117300000D01*
X93300000Y-113500000D02*
X89500000Y-117300000D01*
%TO.N,Net-(D1-A)*%
X109400000Y-66640000D02*
X102870000Y-73170000D01*
X116300000Y-59100000D02*
X109400000Y-66000000D01*
X116400000Y-59200000D02*
X116300000Y-59100000D01*
X125300000Y-59200000D02*
X116400000Y-59200000D01*
X128000000Y-63700000D02*
X128000000Y-61900000D01*
X135100000Y-70800000D02*
X128000000Y-63700000D01*
X109400000Y-66000000D02*
X109400000Y-66640000D01*
X135100000Y-76300000D02*
X135100000Y-70800000D01*
X128000000Y-61900000D02*
X125300000Y-59200000D01*
X135100000Y-76300000D02*
X137150000Y-76300000D01*
%TO.N,Net-(D1-K)*%
X100600000Y-75900000D02*
X100600000Y-73500000D01*
X100870000Y-76170000D02*
X100600000Y-75900000D01*
X102870000Y-76170000D02*
X100870000Y-76170000D01*
X100800000Y-73300000D02*
X100600000Y-73500000D01*
X100800000Y-72400000D02*
X100800000Y-73300000D01*
X114000000Y-59200000D02*
X100800000Y-72400000D01*
X114000000Y-57700000D02*
X114000000Y-59200000D01*
X114600000Y-57100000D02*
X114000000Y-57700000D01*
X126100000Y-57100000D02*
X114600000Y-57100000D01*
X130400000Y-61400000D02*
X126100000Y-57100000D01*
X133700000Y-65500000D02*
X130400000Y-62200000D01*
X130400000Y-62200000D02*
X130400000Y-61400000D01*
X133700000Y-66700000D02*
X133700000Y-65500000D01*
X139500000Y-72500000D02*
X133700000Y-66700000D01*
X139500000Y-73300000D02*
X139500000Y-72500000D01*
X139500000Y-73300000D02*
X137150000Y-73300000D01*
%TO.N,Net-(S1-E)*%
X153010000Y-131990000D02*
X153010000Y-132702000D01*
%TO.N,Net-(S1-A-Pad1)*%
X132030000Y-132384000D02*
X138336000Y-132384000D01*
X132030000Y-128828000D02*
X132030000Y-132384000D01*
%TD*%
M02*
