%TF.GenerationSoftware,KiCad,Pcbnew,9.0.6*%
%TF.CreationDate,2025-12-01T09:21:34+01:00*%
%TF.ProjectId,BL_Santa,424c5f53-616e-4746-912e-6b696361645f,rev?*%
%TF.SameCoordinates,Original*%
%TF.FileFunction,Profile,NP*%
%FSLAX46Y46*%
G04 Gerber Fmt 4.6, Leading zero omitted, Abs format (unit mm)*
G04 Created by KiCad (PCBNEW 9.0.6) date 2025-12-01 09:21:34*
%MOMM*%
%LPD*%
G01*
G04 APERTURE LIST*
%TA.AperFunction,Profile*%
%ADD10C,0.150000*%
%TD*%
%TA.AperFunction,Profile*%
%ADD11C,0.100000*%
%TD*%
G04 APERTURE END LIST*
D10*
X121675000Y-55369100D02*
G75*
G02*
X119475000Y-55369100I-1100000J0D01*
G01*
X119475000Y-55369100D02*
G75*
G02*
X121675000Y-55369100I1100000J0D01*
G01*
D11*
X120486200Y-52039800D02*
X119940500Y-52149600D01*
X119940500Y-52149600D02*
X119414300Y-52300800D01*
X119414300Y-52300800D02*
X118906400Y-52490400D01*
X118906400Y-52490400D02*
X118416100Y-52715100D01*
X118416100Y-52715100D02*
X117942300Y-52972000D01*
X117942300Y-52972000D02*
X117484100Y-53257700D01*
X117484100Y-53257700D02*
X117040500Y-53569300D01*
X117040500Y-53569300D02*
X116610700Y-53903600D01*
X116610700Y-53903600D02*
X116193600Y-54257400D01*
X116193600Y-54257400D02*
X115788300Y-54627700D01*
X115788300Y-54627700D02*
X115394000Y-55011300D01*
X115394000Y-55011300D02*
X115009500Y-55405200D01*
X115009500Y-55405200D02*
X114266600Y-56210900D01*
X114266600Y-56210900D02*
X113552100Y-57020000D01*
X113552100Y-57020000D02*
X113056700Y-57576300D01*
X113056700Y-57576300D02*
X112545000Y-58116700D01*
X112545000Y-58116700D02*
X111495100Y-59171600D01*
X111495100Y-59171600D02*
X110447800Y-60228900D01*
X110447800Y-60228900D02*
X109939200Y-60772100D01*
X109939200Y-60772100D02*
X109448100Y-61332500D01*
X109448100Y-61332500D02*
X107975000Y-62950000D01*
X107975000Y-62950000D02*
X106518000Y-64586000D01*
X106518000Y-64586000D02*
X105088200Y-66246700D01*
X105088200Y-66246700D02*
X103696700Y-67938500D01*
X103696700Y-67938500D02*
X103018700Y-68798000D01*
X103018700Y-68798000D02*
X102354400Y-69667700D01*
X102354400Y-69667700D02*
X101705300Y-70548300D01*
X101705300Y-70548300D02*
X101072600Y-71440700D01*
X101072600Y-71440700D02*
X100457700Y-72345600D01*
X100457700Y-72345600D02*
X99862100Y-73263800D01*
X99862100Y-73263800D02*
X99287200Y-74196100D01*
X99287200Y-74196100D02*
X98734200Y-75143300D01*
X98734200Y-75143300D02*
X98708300Y-75395500D01*
X98708300Y-75395500D02*
X98714400Y-75639400D01*
X98714400Y-75639400D02*
X98750300Y-75874200D01*
X98750300Y-75874200D02*
X98813800Y-76099500D01*
X98813800Y-76099500D02*
X98902700Y-76314500D01*
X98902700Y-76314500D02*
X99015000Y-76518800D01*
X99015000Y-76518800D02*
X99148400Y-76711700D01*
X99148400Y-76711700D02*
X99300900Y-76892700D01*
X99300900Y-76892700D02*
X99470200Y-77061200D01*
X99470200Y-77061200D02*
X99654100Y-77216500D01*
X99654100Y-77216500D02*
X99850600Y-77358100D01*
X99850600Y-77358100D02*
X100057400Y-77485400D01*
X100057400Y-77485400D02*
X100272500Y-77597900D01*
X100272500Y-77597900D02*
X100493500Y-77694800D01*
X100493500Y-77694800D02*
X100718500Y-77775700D01*
X100718500Y-77775700D02*
X100945200Y-77840000D01*
X100945200Y-77840000D02*
X101102400Y-77897000D01*
X101102400Y-77897000D02*
X101270700Y-77937100D01*
X101270700Y-77937100D02*
X101618600Y-77994100D01*
X101618600Y-77994100D02*
X101787300Y-78024900D01*
X101787300Y-78024900D02*
X101945200Y-78066500D01*
X101945200Y-78066500D02*
X102086900Y-78125800D01*
X102086900Y-78125800D02*
X102206900Y-78209700D01*
X102206900Y-78209700D02*
X102229700Y-78413300D01*
X102229700Y-78413300D02*
X102222400Y-78606400D01*
X102222400Y-78606400D02*
X102188000Y-78790100D01*
X102188000Y-78790100D02*
X102129300Y-78965100D01*
X102129300Y-78965100D02*
X102049300Y-79132200D01*
X102049300Y-79132200D02*
X101951000Y-79292400D01*
X101951000Y-79292400D02*
X101710800Y-79595400D01*
X101710800Y-79595400D02*
X101432100Y-79880900D01*
X101432100Y-79880900D02*
X101138400Y-80155800D01*
X101138400Y-80155800D02*
X100853000Y-80426900D01*
X100853000Y-80426900D02*
X100599200Y-80701100D01*
X100599200Y-80701100D02*
X99917800Y-81594800D01*
X99917800Y-81594800D02*
X99244600Y-82497900D01*
X99244600Y-82497900D02*
X97896100Y-84305200D01*
X97896100Y-84305200D02*
X97052700Y-85471700D01*
X97052700Y-85471700D02*
X96225000Y-86651500D01*
X96225000Y-86651500D02*
X95414700Y-87844500D01*
X95414700Y-87844500D02*
X94623400Y-89051100D01*
X94623400Y-89051100D02*
X93852800Y-90271100D01*
X93852800Y-90271100D02*
X93104400Y-91504900D01*
X93104400Y-91504900D02*
X92379900Y-92752400D01*
X92379900Y-92752400D02*
X91680900Y-94013900D01*
X91680900Y-94013900D02*
X91009000Y-95289300D01*
X91009000Y-95289300D02*
X90365800Y-96578900D01*
X90365800Y-96578900D02*
X89753000Y-97882800D01*
X89753000Y-97882800D02*
X89172100Y-99201000D01*
X89172100Y-99201000D02*
X88624900Y-100533700D01*
X88624900Y-100533700D02*
X88112900Y-101881000D01*
X88112900Y-101881000D02*
X87637700Y-103243000D01*
X87637700Y-103243000D02*
X87201000Y-104619800D01*
X87201000Y-104619800D02*
X87241600Y-104905000D01*
X87241600Y-104905000D02*
X87310700Y-105177700D01*
X87310700Y-105177700D02*
X87406300Y-105437600D01*
X87406300Y-105437600D02*
X87526500Y-105684200D01*
X87526500Y-105684200D02*
X87669500Y-105917400D01*
X87669500Y-105917400D02*
X87833300Y-106136600D01*
X87833300Y-106136600D02*
X88016200Y-106341600D01*
X88016200Y-106341600D02*
X88216100Y-106532100D01*
X88216100Y-106532100D02*
X88431300Y-106707500D01*
X88431300Y-106707500D02*
X88659700Y-106867800D01*
X88659700Y-106867800D02*
X88899600Y-107012300D01*
X88899600Y-107012300D02*
X89149100Y-107140900D01*
X89149100Y-107140900D02*
X89406200Y-107253100D01*
X89406200Y-107253100D02*
X89669100Y-107348700D01*
X89669100Y-107348700D02*
X89935800Y-107427200D01*
X89935800Y-107427200D02*
X90204600Y-107488400D01*
X90204600Y-107488400D02*
X90567100Y-107576200D01*
X90567100Y-107576200D02*
X90934600Y-107644400D01*
X90934600Y-107644400D02*
X91677600Y-107742900D01*
X91677600Y-107742900D02*
X92419400Y-107826700D01*
X92419400Y-107826700D02*
X93146300Y-107938200D01*
X93146300Y-107938200D02*
X93163900Y-108040400D01*
X93163900Y-108040400D02*
X93162000Y-108137600D01*
X93162000Y-108137600D02*
X93142700Y-108230400D01*
X93142700Y-108230400D02*
X93108000Y-108319000D01*
X93108000Y-108319000D02*
X92999900Y-108485300D01*
X92999900Y-108485300D02*
X92853600Y-108639500D01*
X92853600Y-108639500D02*
X92508900Y-108923600D01*
X92508900Y-108923600D02*
X92342100Y-109059500D01*
X92342100Y-109059500D02*
X92199800Y-109195300D01*
X92199800Y-109195300D02*
X91365800Y-110064300D01*
X91365800Y-110064300D02*
X90548600Y-110950000D01*
X90548600Y-110950000D02*
X89748000Y-111851400D01*
X89748000Y-111851400D02*
X88963500Y-112767500D01*
X88963500Y-112767500D02*
X88194900Y-113697100D01*
X88194900Y-113697100D02*
X87441900Y-114639300D01*
X87441900Y-114639300D02*
X86704100Y-115592900D01*
X86704100Y-115592900D02*
X85981200Y-116557000D01*
X85981200Y-116557000D02*
X85445100Y-117309800D01*
X85445100Y-117309800D02*
X84922500Y-118073800D01*
X84922500Y-118073800D02*
X84414800Y-118849000D01*
X84414800Y-118849000D02*
X83923200Y-119635200D01*
X83923200Y-119635200D02*
X83449200Y-120432200D01*
X83449200Y-120432200D02*
X82994000Y-121240100D01*
X82994000Y-121240100D02*
X82559100Y-122058600D01*
X82559100Y-122058600D02*
X82145800Y-122887600D01*
X82145800Y-122887600D02*
X81755400Y-123727100D01*
X81755400Y-123727100D02*
X81389200Y-124576800D01*
X81389200Y-124576800D02*
X81048700Y-125436600D01*
X81048700Y-125436600D02*
X80735100Y-126306400D01*
X80735100Y-126306400D02*
X80449800Y-127186200D01*
X80449800Y-127186200D02*
X80194100Y-128075700D01*
X80194100Y-128075700D02*
X79969500Y-128974800D01*
X79969500Y-128974800D02*
X79777200Y-129883500D01*
X79777200Y-129883500D02*
X79843400Y-130180900D01*
X79843400Y-130180900D02*
X79937400Y-130463800D01*
X79937400Y-130463800D02*
X80057400Y-130731900D01*
X80057400Y-130731900D02*
X80201600Y-130984900D01*
X80201600Y-130984900D02*
X80367900Y-131222800D01*
X80367900Y-131222800D02*
X80554700Y-131445300D01*
X80554700Y-131445300D02*
X80759800Y-131652200D01*
X80759800Y-131652200D02*
X80981600Y-131843200D01*
X80981600Y-131843200D02*
X81218100Y-132018200D01*
X81218100Y-132018200D02*
X81467400Y-132177100D01*
X81467400Y-132177100D02*
X81727600Y-132319400D01*
X81727600Y-132319400D02*
X81996900Y-132445200D01*
X81996900Y-132445200D02*
X82273400Y-132554100D01*
X82273400Y-132554100D02*
X82555100Y-132645900D01*
X82555100Y-132645900D02*
X82840300Y-132720500D01*
X82840300Y-132720500D02*
X83127100Y-132777700D01*
X83127100Y-132777700D02*
X84043300Y-132925100D01*
X84043300Y-132925100D02*
X84961300Y-133053500D01*
X84961300Y-133053500D02*
X85881300Y-133163000D01*
X85881300Y-133163000D02*
X86803200Y-133253900D01*
X86803200Y-133253900D02*
X87727100Y-133326300D01*
X87727100Y-133326300D02*
X88653200Y-133380400D01*
X88653200Y-133380400D02*
X89581600Y-133416300D01*
X89581600Y-133416300D02*
X90512300Y-133434300D01*
X90512300Y-133434300D02*
X92380700Y-133422800D01*
X92380700Y-133422800D02*
X94253200Y-133381700D01*
X94253200Y-133381700D02*
X96126400Y-133342600D01*
X96126400Y-133342600D02*
X97997000Y-133337200D01*
X97997000Y-133337200D02*
X98930300Y-133357000D01*
X98930300Y-133357000D02*
X99861500Y-133397000D01*
X99861500Y-133397000D02*
X100790500Y-133461300D01*
X100790500Y-133461300D02*
X101716600Y-133553700D01*
X101716600Y-133553700D02*
X102639500Y-133678200D01*
X102639500Y-133678200D02*
X103558700Y-133838800D01*
X103558700Y-133838800D02*
X104473900Y-134039400D01*
X104473900Y-134039400D02*
X105384600Y-134283900D01*
X105384600Y-134283900D02*
X105736600Y-134565000D01*
X105736600Y-134565000D02*
X106053100Y-134871500D01*
X106053100Y-134871500D02*
X106336100Y-135201200D01*
X106336100Y-135201200D02*
X106587500Y-135551900D01*
X106587500Y-135551900D02*
X106809100Y-135921300D01*
X106809100Y-135921300D02*
X107002900Y-136307300D01*
X107002900Y-136307300D02*
X107170800Y-136707500D01*
X107170800Y-136707500D02*
X107314600Y-137119800D01*
X107314600Y-137119800D02*
X107436400Y-137541800D01*
X107436400Y-137541800D02*
X107538000Y-137971500D01*
X107538000Y-137971500D02*
X107621300Y-138406500D01*
X107621300Y-138406500D02*
X107688200Y-138844600D01*
X107688200Y-138844600D02*
X107780500Y-139721300D01*
X107780500Y-139721300D02*
X107830100Y-140583400D01*
X107830100Y-140583400D02*
X107859300Y-141430400D01*
X107859300Y-141430400D02*
X107906200Y-142276400D01*
X107906200Y-142276400D02*
X108029000Y-143965400D01*
X108029000Y-143965400D02*
X108149800Y-145654400D01*
X108149800Y-145654400D02*
X108194200Y-146499400D01*
X108194200Y-146499400D02*
X108219800Y-147346400D01*
X108219800Y-147346400D02*
X108266500Y-147936400D01*
X108266500Y-147936400D02*
X108342000Y-148534400D01*
X108342000Y-148534400D02*
X108454900Y-149131400D01*
X108454900Y-149131400D02*
X108613700Y-149714400D01*
X108613700Y-149714400D02*
X108713000Y-149997400D01*
X108713000Y-149997400D02*
X108827000Y-150273400D01*
X108827000Y-150273400D02*
X108956700Y-150539400D01*
X108956700Y-150539400D02*
X109103200Y-150796400D01*
X109103200Y-150796400D02*
X109267600Y-151040400D01*
X109267600Y-151040400D02*
X109451000Y-151272400D01*
X109451000Y-151272400D02*
X109654300Y-151489400D01*
X109654300Y-151489400D02*
X109878700Y-151690400D01*
X109878700Y-151690400D02*
X110493900Y-151858400D01*
X110493900Y-151858400D02*
X111113000Y-151989400D01*
X111113000Y-151989400D02*
X111735400Y-152089400D01*
X111735400Y-152089400D02*
X112360800Y-152160400D01*
X112360800Y-152160400D02*
X112988700Y-152207400D01*
X112988700Y-152207400D02*
X113618600Y-152235400D01*
X113618600Y-152235400D02*
X114882500Y-152248400D01*
X114882500Y-152248400D02*
X116148700Y-152233400D01*
X116148700Y-152233400D02*
X117413600Y-152224400D01*
X117413600Y-152224400D02*
X118044400Y-152232400D01*
X118044400Y-152232400D02*
X118673400Y-152255400D01*
X118673400Y-152255400D02*
X119300300Y-152295400D01*
X119300300Y-152295400D02*
X119924400Y-152358400D01*
X119924400Y-152358400D02*
X120944600Y-152386400D01*
X120944600Y-152386400D02*
X121975300Y-152430400D01*
X121975300Y-152430400D02*
X123011400Y-152468400D01*
X123011400Y-152468400D02*
X124047900Y-152478400D01*
X124047900Y-152478400D02*
X124564700Y-152465400D01*
X124564700Y-152465400D02*
X125079700Y-152437400D01*
X125079700Y-152437400D02*
X125592200Y-152391400D01*
X125592200Y-152391400D02*
X126101600Y-152324400D01*
X126101600Y-152324400D02*
X126607300Y-152233400D01*
X126607300Y-152233400D02*
X127108600Y-152116400D01*
X127108600Y-152116400D02*
X127604900Y-151970400D01*
X127604900Y-151970400D02*
X128095500Y-151791400D01*
X128095500Y-151791400D02*
X128372500Y-151411400D01*
X128372500Y-151411400D02*
X128606500Y-151015400D01*
X128606500Y-151015400D02*
X128801600Y-150607400D01*
X128801600Y-150607400D02*
X128961600Y-150186400D01*
X128961600Y-150186400D02*
X129090300Y-149755400D01*
X129090300Y-149755400D02*
X129191700Y-149316400D01*
X129191700Y-149316400D02*
X129269700Y-148868400D01*
X129269700Y-148868400D02*
X129328000Y-148415400D01*
X129328000Y-148415400D02*
X129401300Y-147498400D01*
X129401300Y-147498400D02*
X129442700Y-146574400D01*
X129442700Y-146574400D02*
X129483300Y-145657400D01*
X129483300Y-145657400D02*
X129554100Y-144759400D01*
X129554100Y-144759400D02*
X129689100Y-143984400D01*
X129689100Y-143984400D02*
X129779600Y-143203400D01*
X129779600Y-143203400D02*
X129841500Y-142418400D01*
X129841500Y-142418400D02*
X129891100Y-141632400D01*
X129891100Y-141632400D02*
X129944600Y-140845400D01*
X129944600Y-140845400D02*
X130018100Y-140062400D01*
X130018100Y-140062400D02*
X130127700Y-139282800D01*
X130127700Y-139282800D02*
X130201200Y-138895500D01*
X130201200Y-138895500D02*
X130289700Y-138510200D01*
X130289700Y-138510200D02*
X130372200Y-138151600D01*
X130372200Y-138151600D02*
X130475700Y-137792800D01*
X130475700Y-137792800D02*
X130600100Y-137436700D01*
X130600100Y-137436700D02*
X130745200Y-137085900D01*
X130745200Y-137085900D02*
X130910800Y-136743400D01*
X130910800Y-136743400D02*
X131096700Y-136411800D01*
X131096700Y-136411800D02*
X131303000Y-136094000D01*
X131303000Y-136094000D02*
X131529300Y-135792700D01*
X131529300Y-135792700D02*
X131775500Y-135510700D01*
X131775500Y-135510700D02*
X132041500Y-135250900D01*
X132041500Y-135250900D02*
X132327100Y-135015900D01*
X132327100Y-135015900D02*
X132632100Y-134808700D01*
X132632100Y-134808700D02*
X132956500Y-134631900D01*
X132956500Y-134631900D02*
X133300000Y-134488300D01*
X133300000Y-134488300D02*
X133662500Y-134380800D01*
X133662500Y-134380800D02*
X134043900Y-134312100D01*
X134043900Y-134312100D02*
X134619200Y-134217400D01*
X134619200Y-134217400D02*
X135195500Y-134151600D01*
X135195500Y-134151600D02*
X135772700Y-134111100D01*
X135772700Y-134111100D02*
X136350700Y-134092300D01*
X136350700Y-134092300D02*
X136929500Y-134091600D01*
X136929500Y-134091600D02*
X137509100Y-134105300D01*
X137509100Y-134105300D02*
X138670600Y-134161600D01*
X138670600Y-134161600D02*
X139834700Y-134232200D01*
X139834700Y-134232200D02*
X141001300Y-134288100D01*
X141001300Y-134288100D02*
X141585400Y-134301500D01*
X141585400Y-134301500D02*
X142169900Y-134300300D01*
X142169900Y-134300300D02*
X142755000Y-134280900D01*
X142755000Y-134280900D02*
X143340400Y-134239700D01*
X143340400Y-134239700D02*
X145097600Y-134265200D01*
X145097600Y-134265200D02*
X146859100Y-134309100D01*
X146859100Y-134309100D02*
X148622500Y-134348100D01*
X148622500Y-134348100D02*
X150385100Y-134359300D01*
X150385100Y-134359300D02*
X151265200Y-134347200D01*
X151265200Y-134347200D02*
X152144200Y-134319400D01*
X152144200Y-134319400D02*
X153021800Y-134273200D01*
X153021800Y-134273200D02*
X153896800Y-134205500D01*
X153896800Y-134205500D02*
X154770800Y-134113500D01*
X154770800Y-134113500D02*
X155641800Y-133994300D01*
X155641800Y-133994300D02*
X156509800Y-133845000D01*
X156509800Y-133845000D02*
X157374800Y-133662800D01*
X157374800Y-133662800D02*
X157652800Y-133466900D01*
X157652800Y-133466900D02*
X157903800Y-133248200D01*
X157903800Y-133248200D02*
X158128800Y-133008800D01*
X158128800Y-133008800D02*
X158328800Y-132750900D01*
X158328800Y-132750900D02*
X158503800Y-132476400D01*
X158503800Y-132476400D02*
X158653800Y-132187500D01*
X158653800Y-132187500D02*
X158779800Y-131886200D01*
X158779800Y-131886200D02*
X158882800Y-131574600D01*
X158882800Y-131574600D02*
X158961800Y-131254700D01*
X158961800Y-131254700D02*
X159017800Y-130928700D01*
X159017800Y-130928700D02*
X159051800Y-130598600D01*
X159051800Y-130598600D02*
X159062800Y-130266400D01*
X159062800Y-130266400D02*
X159052800Y-129934300D01*
X159052800Y-129934300D02*
X159021800Y-129604300D01*
X159021800Y-129604300D02*
X158969800Y-129278400D01*
X158969800Y-129278400D02*
X158897800Y-128958800D01*
X158897800Y-128958800D02*
X158820800Y-128622300D01*
X158820800Y-128622300D02*
X158728800Y-128291200D01*
X158728800Y-128291200D02*
X158506800Y-127642800D01*
X158506800Y-127642800D02*
X158246800Y-127009000D01*
X158246800Y-127009000D02*
X157959800Y-126385200D01*
X157959800Y-126385200D02*
X157353800Y-125149200D01*
X157353800Y-125149200D02*
X157059800Y-124527800D01*
X157059800Y-124527800D02*
X156787800Y-123898000D01*
X156787800Y-123898000D02*
X156274800Y-122849000D01*
X156274800Y-122849000D02*
X155736800Y-121813400D01*
X155736800Y-121813400D02*
X155174800Y-120791400D01*
X155174800Y-120791400D02*
X154588800Y-119783000D01*
X154588800Y-119783000D02*
X153978800Y-118788500D01*
X153978800Y-118788500D02*
X153347800Y-117807900D01*
X153347800Y-117807900D02*
X152694700Y-116841400D01*
X152694700Y-116841400D02*
X152020800Y-115889000D01*
X152020800Y-115889000D02*
X151326800Y-114951000D01*
X151326800Y-114951000D02*
X150613300Y-114027500D01*
X150613300Y-114027500D02*
X149881100Y-113118600D01*
X149881100Y-113118600D02*
X149131000Y-112224400D01*
X149131000Y-112224400D02*
X148363500Y-111345100D01*
X148363500Y-111345100D02*
X147579500Y-110480700D01*
X147579500Y-110480700D02*
X146779700Y-109631500D01*
X146779700Y-109631500D02*
X145964700Y-108797600D01*
X145964700Y-108797600D02*
X146678900Y-108620000D01*
X146678900Y-108620000D02*
X147415600Y-108478500D01*
X147415600Y-108478500D02*
X148160600Y-108346100D01*
X148160600Y-108346100D02*
X148900000Y-108196000D01*
X148900000Y-108196000D02*
X149263200Y-108105900D01*
X149263200Y-108105900D02*
X149619800Y-108001400D01*
X149619800Y-108001400D02*
X149968000Y-107878900D01*
X149968000Y-107878900D02*
X150306000Y-107735300D01*
X150306000Y-107735300D02*
X150632000Y-107567100D01*
X150632000Y-107567100D02*
X150944500Y-107371000D01*
X150944500Y-107371000D02*
X151241500Y-107143600D01*
X151241500Y-107143600D02*
X151521300Y-106881600D01*
X151521300Y-106881600D02*
X151760700Y-106593700D01*
X151760700Y-106593700D02*
X151952800Y-106280700D01*
X151952800Y-106280700D02*
X152098600Y-105947400D01*
X152098600Y-105947400D02*
X152199100Y-105598500D01*
X152199100Y-105598500D02*
X152255200Y-105238700D01*
X152255200Y-105238700D02*
X152268100Y-104872600D01*
X152268100Y-104872600D02*
X152238500Y-104505000D01*
X152238500Y-104505000D02*
X152167600Y-104140600D01*
X152167600Y-104140600D02*
X152072200Y-103663100D01*
X152072200Y-103663100D02*
X151954500Y-103193400D01*
X151954500Y-103193400D02*
X151817100Y-102730400D01*
X151817100Y-102730400D02*
X151662400Y-102273300D01*
X151662400Y-102273300D02*
X151311300Y-101373500D01*
X151311300Y-101373500D02*
X150921200Y-100487000D01*
X150921200Y-100487000D02*
X150104100Y-98726300D01*
X150104100Y-98726300D02*
X149717000Y-97838300D01*
X149717000Y-97838300D02*
X149370900Y-96935900D01*
X149370900Y-96935900D02*
X148790100Y-95701900D01*
X148790100Y-95701900D02*
X148186800Y-94479200D01*
X148186800Y-94479200D02*
X147561500Y-93268000D01*
X147561500Y-93268000D02*
X146914600Y-92068300D01*
X146914600Y-92068300D02*
X146246700Y-90880200D01*
X146246700Y-90880200D02*
X145558400Y-89703800D01*
X145558400Y-89703800D02*
X144850100Y-88539200D01*
X144850100Y-88539200D02*
X144122400Y-87386500D01*
X144122400Y-87386500D02*
X143376000Y-86245800D01*
X143376000Y-86245800D02*
X142611100Y-85117200D01*
X142611100Y-85117200D02*
X141828600Y-84000700D01*
X141828600Y-84000700D02*
X141028700Y-82896500D01*
X141028700Y-82896500D02*
X140212200Y-81804700D01*
X140212200Y-81804700D02*
X139379500Y-80725300D01*
X139379500Y-80725300D02*
X138531200Y-79658400D01*
X138531200Y-79658400D02*
X137667800Y-78604200D01*
X137667800Y-78604200D02*
X137760800Y-78458000D01*
X137760800Y-78458000D02*
X137868600Y-78334400D01*
X137868600Y-78334400D02*
X137989500Y-78231100D01*
X137989500Y-78231100D02*
X138122000Y-78146000D01*
X138122000Y-78146000D02*
X138264600Y-78076700D01*
X138264600Y-78076700D02*
X138415700Y-78021100D01*
X138415700Y-78021100D02*
X138737300Y-77941700D01*
X138737300Y-77941700D02*
X139074100Y-77889800D01*
X139074100Y-77889800D02*
X139413900Y-77847400D01*
X139413900Y-77847400D02*
X139744200Y-77796600D01*
X139744200Y-77796600D02*
X140052600Y-77719400D01*
X140052600Y-77719400D02*
X140239000Y-77682900D01*
X140239000Y-77682900D02*
X140417800Y-77627100D01*
X140417800Y-77627100D02*
X140588100Y-77553400D01*
X140588100Y-77553400D02*
X140748700Y-77463000D01*
X140748700Y-77463000D02*
X140898600Y-77357200D01*
X140898600Y-77357200D02*
X141036900Y-77237400D01*
X141036900Y-77237400D02*
X141162500Y-77104900D01*
X141162500Y-77104900D02*
X141274300Y-76960900D01*
X141274300Y-76960900D02*
X141371400Y-76806800D01*
X141371400Y-76806800D02*
X141452600Y-76643900D01*
X141452600Y-76643900D02*
X141517100Y-76473400D01*
X141517100Y-76473400D02*
X141563700Y-76296700D01*
X141563700Y-76296700D02*
X141591400Y-76115200D01*
X141591400Y-76115200D02*
X141599300Y-75930000D01*
X141599300Y-75930000D02*
X141586200Y-75742500D01*
X141586200Y-75742500D02*
X141551100Y-75554000D01*
X141551100Y-75554000D02*
X141485000Y-75177500D01*
X141485000Y-75177500D02*
X141385500Y-74817300D01*
X141385500Y-74817300D02*
X141256300Y-74471400D01*
X141256300Y-74471400D02*
X141101000Y-74138200D01*
X141101000Y-74138200D02*
X140923400Y-73815900D01*
X140923400Y-73815900D02*
X140727100Y-73502500D01*
X140727100Y-73502500D02*
X140293500Y-72895500D01*
X140293500Y-72895500D02*
X139364900Y-71710300D01*
X139364900Y-71710300D02*
X138929200Y-71103100D01*
X138929200Y-71103100D02*
X138731400Y-70789600D01*
X138731400Y-70789600D02*
X138551900Y-70467000D01*
X138551900Y-70467000D02*
X136879800Y-68204800D01*
X136879800Y-68204800D02*
X135175400Y-65964100D01*
X135175400Y-65964100D02*
X133432000Y-63753100D01*
X133432000Y-63753100D02*
X132543600Y-62661300D01*
X132543600Y-62661300D02*
X131642900Y-61580000D01*
X131642900Y-61580000D02*
X130729000Y-60510200D01*
X130729000Y-60510200D02*
X129801200Y-59452800D01*
X129801200Y-59452800D02*
X128858600Y-58409100D01*
X128858600Y-58409100D02*
X127900400Y-57379800D01*
X127900400Y-57379800D02*
X126925700Y-56366200D01*
X126925700Y-56366200D02*
X125933600Y-55369100D01*
X125933600Y-55369100D02*
X124923400Y-54389600D01*
X124923400Y-54389600D02*
X123894200Y-53428800D01*
X123894200Y-53428800D02*
X123522100Y-53146600D01*
X123522100Y-53146600D02*
X123132200Y-52883000D01*
X123132200Y-52883000D02*
X122725500Y-52644300D01*
X122725500Y-52644300D02*
X122303500Y-52436600D01*
X122303500Y-52436600D02*
X121867300Y-52266100D01*
X121867300Y-52266100D02*
X121418200Y-52139000D01*
X121418200Y-52139000D02*
X120957400Y-52061500D01*
X120957400Y-52061500D02*
X120723000Y-52043300D01*
X120723000Y-52043300D02*
X120486200Y-52039800D01*
X120486200Y-52039800D02*
X120486200Y-52039800D01*
X120486200Y-52039800D02*
X120486200Y-52039800D01*
M02*
