%TF.GenerationSoftware,KiCad,Pcbnew,9.0.6*%
%TF.CreationDate,2025-12-01T09:21:34+01:00*%
%TF.ProjectId,BL_Santa,424c5f53-616e-4746-912e-6b696361645f,rev?*%
%TF.SameCoordinates,Original*%
%TF.FileFunction,Legend,Bot*%
%TF.FilePolarity,Positive*%
%FSLAX46Y46*%
G04 Gerber Fmt 4.6, Leading zero omitted, Abs format (unit mm)*
G04 Created by KiCad (PCBNEW 9.0.6) date 2025-12-01 09:21:34*
%MOMM*%
%LPD*%
G01*
G04 APERTURE LIST*
%ADD10C,0.150000*%
%ADD11C,0.050000*%
%ADD12C,0.120000*%
%ADD13C,0.010000*%
G04 APERTURE END LIST*
D10*
X94463220Y-112069819D02*
X94463220Y-111069819D01*
X93891792Y-112069819D02*
X94320363Y-111498390D01*
X93891792Y-111069819D02*
X94463220Y-111641247D01*
X104063220Y-78569819D02*
X104063220Y-77569819D01*
X103491792Y-78569819D02*
X103920363Y-77998390D01*
X103491792Y-77569819D02*
X104063220Y-78141247D01*
X137763220Y-71769819D02*
X137763220Y-70769819D01*
X137191792Y-71769819D02*
X137620363Y-71198390D01*
X137191792Y-70769819D02*
X137763220Y-71341247D01*
X146363220Y-105769819D02*
X146363220Y-104769819D01*
X145791792Y-105769819D02*
X146220363Y-105198390D01*
X145791792Y-104769819D02*
X146363220Y-105341247D01*
X99077506Y-130569819D02*
X99077506Y-131284104D01*
X99077506Y-131284104D02*
X99125125Y-131426961D01*
X99125125Y-131426961D02*
X99220363Y-131522200D01*
X99220363Y-131522200D02*
X99363220Y-131569819D01*
X99363220Y-131569819D02*
X99458458Y-131569819D01*
X98125125Y-131569819D02*
X98601315Y-131569819D01*
X98601315Y-131569819D02*
X98601315Y-130569819D01*
X97220363Y-131474580D02*
X97267982Y-131522200D01*
X97267982Y-131522200D02*
X97410839Y-131569819D01*
X97410839Y-131569819D02*
X97506077Y-131569819D01*
X97506077Y-131569819D02*
X97648934Y-131522200D01*
X97648934Y-131522200D02*
X97744172Y-131426961D01*
X97744172Y-131426961D02*
X97791791Y-131331723D01*
X97791791Y-131331723D02*
X97839410Y-131141247D01*
X97839410Y-131141247D02*
X97839410Y-130998390D01*
X97839410Y-130998390D02*
X97791791Y-130807914D01*
X97791791Y-130807914D02*
X97744172Y-130712676D01*
X97744172Y-130712676D02*
X97648934Y-130617438D01*
X97648934Y-130617438D02*
X97506077Y-130569819D01*
X97506077Y-130569819D02*
X97410839Y-130569819D01*
X97410839Y-130569819D02*
X97267982Y-130617438D01*
X97267982Y-130617438D02*
X97220363Y-130665057D01*
X96506077Y-130569819D02*
X96506077Y-131284104D01*
X96506077Y-131284104D02*
X96553696Y-131426961D01*
X96553696Y-131426961D02*
X96648934Y-131522200D01*
X96648934Y-131522200D02*
X96791791Y-131569819D01*
X96791791Y-131569819D02*
X96887029Y-131569819D01*
X95553696Y-131569819D02*
X96029886Y-131569819D01*
X96029886Y-131569819D02*
X96029886Y-130569819D01*
X94648934Y-131474580D02*
X94696553Y-131522200D01*
X94696553Y-131522200D02*
X94839410Y-131569819D01*
X94839410Y-131569819D02*
X94934648Y-131569819D01*
X94934648Y-131569819D02*
X95077505Y-131522200D01*
X95077505Y-131522200D02*
X95172743Y-131426961D01*
X95172743Y-131426961D02*
X95220362Y-131331723D01*
X95220362Y-131331723D02*
X95267981Y-131141247D01*
X95267981Y-131141247D02*
X95267981Y-130998390D01*
X95267981Y-130998390D02*
X95220362Y-130807914D01*
X95220362Y-130807914D02*
X95172743Y-130712676D01*
X95172743Y-130712676D02*
X95077505Y-130617438D01*
X95077505Y-130617438D02*
X94934648Y-130569819D01*
X94934648Y-130569819D02*
X94839410Y-130569819D01*
X94839410Y-130569819D02*
X94696553Y-130617438D01*
X94696553Y-130617438D02*
X94648934Y-130665057D01*
X93934648Y-130569819D02*
X93934648Y-131284104D01*
X93934648Y-131284104D02*
X93982267Y-131426961D01*
X93982267Y-131426961D02*
X94077505Y-131522200D01*
X94077505Y-131522200D02*
X94220362Y-131569819D01*
X94220362Y-131569819D02*
X94315600Y-131569819D01*
X92982267Y-131569819D02*
X93458457Y-131569819D01*
X93458457Y-131569819D02*
X93458457Y-130569819D01*
X92077505Y-131474580D02*
X92125124Y-131522200D01*
X92125124Y-131522200D02*
X92267981Y-131569819D01*
X92267981Y-131569819D02*
X92363219Y-131569819D01*
X92363219Y-131569819D02*
X92506076Y-131522200D01*
X92506076Y-131522200D02*
X92601314Y-131426961D01*
X92601314Y-131426961D02*
X92648933Y-131331723D01*
X92648933Y-131331723D02*
X92696552Y-131141247D01*
X92696552Y-131141247D02*
X92696552Y-130998390D01*
X92696552Y-130998390D02*
X92648933Y-130807914D01*
X92648933Y-130807914D02*
X92601314Y-130712676D01*
X92601314Y-130712676D02*
X92506076Y-130617438D01*
X92506076Y-130617438D02*
X92363219Y-130569819D01*
X92363219Y-130569819D02*
X92267981Y-130569819D01*
X92267981Y-130569819D02*
X92125124Y-130617438D01*
X92125124Y-130617438D02*
X92077505Y-130665057D01*
X91363219Y-130569819D02*
X91363219Y-131284104D01*
X91363219Y-131284104D02*
X91410838Y-131426961D01*
X91410838Y-131426961D02*
X91506076Y-131522200D01*
X91506076Y-131522200D02*
X91648933Y-131569819D01*
X91648933Y-131569819D02*
X91744171Y-131569819D01*
X90410838Y-131569819D02*
X90887028Y-131569819D01*
X90887028Y-131569819D02*
X90887028Y-130569819D01*
X89506076Y-131474580D02*
X89553695Y-131522200D01*
X89553695Y-131522200D02*
X89696552Y-131569819D01*
X89696552Y-131569819D02*
X89791790Y-131569819D01*
X89791790Y-131569819D02*
X89934647Y-131522200D01*
X89934647Y-131522200D02*
X90029885Y-131426961D01*
X90029885Y-131426961D02*
X90077504Y-131331723D01*
X90077504Y-131331723D02*
X90125123Y-131141247D01*
X90125123Y-131141247D02*
X90125123Y-130998390D01*
X90125123Y-130998390D02*
X90077504Y-130807914D01*
X90077504Y-130807914D02*
X90029885Y-130712676D01*
X90029885Y-130712676D02*
X89934647Y-130617438D01*
X89934647Y-130617438D02*
X89791790Y-130569819D01*
X89791790Y-130569819D02*
X89696552Y-130569819D01*
X89696552Y-130569819D02*
X89553695Y-130617438D01*
X89553695Y-130617438D02*
X89506076Y-130665057D01*
D11*
X120005714Y-123680019D02*
X120005714Y-124489542D01*
X120005714Y-124489542D02*
X119962857Y-124584780D01*
X119962857Y-124584780D02*
X119920000Y-124632400D01*
X119920000Y-124632400D02*
X119834285Y-124680019D01*
X119834285Y-124680019D02*
X119662857Y-124680019D01*
X119662857Y-124680019D02*
X119577142Y-124632400D01*
X119577142Y-124632400D02*
X119534285Y-124584780D01*
X119534285Y-124584780D02*
X119491428Y-124489542D01*
X119491428Y-124489542D02*
X119491428Y-123680019D01*
X118591428Y-124680019D02*
X119105714Y-124680019D01*
X118848571Y-124680019D02*
X118848571Y-123680019D01*
X118848571Y-123680019D02*
X118934285Y-123822876D01*
X118934285Y-123822876D02*
X119020000Y-123918114D01*
X119020000Y-123918114D02*
X119105714Y-123965733D01*
X118598570Y-128276209D02*
X118469998Y-128323828D01*
X118469998Y-128323828D02*
X118427141Y-128371447D01*
X118427141Y-128371447D02*
X118384284Y-128466685D01*
X118384284Y-128466685D02*
X118384284Y-128609542D01*
X118384284Y-128609542D02*
X118427141Y-128704780D01*
X118427141Y-128704780D02*
X118469998Y-128752400D01*
X118469998Y-128752400D02*
X118555713Y-128800019D01*
X118555713Y-128800019D02*
X118898570Y-128800019D01*
X118898570Y-128800019D02*
X118898570Y-127800019D01*
X118898570Y-127800019D02*
X118598570Y-127800019D01*
X118598570Y-127800019D02*
X118512856Y-127847638D01*
X118512856Y-127847638D02*
X118469998Y-127895257D01*
X118469998Y-127895257D02*
X118427141Y-127990495D01*
X118427141Y-127990495D02*
X118427141Y-128085733D01*
X118427141Y-128085733D02*
X118469998Y-128180971D01*
X118469998Y-128180971D02*
X118512856Y-128228590D01*
X118512856Y-128228590D02*
X118598570Y-128276209D01*
X118598570Y-128276209D02*
X118898570Y-128276209D01*
X118041427Y-128514304D02*
X117612856Y-128514304D01*
X118127141Y-128800019D02*
X117827141Y-127800019D01*
X117827141Y-127800019D02*
X117527141Y-128800019D01*
X117355712Y-127800019D02*
X116841427Y-127800019D01*
X117098569Y-128800019D02*
X117098569Y-127800019D01*
X116755713Y-128895257D02*
X116069998Y-128895257D01*
X115855713Y-128800019D02*
X115855713Y-127800019D01*
X115855713Y-128276209D02*
X115341427Y-128276209D01*
X115341427Y-128800019D02*
X115341427Y-127800019D01*
X114484284Y-128800019D02*
X114912856Y-128800019D01*
X114912856Y-128800019D02*
X114912856Y-127800019D01*
X114184285Y-128800019D02*
X114184285Y-127800019D01*
X114184285Y-127800019D02*
X113969999Y-127800019D01*
X113969999Y-127800019D02*
X113841428Y-127847638D01*
X113841428Y-127847638D02*
X113755713Y-127942876D01*
X113755713Y-127942876D02*
X113712856Y-128038114D01*
X113712856Y-128038114D02*
X113669999Y-128228590D01*
X113669999Y-128228590D02*
X113669999Y-128371447D01*
X113669999Y-128371447D02*
X113712856Y-128561923D01*
X113712856Y-128561923D02*
X113755713Y-128657161D01*
X113755713Y-128657161D02*
X113841428Y-128752400D01*
X113841428Y-128752400D02*
X113969999Y-128800019D01*
X113969999Y-128800019D02*
X114184285Y-128800019D01*
X113498571Y-128895257D02*
X112812856Y-128895257D01*
X112641428Y-128752400D02*
X112512857Y-128800019D01*
X112512857Y-128800019D02*
X112298571Y-128800019D01*
X112298571Y-128800019D02*
X112212857Y-128752400D01*
X112212857Y-128752400D02*
X112169999Y-128704780D01*
X112169999Y-128704780D02*
X112127142Y-128609542D01*
X112127142Y-128609542D02*
X112127142Y-128514304D01*
X112127142Y-128514304D02*
X112169999Y-128419066D01*
X112169999Y-128419066D02*
X112212857Y-128371447D01*
X112212857Y-128371447D02*
X112298571Y-128323828D01*
X112298571Y-128323828D02*
X112469999Y-128276209D01*
X112469999Y-128276209D02*
X112555714Y-128228590D01*
X112555714Y-128228590D02*
X112598571Y-128180971D01*
X112598571Y-128180971D02*
X112641428Y-128085733D01*
X112641428Y-128085733D02*
X112641428Y-127990495D01*
X112641428Y-127990495D02*
X112598571Y-127895257D01*
X112598571Y-127895257D02*
X112555714Y-127847638D01*
X112555714Y-127847638D02*
X112469999Y-127800019D01*
X112469999Y-127800019D02*
X112255714Y-127800019D01*
X112255714Y-127800019D02*
X112127142Y-127847638D01*
X111741428Y-128800019D02*
X111741428Y-127800019D01*
X111741428Y-127800019D02*
X111441428Y-128514304D01*
X111441428Y-128514304D02*
X111141428Y-127800019D01*
X111141428Y-127800019D02*
X111141428Y-128800019D01*
X110712857Y-128800019D02*
X110712857Y-127800019D01*
X110712857Y-127800019D02*
X110498571Y-127800019D01*
X110498571Y-127800019D02*
X110370000Y-127847638D01*
X110370000Y-127847638D02*
X110284285Y-127942876D01*
X110284285Y-127942876D02*
X110241428Y-128038114D01*
X110241428Y-128038114D02*
X110198571Y-128228590D01*
X110198571Y-128228590D02*
X110198571Y-128371447D01*
X110198571Y-128371447D02*
X110241428Y-128561923D01*
X110241428Y-128561923D02*
X110284285Y-128657161D01*
X110284285Y-128657161D02*
X110370000Y-128752400D01*
X110370000Y-128752400D02*
X110498571Y-128800019D01*
X110498571Y-128800019D02*
X110712857Y-128800019D01*
D10*
X156766666Y-128554819D02*
X157338094Y-128554819D01*
X157052380Y-128554819D02*
X157052380Y-127554819D01*
X157052380Y-127554819D02*
X157147618Y-127697676D01*
X157147618Y-127697676D02*
X157242856Y-127792914D01*
X157242856Y-127792914D02*
X157338094Y-127840533D01*
X156147618Y-127554819D02*
X156052380Y-127554819D01*
X156052380Y-127554819D02*
X155957142Y-127602438D01*
X155957142Y-127602438D02*
X155909523Y-127650057D01*
X155909523Y-127650057D02*
X155861904Y-127745295D01*
X155861904Y-127745295D02*
X155814285Y-127935771D01*
X155814285Y-127935771D02*
X155814285Y-128173866D01*
X155814285Y-128173866D02*
X155861904Y-128364342D01*
X155861904Y-128364342D02*
X155909523Y-128459580D01*
X155909523Y-128459580D02*
X155957142Y-128507200D01*
X155957142Y-128507200D02*
X156052380Y-128554819D01*
X156052380Y-128554819D02*
X156147618Y-128554819D01*
X156147618Y-128554819D02*
X156242856Y-128507200D01*
X156242856Y-128507200D02*
X156290475Y-128459580D01*
X156290475Y-128459580D02*
X156338094Y-128364342D01*
X156338094Y-128364342D02*
X156385713Y-128173866D01*
X156385713Y-128173866D02*
X156385713Y-127935771D01*
X156385713Y-127935771D02*
X156338094Y-127745295D01*
X156338094Y-127745295D02*
X156290475Y-127650057D01*
X156290475Y-127650057D02*
X156242856Y-127602438D01*
X156242856Y-127602438D02*
X156147618Y-127554819D01*
X155195237Y-127554819D02*
X155099999Y-127554819D01*
X155099999Y-127554819D02*
X155004761Y-127602438D01*
X155004761Y-127602438D02*
X154957142Y-127650057D01*
X154957142Y-127650057D02*
X154909523Y-127745295D01*
X154909523Y-127745295D02*
X154861904Y-127935771D01*
X154861904Y-127935771D02*
X154861904Y-128173866D01*
X154861904Y-128173866D02*
X154909523Y-128364342D01*
X154909523Y-128364342D02*
X154957142Y-128459580D01*
X154957142Y-128459580D02*
X155004761Y-128507200D01*
X155004761Y-128507200D02*
X155099999Y-128554819D01*
X155099999Y-128554819D02*
X155195237Y-128554819D01*
X155195237Y-128554819D02*
X155290475Y-128507200D01*
X155290475Y-128507200D02*
X155338094Y-128459580D01*
X155338094Y-128459580D02*
X155385713Y-128364342D01*
X155385713Y-128364342D02*
X155433332Y-128173866D01*
X155433332Y-128173866D02*
X155433332Y-127935771D01*
X155433332Y-127935771D02*
X155385713Y-127745295D01*
X155385713Y-127745295D02*
X155338094Y-127650057D01*
X155338094Y-127650057D02*
X155290475Y-127602438D01*
X155290475Y-127602438D02*
X155195237Y-127554819D01*
D11*
%TO.C,G\u002A\u002A\u002A*%
X120800000Y-143525000D02*
X123000000Y-144700000D01*
X123000000Y-144700000D02*
X121425000Y-145600000D01*
X128025000Y-148950000D02*
X126700000Y-149425000D01*
X125125000Y-148475000D02*
X125350000Y-149100000D01*
X125350000Y-149100000D02*
X128025000Y-148950000D01*
X119800000Y-146950000D02*
X121625000Y-147850000D01*
X118125000Y-147175000D02*
X119800000Y-146950000D01*
X116500000Y-146050000D02*
X118125000Y-147175000D01*
X128025000Y-148950000D02*
X124125000Y-144775000D01*
X128025000Y-148950000D02*
X125125000Y-148475000D01*
D12*
X118175000Y-148200000D02*
X118625000Y-148200000D01*
D11*
X119675000Y-147125000D02*
X119275000Y-147400000D01*
X120450000Y-147725000D02*
X119675000Y-147125000D01*
D12*
X119125000Y-147750000D02*
X119125000Y-150200000D01*
X122425000Y-149650000D02*
X121975000Y-149650000D01*
X122925000Y-147750000D02*
X122975000Y-150200000D01*
D11*
X124125000Y-144775000D02*
X123100000Y-144525000D01*
X111700000Y-146675000D02*
X112125000Y-146350000D01*
D12*
X122425000Y-149150000D02*
X122425000Y-149650000D01*
D11*
X111125000Y-146200000D02*
X111700000Y-146675000D01*
D12*
X117775000Y-150200000D02*
X117375000Y-150200000D01*
X119575000Y-150200000D02*
X119575000Y-149700000D01*
X118675000Y-149250000D02*
X118525000Y-149250000D01*
X119125000Y-150200000D02*
X118675000Y-150200000D01*
D11*
X120050000Y-144950000D02*
X116575000Y-143325000D01*
X115350000Y-145825000D02*
X114650000Y-146400000D01*
X120050000Y-144950000D02*
X122375000Y-146100000D01*
X116575000Y-143325000D02*
X116500000Y-146050000D01*
D12*
X112850000Y-149675000D02*
X112400000Y-149675000D01*
X117275000Y-150200000D02*
X117975000Y-149250000D01*
X118625000Y-148200000D02*
X118625000Y-148750000D01*
X112850000Y-148675000D02*
X112550000Y-148675000D01*
D11*
X113425000Y-144300000D02*
X115225000Y-144350000D01*
X124200000Y-148850000D02*
X124575000Y-149025000D01*
X123675000Y-147925000D02*
X116575000Y-143325000D01*
X115225000Y-144350000D02*
X113075000Y-145475000D01*
X125625000Y-149475000D02*
X125050000Y-148675000D01*
X114650000Y-146400000D02*
X116325000Y-146500000D01*
D12*
X112850000Y-148225000D02*
X112850000Y-148675000D01*
X122425000Y-148150000D02*
X122175000Y-148150000D01*
X118625000Y-148750000D02*
X118125000Y-148750000D01*
X120425000Y-149700000D02*
X120425000Y-149150000D01*
X119575000Y-149700000D02*
X120425000Y-149700000D01*
X123875000Y-148600000D02*
X123875000Y-149250000D01*
D11*
X119275000Y-147400000D02*
X120250000Y-147750000D01*
X124125000Y-144775000D02*
X122375000Y-146100000D01*
X124525000Y-148450000D02*
X124200000Y-148850000D01*
D12*
X122025000Y-147763605D02*
X122925000Y-147750000D01*
D11*
X125075000Y-149200000D02*
X125625000Y-149475000D01*
X112125000Y-146350000D02*
X111125000Y-146200000D01*
D12*
X112850000Y-148175000D02*
X112600000Y-148175000D01*
X122424999Y-149145050D02*
X122024999Y-149145050D01*
X112450000Y-147788605D02*
X113350000Y-147775000D01*
D11*
X122375000Y-146100000D02*
X128025000Y-148950000D01*
D12*
X114625000Y-148475000D02*
X114900000Y-149225000D01*
X114400000Y-149225000D02*
X114625000Y-148475000D01*
X120825000Y-150200000D02*
X119575000Y-150200000D01*
X118016269Y-147744594D02*
X119125000Y-147750000D01*
X112849999Y-149170050D02*
X112449999Y-149170050D01*
X112850000Y-149175000D02*
X112850000Y-149675000D01*
X113400000Y-150225000D02*
X112200000Y-150225000D01*
D11*
X126700000Y-149425000D02*
X125875000Y-149075000D01*
D12*
X122975000Y-150200000D02*
X121775000Y-150200000D01*
X124575000Y-148600000D02*
X124575000Y-149300000D01*
D11*
X117675000Y-144950000D02*
X117100000Y-146450000D01*
X116550000Y-143725000D02*
X117675000Y-144950000D01*
X116350000Y-146500000D02*
X115350000Y-145825000D01*
D12*
X113350000Y-147775000D02*
X113400000Y-150225000D01*
D11*
X120800000Y-143525000D02*
X120050000Y-144950000D01*
X123100000Y-144525000D02*
X122375000Y-146100000D01*
X113075000Y-145475000D02*
X113425000Y-144300000D01*
D12*
X118675000Y-150200000D02*
X118675000Y-149250000D01*
X117375000Y-150200000D02*
X117275000Y-150200000D01*
X118525000Y-149250000D02*
X117775000Y-150200000D01*
X115850000Y-149750000D02*
X115850000Y-150200000D01*
X114325000Y-149625000D02*
X114075000Y-150225000D01*
X115175000Y-150225000D02*
X114925000Y-149625000D01*
X120425000Y-148250000D02*
X119575000Y-148250000D01*
X122425000Y-148650000D02*
X122125000Y-148650000D01*
X114900000Y-149225000D02*
X114400000Y-149225000D01*
X119575000Y-147750000D02*
X120875000Y-147750000D01*
X114775000Y-147775000D02*
X115675000Y-150225000D01*
X120425000Y-149150000D02*
X119775000Y-149150000D01*
X119575000Y-148250000D02*
X119575000Y-147750000D01*
X115175000Y-150225000D02*
X115675000Y-150225000D01*
D11*
X122375000Y-146100000D02*
X123850000Y-147825000D01*
D12*
X116625000Y-147750000D02*
X116600000Y-149750000D01*
X117100000Y-150200000D02*
X117075000Y-147750000D01*
X119775000Y-149150000D02*
X119775000Y-148700000D01*
X114075000Y-150225000D02*
X113675000Y-150225000D01*
X114450000Y-147775000D02*
X114775000Y-147775000D01*
X119775000Y-148700000D02*
X120425000Y-148700000D01*
X122425000Y-148200000D02*
X122425000Y-148650000D01*
X120425000Y-148700000D02*
X120425000Y-148250000D01*
X113675000Y-150225000D02*
X114450000Y-147775000D01*
X120925000Y-150200000D02*
X120825000Y-150200000D01*
X120875000Y-147750000D02*
X120925000Y-150200000D01*
X123375000Y-148600000D02*
X123375000Y-149300000D01*
X125075000Y-149300000D02*
X125075000Y-148600000D01*
X117075000Y-147750000D02*
X116625000Y-147750000D01*
D13*
X133572361Y-203195226D02*
X133508542Y-203259045D01*
X133444723Y-203195226D01*
X133508542Y-203131407D01*
X133572361Y-203195226D01*
G36*
X133572361Y-203195226D02*
G01*
X133508542Y-203259045D01*
X133444723Y-203195226D01*
X133508542Y-203131407D01*
X133572361Y-203195226D01*
G37*
D12*
X115850000Y-150200000D02*
X117100000Y-150200000D01*
X116600000Y-149750000D02*
X115850000Y-149750000D01*
X114925000Y-149625000D02*
X114325000Y-149625000D01*
X122125000Y-148650000D02*
G75*
G02*
X122185634Y-148157464I0J250000D01*
G01*
X121575001Y-148849999D02*
G75*
G02*
X122025000Y-147763605I449999J449999D01*
G01*
X123375000Y-148600000D02*
G75*
G02*
X125075000Y-148600000I850000J0D01*
G01*
X121975001Y-149649999D02*
G75*
G02*
X122024999Y-149145050I49999J249999D01*
G01*
X112000001Y-148874999D02*
G75*
G02*
X112450000Y-147788605I449999J449999D01*
G01*
X121775001Y-150199999D02*
G75*
G02*
X121598744Y-148891063I249999J699999D01*
G01*
X112550000Y-148675000D02*
G75*
G02*
X112610634Y-148182464I0J250000D01*
G01*
X112400001Y-149674999D02*
G75*
G02*
X112449999Y-149170050I49999J249999D01*
G01*
X123875000Y-148600000D02*
G75*
G02*
X124575000Y-148600000I350000J0D01*
G01*
X124575000Y-149300000D02*
G75*
G02*
X123875000Y-149300000I-350000J0D01*
G01*
X118125001Y-148749999D02*
G75*
G02*
X118125001Y-148200001I124999J274999D01*
G01*
X112200001Y-150224999D02*
G75*
G02*
X112023744Y-148916063I249999J699999D01*
G01*
X125075000Y-149300000D02*
G75*
G02*
X123375000Y-149300000I-850000J0D01*
G01*
X118000001Y-149199999D02*
G75*
G02*
X118016269Y-147744594I249999J724999D01*
G01*
%TO.C,D3*%
X142000000Y-106190000D02*
X145200000Y-106190000D01*
X142000000Y-110950000D02*
X142000000Y-106190000D01*
X145200000Y-110950000D02*
X145200000Y-106190000D01*
X101270000Y-72160000D02*
X104470000Y-72160000D01*
X101270000Y-76920000D02*
X101270000Y-72160000D01*
X104470000Y-76920000D02*
X104470000Y-72160000D01*
X93800000Y-105690000D02*
X97000000Y-105690000D01*
X93800000Y-110450000D02*
X93800000Y-105690000D01*
X97000000Y-110450000D02*
X97000000Y-105690000D01*
%TO.C,S1*%
X137612400Y-128069600D02*
X137587000Y-132006600D01*
X137612400Y-132006600D02*
X147569200Y-132006600D01*
X147569200Y-128069600D02*
X137612400Y-128069600D01*
X147569200Y-132006600D02*
X147569200Y-128069600D01*
%TO.C,R2*%
X153010000Y-123582000D02*
X153010000Y-124352000D01*
X153010000Y-131662000D02*
X153010000Y-130892000D01*
X154380000Y-130892000D02*
X151640000Y-130892000D01*
X151640000Y-124352000D01*
X154380000Y-124352000D01*
X154380000Y-130892000D01*
%TO.C,D3*%
X135550000Y-72290000D02*
X138750000Y-72290000D01*
X135550000Y-77050000D02*
X135550000Y-72290000D01*
X138750000Y-77050000D02*
X138750000Y-72290000D01*
%TD*%
M02*
