%TF.GenerationSoftware,KiCad,Pcbnew,9.0.6*%
%TF.CreationDate,2025-12-01T09:21:34+01:00*%
%TF.ProjectId,BL_Santa,424c5f53-616e-4746-912e-6b696361645f,rev?*%
%TF.SameCoordinates,Original*%
%TF.FileFunction,Soldermask,Bot*%
%TF.FilePolarity,Negative*%
%FSLAX46Y46*%
G04 Gerber Fmt 4.6, Leading zero omitted, Abs format (unit mm)*
G04 Created by KiCad (PCBNEW 9.0.6) date 2025-12-01 09:21:34*
%MOMM*%
%LPD*%
G01*
G04 APERTURE LIST*
G04 Aperture macros list*
%AMRoundRect*
0 Rectangle with rounded corners*
0 $1 Rounding radius*
0 $2 $3 $4 $5 $6 $7 $8 $9 X,Y pos of 4 corners*
0 Add a 4 corners polygon primitive as box body*
4,1,4,$2,$3,$4,$5,$6,$7,$8,$9,$2,$3,0*
0 Add four circle primitives for the rounded corners*
1,1,$1+$1,$2,$3*
1,1,$1+$1,$4,$5*
1,1,$1+$1,$6,$7*
1,1,$1+$1,$8,$9*
0 Add four rect primitives between the rounded corners*
20,1,$1+$1,$2,$3,$4,$5,0*
20,1,$1+$1,$4,$5,$6,$7,0*
20,1,$1+$1,$6,$7,$8,$9,0*
20,1,$1+$1,$8,$9,$2,$3,0*%
G04 Aperture macros list end*
%ADD10C,0.150000*%
%ADD11C,0.010000*%
%ADD12RoundRect,0.316667X-1.183333X0.633333X-1.183333X-0.633333X1.183333X-0.633333X1.183333X0.633333X0*%
%ADD13RoundRect,0.200000X-2.500000X-1.000000X2.500000X-1.000000X2.500000X1.000000X-2.500000X1.000000X0*%
%ADD14C,18.180000*%
%ADD15C,2.400000*%
%ADD16C,2.000000*%
G04 APERTURE END LIST*
D10*
X124013220Y-142389819D02*
X124013220Y-141389819D01*
X123441792Y-142389819D02*
X123870363Y-141818390D01*
X123441792Y-141389819D02*
X124013220Y-141961247D01*
X123013220Y-142389819D02*
X123013220Y-141389819D01*
X123013220Y-141866009D02*
X122441792Y-141866009D01*
X122441792Y-142389819D02*
X122441792Y-141389819D01*
X121632268Y-141866009D02*
X121965601Y-141866009D01*
X121965601Y-142389819D02*
X121965601Y-141389819D01*
X121965601Y-141389819D02*
X121489411Y-141389819D01*
X119822744Y-142389819D02*
X120394172Y-142389819D01*
X120108458Y-142389819D02*
X120108458Y-141389819D01*
X120108458Y-141389819D02*
X120203696Y-141532676D01*
X120203696Y-141532676D02*
X120298934Y-141627914D01*
X120298934Y-141627914D02*
X120394172Y-141675533D01*
X118870363Y-142389819D02*
X119441791Y-142389819D01*
X119156077Y-142389819D02*
X119156077Y-141389819D01*
X119156077Y-141389819D02*
X119251315Y-141532676D01*
X119251315Y-141532676D02*
X119346553Y-141627914D01*
X119346553Y-141627914D02*
X119441791Y-141675533D01*
X118441791Y-142294580D02*
X118394172Y-142342200D01*
X118394172Y-142342200D02*
X118441791Y-142389819D01*
X118441791Y-142389819D02*
X118489410Y-142342200D01*
X118489410Y-142342200D02*
X118441791Y-142294580D01*
X118441791Y-142294580D02*
X118441791Y-142389819D01*
X118013220Y-141485057D02*
X117965601Y-141437438D01*
X117965601Y-141437438D02*
X117870363Y-141389819D01*
X117870363Y-141389819D02*
X117632268Y-141389819D01*
X117632268Y-141389819D02*
X117537030Y-141437438D01*
X117537030Y-141437438D02*
X117489411Y-141485057D01*
X117489411Y-141485057D02*
X117441792Y-141580295D01*
X117441792Y-141580295D02*
X117441792Y-141675533D01*
X117441792Y-141675533D02*
X117489411Y-141818390D01*
X117489411Y-141818390D02*
X118060839Y-142389819D01*
X118060839Y-142389819D02*
X117441792Y-142389819D01*
X116822744Y-141389819D02*
X116727506Y-141389819D01*
X116727506Y-141389819D02*
X116632268Y-141437438D01*
X116632268Y-141437438D02*
X116584649Y-141485057D01*
X116584649Y-141485057D02*
X116537030Y-141580295D01*
X116537030Y-141580295D02*
X116489411Y-141770771D01*
X116489411Y-141770771D02*
X116489411Y-142008866D01*
X116489411Y-142008866D02*
X116537030Y-142199342D01*
X116537030Y-142199342D02*
X116584649Y-142294580D01*
X116584649Y-142294580D02*
X116632268Y-142342200D01*
X116632268Y-142342200D02*
X116727506Y-142389819D01*
X116727506Y-142389819D02*
X116822744Y-142389819D01*
X116822744Y-142389819D02*
X116917982Y-142342200D01*
X116917982Y-142342200D02*
X116965601Y-142294580D01*
X116965601Y-142294580D02*
X117013220Y-142199342D01*
X117013220Y-142199342D02*
X117060839Y-142008866D01*
X117060839Y-142008866D02*
X117060839Y-141770771D01*
X117060839Y-141770771D02*
X117013220Y-141580295D01*
X117013220Y-141580295D02*
X116965601Y-141485057D01*
X116965601Y-141485057D02*
X116917982Y-141437438D01*
X116917982Y-141437438D02*
X116822744Y-141389819D01*
X116108458Y-141485057D02*
X116060839Y-141437438D01*
X116060839Y-141437438D02*
X115965601Y-141389819D01*
X115965601Y-141389819D02*
X115727506Y-141389819D01*
X115727506Y-141389819D02*
X115632268Y-141437438D01*
X115632268Y-141437438D02*
X115584649Y-141485057D01*
X115584649Y-141485057D02*
X115537030Y-141580295D01*
X115537030Y-141580295D02*
X115537030Y-141675533D01*
X115537030Y-141675533D02*
X115584649Y-141818390D01*
X115584649Y-141818390D02*
X116156077Y-142389819D01*
X116156077Y-142389819D02*
X115537030Y-142389819D01*
X114632268Y-141389819D02*
X115108458Y-141389819D01*
X115108458Y-141389819D02*
X115156077Y-141866009D01*
X115156077Y-141866009D02*
X115108458Y-141818390D01*
X115108458Y-141818390D02*
X115013220Y-141770771D01*
X115013220Y-141770771D02*
X114775125Y-141770771D01*
X114775125Y-141770771D02*
X114679887Y-141818390D01*
X114679887Y-141818390D02*
X114632268Y-141866009D01*
X114632268Y-141866009D02*
X114584649Y-141961247D01*
X114584649Y-141961247D02*
X114584649Y-142199342D01*
X114584649Y-142199342D02*
X114632268Y-142294580D01*
X114632268Y-142294580D02*
X114679887Y-142342200D01*
X114679887Y-142342200D02*
X114775125Y-142389819D01*
X114775125Y-142389819D02*
X115013220Y-142389819D01*
X115013220Y-142389819D02*
X115108458Y-142342200D01*
X115108458Y-142342200D02*
X115156077Y-142294580D01*
D11*
%TO.C,G\u002A\u002A\u002A*%
X121578185Y-60448350D02*
X122327579Y-60624060D01*
X122357563Y-60634660D01*
X123124034Y-60976805D01*
X123946247Y-61470877D01*
X124818080Y-62111178D01*
X125733410Y-62892008D01*
X126686113Y-63807668D01*
X127670067Y-64852458D01*
X128679149Y-66020679D01*
X129707235Y-67306631D01*
X130146419Y-67884733D01*
X130641392Y-68551108D01*
X131055207Y-69122685D01*
X131412367Y-69636990D01*
X131737372Y-70131553D01*
X132054724Y-70643900D01*
X132388922Y-71211559D01*
X132764469Y-71872059D01*
X132854984Y-72033400D01*
X133151852Y-72548623D01*
X133491685Y-73114760D01*
X133835813Y-73668673D01*
X134145569Y-74147227D01*
X134192727Y-74217583D01*
X134430958Y-74574867D01*
X134627754Y-74878074D01*
X134767104Y-75101891D01*
X134832998Y-75221006D01*
X134835394Y-75233583D01*
X134749299Y-75277397D01*
X134554944Y-75375090D01*
X134312331Y-75496547D01*
X133777380Y-75856100D01*
X133336674Y-76343804D01*
X132998816Y-76941730D01*
X132772410Y-77631951D01*
X132666060Y-78396538D01*
X132665557Y-78928242D01*
X132746499Y-79627846D01*
X132919813Y-80214427D01*
X133199524Y-80725080D01*
X133473685Y-81065486D01*
X133709214Y-81361070D01*
X133939653Y-81710881D01*
X134042774Y-81897066D01*
X134323699Y-82414349D01*
X134668434Y-82969427D01*
X135090575Y-83581890D01*
X135603719Y-84271332D01*
X136221461Y-85057343D01*
X136326832Y-85188314D01*
X137007638Y-86033902D01*
X137593348Y-86765552D01*
X138096687Y-87399894D01*
X138530379Y-87953561D01*
X138907148Y-88443186D01*
X139239718Y-88885400D01*
X139540814Y-89296834D01*
X139823160Y-89694122D01*
X140099480Y-90093895D01*
X140253865Y-90321400D01*
X141233713Y-91825239D01*
X142146575Y-93338009D01*
X143010262Y-94892883D01*
X143842583Y-96523033D01*
X144661350Y-98261631D01*
X145322367Y-99761733D01*
X145549519Y-100297188D01*
X145784181Y-100860637D01*
X146017210Y-101429068D01*
X146239465Y-101979466D01*
X146441802Y-102488816D01*
X146615079Y-102934106D01*
X146750155Y-103292321D01*
X146837887Y-103540447D01*
X146869133Y-103655442D01*
X146832468Y-103700525D01*
X146711560Y-103741288D01*
X146490043Y-103779902D01*
X146151547Y-103818538D01*
X145679706Y-103859370D01*
X145058152Y-103904569D01*
X144921800Y-103913828D01*
X144058446Y-103986953D01*
X143354602Y-104080009D01*
X142801443Y-104194554D01*
X142390144Y-104332147D01*
X142293064Y-104378170D01*
X142017740Y-104568102D01*
X141699318Y-104859654D01*
X141379239Y-105207724D01*
X141098944Y-105567214D01*
X140899875Y-105893021D01*
X140898447Y-105895931D01*
X140651842Y-106495244D01*
X140503489Y-107107080D01*
X140440403Y-107792195D01*
X140436064Y-108059066D01*
X140516295Y-109121720D01*
X140757241Y-110131855D01*
X141157613Y-111086233D01*
X141716121Y-111981611D01*
X142255221Y-112631066D01*
X142480068Y-112881595D01*
X142772924Y-113220044D01*
X143095960Y-113602150D01*
X143411346Y-113983654D01*
X143413042Y-113985733D01*
X143649020Y-114270099D01*
X143976946Y-114658133D01*
X144376781Y-115126492D01*
X144828484Y-115651832D01*
X145312014Y-116210808D01*
X145807331Y-116780077D01*
X146066098Y-117076066D01*
X147074214Y-118238618D01*
X147967303Y-119293945D01*
X148752559Y-120252023D01*
X149437175Y-121122827D01*
X150028344Y-121916335D01*
X150533259Y-122642520D01*
X150959115Y-123311360D01*
X151313104Y-123932830D01*
X151602419Y-124516906D01*
X151834255Y-125073564D01*
X151835686Y-125077372D01*
X152011959Y-125608616D01*
X152145297Y-126135979D01*
X152229828Y-126623613D01*
X152259685Y-127035674D01*
X152228997Y-127336314D01*
X152213425Y-127384233D01*
X152089492Y-127557849D01*
X151931145Y-127615966D01*
X151791122Y-127550516D01*
X151740287Y-127456621D01*
X151653802Y-127316541D01*
X151479854Y-127112996D01*
X151290082Y-126922725D01*
X150707991Y-126462766D01*
X149983489Y-126028715D01*
X149142718Y-125630273D01*
X148211822Y-125277142D01*
X147216945Y-124979022D01*
X146184231Y-124745615D01*
X145139823Y-124586622D01*
X144936246Y-124565038D01*
X143850765Y-124519916D01*
X142811459Y-124597763D01*
X141838165Y-124793922D01*
X140950717Y-125103737D01*
X140168951Y-125522554D01*
X139835323Y-125762314D01*
X139617180Y-125934859D01*
X139082577Y-125411750D01*
X138389030Y-124806368D01*
X137703871Y-124361569D01*
X137010978Y-124070387D01*
X136294234Y-123925854D01*
X135619939Y-123915117D01*
X135160614Y-123965848D01*
X134651194Y-124055446D01*
X134199809Y-124164799D01*
X134188555Y-124168108D01*
X133488311Y-124375334D01*
X133195901Y-123976992D01*
X132655978Y-123349675D01*
X132080040Y-122885832D01*
X131473045Y-122586397D01*
X130839949Y-122452306D01*
X130185711Y-122484494D01*
X129515287Y-122683898D01*
X128833634Y-123051451D01*
X128715861Y-123131518D01*
X128425739Y-123329050D01*
X128241848Y-123432348D01*
X128135190Y-123449095D01*
X128076766Y-123386972D01*
X128050856Y-123307689D01*
X127918330Y-123106519D01*
X127658659Y-122939675D01*
X127313722Y-122831290D01*
X127192118Y-122812888D01*
X127002516Y-122799593D01*
X126849860Y-122823430D01*
X126690208Y-122904675D01*
X126479615Y-123063599D01*
X126271824Y-123237464D01*
X125983635Y-123465901D01*
X125719379Y-123626982D01*
X125438830Y-123732374D01*
X125101762Y-123793747D01*
X124667952Y-123822768D01*
X124227290Y-123830513D01*
X123808304Y-123812771D01*
X123459472Y-123740631D01*
X123118830Y-123610063D01*
X122747339Y-123465851D01*
X122320847Y-123329283D01*
X122040480Y-123255850D01*
X121605979Y-123147071D01*
X121273297Y-123032236D01*
X120976430Y-122882730D01*
X120649375Y-122669935D01*
X120585502Y-122625037D01*
X120321446Y-122455623D01*
X120084199Y-122359580D01*
X119796992Y-122311592D01*
X119589057Y-122296462D01*
X119141490Y-122294031D01*
X118721966Y-122348425D01*
X118282697Y-122471233D01*
X117775895Y-122674042D01*
X117489800Y-122805486D01*
X116821064Y-123086944D01*
X116114319Y-123322879D01*
X115417259Y-123500677D01*
X114777576Y-123607725D01*
X114357133Y-123634004D01*
X114044679Y-123621534D01*
X113728165Y-123578591D01*
X113379155Y-123497062D01*
X112969210Y-123368832D01*
X112469894Y-123185789D01*
X111852768Y-122939818D01*
X111690133Y-122873060D01*
X111300381Y-122724177D01*
X110978217Y-122637993D01*
X110641700Y-122597743D01*
X110293133Y-122587212D01*
X109909782Y-122591195D01*
X109625684Y-122621117D01*
X109371161Y-122691223D01*
X109076535Y-122815760D01*
X108999949Y-122851626D01*
X108408710Y-123208531D01*
X107941615Y-123610903D01*
X107456800Y-124099082D01*
X106102133Y-124101241D01*
X105586594Y-124103678D01*
X105207431Y-124111712D01*
X104931694Y-124129267D01*
X104726433Y-124160269D01*
X104558699Y-124208642D01*
X104395543Y-124278312D01*
X104324133Y-124313046D01*
X103804671Y-124649669D01*
X103350442Y-125118323D01*
X102946859Y-125734624D01*
X102880672Y-125858206D01*
X102539990Y-126512346D01*
X102077395Y-126130791D01*
X101452492Y-125682536D01*
X100845649Y-125391719D01*
X100241568Y-125258016D01*
X99624948Y-125281104D01*
X98980489Y-125460660D01*
X98292892Y-125796358D01*
X97898403Y-126042355D01*
X97196587Y-126509328D01*
X96527026Y-126220035D01*
X95736486Y-125917392D01*
X95041937Y-125741300D01*
X94424093Y-125694272D01*
X93863670Y-125778822D01*
X93341380Y-125997464D01*
X92837938Y-126352711D01*
X92418239Y-126755608D01*
X91878133Y-127331734D01*
X90565800Y-127527742D01*
X89979773Y-127617020D01*
X89303139Y-127722869D01*
X88612182Y-127833208D01*
X87983185Y-127935950D01*
X87870362Y-127954719D01*
X87330908Y-128041624D01*
X86938303Y-128096641D01*
X86673426Y-128121460D01*
X86517154Y-128117771D01*
X86450367Y-128087263D01*
X86446884Y-128080475D01*
X86471968Y-127976007D01*
X86565745Y-127742852D01*
X86717903Y-127402097D01*
X86918132Y-126974829D01*
X87156119Y-126482133D01*
X87421553Y-125945098D01*
X87704122Y-125384808D01*
X87993515Y-124822351D01*
X88279421Y-124278814D01*
X88551527Y-123775282D01*
X88557325Y-123764733D01*
X89479838Y-122142816D01*
X90446547Y-120548484D01*
X91433620Y-119019072D01*
X92417225Y-117591915D01*
X93042956Y-116737400D01*
X93595521Y-116011094D01*
X94086468Y-115387286D01*
X94548326Y-114827726D01*
X95013626Y-114294165D01*
X95514899Y-113748353D01*
X96084675Y-113152041D01*
X96146036Y-113088815D01*
X96771513Y-112421411D01*
X97278762Y-111824071D01*
X97688078Y-111269467D01*
X98019756Y-110730273D01*
X98274350Y-110223071D01*
X98581375Y-109378213D01*
X98743443Y-108536397D01*
X98765788Y-107714273D01*
X98653646Y-106928491D01*
X98412253Y-106195703D01*
X98046845Y-105532558D01*
X97562657Y-104955707D01*
X96964925Y-104481801D01*
X96371782Y-104172480D01*
X96062121Y-104065771D01*
X95632186Y-103947328D01*
X95125406Y-103826124D01*
X94585204Y-103711129D01*
X94055008Y-103611315D01*
X93578244Y-103535654D01*
X93198337Y-103493117D01*
X93054080Y-103487066D01*
X92878217Y-103444954D01*
X92801957Y-103371027D01*
X92815772Y-103233929D01*
X92902028Y-102964232D01*
X93016664Y-102670695D01*
X103544037Y-102670695D01*
X103558577Y-102852923D01*
X103597620Y-103097970D01*
X103662801Y-103269963D01*
X103788197Y-103420585D01*
X104007885Y-103601518D01*
X104096623Y-103668945D01*
X104374271Y-103891270D01*
X104624734Y-104113545D01*
X104781633Y-104274270D01*
X104967663Y-104457794D01*
X105228974Y-104671808D01*
X105414034Y-104804916D01*
X105671803Y-105009903D01*
X105883251Y-105233194D01*
X105972794Y-105369910D01*
X106098165Y-105566411D01*
X106272283Y-105652700D01*
X106413449Y-105671960D01*
X106647527Y-105720850D01*
X106812779Y-105806613D01*
X106825722Y-105820126D01*
X106982444Y-105903101D01*
X107246860Y-105941418D01*
X107300856Y-105942400D01*
X107492277Y-105957147D01*
X107689984Y-106011817D01*
X107930097Y-106122053D01*
X108248737Y-106303497D01*
X108521439Y-106471003D01*
X108879286Y-106697541D01*
X109203824Y-106908748D01*
X109456299Y-107079063D01*
X109586685Y-107173690D01*
X109805005Y-107347772D01*
X109701626Y-108553533D01*
X109668067Y-109016342D01*
X109648100Y-109444911D01*
X109642873Y-109798164D01*
X109653531Y-110035024D01*
X109659214Y-110073347D01*
X109696843Y-110338071D01*
X109727727Y-110679076D01*
X109739867Y-110897435D01*
X109791049Y-111327249D01*
X109906529Y-111857482D01*
X110071265Y-112438959D01*
X110270212Y-113022505D01*
X110488327Y-113558943D01*
X110662739Y-113914226D01*
X110903182Y-114296623D01*
X111221508Y-114719492D01*
X111587821Y-115150618D01*
X111972225Y-115557783D01*
X112344825Y-115908770D01*
X112675724Y-116171363D01*
X112860187Y-116282281D01*
X113059899Y-116389312D01*
X113185233Y-116502259D01*
X113270278Y-116670754D01*
X113349123Y-116944427D01*
X113368802Y-117022797D01*
X113454283Y-117416962D01*
X113527734Y-117842736D01*
X113561797Y-118104905D01*
X113586258Y-118394645D01*
X113577313Y-118564112D01*
X113523801Y-118660900D01*
X113414627Y-118732568D01*
X113133782Y-118940491D01*
X113019898Y-119176333D01*
X113072833Y-119440623D01*
X113179203Y-119606248D01*
X113355940Y-119830933D01*
X113158037Y-119995849D01*
X112999318Y-120113863D01*
X112899376Y-120163583D01*
X112805336Y-120232744D01*
X112655640Y-120407513D01*
X112479027Y-120646694D01*
X112304234Y-120909090D01*
X112160002Y-121153506D01*
X112075067Y-121338745D01*
X112071562Y-121350236D01*
X112058054Y-121681530D01*
X112175969Y-122039021D01*
X112400213Y-122384280D01*
X112705692Y-122678880D01*
X113067314Y-122884390D01*
X113075372Y-122887490D01*
X113713678Y-123044512D01*
X114443611Y-123067988D01*
X115254533Y-122959342D01*
X116135809Y-122719994D01*
X117073115Y-122353017D01*
X117382375Y-122203412D01*
X117580770Y-122067340D01*
X117717437Y-121902892D01*
X117817653Y-121717998D01*
X117946230Y-121286026D01*
X117943276Y-120833348D01*
X117810923Y-120420397D01*
X117769363Y-120348291D01*
X117697576Y-120205330D01*
X117719095Y-120090590D01*
X117849031Y-119935166D01*
X117863207Y-119920324D01*
X118030013Y-119707648D01*
X118066624Y-119518638D01*
X117973990Y-119299672D01*
X117876669Y-119158356D01*
X117742015Y-118914002D01*
X117742944Y-118706417D01*
X117889035Y-118513599D01*
X118189868Y-118313547D01*
X118261258Y-118275036D01*
X118576519Y-118129191D01*
X118837150Y-118067937D01*
X119115527Y-118071713D01*
X119389058Y-118131321D01*
X119697571Y-118249615D01*
X119999294Y-118403386D01*
X120252453Y-118569426D01*
X120415275Y-118724525D01*
X120453133Y-118814863D01*
X120395158Y-118963071D01*
X120254309Y-119138083D01*
X120241466Y-119150400D01*
X120065376Y-119415595D01*
X120049171Y-119712553D01*
X120194137Y-120013717D01*
X120200878Y-120022388D01*
X120371956Y-120239879D01*
X120147593Y-120464243D01*
X120013338Y-120620235D01*
X119957615Y-120775642D01*
X119961324Y-121001269D01*
X119973216Y-121110674D01*
X120039555Y-121426291D01*
X120147349Y-121721454D01*
X120194333Y-121809634D01*
X120409859Y-122050921D01*
X120742601Y-122300103D01*
X121144361Y-122528863D01*
X121566938Y-122708885D01*
X121872948Y-122795803D01*
X122239644Y-122892630D01*
X122622066Y-123024518D01*
X122779167Y-123090382D01*
X123258923Y-123237611D01*
X123818850Y-123294080D01*
X124393712Y-123255810D01*
X124648683Y-123204422D01*
X125052819Y-123032797D01*
X125359999Y-122738852D01*
X125582352Y-122309016D01*
X125655096Y-122078316D01*
X125740879Y-121551629D01*
X125685758Y-121099993D01*
X125485834Y-120698938D01*
X125421777Y-120614749D01*
X125178711Y-120243119D01*
X125077120Y-119884051D01*
X125085037Y-119585914D01*
X125082624Y-119231260D01*
X124992286Y-118913464D01*
X124832288Y-118686302D01*
X124763164Y-118638135D01*
X124601942Y-118461886D01*
X124536071Y-118177740D01*
X124562283Y-117815450D01*
X124677309Y-117404770D01*
X124877881Y-116975454D01*
X124961060Y-116836690D01*
X125330066Y-116299853D01*
X125677990Y-115895912D01*
X126033503Y-115595904D01*
X126400325Y-115382733D01*
X126662282Y-115241427D01*
X126892271Y-115075758D01*
X127109766Y-114862470D01*
X127334243Y-114578309D01*
X127585177Y-114200021D01*
X127882044Y-113704351D01*
X128048114Y-113415202D01*
X128365214Y-112839222D01*
X128597990Y-112358891D01*
X128758648Y-111930732D01*
X128859396Y-111511268D01*
X128912440Y-111057024D01*
X128929985Y-110524522D01*
X128929763Y-110274949D01*
X128924202Y-109853651D01*
X128914717Y-109494838D01*
X128902536Y-109231720D01*
X128888889Y-109097502D01*
X128885846Y-109088625D01*
X128868344Y-108984307D01*
X128849987Y-108749891D01*
X128833419Y-108424577D01*
X128824924Y-108185075D01*
X128799771Y-107339400D01*
X129258207Y-107064233D01*
X129649667Y-106869031D01*
X129992070Y-106791947D01*
X130073725Y-106789066D01*
X130410734Y-106738804D01*
X130692816Y-106568601D01*
X130927581Y-106415780D01*
X131132541Y-106393751D01*
X131161570Y-106400025D01*
X131368017Y-106403323D01*
X131637241Y-106349312D01*
X131731558Y-106318500D01*
X132012539Y-106224435D01*
X132370410Y-106116689D01*
X132656291Y-106037704D01*
X133080112Y-105910395D01*
X133374650Y-105771542D01*
X133578917Y-105590880D01*
X133731924Y-105338145D01*
X133815781Y-105138203D01*
X133958793Y-104666017D01*
X133984689Y-104256278D01*
X133890616Y-103846462D01*
X133741231Y-103504671D01*
X133472575Y-103071154D01*
X133163836Y-102788658D01*
X132788901Y-102639448D01*
X132415284Y-102604114D01*
X131967800Y-102604114D01*
X131967800Y-102321719D01*
X131912411Y-101978888D01*
X131765636Y-101678927D01*
X131556558Y-101462715D01*
X131314262Y-101371133D01*
X131290964Y-101370400D01*
X131186484Y-101425053D01*
X131000275Y-101569028D01*
X130770782Y-101772349D01*
X130748051Y-101793733D01*
X130503951Y-102015694D01*
X130323621Y-102142685D01*
X130152576Y-102200941D01*
X129936333Y-102216695D01*
X129868840Y-102217066D01*
X129550401Y-102241676D01*
X129321586Y-102330626D01*
X129200845Y-102420406D01*
X128964448Y-102623747D01*
X128738701Y-101705598D01*
X128610007Y-101243598D01*
X128450612Y-100760221D01*
X128285725Y-100328954D01*
X128201914Y-100140768D01*
X128052124Y-99823774D01*
X127967985Y-99612971D01*
X127941141Y-99462244D01*
X127963240Y-99325477D01*
X128024336Y-99160530D01*
X128139090Y-98809904D01*
X128154688Y-98528449D01*
X128059232Y-98269419D01*
X127840822Y-97986069D01*
X127683810Y-97822682D01*
X127448037Y-97578826D01*
X127255772Y-97365141D01*
X127142804Y-97221720D01*
X127133476Y-97206132D01*
X127063402Y-96914172D01*
X127094982Y-96498180D01*
X127227368Y-95968907D01*
X127232780Y-95951733D01*
X127343835Y-95481928D01*
X127423394Y-94888639D01*
X127455781Y-94444999D01*
X127480724Y-94023748D01*
X127507791Y-93746126D01*
X127541882Y-93586452D01*
X127587902Y-93519046D01*
X127633573Y-93513666D01*
X127731074Y-93615840D01*
X127825319Y-93884836D01*
X127881454Y-94131400D01*
X128001355Y-94612696D01*
X128154031Y-94969301D01*
X128364593Y-95245683D01*
X128639136Y-95473050D01*
X129074262Y-95689585D01*
X129517223Y-95755345D01*
X129941995Y-95685469D01*
X130322555Y-95495096D01*
X130632879Y-95199365D01*
X130846946Y-94813414D01*
X130938731Y-94352383D01*
X130934373Y-94137790D01*
X130817339Y-93633452D01*
X130566262Y-93226292D01*
X130193435Y-92928287D01*
X129711152Y-92751410D01*
X129474561Y-92715708D01*
X129361964Y-92689834D01*
X129251709Y-92619718D01*
X129123891Y-92482401D01*
X128958603Y-92254927D01*
X128735941Y-91914336D01*
X128617452Y-91727153D01*
X128194802Y-91114895D01*
X127704735Y-90502348D01*
X127180889Y-89926089D01*
X126656901Y-89422697D01*
X126166409Y-89028748D01*
X126083466Y-88971744D01*
X125228685Y-88475343D01*
X124235486Y-88035535D01*
X123091624Y-87646906D01*
X123077800Y-87642789D01*
X121850133Y-87277702D01*
X120114466Y-87279922D01*
X119520868Y-87281811D01*
X119064584Y-87287768D01*
X118713597Y-87300813D01*
X118435892Y-87323964D01*
X118199451Y-87360241D01*
X117972258Y-87412662D01*
X117722298Y-87484247D01*
X117621529Y-87514997D01*
X116683256Y-87838921D01*
X115887054Y-88195785D01*
X115206428Y-88602438D01*
X114614880Y-89075728D01*
X114085915Y-89632504D01*
X113873931Y-89898066D01*
X113649031Y-90214702D01*
X113417352Y-90576919D01*
X113194681Y-90955180D01*
X112996808Y-91319946D01*
X112839520Y-91641678D01*
X112738608Y-91890838D01*
X112709858Y-92037887D01*
X112718904Y-92058976D01*
X112843877Y-92125541D01*
X113055259Y-92197067D01*
X113087133Y-92205655D01*
X113383466Y-92282833D01*
X112949689Y-92504609D01*
X112499558Y-92806181D01*
X112105929Y-93204192D01*
X111810312Y-93651109D01*
X111689741Y-93947466D01*
X111584161Y-94497199D01*
X111578807Y-95055636D01*
X111667419Y-95580527D01*
X111843735Y-96029624D01*
X112038416Y-96300437D01*
X112181587Y-96462409D01*
X112215793Y-96565505D01*
X112154191Y-96668147D01*
X112127909Y-96697774D01*
X112022517Y-96920957D01*
X111986466Y-97249787D01*
X111971517Y-97500704D01*
X111903711Y-97679541D01*
X111748613Y-97858080D01*
X111651415Y-97948206D01*
X111451632Y-98147557D01*
X111308896Y-98324716D01*
X111269850Y-98397456D01*
X111273662Y-98546255D01*
X111327447Y-98799932D01*
X111419777Y-99105555D01*
X111427599Y-99128127D01*
X111631861Y-99712246D01*
X111279997Y-100103678D01*
X110883488Y-100604268D01*
X110612386Y-101103982D01*
X110440250Y-101661702D01*
X110360408Y-102151655D01*
X110316700Y-102496967D01*
X110276941Y-102773098D01*
X110247012Y-102940894D01*
X110237131Y-102972531D01*
X110171054Y-102934693D01*
X110033116Y-102799135D01*
X109918793Y-102671128D01*
X109673491Y-102435349D01*
X109392267Y-102234896D01*
X109284314Y-102177971D01*
X109035273Y-102030657D01*
X108940354Y-101877879D01*
X108938466Y-101851041D01*
X108866290Y-101599560D01*
X108655544Y-101437757D01*
X108314902Y-101371683D01*
X108249624Y-101370400D01*
X108040177Y-101369053D01*
X107911035Y-101342257D01*
X107833201Y-101255880D01*
X107777682Y-101075788D01*
X107715479Y-100767848D01*
X107708764Y-100733715D01*
X107599426Y-100497126D01*
X107404060Y-100297839D01*
X107181421Y-100190942D01*
X107123605Y-100185066D01*
X106935766Y-100255059D01*
X106708299Y-100442357D01*
X106477564Y-100712942D01*
X106345727Y-100912833D01*
X106268708Y-101020846D01*
X106189787Y-101012200D01*
X106073996Y-100915887D01*
X105769083Y-100751230D01*
X105381435Y-100708440D01*
X104946213Y-100787833D01*
X104658421Y-100903166D01*
X104172414Y-101224191D01*
X103817566Y-101638401D01*
X103604549Y-102126876D01*
X103544037Y-102670695D01*
X93016664Y-102670695D01*
X93052728Y-102578351D01*
X93259880Y-102092698D01*
X93515488Y-101523686D01*
X93811558Y-100887728D01*
X94140096Y-100201236D01*
X94493107Y-99480624D01*
X94862597Y-98742304D01*
X95240572Y-98002689D01*
X95619037Y-97278192D01*
X95989998Y-96585227D01*
X96345461Y-95940205D01*
X96677430Y-95359539D01*
X96828144Y-95105066D01*
X97812510Y-93526746D01*
X98915656Y-91870118D01*
X100121118Y-90158769D01*
X101412434Y-88416291D01*
X102294465Y-87272497D01*
X102625884Y-86848140D01*
X102948677Y-86432735D01*
X103236794Y-86059954D01*
X103464182Y-85763473D01*
X103571677Y-85621497D01*
X103762534Y-85378990D01*
X104032653Y-85051864D01*
X104347668Y-84681049D01*
X104673211Y-84307472D01*
X104708396Y-84267733D01*
X105311156Y-83568045D01*
X105798424Y-82953359D01*
X106184563Y-82399998D01*
X106483936Y-81884284D01*
X106710906Y-81382537D01*
X106879835Y-80871080D01*
X106956776Y-80561122D01*
X107059709Y-79818101D01*
X107053071Y-79053234D01*
X106943573Y-78305918D01*
X106737927Y-77615551D01*
X106442842Y-77021531D01*
X106324720Y-76850355D01*
X106089945Y-76585229D01*
X105791730Y-76312081D01*
X105480239Y-76071708D01*
X105205634Y-75904904D01*
X105116214Y-75867538D01*
X105118798Y-75788799D01*
X105216348Y-75598478D01*
X105397394Y-75316693D01*
X105567040Y-75076653D01*
X105758783Y-74810420D01*
X106029196Y-74430626D01*
X106360296Y-73962752D01*
X106734100Y-73432276D01*
X107132628Y-72864678D01*
X107537896Y-72285439D01*
X107625179Y-72160400D01*
X108448983Y-70986615D01*
X109193792Y-69941123D01*
X109871252Y-69009185D01*
X110493007Y-68176060D01*
X111070704Y-67427010D01*
X111615987Y-66747295D01*
X112140500Y-66122175D01*
X112655890Y-65536911D01*
X113173801Y-64976764D01*
X113705879Y-64426993D01*
X113848469Y-64283440D01*
X114497755Y-63645352D01*
X115068688Y-63113962D01*
X115590555Y-62665246D01*
X116092642Y-62275183D01*
X116604236Y-61919749D01*
X117139104Y-61584239D01*
X118055675Y-61100029D01*
X118976927Y-60740867D01*
X119883802Y-60510222D01*
X120757240Y-60411560D01*
X121578185Y-60448350D01*
G36*
X121578185Y-60448350D02*
G01*
X122327579Y-60624060D01*
X122357563Y-60634660D01*
X123124034Y-60976805D01*
X123946247Y-61470877D01*
X124818080Y-62111178D01*
X125733410Y-62892008D01*
X126686113Y-63807668D01*
X127670067Y-64852458D01*
X128679149Y-66020679D01*
X129707235Y-67306631D01*
X130146419Y-67884733D01*
X130641392Y-68551108D01*
X131055207Y-69122685D01*
X131412367Y-69636990D01*
X131737372Y-70131553D01*
X132054724Y-70643900D01*
X132388922Y-71211559D01*
X132764469Y-71872059D01*
X132854984Y-72033400D01*
X133151852Y-72548623D01*
X133491685Y-73114760D01*
X133835813Y-73668673D01*
X134145569Y-74147227D01*
X134192727Y-74217583D01*
X134430958Y-74574867D01*
X134627754Y-74878074D01*
X134767104Y-75101891D01*
X134832998Y-75221006D01*
X134835394Y-75233583D01*
X134749299Y-75277397D01*
X134554944Y-75375090D01*
X134312331Y-75496547D01*
X133777380Y-75856100D01*
X133336674Y-76343804D01*
X132998816Y-76941730D01*
X132772410Y-77631951D01*
X132666060Y-78396538D01*
X132665557Y-78928242D01*
X132746499Y-79627846D01*
X132919813Y-80214427D01*
X133199524Y-80725080D01*
X133473685Y-81065486D01*
X133709214Y-81361070D01*
X133939653Y-81710881D01*
X134042774Y-81897066D01*
X134323699Y-82414349D01*
X134668434Y-82969427D01*
X135090575Y-83581890D01*
X135603719Y-84271332D01*
X136221461Y-85057343D01*
X136326832Y-85188314D01*
X137007638Y-86033902D01*
X137593348Y-86765552D01*
X138096687Y-87399894D01*
X138530379Y-87953561D01*
X138907148Y-88443186D01*
X139239718Y-88885400D01*
X139540814Y-89296834D01*
X139823160Y-89694122D01*
X140099480Y-90093895D01*
X140253865Y-90321400D01*
X141233713Y-91825239D01*
X142146575Y-93338009D01*
X143010262Y-94892883D01*
X143842583Y-96523033D01*
X144661350Y-98261631D01*
X145322367Y-99761733D01*
X145549519Y-100297188D01*
X145784181Y-100860637D01*
X146017210Y-101429068D01*
X146239465Y-101979466D01*
X146441802Y-102488816D01*
X146615079Y-102934106D01*
X146750155Y-103292321D01*
X146837887Y-103540447D01*
X146869133Y-103655442D01*
X146832468Y-103700525D01*
X146711560Y-103741288D01*
X146490043Y-103779902D01*
X146151547Y-103818538D01*
X145679706Y-103859370D01*
X145058152Y-103904569D01*
X144921800Y-103913828D01*
X144058446Y-103986953D01*
X143354602Y-104080009D01*
X142801443Y-104194554D01*
X142390144Y-104332147D01*
X142293064Y-104378170D01*
X142017740Y-104568102D01*
X141699318Y-104859654D01*
X141379239Y-105207724D01*
X141098944Y-105567214D01*
X140899875Y-105893021D01*
X140898447Y-105895931D01*
X140651842Y-106495244D01*
X140503489Y-107107080D01*
X140440403Y-107792195D01*
X140436064Y-108059066D01*
X140516295Y-109121720D01*
X140757241Y-110131855D01*
X141157613Y-111086233D01*
X141716121Y-111981611D01*
X142255221Y-112631066D01*
X142480068Y-112881595D01*
X142772924Y-113220044D01*
X143095960Y-113602150D01*
X143411346Y-113983654D01*
X143413042Y-113985733D01*
X143649020Y-114270099D01*
X143976946Y-114658133D01*
X144376781Y-115126492D01*
X144828484Y-115651832D01*
X145312014Y-116210808D01*
X145807331Y-116780077D01*
X146066098Y-117076066D01*
X147074214Y-118238618D01*
X147967303Y-119293945D01*
X148752559Y-120252023D01*
X149437175Y-121122827D01*
X150028344Y-121916335D01*
X150533259Y-122642520D01*
X150959115Y-123311360D01*
X151313104Y-123932830D01*
X151602419Y-124516906D01*
X151834255Y-125073564D01*
X151835686Y-125077372D01*
X152011959Y-125608616D01*
X152145297Y-126135979D01*
X152229828Y-126623613D01*
X152259685Y-127035674D01*
X152228997Y-127336314D01*
X152213425Y-127384233D01*
X152089492Y-127557849D01*
X151931145Y-127615966D01*
X151791122Y-127550516D01*
X151740287Y-127456621D01*
X151653802Y-127316541D01*
X151479854Y-127112996D01*
X151290082Y-126922725D01*
X150707991Y-126462766D01*
X149983489Y-126028715D01*
X149142718Y-125630273D01*
X148211822Y-125277142D01*
X147216945Y-124979022D01*
X146184231Y-124745615D01*
X145139823Y-124586622D01*
X144936246Y-124565038D01*
X143850765Y-124519916D01*
X142811459Y-124597763D01*
X141838165Y-124793922D01*
X140950717Y-125103737D01*
X140168951Y-125522554D01*
X139835323Y-125762314D01*
X139617180Y-125934859D01*
X139082577Y-125411750D01*
X138389030Y-124806368D01*
X137703871Y-124361569D01*
X137010978Y-124070387D01*
X136294234Y-123925854D01*
X135619939Y-123915117D01*
X135160614Y-123965848D01*
X134651194Y-124055446D01*
X134199809Y-124164799D01*
X134188555Y-124168108D01*
X133488311Y-124375334D01*
X133195901Y-123976992D01*
X132655978Y-123349675D01*
X132080040Y-122885832D01*
X131473045Y-122586397D01*
X130839949Y-122452306D01*
X130185711Y-122484494D01*
X129515287Y-122683898D01*
X128833634Y-123051451D01*
X128715861Y-123131518D01*
X128425739Y-123329050D01*
X128241848Y-123432348D01*
X128135190Y-123449095D01*
X128076766Y-123386972D01*
X128050856Y-123307689D01*
X127918330Y-123106519D01*
X127658659Y-122939675D01*
X127313722Y-122831290D01*
X127192118Y-122812888D01*
X127002516Y-122799593D01*
X126849860Y-122823430D01*
X126690208Y-122904675D01*
X126479615Y-123063599D01*
X126271824Y-123237464D01*
X125983635Y-123465901D01*
X125719379Y-123626982D01*
X125438830Y-123732374D01*
X125101762Y-123793747D01*
X124667952Y-123822768D01*
X124227290Y-123830513D01*
X123808304Y-123812771D01*
X123459472Y-123740631D01*
X123118830Y-123610063D01*
X122747339Y-123465851D01*
X122320847Y-123329283D01*
X122040480Y-123255850D01*
X121605979Y-123147071D01*
X121273297Y-123032236D01*
X120976430Y-122882730D01*
X120649375Y-122669935D01*
X120585502Y-122625037D01*
X120321446Y-122455623D01*
X120084199Y-122359580D01*
X119796992Y-122311592D01*
X119589057Y-122296462D01*
X119141490Y-122294031D01*
X118721966Y-122348425D01*
X118282697Y-122471233D01*
X117775895Y-122674042D01*
X117489800Y-122805486D01*
X116821064Y-123086944D01*
X116114319Y-123322879D01*
X115417259Y-123500677D01*
X114777576Y-123607725D01*
X114357133Y-123634004D01*
X114044679Y-123621534D01*
X113728165Y-123578591D01*
X113379155Y-123497062D01*
X112969210Y-123368832D01*
X112469894Y-123185789D01*
X111852768Y-122939818D01*
X111690133Y-122873060D01*
X111300381Y-122724177D01*
X110978217Y-122637993D01*
X110641700Y-122597743D01*
X110293133Y-122587212D01*
X109909782Y-122591195D01*
X109625684Y-122621117D01*
X109371161Y-122691223D01*
X109076535Y-122815760D01*
X108999949Y-122851626D01*
X108408710Y-123208531D01*
X107941615Y-123610903D01*
X107456800Y-124099082D01*
X106102133Y-124101241D01*
X105586594Y-124103678D01*
X105207431Y-124111712D01*
X104931694Y-124129267D01*
X104726433Y-124160269D01*
X104558699Y-124208642D01*
X104395543Y-124278312D01*
X104324133Y-124313046D01*
X103804671Y-124649669D01*
X103350442Y-125118323D01*
X102946859Y-125734624D01*
X102880672Y-125858206D01*
X102539990Y-126512346D01*
X102077395Y-126130791D01*
X101452492Y-125682536D01*
X100845649Y-125391719D01*
X100241568Y-125258016D01*
X99624948Y-125281104D01*
X98980489Y-125460660D01*
X98292892Y-125796358D01*
X97898403Y-126042355D01*
X97196587Y-126509328D01*
X96527026Y-126220035D01*
X95736486Y-125917392D01*
X95041937Y-125741300D01*
X94424093Y-125694272D01*
X93863670Y-125778822D01*
X93341380Y-125997464D01*
X92837938Y-126352711D01*
X92418239Y-126755608D01*
X91878133Y-127331734D01*
X90565800Y-127527742D01*
X89979773Y-127617020D01*
X89303139Y-127722869D01*
X88612182Y-127833208D01*
X87983185Y-127935950D01*
X87870362Y-127954719D01*
X87330908Y-128041624D01*
X86938303Y-128096641D01*
X86673426Y-128121460D01*
X86517154Y-128117771D01*
X86450367Y-128087263D01*
X86446884Y-128080475D01*
X86471968Y-127976007D01*
X86565745Y-127742852D01*
X86717903Y-127402097D01*
X86918132Y-126974829D01*
X87156119Y-126482133D01*
X87421553Y-125945098D01*
X87704122Y-125384808D01*
X87993515Y-124822351D01*
X88279421Y-124278814D01*
X88551527Y-123775282D01*
X88557325Y-123764733D01*
X89479838Y-122142816D01*
X90446547Y-120548484D01*
X91433620Y-119019072D01*
X92417225Y-117591915D01*
X93042956Y-116737400D01*
X93595521Y-116011094D01*
X94086468Y-115387286D01*
X94548326Y-114827726D01*
X95013626Y-114294165D01*
X95514899Y-113748353D01*
X96084675Y-113152041D01*
X96146036Y-113088815D01*
X96771513Y-112421411D01*
X97278762Y-111824071D01*
X97688078Y-111269467D01*
X98019756Y-110730273D01*
X98274350Y-110223071D01*
X98581375Y-109378213D01*
X98743443Y-108536397D01*
X98765788Y-107714273D01*
X98653646Y-106928491D01*
X98412253Y-106195703D01*
X98046845Y-105532558D01*
X97562657Y-104955707D01*
X96964925Y-104481801D01*
X96371782Y-104172480D01*
X96062121Y-104065771D01*
X95632186Y-103947328D01*
X95125406Y-103826124D01*
X94585204Y-103711129D01*
X94055008Y-103611315D01*
X93578244Y-103535654D01*
X93198337Y-103493117D01*
X93054080Y-103487066D01*
X92878217Y-103444954D01*
X92801957Y-103371027D01*
X92815772Y-103233929D01*
X92902028Y-102964232D01*
X93016664Y-102670695D01*
X103544037Y-102670695D01*
X103558577Y-102852923D01*
X103597620Y-103097970D01*
X103662801Y-103269963D01*
X103788197Y-103420585D01*
X104007885Y-103601518D01*
X104096623Y-103668945D01*
X104374271Y-103891270D01*
X104624734Y-104113545D01*
X104781633Y-104274270D01*
X104967663Y-104457794D01*
X105228974Y-104671808D01*
X105414034Y-104804916D01*
X105671803Y-105009903D01*
X105883251Y-105233194D01*
X105972794Y-105369910D01*
X106098165Y-105566411D01*
X106272283Y-105652700D01*
X106413449Y-105671960D01*
X106647527Y-105720850D01*
X106812779Y-105806613D01*
X106825722Y-105820126D01*
X106982444Y-105903101D01*
X107246860Y-105941418D01*
X107300856Y-105942400D01*
X107492277Y-105957147D01*
X107689984Y-106011817D01*
X107930097Y-106122053D01*
X108248737Y-106303497D01*
X108521439Y-106471003D01*
X108879286Y-106697541D01*
X109203824Y-106908748D01*
X109456299Y-107079063D01*
X109586685Y-107173690D01*
X109805005Y-107347772D01*
X109701626Y-108553533D01*
X109668067Y-109016342D01*
X109648100Y-109444911D01*
X109642873Y-109798164D01*
X109653531Y-110035024D01*
X109659214Y-110073347D01*
X109696843Y-110338071D01*
X109727727Y-110679076D01*
X109739867Y-110897435D01*
X109791049Y-111327249D01*
X109906529Y-111857482D01*
X110071265Y-112438959D01*
X110270212Y-113022505D01*
X110488327Y-113558943D01*
X110662739Y-113914226D01*
X110903182Y-114296623D01*
X111221508Y-114719492D01*
X111587821Y-115150618D01*
X111972225Y-115557783D01*
X112344825Y-115908770D01*
X112675724Y-116171363D01*
X112860187Y-116282281D01*
X113059899Y-116389312D01*
X113185233Y-116502259D01*
X113270278Y-116670754D01*
X113349123Y-116944427D01*
X113368802Y-117022797D01*
X113454283Y-117416962D01*
X113527734Y-117842736D01*
X113561797Y-118104905D01*
X113586258Y-118394645D01*
X113577313Y-118564112D01*
X113523801Y-118660900D01*
X113414627Y-118732568D01*
X113133782Y-118940491D01*
X113019898Y-119176333D01*
X113072833Y-119440623D01*
X113179203Y-119606248D01*
X113355940Y-119830933D01*
X113158037Y-119995849D01*
X112999318Y-120113863D01*
X112899376Y-120163583D01*
X112805336Y-120232744D01*
X112655640Y-120407513D01*
X112479027Y-120646694D01*
X112304234Y-120909090D01*
X112160002Y-121153506D01*
X112075067Y-121338745D01*
X112071562Y-121350236D01*
X112058054Y-121681530D01*
X112175969Y-122039021D01*
X112400213Y-122384280D01*
X112705692Y-122678880D01*
X113067314Y-122884390D01*
X113075372Y-122887490D01*
X113713678Y-123044512D01*
X114443611Y-123067988D01*
X115254533Y-122959342D01*
X116135809Y-122719994D01*
X117073115Y-122353017D01*
X117382375Y-122203412D01*
X117580770Y-122067340D01*
X117717437Y-121902892D01*
X117817653Y-121717998D01*
X117946230Y-121286026D01*
X117943276Y-120833348D01*
X117810923Y-120420397D01*
X117769363Y-120348291D01*
X117697576Y-120205330D01*
X117719095Y-120090590D01*
X117849031Y-119935166D01*
X117863207Y-119920324D01*
X118030013Y-119707648D01*
X118066624Y-119518638D01*
X117973990Y-119299672D01*
X117876669Y-119158356D01*
X117742015Y-118914002D01*
X117742944Y-118706417D01*
X117889035Y-118513599D01*
X118189868Y-118313547D01*
X118261258Y-118275036D01*
X118576519Y-118129191D01*
X118837150Y-118067937D01*
X119115527Y-118071713D01*
X119389058Y-118131321D01*
X119697571Y-118249615D01*
X119999294Y-118403386D01*
X120252453Y-118569426D01*
X120415275Y-118724525D01*
X120453133Y-118814863D01*
X120395158Y-118963071D01*
X120254309Y-119138083D01*
X120241466Y-119150400D01*
X120065376Y-119415595D01*
X120049171Y-119712553D01*
X120194137Y-120013717D01*
X120200878Y-120022388D01*
X120371956Y-120239879D01*
X120147593Y-120464243D01*
X120013338Y-120620235D01*
X119957615Y-120775642D01*
X119961324Y-121001269D01*
X119973216Y-121110674D01*
X120039555Y-121426291D01*
X120147349Y-121721454D01*
X120194333Y-121809634D01*
X120409859Y-122050921D01*
X120742601Y-122300103D01*
X121144361Y-122528863D01*
X121566938Y-122708885D01*
X121872948Y-122795803D01*
X122239644Y-122892630D01*
X122622066Y-123024518D01*
X122779167Y-123090382D01*
X123258923Y-123237611D01*
X123818850Y-123294080D01*
X124393712Y-123255810D01*
X124648683Y-123204422D01*
X125052819Y-123032797D01*
X125359999Y-122738852D01*
X125582352Y-122309016D01*
X125655096Y-122078316D01*
X125740879Y-121551629D01*
X125685758Y-121099993D01*
X125485834Y-120698938D01*
X125421777Y-120614749D01*
X125178711Y-120243119D01*
X125077120Y-119884051D01*
X125085037Y-119585914D01*
X125082624Y-119231260D01*
X124992286Y-118913464D01*
X124832288Y-118686302D01*
X124763164Y-118638135D01*
X124601942Y-118461886D01*
X124536071Y-118177740D01*
X124562283Y-117815450D01*
X124677309Y-117404770D01*
X124877881Y-116975454D01*
X124961060Y-116836690D01*
X125330066Y-116299853D01*
X125677990Y-115895912D01*
X126033503Y-115595904D01*
X126400325Y-115382733D01*
X126662282Y-115241427D01*
X126892271Y-115075758D01*
X127109766Y-114862470D01*
X127334243Y-114578309D01*
X127585177Y-114200021D01*
X127882044Y-113704351D01*
X128048114Y-113415202D01*
X128365214Y-112839222D01*
X128597990Y-112358891D01*
X128758648Y-111930732D01*
X128859396Y-111511268D01*
X128912440Y-111057024D01*
X128929985Y-110524522D01*
X128929763Y-110274949D01*
X128924202Y-109853651D01*
X128914717Y-109494838D01*
X128902536Y-109231720D01*
X128888889Y-109097502D01*
X128885846Y-109088625D01*
X128868344Y-108984307D01*
X128849987Y-108749891D01*
X128833419Y-108424577D01*
X128824924Y-108185075D01*
X128799771Y-107339400D01*
X129258207Y-107064233D01*
X129649667Y-106869031D01*
X129992070Y-106791947D01*
X130073725Y-106789066D01*
X130410734Y-106738804D01*
X130692816Y-106568601D01*
X130927581Y-106415780D01*
X131132541Y-106393751D01*
X131161570Y-106400025D01*
X131368017Y-106403323D01*
X131637241Y-106349312D01*
X131731558Y-106318500D01*
X132012539Y-106224435D01*
X132370410Y-106116689D01*
X132656291Y-106037704D01*
X133080112Y-105910395D01*
X133374650Y-105771542D01*
X133578917Y-105590880D01*
X133731924Y-105338145D01*
X133815781Y-105138203D01*
X133958793Y-104666017D01*
X133984689Y-104256278D01*
X133890616Y-103846462D01*
X133741231Y-103504671D01*
X133472575Y-103071154D01*
X133163836Y-102788658D01*
X132788901Y-102639448D01*
X132415284Y-102604114D01*
X131967800Y-102604114D01*
X131967800Y-102321719D01*
X131912411Y-101978888D01*
X131765636Y-101678927D01*
X131556558Y-101462715D01*
X131314262Y-101371133D01*
X131290964Y-101370400D01*
X131186484Y-101425053D01*
X131000275Y-101569028D01*
X130770782Y-101772349D01*
X130748051Y-101793733D01*
X130503951Y-102015694D01*
X130323621Y-102142685D01*
X130152576Y-102200941D01*
X129936333Y-102216695D01*
X129868840Y-102217066D01*
X129550401Y-102241676D01*
X129321586Y-102330626D01*
X129200845Y-102420406D01*
X128964448Y-102623747D01*
X128738701Y-101705598D01*
X128610007Y-101243598D01*
X128450612Y-100760221D01*
X128285725Y-100328954D01*
X128201914Y-100140768D01*
X128052124Y-99823774D01*
X127967985Y-99612971D01*
X127941141Y-99462244D01*
X127963240Y-99325477D01*
X128024336Y-99160530D01*
X128139090Y-98809904D01*
X128154688Y-98528449D01*
X128059232Y-98269419D01*
X127840822Y-97986069D01*
X127683810Y-97822682D01*
X127448037Y-97578826D01*
X127255772Y-97365141D01*
X127142804Y-97221720D01*
X127133476Y-97206132D01*
X127063402Y-96914172D01*
X127094982Y-96498180D01*
X127227368Y-95968907D01*
X127232780Y-95951733D01*
X127343835Y-95481928D01*
X127423394Y-94888639D01*
X127455781Y-94444999D01*
X127480724Y-94023748D01*
X127507791Y-93746126D01*
X127541882Y-93586452D01*
X127587902Y-93519046D01*
X127633573Y-93513666D01*
X127731074Y-93615840D01*
X127825319Y-93884836D01*
X127881454Y-94131400D01*
X128001355Y-94612696D01*
X128154031Y-94969301D01*
X128364593Y-95245683D01*
X128639136Y-95473050D01*
X129074262Y-95689585D01*
X129517223Y-95755345D01*
X129941995Y-95685469D01*
X130322555Y-95495096D01*
X130632879Y-95199365D01*
X130846946Y-94813414D01*
X130938731Y-94352383D01*
X130934373Y-94137790D01*
X130817339Y-93633452D01*
X130566262Y-93226292D01*
X130193435Y-92928287D01*
X129711152Y-92751410D01*
X129474561Y-92715708D01*
X129361964Y-92689834D01*
X129251709Y-92619718D01*
X129123891Y-92482401D01*
X128958603Y-92254927D01*
X128735941Y-91914336D01*
X128617452Y-91727153D01*
X128194802Y-91114895D01*
X127704735Y-90502348D01*
X127180889Y-89926089D01*
X126656901Y-89422697D01*
X126166409Y-89028748D01*
X126083466Y-88971744D01*
X125228685Y-88475343D01*
X124235486Y-88035535D01*
X123091624Y-87646906D01*
X123077800Y-87642789D01*
X121850133Y-87277702D01*
X120114466Y-87279922D01*
X119520868Y-87281811D01*
X119064584Y-87287768D01*
X118713597Y-87300813D01*
X118435892Y-87323964D01*
X118199451Y-87360241D01*
X117972258Y-87412662D01*
X117722298Y-87484247D01*
X117621529Y-87514997D01*
X116683256Y-87838921D01*
X115887054Y-88195785D01*
X115206428Y-88602438D01*
X114614880Y-89075728D01*
X114085915Y-89632504D01*
X113873931Y-89898066D01*
X113649031Y-90214702D01*
X113417352Y-90576919D01*
X113194681Y-90955180D01*
X112996808Y-91319946D01*
X112839520Y-91641678D01*
X112738608Y-91890838D01*
X112709858Y-92037887D01*
X112718904Y-92058976D01*
X112843877Y-92125541D01*
X113055259Y-92197067D01*
X113087133Y-92205655D01*
X113383466Y-92282833D01*
X112949689Y-92504609D01*
X112499558Y-92806181D01*
X112105929Y-93204192D01*
X111810312Y-93651109D01*
X111689741Y-93947466D01*
X111584161Y-94497199D01*
X111578807Y-95055636D01*
X111667419Y-95580527D01*
X111843735Y-96029624D01*
X112038416Y-96300437D01*
X112181587Y-96462409D01*
X112215793Y-96565505D01*
X112154191Y-96668147D01*
X112127909Y-96697774D01*
X112022517Y-96920957D01*
X111986466Y-97249787D01*
X111971517Y-97500704D01*
X111903711Y-97679541D01*
X111748613Y-97858080D01*
X111651415Y-97948206D01*
X111451632Y-98147557D01*
X111308896Y-98324716D01*
X111269850Y-98397456D01*
X111273662Y-98546255D01*
X111327447Y-98799932D01*
X111419777Y-99105555D01*
X111427599Y-99128127D01*
X111631861Y-99712246D01*
X111279997Y-100103678D01*
X110883488Y-100604268D01*
X110612386Y-101103982D01*
X110440250Y-101661702D01*
X110360408Y-102151655D01*
X110316700Y-102496967D01*
X110276941Y-102773098D01*
X110247012Y-102940894D01*
X110237131Y-102972531D01*
X110171054Y-102934693D01*
X110033116Y-102799135D01*
X109918793Y-102671128D01*
X109673491Y-102435349D01*
X109392267Y-102234896D01*
X109284314Y-102177971D01*
X109035273Y-102030657D01*
X108940354Y-101877879D01*
X108938466Y-101851041D01*
X108866290Y-101599560D01*
X108655544Y-101437757D01*
X108314902Y-101371683D01*
X108249624Y-101370400D01*
X108040177Y-101369053D01*
X107911035Y-101342257D01*
X107833201Y-101255880D01*
X107777682Y-101075788D01*
X107715479Y-100767848D01*
X107708764Y-100733715D01*
X107599426Y-100497126D01*
X107404060Y-100297839D01*
X107181421Y-100190942D01*
X107123605Y-100185066D01*
X106935766Y-100255059D01*
X106708299Y-100442357D01*
X106477564Y-100712942D01*
X106345727Y-100912833D01*
X106268708Y-101020846D01*
X106189787Y-101012200D01*
X106073996Y-100915887D01*
X105769083Y-100751230D01*
X105381435Y-100708440D01*
X104946213Y-100787833D01*
X104658421Y-100903166D01*
X104172414Y-101224191D01*
X103817566Y-101638401D01*
X103604549Y-102126876D01*
X103544037Y-102670695D01*
X93016664Y-102670695D01*
X93052728Y-102578351D01*
X93259880Y-102092698D01*
X93515488Y-101523686D01*
X93811558Y-100887728D01*
X94140096Y-100201236D01*
X94493107Y-99480624D01*
X94862597Y-98742304D01*
X95240572Y-98002689D01*
X95619037Y-97278192D01*
X95989998Y-96585227D01*
X96345461Y-95940205D01*
X96677430Y-95359539D01*
X96828144Y-95105066D01*
X97812510Y-93526746D01*
X98915656Y-91870118D01*
X100121118Y-90158769D01*
X101412434Y-88416291D01*
X102294465Y-87272497D01*
X102625884Y-86848140D01*
X102948677Y-86432735D01*
X103236794Y-86059954D01*
X103464182Y-85763473D01*
X103571677Y-85621497D01*
X103762534Y-85378990D01*
X104032653Y-85051864D01*
X104347668Y-84681049D01*
X104673211Y-84307472D01*
X104708396Y-84267733D01*
X105311156Y-83568045D01*
X105798424Y-82953359D01*
X106184563Y-82399998D01*
X106483936Y-81884284D01*
X106710906Y-81382537D01*
X106879835Y-80871080D01*
X106956776Y-80561122D01*
X107059709Y-79818101D01*
X107053071Y-79053234D01*
X106943573Y-78305918D01*
X106737927Y-77615551D01*
X106442842Y-77021531D01*
X106324720Y-76850355D01*
X106089945Y-76585229D01*
X105791730Y-76312081D01*
X105480239Y-76071708D01*
X105205634Y-75904904D01*
X105116214Y-75867538D01*
X105118798Y-75788799D01*
X105216348Y-75598478D01*
X105397394Y-75316693D01*
X105567040Y-75076653D01*
X105758783Y-74810420D01*
X106029196Y-74430626D01*
X106360296Y-73962752D01*
X106734100Y-73432276D01*
X107132628Y-72864678D01*
X107537896Y-72285439D01*
X107625179Y-72160400D01*
X108448983Y-70986615D01*
X109193792Y-69941123D01*
X109871252Y-69009185D01*
X110493007Y-68176060D01*
X111070704Y-67427010D01*
X111615987Y-66747295D01*
X112140500Y-66122175D01*
X112655890Y-65536911D01*
X113173801Y-64976764D01*
X113705879Y-64426993D01*
X113848469Y-64283440D01*
X114497755Y-63645352D01*
X115068688Y-63113962D01*
X115590555Y-62665246D01*
X116092642Y-62275183D01*
X116604236Y-61919749D01*
X117139104Y-61584239D01*
X118055675Y-61100029D01*
X118976927Y-60740867D01*
X119883802Y-60510222D01*
X120757240Y-60411560D01*
X121578185Y-60448350D01*
G37*
%TD*%
D12*
%TO.C,D3*%
X143600000Y-110200000D03*
X143600000Y-107200000D03*
%TD*%
%TO.C,D3*%
X102870000Y-76170000D03*
X102870000Y-73170000D03*
%TD*%
%TO.C,D3*%
X95400000Y-109700000D03*
X95400000Y-106700000D03*
%TD*%
D13*
%TO.C,U1*%
X106136000Y-128828000D03*
X106136000Y-132384000D03*
X132030000Y-128828000D03*
X132030000Y-132384000D03*
D14*
X119090000Y-130860000D03*
%TD*%
D15*
%TO.C,S1*%
X140000000Y-130000000D03*
X142540000Y-130000000D03*
X145080000Y-130000000D03*
%TD*%
D16*
%TO.C,R2*%
X153010000Y-132702000D03*
X153010000Y-122542000D03*
%TD*%
D12*
%TO.C,D3*%
X137150000Y-76300000D03*
X137150000Y-73300000D03*
%TD*%
M02*
