%TF.GenerationSoftware,KiCad,Pcbnew,9.0.6*%
%TF.CreationDate,2025-11-21T09:20:11+01:00*%
%TF.ProjectId,BL_Santa,424c5f53-616e-4746-912e-6b696361645f,rev?*%
%TF.SameCoordinates,Original*%
%TF.FileFunction,Copper,L2,Bot*%
%TF.FilePolarity,Positive*%
%FSLAX46Y46*%
G04 Gerber Fmt 4.6, Leading zero omitted, Abs format (unit mm)*
G04 Created by KiCad (PCBNEW 9.0.6) date 2025-11-21 09:20:11*
%MOMM*%
%LPD*%
G01*
G04 APERTURE LIST*
%ADD10C,0.250000*%
%TA.AperFunction,NonConductor*%
%ADD11C,0.250000*%
%TD*%
%TA.AperFunction,SMDPad,CuDef*%
%ADD12R,5.000000X2.000000*%
%TD*%
%TA.AperFunction,SMDPad,CuDef*%
%ADD13C,17.780000*%
%TD*%
%TA.AperFunction,ComponentPad*%
%ADD14R,1.800000X1.800000*%
%TD*%
%TA.AperFunction,ComponentPad*%
%ADD15C,1.800000*%
%TD*%
%TA.AperFunction,ComponentPad*%
%ADD16C,2.000000*%
%TD*%
%TA.AperFunction,ComponentPad*%
%ADD17C,1.600000*%
%TD*%
%TA.AperFunction,Conductor*%
%ADD18C,0.250000*%
%TD*%
G04 APERTURE END LIST*
D10*
D11*
X153648431Y-140072619D02*
X153648431Y-139072619D01*
X153077003Y-140072619D02*
X153505574Y-139501190D01*
X153077003Y-139072619D02*
X153648431Y-139644047D01*
X152648431Y-140072619D02*
X152648431Y-139072619D01*
X152648431Y-139548809D02*
X152077003Y-139548809D01*
X152077003Y-140072619D02*
X152077003Y-139072619D01*
X151267479Y-139548809D02*
X151600812Y-139548809D01*
X151600812Y-140072619D02*
X151600812Y-139072619D01*
X151600812Y-139072619D02*
X151124622Y-139072619D01*
X149457955Y-140072619D02*
X150029383Y-140072619D01*
X149743669Y-140072619D02*
X149743669Y-139072619D01*
X149743669Y-139072619D02*
X149838907Y-139215476D01*
X149838907Y-139215476D02*
X149934145Y-139310714D01*
X149934145Y-139310714D02*
X150029383Y-139358333D01*
X148505574Y-140072619D02*
X149077002Y-140072619D01*
X148791288Y-140072619D02*
X148791288Y-139072619D01*
X148791288Y-139072619D02*
X148886526Y-139215476D01*
X148886526Y-139215476D02*
X148981764Y-139310714D01*
X148981764Y-139310714D02*
X149077002Y-139358333D01*
X148077002Y-139977380D02*
X148029383Y-140025000D01*
X148029383Y-140025000D02*
X148077002Y-140072619D01*
X148077002Y-140072619D02*
X148124621Y-140025000D01*
X148124621Y-140025000D02*
X148077002Y-139977380D01*
X148077002Y-139977380D02*
X148077002Y-140072619D01*
X147648431Y-139167857D02*
X147600812Y-139120238D01*
X147600812Y-139120238D02*
X147505574Y-139072619D01*
X147505574Y-139072619D02*
X147267479Y-139072619D01*
X147267479Y-139072619D02*
X147172241Y-139120238D01*
X147172241Y-139120238D02*
X147124622Y-139167857D01*
X147124622Y-139167857D02*
X147077003Y-139263095D01*
X147077003Y-139263095D02*
X147077003Y-139358333D01*
X147077003Y-139358333D02*
X147124622Y-139501190D01*
X147124622Y-139501190D02*
X147696050Y-140072619D01*
X147696050Y-140072619D02*
X147077003Y-140072619D01*
X146457955Y-139072619D02*
X146362717Y-139072619D01*
X146362717Y-139072619D02*
X146267479Y-139120238D01*
X146267479Y-139120238D02*
X146219860Y-139167857D01*
X146219860Y-139167857D02*
X146172241Y-139263095D01*
X146172241Y-139263095D02*
X146124622Y-139453571D01*
X146124622Y-139453571D02*
X146124622Y-139691666D01*
X146124622Y-139691666D02*
X146172241Y-139882142D01*
X146172241Y-139882142D02*
X146219860Y-139977380D01*
X146219860Y-139977380D02*
X146267479Y-140025000D01*
X146267479Y-140025000D02*
X146362717Y-140072619D01*
X146362717Y-140072619D02*
X146457955Y-140072619D01*
X146457955Y-140072619D02*
X146553193Y-140025000D01*
X146553193Y-140025000D02*
X146600812Y-139977380D01*
X146600812Y-139977380D02*
X146648431Y-139882142D01*
X146648431Y-139882142D02*
X146696050Y-139691666D01*
X146696050Y-139691666D02*
X146696050Y-139453571D01*
X146696050Y-139453571D02*
X146648431Y-139263095D01*
X146648431Y-139263095D02*
X146600812Y-139167857D01*
X146600812Y-139167857D02*
X146553193Y-139120238D01*
X146553193Y-139120238D02*
X146457955Y-139072619D01*
X145743669Y-139167857D02*
X145696050Y-139120238D01*
X145696050Y-139120238D02*
X145600812Y-139072619D01*
X145600812Y-139072619D02*
X145362717Y-139072619D01*
X145362717Y-139072619D02*
X145267479Y-139120238D01*
X145267479Y-139120238D02*
X145219860Y-139167857D01*
X145219860Y-139167857D02*
X145172241Y-139263095D01*
X145172241Y-139263095D02*
X145172241Y-139358333D01*
X145172241Y-139358333D02*
X145219860Y-139501190D01*
X145219860Y-139501190D02*
X145791288Y-140072619D01*
X145791288Y-140072619D02*
X145172241Y-140072619D01*
X144267479Y-139072619D02*
X144743669Y-139072619D01*
X144743669Y-139072619D02*
X144791288Y-139548809D01*
X144791288Y-139548809D02*
X144743669Y-139501190D01*
X144743669Y-139501190D02*
X144648431Y-139453571D01*
X144648431Y-139453571D02*
X144410336Y-139453571D01*
X144410336Y-139453571D02*
X144315098Y-139501190D01*
X144315098Y-139501190D02*
X144267479Y-139548809D01*
X144267479Y-139548809D02*
X144219860Y-139644047D01*
X144219860Y-139644047D02*
X144219860Y-139882142D01*
X144219860Y-139882142D02*
X144267479Y-139977380D01*
X144267479Y-139977380D02*
X144315098Y-140025000D01*
X144315098Y-140025000D02*
X144410336Y-140072619D01*
X144410336Y-140072619D02*
X144648431Y-140072619D01*
X144648431Y-140072619D02*
X144743669Y-140025000D01*
X144743669Y-140025000D02*
X144791288Y-139977380D01*
D12*
%TO.P,U1,*%
%TO.N,*%
X136396000Y-122024000D03*
X136396000Y-118468000D03*
%TO.P,U1,1*%
%TO.N,Net-(S1-A-Pad1)*%
X162290000Y-122024000D03*
X162290000Y-118468000D03*
D13*
%TO.P,U1,2*%
%TO.N,Net-(D1-K)*%
X149350000Y-120500000D03*
%TD*%
D14*
%TO.P,D1,1,K*%
%TO.N,Net-(D1-K)*%
X120265000Y-94400000D03*
D15*
%TO.P,D1,2,A*%
%TO.N,Net-(D1-A)*%
X122805000Y-94400000D03*
%TD*%
%TO.P,D3,2,A*%
%TO.N,Net-(D1-A)*%
X177170000Y-95300000D03*
D14*
%TO.P,D3,1,K*%
%TO.N,Net-(D1-K)*%
X179710000Y-95300000D03*
%TD*%
D15*
%TO.P,D4,2,A*%
%TO.N,Net-(D1-A)*%
X165760000Y-65050000D03*
D14*
%TO.P,D4,1,K*%
%TO.N,Net-(D1-K)*%
X168300000Y-65050000D03*
%TD*%
%TO.P,D2,1,K*%
%TO.N,Net-(D1-K)*%
X132015000Y-65300000D03*
D15*
%TO.P,D2,2,A*%
%TO.N,Net-(D1-A)*%
X134555000Y-65300000D03*
%TD*%
D16*
%TO.P,S1,1,A*%
%TO.N,Net-(S1-A-Pad1)*%
X171421900Y-117961900D03*
%TO.P,S1,2,E*%
%TO.N,Net-(S1-E)*%
X173961900Y-117961900D03*
%TO.P,S1,3,A*%
X176501900Y-117961900D03*
%TD*%
D17*
%TO.P,R2,1*%
%TO.N,Net-(S1-E)*%
X182000000Y-112000000D03*
%TO.P,R2,2*%
%TO.N,Net-(D1-A)*%
X182000000Y-122160000D03*
%TD*%
D18*
%TO.N,Net-(D1-K)*%
X144850000Y-115400000D02*
X149450000Y-120000000D01*
X130550000Y-115400000D02*
X144850000Y-115400000D01*
X127150000Y-118800000D02*
X130550000Y-115400000D01*
X115250000Y-118800000D02*
X127150000Y-118800000D01*
X121200000Y-109850000D02*
X115250000Y-115800000D01*
X121200000Y-103150000D02*
X121200000Y-109850000D01*
X124600000Y-96650000D02*
X126150000Y-98200000D01*
X122515000Y-96650000D02*
X124600000Y-96650000D01*
X126150000Y-98200000D02*
X121200000Y-103150000D01*
X120265000Y-94400000D02*
X122515000Y-96650000D01*
X115250000Y-115800000D02*
X115250000Y-118800000D01*
X132015000Y-65665000D02*
X132015000Y-65300000D01*
X134100000Y-67750000D02*
X132015000Y-65665000D01*
X126100000Y-81150000D02*
X132800000Y-74450000D01*
X132950000Y-70350000D02*
X134100000Y-69200000D01*
X134100000Y-69200000D02*
X134100000Y-67750000D01*
X126100000Y-86550000D02*
X126100000Y-81150000D01*
X132800000Y-74450000D02*
X132800000Y-70350000D01*
X120265000Y-92385000D02*
X126100000Y-86550000D01*
X120265000Y-94400000D02*
X120265000Y-92385000D01*
X132800000Y-70350000D02*
X132950000Y-70350000D01*
%TO.N,Net-(D1-A)*%
X136805000Y-67550000D02*
X134555000Y-65300000D01*
X135450000Y-69200000D02*
X135450000Y-68905000D01*
X133550000Y-76400000D02*
X133550000Y-71100000D01*
X127750000Y-87250000D02*
X127750000Y-82200000D01*
X133550000Y-71100000D02*
X135450000Y-69200000D01*
X135450000Y-68905000D02*
X136805000Y-67550000D01*
X122805000Y-92195000D02*
X127750000Y-87250000D01*
X122805000Y-94400000D02*
X122805000Y-92195000D01*
X127750000Y-82200000D02*
X133550000Y-76400000D01*
%TO.N,Net-(D1-K)*%
X132015000Y-61985000D02*
X132015000Y-65300000D01*
X145000000Y-48000000D02*
X145000000Y-49000000D01*
X156000000Y-48000000D02*
X155995573Y-48004427D01*
X145004427Y-48004427D02*
X145000000Y-48000000D01*
X145000000Y-49000000D02*
X132015000Y-61985000D01*
X156000000Y-49362190D02*
X156000000Y-48000000D01*
X168300000Y-61662190D02*
X156000000Y-49362190D01*
X168300000Y-65050000D02*
X168300000Y-61662190D01*
X155995573Y-48004427D02*
X145004427Y-48004427D01*
%TO.N,Net-(D1-A)*%
X134555000Y-61445000D02*
X134555000Y-65300000D01*
X147000000Y-49000000D02*
X134555000Y-61445000D01*
X167000000Y-63810000D02*
X167000000Y-61000000D01*
X155000000Y-49000000D02*
X147000000Y-49000000D01*
X165760000Y-65050000D02*
X167000000Y-63810000D01*
X167000000Y-61000000D02*
X155000000Y-49000000D01*
%TO.N,Net-(D1-K)*%
X179710000Y-93260000D02*
X179710000Y-95300000D01*
X177450000Y-91000000D02*
X179710000Y-93260000D01*
X177450000Y-89000000D02*
X177450000Y-91000000D01*
X177200000Y-89000000D02*
X177450000Y-89000000D01*
X173750000Y-82450000D02*
X173750000Y-85550000D01*
X171350000Y-80050000D02*
X173750000Y-82450000D01*
X171350000Y-76550000D02*
X171350000Y-80050000D01*
X173750000Y-85550000D02*
X177200000Y-89000000D01*
X167500000Y-72700000D02*
X171350000Y-76550000D01*
X166550000Y-72700000D02*
X167500000Y-72700000D01*
X166450000Y-72600000D02*
X166550000Y-72700000D01*
X166450000Y-68900000D02*
X166450000Y-72600000D01*
X166950000Y-68400000D02*
X166450000Y-68900000D01*
X166950000Y-68150000D02*
X166950000Y-68400000D01*
X168300000Y-66800000D02*
X166950000Y-68150000D01*
X168300000Y-65050000D02*
X168300000Y-66800000D01*
%TO.N,Net-(D1-A)*%
X174850000Y-97620000D02*
X174850000Y-98200000D01*
X177170000Y-95300000D02*
X174850000Y-97620000D01*
X177170000Y-92870000D02*
X177170000Y-95300000D01*
X173650000Y-89350000D02*
X177170000Y-92870000D01*
X173650000Y-87550000D02*
X173650000Y-89350000D01*
X171350000Y-85250000D02*
X173650000Y-87550000D01*
X171350000Y-82250000D02*
X171350000Y-85250000D01*
X168050000Y-78950000D02*
X171350000Y-82250000D01*
X168050000Y-74700000D02*
X168050000Y-78950000D01*
X167100000Y-74700000D02*
X168050000Y-74700000D01*
X165760000Y-73360000D02*
X167100000Y-74700000D01*
X165760000Y-65050000D02*
X165760000Y-73360000D01*
X183640000Y-122160000D02*
X182000000Y-122160000D01*
X184300000Y-121500000D02*
X183640000Y-122160000D01*
X181850000Y-108900000D02*
X184300000Y-111350000D01*
X174850000Y-100800000D02*
X181850000Y-107800000D01*
X174850000Y-98200000D02*
X174850000Y-100800000D01*
X184300000Y-111350000D02*
X184300000Y-121500000D01*
X181850000Y-107800000D02*
X181850000Y-108900000D01*
%TO.N,Net-(S1-E)*%
X181911900Y-117961900D02*
X176501900Y-117961900D01*
X182000000Y-118050000D02*
X181911900Y-117961900D01*
X182000000Y-112000000D02*
X182000000Y-118050000D01*
X173961900Y-117961900D02*
X176501900Y-117961900D01*
%TO.N,Net-(S1-A-Pad1)*%
X171510000Y-118050000D02*
X171700000Y-118050000D01*
X171421900Y-117961900D02*
X171510000Y-118050000D01*
X162390000Y-121524000D02*
X162390000Y-117968000D01*
%TO.N,Net-(D1-K)*%
X132460000Y-65910000D02*
X132460000Y-65000000D01*
%TD*%
M02*
