%TF.GenerationSoftware,KiCad,Pcbnew,9.0.6*%
%TF.CreationDate,2025-11-21T14:44:10+01:00*%
%TF.ProjectId,BL_Santa,424c5f53-616e-4746-912e-6b696361645f,rev?*%
%TF.SameCoordinates,Original*%
%TF.FileFunction,Legend,Top*%
%TF.FilePolarity,Positive*%
%FSLAX46Y46*%
G04 Gerber Fmt 4.6, Leading zero omitted, Abs format (unit mm)*
G04 Created by KiCad (PCBNEW 9.0.6) date 2025-11-21 14:44:10*
%MOMM*%
%LPD*%
G01*
G04 APERTURE LIST*
%ADD10C,0.150000*%
%ADD11C,0.010000*%
G04 APERTURE END LIST*
D10*
X122944819Y-68518094D02*
X121944819Y-68518094D01*
X121944819Y-68518094D02*
X121944819Y-68279999D01*
X121944819Y-68279999D02*
X121992438Y-68137142D01*
X121992438Y-68137142D02*
X122087676Y-68041904D01*
X122087676Y-68041904D02*
X122182914Y-67994285D01*
X122182914Y-67994285D02*
X122373390Y-67946666D01*
X122373390Y-67946666D02*
X122516247Y-67946666D01*
X122516247Y-67946666D02*
X122706723Y-67994285D01*
X122706723Y-67994285D02*
X122801961Y-68041904D01*
X122801961Y-68041904D02*
X122897200Y-68137142D01*
X122897200Y-68137142D02*
X122944819Y-68279999D01*
X122944819Y-68279999D02*
X122944819Y-68518094D01*
X122944819Y-66994285D02*
X122944819Y-67565713D01*
X122944819Y-67279999D02*
X121944819Y-67279999D01*
X121944819Y-67279999D02*
X122087676Y-67375237D01*
X122087676Y-67375237D02*
X122182914Y-67470475D01*
X122182914Y-67470475D02*
X122230533Y-67565713D01*
X157344819Y-68418094D02*
X156344819Y-68418094D01*
X156344819Y-68418094D02*
X156344819Y-68179999D01*
X156344819Y-68179999D02*
X156392438Y-68037142D01*
X156392438Y-68037142D02*
X156487676Y-67941904D01*
X156487676Y-67941904D02*
X156582914Y-67894285D01*
X156582914Y-67894285D02*
X156773390Y-67846666D01*
X156773390Y-67846666D02*
X156916247Y-67846666D01*
X156916247Y-67846666D02*
X157106723Y-67894285D01*
X157106723Y-67894285D02*
X157201961Y-67941904D01*
X157201961Y-67941904D02*
X157297200Y-68037142D01*
X157297200Y-68037142D02*
X157344819Y-68179999D01*
X157344819Y-68179999D02*
X157344819Y-68418094D01*
X156440057Y-67465713D02*
X156392438Y-67418094D01*
X156392438Y-67418094D02*
X156344819Y-67322856D01*
X156344819Y-67322856D02*
X156344819Y-67084761D01*
X156344819Y-67084761D02*
X156392438Y-66989523D01*
X156392438Y-66989523D02*
X156440057Y-66941904D01*
X156440057Y-66941904D02*
X156535295Y-66894285D01*
X156535295Y-66894285D02*
X156630533Y-66894285D01*
X156630533Y-66894285D02*
X156773390Y-66941904D01*
X156773390Y-66941904D02*
X157344819Y-67513332D01*
X157344819Y-67513332D02*
X157344819Y-66894285D01*
X168144819Y-98518094D02*
X167144819Y-98518094D01*
X167144819Y-98518094D02*
X167144819Y-98279999D01*
X167144819Y-98279999D02*
X167192438Y-98137142D01*
X167192438Y-98137142D02*
X167287676Y-98041904D01*
X167287676Y-98041904D02*
X167382914Y-97994285D01*
X167382914Y-97994285D02*
X167573390Y-97946666D01*
X167573390Y-97946666D02*
X167716247Y-97946666D01*
X167716247Y-97946666D02*
X167906723Y-97994285D01*
X167906723Y-97994285D02*
X168001961Y-98041904D01*
X168001961Y-98041904D02*
X168097200Y-98137142D01*
X168097200Y-98137142D02*
X168144819Y-98279999D01*
X168144819Y-98279999D02*
X168144819Y-98518094D01*
X167478152Y-97089523D02*
X168144819Y-97089523D01*
X167097200Y-97327618D02*
X167811485Y-97565713D01*
X167811485Y-97565713D02*
X167811485Y-96946666D01*
D11*
%TO.C,G\u002A\u002A\u002A*%
X144653120Y-45858110D02*
X145393835Y-46003250D01*
X146111657Y-46279396D01*
X146839967Y-46697682D01*
X147195580Y-46946685D01*
X147426847Y-47135888D01*
X147755331Y-47431282D01*
X148163089Y-47814916D01*
X148632174Y-48268840D01*
X149144644Y-48775103D01*
X149682551Y-49315752D01*
X150227953Y-49872838D01*
X150762903Y-50428409D01*
X151269458Y-50964513D01*
X151729673Y-51463201D01*
X151908391Y-51661152D01*
X153212048Y-53137987D01*
X154529762Y-54671949D01*
X155846173Y-56243574D01*
X157145920Y-57833395D01*
X158413643Y-59421946D01*
X159633983Y-60989761D01*
X160791579Y-62517374D01*
X161871071Y-63985320D01*
X162857099Y-65374133D01*
X163666676Y-66562485D01*
X164126881Y-67269329D01*
X164487342Y-67862535D01*
X164754474Y-68360387D01*
X164934691Y-68781171D01*
X165034410Y-69143172D01*
X165060045Y-69464676D01*
X165018011Y-69763969D01*
X164914724Y-70059335D01*
X164902810Y-70085980D01*
X164738942Y-70372411D01*
X164518017Y-70611449D01*
X164218356Y-70814533D01*
X163818279Y-70993104D01*
X163296106Y-71158600D01*
X162630158Y-71322461D01*
X162508459Y-71349369D01*
X162072025Y-71453145D01*
X161662686Y-71565554D01*
X161327467Y-71672769D01*
X161119219Y-71757878D01*
X160771985Y-71938818D01*
X163005637Y-74817485D01*
X164057159Y-76182740D01*
X165007782Y-77440385D01*
X165869386Y-78609120D01*
X166653854Y-79707645D01*
X167373066Y-80754662D01*
X168038904Y-81768870D01*
X168663250Y-82768968D01*
X169257984Y-83773659D01*
X169834987Y-84801641D01*
X170406142Y-85871615D01*
X170983330Y-87002281D01*
X171578432Y-88212340D01*
X171773999Y-88618152D01*
X172417749Y-89970789D01*
X172988723Y-91195256D01*
X173495583Y-92311846D01*
X173946993Y-93340853D01*
X174351616Y-94302570D01*
X174718113Y-95217290D01*
X175055150Y-96105306D01*
X175371388Y-96986913D01*
X175476854Y-97292143D01*
X175656964Y-97857127D01*
X175763967Y-98310488D01*
X175799271Y-98692661D01*
X175764285Y-99044081D01*
X175660416Y-99405180D01*
X175559261Y-99658132D01*
X175254258Y-100153308D01*
X174793732Y-100583920D01*
X174178925Y-100949422D01*
X173411081Y-101249269D01*
X172491444Y-101482913D01*
X171421255Y-101649807D01*
X170911912Y-101701189D01*
X170289473Y-101755216D01*
X169815567Y-101798155D01*
X169469980Y-101833047D01*
X169232503Y-101862933D01*
X169082923Y-101890856D01*
X169001030Y-101919857D01*
X168966613Y-101952977D01*
X168959459Y-101993258D01*
X168959454Y-101995008D01*
X169016010Y-102086507D01*
X169174502Y-102279964D01*
X169418170Y-102556569D01*
X169730254Y-102897513D01*
X170093990Y-103283986D01*
X170293205Y-103491749D01*
X171706714Y-104994636D01*
X172991538Y-106443482D01*
X174167926Y-107864825D01*
X175256125Y-109285205D01*
X176276380Y-110731161D01*
X177248941Y-112229231D01*
X178194054Y-113805955D01*
X178291758Y-113975818D01*
X178831430Y-114944059D01*
X179359228Y-115941680D01*
X179868433Y-116952691D01*
X180352326Y-117961100D01*
X180804190Y-118950918D01*
X181217306Y-119906154D01*
X181584957Y-120810816D01*
X181900424Y-121648915D01*
X182156989Y-122404459D01*
X182347935Y-123061457D01*
X182466542Y-123603920D01*
X182506121Y-124006976D01*
X182424304Y-124714171D01*
X182190165Y-125399075D01*
X181820668Y-126035469D01*
X181332777Y-126597135D01*
X180743458Y-127057856D01*
X180411138Y-127244608D01*
X180163107Y-127364286D01*
X179956431Y-127450123D01*
X179753068Y-127509532D01*
X179514978Y-127549926D01*
X179204120Y-127578716D01*
X178782454Y-127603317D01*
X178498473Y-127617315D01*
X177979608Y-127636683D01*
X177305123Y-127652634D01*
X176488698Y-127665183D01*
X175544010Y-127674342D01*
X174484738Y-127680127D01*
X173324562Y-127682550D01*
X172077159Y-127681626D01*
X170756209Y-127677369D01*
X169375391Y-127669792D01*
X167948383Y-127658909D01*
X166488863Y-127644734D01*
X165010512Y-127627282D01*
X163527006Y-127606566D01*
X163216779Y-127601812D01*
X157433499Y-127511806D01*
X156876664Y-127772381D01*
X156204918Y-128139056D01*
X155569841Y-128583487D01*
X155027487Y-129064838D01*
X154870291Y-129234078D01*
X154607867Y-129554542D01*
X154380862Y-129883380D01*
X154184833Y-130237544D01*
X154015334Y-130633988D01*
X153867922Y-131089666D01*
X153738153Y-131621529D01*
X153621581Y-132246533D01*
X153513763Y-132981629D01*
X153410255Y-133843771D01*
X153306611Y-134849912D01*
X153254814Y-135396485D01*
X153118541Y-136854806D01*
X152994822Y-138153477D01*
X152882568Y-139301627D01*
X152780687Y-140308389D01*
X152688089Y-141182893D01*
X152603685Y-141934271D01*
X152526385Y-142571655D01*
X152455097Y-143104175D01*
X152388731Y-143540963D01*
X152326198Y-143891151D01*
X152266407Y-144163869D01*
X152208268Y-144368249D01*
X152171937Y-144466177D01*
X151906645Y-144910910D01*
X151523617Y-145303450D01*
X151112233Y-145571900D01*
X151003304Y-145623654D01*
X150895980Y-145665438D01*
X150771633Y-145698358D01*
X150611635Y-145723514D01*
X150397357Y-145742012D01*
X150110173Y-145754953D01*
X149731453Y-145763441D01*
X149242571Y-145768580D01*
X148624898Y-145771471D01*
X147859806Y-145773219D01*
X147708121Y-145773492D01*
X146928847Y-145774061D01*
X146131892Y-145773165D01*
X145351056Y-145770945D01*
X144620142Y-145767544D01*
X143972952Y-145763105D01*
X143443288Y-145757769D01*
X143220788Y-145754610D01*
X142414240Y-145738932D01*
X141531878Y-145717399D01*
X140601417Y-145691019D01*
X139650571Y-145660803D01*
X138707054Y-145627759D01*
X137798582Y-145592897D01*
X136952868Y-145557224D01*
X136197627Y-145521751D01*
X135560573Y-145487486D01*
X135135121Y-145460236D01*
X134518303Y-145409148D01*
X134040784Y-145349814D01*
X133672531Y-145273996D01*
X133383510Y-145173457D01*
X133143686Y-145039961D01*
X132923026Y-144865269D01*
X132904381Y-144848430D01*
X132777687Y-144718317D01*
X132664102Y-144564035D01*
X132561822Y-144374067D01*
X132469043Y-144136899D01*
X132383960Y-143841015D01*
X132304768Y-143474900D01*
X132229664Y-143027038D01*
X132156841Y-142485915D01*
X132084497Y-141840014D01*
X132010825Y-141077822D01*
X131934023Y-140187821D01*
X131852284Y-139158497D01*
X131763805Y-137978335D01*
X131708445Y-137216818D01*
X131614807Y-135940299D01*
X131529234Y-134823156D01*
X131450780Y-133855672D01*
X131378497Y-133028130D01*
X131311438Y-132330814D01*
X131248657Y-131754005D01*
X131189206Y-131287986D01*
X131132138Y-130923042D01*
X131076506Y-130649454D01*
X131063164Y-130595926D01*
X130824779Y-129937948D01*
X130463309Y-129270639D01*
X130009695Y-128635916D01*
X129494881Y-128075695D01*
X128949809Y-127631895D01*
X128808557Y-127541711D01*
X128470166Y-127374031D01*
X128045423Y-127228582D01*
X127525638Y-127104640D01*
X126902123Y-127001477D01*
X126166190Y-126918370D01*
X125309151Y-126854592D01*
X124322316Y-126809418D01*
X123196997Y-126782121D01*
X121924505Y-126771977D01*
X120496153Y-126778260D01*
X119768121Y-126786686D01*
X117761378Y-126804542D01*
X115915318Y-126800978D01*
X114222580Y-126775422D01*
X112675801Y-126727300D01*
X111267621Y-126656037D01*
X109990677Y-126561061D01*
X108837607Y-126441798D01*
X107801049Y-126297673D01*
X106873642Y-126128114D01*
X106048024Y-125932547D01*
X105316832Y-125710397D01*
X105136785Y-125646569D01*
X104589048Y-125360845D01*
X104148642Y-124948188D01*
X103820814Y-124416766D01*
X103610810Y-123774748D01*
X103528569Y-123142738D01*
X103518061Y-122751949D01*
X103541664Y-122427011D01*
X103609572Y-122092029D01*
X103646154Y-121965474D01*
X108084121Y-121965474D01*
X108104962Y-121980183D01*
X108180477Y-121997603D01*
X108330151Y-122020176D01*
X108573471Y-122050346D01*
X108929924Y-122090554D01*
X109418995Y-122143244D01*
X109946788Y-122198960D01*
X110215208Y-122218264D01*
X110635234Y-122236725D01*
X111189137Y-122253987D01*
X111859189Y-122269693D01*
X112627663Y-122283486D01*
X113476830Y-122295012D01*
X114388964Y-122303912D01*
X115346335Y-122309832D01*
X115492454Y-122310440D01*
X117002526Y-122320903D01*
X118476616Y-122340074D01*
X119901667Y-122367411D01*
X121264623Y-122402373D01*
X122552428Y-122444420D01*
X123752026Y-122493012D01*
X124850359Y-122547607D01*
X125834373Y-122607665D01*
X126691009Y-122672646D01*
X127407213Y-122742009D01*
X127969927Y-122815213D01*
X128067916Y-122831115D01*
X129023462Y-123035030D01*
X129914897Y-123307674D01*
X130707370Y-123636728D01*
X131323881Y-123981838D01*
X132197589Y-124649821D01*
X133006583Y-125457127D01*
X133729726Y-126379452D01*
X134345883Y-127392488D01*
X134428401Y-127552007D01*
X134741987Y-128249038D01*
X135024172Y-129023533D01*
X135263048Y-129830716D01*
X135446707Y-130625809D01*
X135563242Y-131364035D01*
X135600943Y-131961238D01*
X135607459Y-132146121D01*
X135625871Y-132478155D01*
X135654584Y-132935695D01*
X135692008Y-133497097D01*
X135736549Y-134140717D01*
X135786615Y-134844910D01*
X135840614Y-135588033D01*
X135896952Y-136348439D01*
X135954037Y-137104486D01*
X136010277Y-137834528D01*
X136064079Y-138516921D01*
X136113851Y-139130021D01*
X136158000Y-139652183D01*
X136194933Y-140061763D01*
X136203510Y-140150741D01*
X136300449Y-141137331D01*
X137495785Y-141196741D01*
X138149632Y-141226257D01*
X138883101Y-141254157D01*
X139680157Y-141280226D01*
X140524769Y-141304251D01*
X141400903Y-141326017D01*
X142292526Y-141345312D01*
X143183605Y-141361920D01*
X144058107Y-141375628D01*
X144899999Y-141386222D01*
X145693248Y-141393489D01*
X146421820Y-141397213D01*
X147069684Y-141397182D01*
X147620805Y-141393181D01*
X148059151Y-141384996D01*
X148368688Y-141372414D01*
X148533384Y-141355221D01*
X148556465Y-141344318D01*
X148568666Y-141233443D01*
X148598926Y-141005620D01*
X148638189Y-140727666D01*
X148666501Y-140498435D01*
X148706360Y-140128205D01*
X148755046Y-139644708D01*
X148809839Y-139075678D01*
X148868017Y-138448847D01*
X148926862Y-137791946D01*
X148933000Y-137721999D01*
X149040306Y-136517927D01*
X149138769Y-135464231D01*
X149230907Y-134542336D01*
X149319236Y-133733668D01*
X149406274Y-133019650D01*
X149494539Y-132381707D01*
X149586548Y-131801264D01*
X149684818Y-131259746D01*
X149791866Y-130738578D01*
X149910210Y-130219183D01*
X149999218Y-129854333D01*
X150172095Y-129211990D01*
X150348990Y-128682024D01*
X150554138Y-128208692D01*
X150811777Y-127736250D01*
X151146141Y-127208953D01*
X151155391Y-127195040D01*
X151879988Y-126255506D01*
X152732954Y-125411083D01*
X153693661Y-124676421D01*
X154741482Y-124066171D01*
X155855788Y-123594983D01*
X156503389Y-123396727D01*
X157317788Y-123181022D01*
X160873788Y-123213920D01*
X161760307Y-123221249D01*
X162720481Y-123227604D01*
X163741625Y-123232999D01*
X164811059Y-123237452D01*
X165916100Y-123240978D01*
X167044065Y-123243594D01*
X168182271Y-123245314D01*
X169318038Y-123246156D01*
X170438682Y-123246136D01*
X171531520Y-123245268D01*
X172583871Y-123243570D01*
X173583053Y-123241057D01*
X174516382Y-123237745D01*
X175371177Y-123233651D01*
X176134755Y-123228790D01*
X176794434Y-123223178D01*
X177337531Y-123216831D01*
X177751364Y-123209766D01*
X178023251Y-123201998D01*
X178140510Y-123193543D01*
X178144069Y-123192133D01*
X178139241Y-123088456D01*
X178069101Y-122851545D01*
X177942069Y-122500602D01*
X177766565Y-122054830D01*
X177551011Y-121533431D01*
X177303827Y-120955610D01*
X177033434Y-120340567D01*
X176748253Y-119707507D01*
X176456704Y-119075632D01*
X176167207Y-118464144D01*
X175888185Y-117892248D01*
X175628056Y-117379144D01*
X175439173Y-117023818D01*
X174341195Y-115116645D01*
X173159212Y-113265568D01*
X171878356Y-111450757D01*
X170483761Y-109652383D01*
X168960559Y-107850615D01*
X167293882Y-106025623D01*
X166824983Y-105534247D01*
X166459392Y-105149595D01*
X166116655Y-104780074D01*
X165821850Y-104453396D01*
X165600058Y-104197272D01*
X165490573Y-104059768D01*
X165191297Y-103518199D01*
X164986849Y-102864870D01*
X164886861Y-102134358D01*
X164878300Y-101861324D01*
X164945893Y-100993003D01*
X165159098Y-100206431D01*
X165522235Y-99490028D01*
X165987106Y-98888801D01*
X166434425Y-98475708D01*
X166960160Y-98138217D01*
X167582419Y-97869581D01*
X168319306Y-97663053D01*
X169188928Y-97511888D01*
X169888316Y-97435225D01*
X170318953Y-97393612D01*
X170687599Y-97351482D01*
X170962133Y-97313000D01*
X171110431Y-97282331D01*
X171126094Y-97274734D01*
X171123644Y-97168029D01*
X171054850Y-96924617D01*
X170926645Y-96560444D01*
X170745967Y-96091458D01*
X170519750Y-95533607D01*
X170254930Y-94902838D01*
X169958442Y-94215098D01*
X169637223Y-93486336D01*
X169298207Y-92732499D01*
X168948329Y-91969535D01*
X168594527Y-91213390D01*
X168243734Y-90480013D01*
X167902886Y-89785351D01*
X167655973Y-89295485D01*
X167215034Y-88440418D01*
X166792237Y-87639649D01*
X166378733Y-86879768D01*
X165965672Y-86147361D01*
X165544203Y-85429019D01*
X165105477Y-84711329D01*
X164640645Y-83980880D01*
X164140856Y-83224261D01*
X163597262Y-82428060D01*
X163001012Y-81578865D01*
X162343256Y-80663266D01*
X161615146Y-79667850D01*
X160807830Y-78579207D01*
X159912460Y-77383924D01*
X158981868Y-76150151D01*
X158464783Y-75431888D01*
X157973885Y-74685004D01*
X157540823Y-73959808D01*
X157211344Y-73335818D01*
X157051160Y-72982791D01*
X156952859Y-72687489D01*
X156897962Y-72375497D01*
X156867986Y-71972399D01*
X156866809Y-71948510D01*
X156872181Y-71230709D01*
X156972720Y-70594382D01*
X157181433Y-69972935D01*
X157306807Y-69695508D01*
X157610494Y-69195480D01*
X158019931Y-68703833D01*
X158488455Y-68268365D01*
X158969404Y-67936876D01*
X159080525Y-67878577D01*
X159329248Y-67751110D01*
X159502998Y-67651028D01*
X159561454Y-67603459D01*
X159512145Y-67526384D01*
X159371957Y-67329951D01*
X159152496Y-67029599D01*
X158865369Y-66640766D01*
X158522183Y-66178892D01*
X158134545Y-65659415D01*
X157714062Y-65097776D01*
X157272340Y-64509411D01*
X156820987Y-63909761D01*
X156371608Y-63314265D01*
X155935812Y-62738361D01*
X155525204Y-62197489D01*
X155151393Y-61707087D01*
X154825983Y-61282595D01*
X154560584Y-60939451D01*
X154366800Y-60693094D01*
X154358935Y-60683264D01*
X154000539Y-60230525D01*
X153597673Y-59713162D01*
X153203617Y-59199998D01*
X152916946Y-58820597D01*
X152093628Y-57767231D01*
X151236197Y-56760044D01*
X150360352Y-55813838D01*
X149481791Y-54943415D01*
X148616210Y-54163576D01*
X147779309Y-53489123D01*
X146986783Y-52934859D01*
X146254331Y-52515584D01*
X146204132Y-52490903D01*
X145848171Y-52323398D01*
X145572682Y-52215819D01*
X145315006Y-52152767D01*
X145012480Y-52118843D01*
X144608958Y-52098897D01*
X143949053Y-52104253D01*
X143329481Y-52180430D01*
X142708289Y-52337994D01*
X142043523Y-52587508D01*
X141315788Y-52928186D01*
X140409107Y-53434396D01*
X139486631Y-54051874D01*
X138542351Y-54786471D01*
X137570256Y-55644037D01*
X136564336Y-56630422D01*
X135518582Y-57751475D01*
X134426983Y-59013048D01*
X133283530Y-60420990D01*
X132266871Y-61736485D01*
X131942613Y-62167589D01*
X131573454Y-62663389D01*
X131171532Y-63207131D01*
X130748986Y-63782066D01*
X130317955Y-64371442D01*
X129890578Y-64958506D01*
X129478992Y-65526509D01*
X129095337Y-66058698D01*
X128751752Y-66538321D01*
X128460375Y-66948629D01*
X128233344Y-67272868D01*
X128082799Y-67494288D01*
X128021005Y-67595803D01*
X128060675Y-67704294D01*
X128226949Y-67815373D01*
X128236381Y-67819619D01*
X128577044Y-68011109D01*
X128968881Y-68293465D01*
X129359388Y-68623673D01*
X129696059Y-68958718D01*
X129845871Y-69138179D01*
X130279510Y-69819189D01*
X130572742Y-70518645D01*
X130718784Y-71214212D01*
X130710853Y-71883553D01*
X130700565Y-71952925D01*
X130595355Y-72452551D01*
X130439153Y-72930202D01*
X130218642Y-73408876D01*
X129920504Y-73911575D01*
X129531421Y-74461298D01*
X129038077Y-75081046D01*
X128573454Y-75626555D01*
X128193287Y-76069683D01*
X127795708Y-76543732D01*
X127418128Y-77003413D01*
X127097959Y-77403435D01*
X126976758Y-77559514D01*
X125775591Y-79149362D01*
X124679363Y-80645293D01*
X123671819Y-82071653D01*
X122736706Y-83452786D01*
X121857768Y-84813039D01*
X121018753Y-86176757D01*
X120203404Y-87568285D01*
X119706463Y-88448818D01*
X119318059Y-89157434D01*
X118918461Y-89906717D01*
X118514658Y-90681935D01*
X118113640Y-91468349D01*
X117722395Y-92251226D01*
X117347913Y-93015829D01*
X116997184Y-93747424D01*
X116677195Y-94431273D01*
X116394938Y-95052643D01*
X116157400Y-95596798D01*
X115971571Y-96049001D01*
X115844441Y-96394518D01*
X115782998Y-96618613D01*
X115790506Y-96704880D01*
X115914821Y-96743047D01*
X116163506Y-96793217D01*
X116492826Y-96847056D01*
X116665233Y-96871557D01*
X117795512Y-97070811D01*
X118774637Y-97343354D01*
X119604960Y-97690993D01*
X120288830Y-98115531D01*
X120828601Y-98618776D01*
X121226623Y-99202531D01*
X121485246Y-99868604D01*
X121606823Y-100618798D01*
X121609920Y-100668432D01*
X121611967Y-101356494D01*
X121523543Y-101969096D01*
X121330568Y-102573388D01*
X121107640Y-103063775D01*
X120976644Y-103311525D01*
X120836896Y-103538201D01*
X120668250Y-103768136D01*
X120450558Y-104025663D01*
X120163673Y-104335115D01*
X119787449Y-104720825D01*
X119480867Y-105028535D01*
X117747090Y-106823024D01*
X116126527Y-108628425D01*
X114628700Y-110432733D01*
X113263131Y-112223945D01*
X112039341Y-113990055D01*
X110966853Y-115719061D01*
X110874807Y-115878125D01*
X110564280Y-116438405D01*
X110221612Y-117091249D01*
X109863405Y-117801993D01*
X109506259Y-118535970D01*
X109166774Y-119258515D01*
X108861552Y-119934960D01*
X108607193Y-120530641D01*
X108430901Y-120981577D01*
X108296450Y-121353217D01*
X108186286Y-121662487D01*
X108111735Y-121877254D01*
X108084122Y-121965388D01*
X108084121Y-121965474D01*
X103646154Y-121965474D01*
X103721909Y-121703405D01*
X104101000Y-120593083D01*
X104575351Y-119383826D01*
X105130555Y-118105718D01*
X105752202Y-116788844D01*
X106425882Y-115463290D01*
X107137187Y-114159140D01*
X107871708Y-112906479D01*
X108152917Y-112451818D01*
X108947204Y-111224510D01*
X109760671Y-110045147D01*
X110610859Y-108891966D01*
X111515311Y-107743205D01*
X112491569Y-106577101D01*
X113557174Y-105371892D01*
X114729670Y-104105815D01*
X115682669Y-103110517D01*
X116096471Y-102681303D01*
X116468448Y-102290996D01*
X116783091Y-101956237D01*
X117024885Y-101693667D01*
X117178320Y-101519929D01*
X117228121Y-101452542D01*
X117149657Y-101416083D01*
X116936011Y-101363872D01*
X116619805Y-101302877D01*
X116233660Y-101240067D01*
X116233288Y-101240011D01*
X115472627Y-101118428D01*
X114736323Y-100986141D01*
X114049473Y-100848680D01*
X113437178Y-100711573D01*
X112924535Y-100580351D01*
X112536644Y-100460543D01*
X112347807Y-100384017D01*
X111811619Y-100035934D01*
X111403157Y-99581957D01*
X111125721Y-99031050D01*
X110982613Y-98392179D01*
X110977137Y-97674310D01*
X111091469Y-96972930D01*
X111190424Y-96644166D01*
X111360817Y-96182932D01*
X111594596Y-95606276D01*
X111883707Y-94931242D01*
X112220099Y-94174877D01*
X112595719Y-93354228D01*
X113002513Y-92486341D01*
X113432430Y-91588263D01*
X113877416Y-90677038D01*
X114329419Y-89769714D01*
X114780387Y-88883337D01*
X115222266Y-88034954D01*
X115647004Y-87241610D01*
X115938185Y-86713152D01*
X117263829Y-84411069D01*
X118598966Y-82238513D01*
X119970248Y-80156551D01*
X121404333Y-78126249D01*
X122927873Y-76108671D01*
X124567525Y-74064886D01*
X124741601Y-73854310D01*
X125116615Y-73400625D01*
X125463570Y-72978578D01*
X125765114Y-72609461D01*
X126003895Y-72314565D01*
X126162560Y-72115178D01*
X126213407Y-72048420D01*
X126378285Y-71819354D01*
X126128504Y-71690187D01*
X125946146Y-71615805D01*
X125644623Y-71513840D01*
X125268788Y-71398792D01*
X124935650Y-71304596D01*
X124181994Y-71073601D01*
X123583524Y-70828812D01*
X123126146Y-70560634D01*
X122795764Y-70259472D01*
X122578283Y-69915731D01*
X122483409Y-69635309D01*
X122438914Y-69337717D01*
X122449867Y-69020820D01*
X122522695Y-68672092D01*
X122663827Y-68279008D01*
X122879690Y-67829041D01*
X123176711Y-67309665D01*
X123561318Y-66708356D01*
X124039939Y-66012586D01*
X124619000Y-65209831D01*
X125059451Y-64615152D01*
X126245414Y-63064220D01*
X127544857Y-61433536D01*
X128937133Y-59746709D01*
X130401597Y-58027351D01*
X131917602Y-56299073D01*
X133464503Y-54585486D01*
X135021654Y-52910201D01*
X136568410Y-51296830D01*
X137756137Y-50094818D01*
X138521065Y-49335783D01*
X139183241Y-48688626D01*
X139755988Y-48141933D01*
X140252625Y-47684288D01*
X140686472Y-47304276D01*
X141070850Y-46990482D01*
X141419079Y-46731490D01*
X141744479Y-46515885D01*
X142060371Y-46332252D01*
X142279600Y-46218296D01*
X142617741Y-46055154D01*
X142880965Y-45949825D01*
X143129212Y-45887656D01*
X143422425Y-45853990D01*
X143820544Y-45834172D01*
X143856130Y-45832841D01*
X144653120Y-45858110D01*
G36*
X144653120Y-45858110D02*
G01*
X145393835Y-46003250D01*
X146111657Y-46279396D01*
X146839967Y-46697682D01*
X147195580Y-46946685D01*
X147426847Y-47135888D01*
X147755331Y-47431282D01*
X148163089Y-47814916D01*
X148632174Y-48268840D01*
X149144644Y-48775103D01*
X149682551Y-49315752D01*
X150227953Y-49872838D01*
X150762903Y-50428409D01*
X151269458Y-50964513D01*
X151729673Y-51463201D01*
X151908391Y-51661152D01*
X153212048Y-53137987D01*
X154529762Y-54671949D01*
X155846173Y-56243574D01*
X157145920Y-57833395D01*
X158413643Y-59421946D01*
X159633983Y-60989761D01*
X160791579Y-62517374D01*
X161871071Y-63985320D01*
X162857099Y-65374133D01*
X163666676Y-66562485D01*
X164126881Y-67269329D01*
X164487342Y-67862535D01*
X164754474Y-68360387D01*
X164934691Y-68781171D01*
X165034410Y-69143172D01*
X165060045Y-69464676D01*
X165018011Y-69763969D01*
X164914724Y-70059335D01*
X164902810Y-70085980D01*
X164738942Y-70372411D01*
X164518017Y-70611449D01*
X164218356Y-70814533D01*
X163818279Y-70993104D01*
X163296106Y-71158600D01*
X162630158Y-71322461D01*
X162508459Y-71349369D01*
X162072025Y-71453145D01*
X161662686Y-71565554D01*
X161327467Y-71672769D01*
X161119219Y-71757878D01*
X160771985Y-71938818D01*
X163005637Y-74817485D01*
X164057159Y-76182740D01*
X165007782Y-77440385D01*
X165869386Y-78609120D01*
X166653854Y-79707645D01*
X167373066Y-80754662D01*
X168038904Y-81768870D01*
X168663250Y-82768968D01*
X169257984Y-83773659D01*
X169834987Y-84801641D01*
X170406142Y-85871615D01*
X170983330Y-87002281D01*
X171578432Y-88212340D01*
X171773999Y-88618152D01*
X172417749Y-89970789D01*
X172988723Y-91195256D01*
X173495583Y-92311846D01*
X173946993Y-93340853D01*
X174351616Y-94302570D01*
X174718113Y-95217290D01*
X175055150Y-96105306D01*
X175371388Y-96986913D01*
X175476854Y-97292143D01*
X175656964Y-97857127D01*
X175763967Y-98310488D01*
X175799271Y-98692661D01*
X175764285Y-99044081D01*
X175660416Y-99405180D01*
X175559261Y-99658132D01*
X175254258Y-100153308D01*
X174793732Y-100583920D01*
X174178925Y-100949422D01*
X173411081Y-101249269D01*
X172491444Y-101482913D01*
X171421255Y-101649807D01*
X170911912Y-101701189D01*
X170289473Y-101755216D01*
X169815567Y-101798155D01*
X169469980Y-101833047D01*
X169232503Y-101862933D01*
X169082923Y-101890856D01*
X169001030Y-101919857D01*
X168966613Y-101952977D01*
X168959459Y-101993258D01*
X168959454Y-101995008D01*
X169016010Y-102086507D01*
X169174502Y-102279964D01*
X169418170Y-102556569D01*
X169730254Y-102897513D01*
X170093990Y-103283986D01*
X170293205Y-103491749D01*
X171706714Y-104994636D01*
X172991538Y-106443482D01*
X174167926Y-107864825D01*
X175256125Y-109285205D01*
X176276380Y-110731161D01*
X177248941Y-112229231D01*
X178194054Y-113805955D01*
X178291758Y-113975818D01*
X178831430Y-114944059D01*
X179359228Y-115941680D01*
X179868433Y-116952691D01*
X180352326Y-117961100D01*
X180804190Y-118950918D01*
X181217306Y-119906154D01*
X181584957Y-120810816D01*
X181900424Y-121648915D01*
X182156989Y-122404459D01*
X182347935Y-123061457D01*
X182466542Y-123603920D01*
X182506121Y-124006976D01*
X182424304Y-124714171D01*
X182190165Y-125399075D01*
X181820668Y-126035469D01*
X181332777Y-126597135D01*
X180743458Y-127057856D01*
X180411138Y-127244608D01*
X180163107Y-127364286D01*
X179956431Y-127450123D01*
X179753068Y-127509532D01*
X179514978Y-127549926D01*
X179204120Y-127578716D01*
X178782454Y-127603317D01*
X178498473Y-127617315D01*
X177979608Y-127636683D01*
X177305123Y-127652634D01*
X176488698Y-127665183D01*
X175544010Y-127674342D01*
X174484738Y-127680127D01*
X173324562Y-127682550D01*
X172077159Y-127681626D01*
X170756209Y-127677369D01*
X169375391Y-127669792D01*
X167948383Y-127658909D01*
X166488863Y-127644734D01*
X165010512Y-127627282D01*
X163527006Y-127606566D01*
X163216779Y-127601812D01*
X157433499Y-127511806D01*
X156876664Y-127772381D01*
X156204918Y-128139056D01*
X155569841Y-128583487D01*
X155027487Y-129064838D01*
X154870291Y-129234078D01*
X154607867Y-129554542D01*
X154380862Y-129883380D01*
X154184833Y-130237544D01*
X154015334Y-130633988D01*
X153867922Y-131089666D01*
X153738153Y-131621529D01*
X153621581Y-132246533D01*
X153513763Y-132981629D01*
X153410255Y-133843771D01*
X153306611Y-134849912D01*
X153254814Y-135396485D01*
X153118541Y-136854806D01*
X152994822Y-138153477D01*
X152882568Y-139301627D01*
X152780687Y-140308389D01*
X152688089Y-141182893D01*
X152603685Y-141934271D01*
X152526385Y-142571655D01*
X152455097Y-143104175D01*
X152388731Y-143540963D01*
X152326198Y-143891151D01*
X152266407Y-144163869D01*
X152208268Y-144368249D01*
X152171937Y-144466177D01*
X151906645Y-144910910D01*
X151523617Y-145303450D01*
X151112233Y-145571900D01*
X151003304Y-145623654D01*
X150895980Y-145665438D01*
X150771633Y-145698358D01*
X150611635Y-145723514D01*
X150397357Y-145742012D01*
X150110173Y-145754953D01*
X149731453Y-145763441D01*
X149242571Y-145768580D01*
X148624898Y-145771471D01*
X147859806Y-145773219D01*
X147708121Y-145773492D01*
X146928847Y-145774061D01*
X146131892Y-145773165D01*
X145351056Y-145770945D01*
X144620142Y-145767544D01*
X143972952Y-145763105D01*
X143443288Y-145757769D01*
X143220788Y-145754610D01*
X142414240Y-145738932D01*
X141531878Y-145717399D01*
X140601417Y-145691019D01*
X139650571Y-145660803D01*
X138707054Y-145627759D01*
X137798582Y-145592897D01*
X136952868Y-145557224D01*
X136197627Y-145521751D01*
X135560573Y-145487486D01*
X135135121Y-145460236D01*
X134518303Y-145409148D01*
X134040784Y-145349814D01*
X133672531Y-145273996D01*
X133383510Y-145173457D01*
X133143686Y-145039961D01*
X132923026Y-144865269D01*
X132904381Y-144848430D01*
X132777687Y-144718317D01*
X132664102Y-144564035D01*
X132561822Y-144374067D01*
X132469043Y-144136899D01*
X132383960Y-143841015D01*
X132304768Y-143474900D01*
X132229664Y-143027038D01*
X132156841Y-142485915D01*
X132084497Y-141840014D01*
X132010825Y-141077822D01*
X131934023Y-140187821D01*
X131852284Y-139158497D01*
X131763805Y-137978335D01*
X131708445Y-137216818D01*
X131614807Y-135940299D01*
X131529234Y-134823156D01*
X131450780Y-133855672D01*
X131378497Y-133028130D01*
X131311438Y-132330814D01*
X131248657Y-131754005D01*
X131189206Y-131287986D01*
X131132138Y-130923042D01*
X131076506Y-130649454D01*
X131063164Y-130595926D01*
X130824779Y-129937948D01*
X130463309Y-129270639D01*
X130009695Y-128635916D01*
X129494881Y-128075695D01*
X128949809Y-127631895D01*
X128808557Y-127541711D01*
X128470166Y-127374031D01*
X128045423Y-127228582D01*
X127525638Y-127104640D01*
X126902123Y-127001477D01*
X126166190Y-126918370D01*
X125309151Y-126854592D01*
X124322316Y-126809418D01*
X123196997Y-126782121D01*
X121924505Y-126771977D01*
X120496153Y-126778260D01*
X119768121Y-126786686D01*
X117761378Y-126804542D01*
X115915318Y-126800978D01*
X114222580Y-126775422D01*
X112675801Y-126727300D01*
X111267621Y-126656037D01*
X109990677Y-126561061D01*
X108837607Y-126441798D01*
X107801049Y-126297673D01*
X106873642Y-126128114D01*
X106048024Y-125932547D01*
X105316832Y-125710397D01*
X105136785Y-125646569D01*
X104589048Y-125360845D01*
X104148642Y-124948188D01*
X103820814Y-124416766D01*
X103610810Y-123774748D01*
X103528569Y-123142738D01*
X103518061Y-122751949D01*
X103541664Y-122427011D01*
X103609572Y-122092029D01*
X103646154Y-121965474D01*
X108084121Y-121965474D01*
X108104962Y-121980183D01*
X108180477Y-121997603D01*
X108330151Y-122020176D01*
X108573471Y-122050346D01*
X108929924Y-122090554D01*
X109418995Y-122143244D01*
X109946788Y-122198960D01*
X110215208Y-122218264D01*
X110635234Y-122236725D01*
X111189137Y-122253987D01*
X111859189Y-122269693D01*
X112627663Y-122283486D01*
X113476830Y-122295012D01*
X114388964Y-122303912D01*
X115346335Y-122309832D01*
X115492454Y-122310440D01*
X117002526Y-122320903D01*
X118476616Y-122340074D01*
X119901667Y-122367411D01*
X121264623Y-122402373D01*
X122552428Y-122444420D01*
X123752026Y-122493012D01*
X124850359Y-122547607D01*
X125834373Y-122607665D01*
X126691009Y-122672646D01*
X127407213Y-122742009D01*
X127969927Y-122815213D01*
X128067916Y-122831115D01*
X129023462Y-123035030D01*
X129914897Y-123307674D01*
X130707370Y-123636728D01*
X131323881Y-123981838D01*
X132197589Y-124649821D01*
X133006583Y-125457127D01*
X133729726Y-126379452D01*
X134345883Y-127392488D01*
X134428401Y-127552007D01*
X134741987Y-128249038D01*
X135024172Y-129023533D01*
X135263048Y-129830716D01*
X135446707Y-130625809D01*
X135563242Y-131364035D01*
X135600943Y-131961238D01*
X135607459Y-132146121D01*
X135625871Y-132478155D01*
X135654584Y-132935695D01*
X135692008Y-133497097D01*
X135736549Y-134140717D01*
X135786615Y-134844910D01*
X135840614Y-135588033D01*
X135896952Y-136348439D01*
X135954037Y-137104486D01*
X136010277Y-137834528D01*
X136064079Y-138516921D01*
X136113851Y-139130021D01*
X136158000Y-139652183D01*
X136194933Y-140061763D01*
X136203510Y-140150741D01*
X136300449Y-141137331D01*
X137495785Y-141196741D01*
X138149632Y-141226257D01*
X138883101Y-141254157D01*
X139680157Y-141280226D01*
X140524769Y-141304251D01*
X141400903Y-141326017D01*
X142292526Y-141345312D01*
X143183605Y-141361920D01*
X144058107Y-141375628D01*
X144899999Y-141386222D01*
X145693248Y-141393489D01*
X146421820Y-141397213D01*
X147069684Y-141397182D01*
X147620805Y-141393181D01*
X148059151Y-141384996D01*
X148368688Y-141372414D01*
X148533384Y-141355221D01*
X148556465Y-141344318D01*
X148568666Y-141233443D01*
X148598926Y-141005620D01*
X148638189Y-140727666D01*
X148666501Y-140498435D01*
X148706360Y-140128205D01*
X148755046Y-139644708D01*
X148809839Y-139075678D01*
X148868017Y-138448847D01*
X148926862Y-137791946D01*
X148933000Y-137721999D01*
X149040306Y-136517927D01*
X149138769Y-135464231D01*
X149230907Y-134542336D01*
X149319236Y-133733668D01*
X149406274Y-133019650D01*
X149494539Y-132381707D01*
X149586548Y-131801264D01*
X149684818Y-131259746D01*
X149791866Y-130738578D01*
X149910210Y-130219183D01*
X149999218Y-129854333D01*
X150172095Y-129211990D01*
X150348990Y-128682024D01*
X150554138Y-128208692D01*
X150811777Y-127736250D01*
X151146141Y-127208953D01*
X151155391Y-127195040D01*
X151879988Y-126255506D01*
X152732954Y-125411083D01*
X153693661Y-124676421D01*
X154741482Y-124066171D01*
X155855788Y-123594983D01*
X156503389Y-123396727D01*
X157317788Y-123181022D01*
X160873788Y-123213920D01*
X161760307Y-123221249D01*
X162720481Y-123227604D01*
X163741625Y-123232999D01*
X164811059Y-123237452D01*
X165916100Y-123240978D01*
X167044065Y-123243594D01*
X168182271Y-123245314D01*
X169318038Y-123246156D01*
X170438682Y-123246136D01*
X171531520Y-123245268D01*
X172583871Y-123243570D01*
X173583053Y-123241057D01*
X174516382Y-123237745D01*
X175371177Y-123233651D01*
X176134755Y-123228790D01*
X176794434Y-123223178D01*
X177337531Y-123216831D01*
X177751364Y-123209766D01*
X178023251Y-123201998D01*
X178140510Y-123193543D01*
X178144069Y-123192133D01*
X178139241Y-123088456D01*
X178069101Y-122851545D01*
X177942069Y-122500602D01*
X177766565Y-122054830D01*
X177551011Y-121533431D01*
X177303827Y-120955610D01*
X177033434Y-120340567D01*
X176748253Y-119707507D01*
X176456704Y-119075632D01*
X176167207Y-118464144D01*
X175888185Y-117892248D01*
X175628056Y-117379144D01*
X175439173Y-117023818D01*
X174341195Y-115116645D01*
X173159212Y-113265568D01*
X171878356Y-111450757D01*
X170483761Y-109652383D01*
X168960559Y-107850615D01*
X167293882Y-106025623D01*
X166824983Y-105534247D01*
X166459392Y-105149595D01*
X166116655Y-104780074D01*
X165821850Y-104453396D01*
X165600058Y-104197272D01*
X165490573Y-104059768D01*
X165191297Y-103518199D01*
X164986849Y-102864870D01*
X164886861Y-102134358D01*
X164878300Y-101861324D01*
X164945893Y-100993003D01*
X165159098Y-100206431D01*
X165522235Y-99490028D01*
X165987106Y-98888801D01*
X166434425Y-98475708D01*
X166960160Y-98138217D01*
X167582419Y-97869581D01*
X168319306Y-97663053D01*
X169188928Y-97511888D01*
X169888316Y-97435225D01*
X170318953Y-97393612D01*
X170687599Y-97351482D01*
X170962133Y-97313000D01*
X171110431Y-97282331D01*
X171126094Y-97274734D01*
X171123644Y-97168029D01*
X171054850Y-96924617D01*
X170926645Y-96560444D01*
X170745967Y-96091458D01*
X170519750Y-95533607D01*
X170254930Y-94902838D01*
X169958442Y-94215098D01*
X169637223Y-93486336D01*
X169298207Y-92732499D01*
X168948329Y-91969535D01*
X168594527Y-91213390D01*
X168243734Y-90480013D01*
X167902886Y-89785351D01*
X167655973Y-89295485D01*
X167215034Y-88440418D01*
X166792237Y-87639649D01*
X166378733Y-86879768D01*
X165965672Y-86147361D01*
X165544203Y-85429019D01*
X165105477Y-84711329D01*
X164640645Y-83980880D01*
X164140856Y-83224261D01*
X163597262Y-82428060D01*
X163001012Y-81578865D01*
X162343256Y-80663266D01*
X161615146Y-79667850D01*
X160807830Y-78579207D01*
X159912460Y-77383924D01*
X158981868Y-76150151D01*
X158464783Y-75431888D01*
X157973885Y-74685004D01*
X157540823Y-73959808D01*
X157211344Y-73335818D01*
X157051160Y-72982791D01*
X156952859Y-72687489D01*
X156897962Y-72375497D01*
X156867986Y-71972399D01*
X156866809Y-71948510D01*
X156872181Y-71230709D01*
X156972720Y-70594382D01*
X157181433Y-69972935D01*
X157306807Y-69695508D01*
X157610494Y-69195480D01*
X158019931Y-68703833D01*
X158488455Y-68268365D01*
X158969404Y-67936876D01*
X159080525Y-67878577D01*
X159329248Y-67751110D01*
X159502998Y-67651028D01*
X159561454Y-67603459D01*
X159512145Y-67526384D01*
X159371957Y-67329951D01*
X159152496Y-67029599D01*
X158865369Y-66640766D01*
X158522183Y-66178892D01*
X158134545Y-65659415D01*
X157714062Y-65097776D01*
X157272340Y-64509411D01*
X156820987Y-63909761D01*
X156371608Y-63314265D01*
X155935812Y-62738361D01*
X155525204Y-62197489D01*
X155151393Y-61707087D01*
X154825983Y-61282595D01*
X154560584Y-60939451D01*
X154366800Y-60693094D01*
X154358935Y-60683264D01*
X154000539Y-60230525D01*
X153597673Y-59713162D01*
X153203617Y-59199998D01*
X152916946Y-58820597D01*
X152093628Y-57767231D01*
X151236197Y-56760044D01*
X150360352Y-55813838D01*
X149481791Y-54943415D01*
X148616210Y-54163576D01*
X147779309Y-53489123D01*
X146986783Y-52934859D01*
X146254331Y-52515584D01*
X146204132Y-52490903D01*
X145848171Y-52323398D01*
X145572682Y-52215819D01*
X145315006Y-52152767D01*
X145012480Y-52118843D01*
X144608958Y-52098897D01*
X143949053Y-52104253D01*
X143329481Y-52180430D01*
X142708289Y-52337994D01*
X142043523Y-52587508D01*
X141315788Y-52928186D01*
X140409107Y-53434396D01*
X139486631Y-54051874D01*
X138542351Y-54786471D01*
X137570256Y-55644037D01*
X136564336Y-56630422D01*
X135518582Y-57751475D01*
X134426983Y-59013048D01*
X133283530Y-60420990D01*
X132266871Y-61736485D01*
X131942613Y-62167589D01*
X131573454Y-62663389D01*
X131171532Y-63207131D01*
X130748986Y-63782066D01*
X130317955Y-64371442D01*
X129890578Y-64958506D01*
X129478992Y-65526509D01*
X129095337Y-66058698D01*
X128751752Y-66538321D01*
X128460375Y-66948629D01*
X128233344Y-67272868D01*
X128082799Y-67494288D01*
X128021005Y-67595803D01*
X128060675Y-67704294D01*
X128226949Y-67815373D01*
X128236381Y-67819619D01*
X128577044Y-68011109D01*
X128968881Y-68293465D01*
X129359388Y-68623673D01*
X129696059Y-68958718D01*
X129845871Y-69138179D01*
X130279510Y-69819189D01*
X130572742Y-70518645D01*
X130718784Y-71214212D01*
X130710853Y-71883553D01*
X130700565Y-71952925D01*
X130595355Y-72452551D01*
X130439153Y-72930202D01*
X130218642Y-73408876D01*
X129920504Y-73911575D01*
X129531421Y-74461298D01*
X129038077Y-75081046D01*
X128573454Y-75626555D01*
X128193287Y-76069683D01*
X127795708Y-76543732D01*
X127418128Y-77003413D01*
X127097959Y-77403435D01*
X126976758Y-77559514D01*
X125775591Y-79149362D01*
X124679363Y-80645293D01*
X123671819Y-82071653D01*
X122736706Y-83452786D01*
X121857768Y-84813039D01*
X121018753Y-86176757D01*
X120203404Y-87568285D01*
X119706463Y-88448818D01*
X119318059Y-89157434D01*
X118918461Y-89906717D01*
X118514658Y-90681935D01*
X118113640Y-91468349D01*
X117722395Y-92251226D01*
X117347913Y-93015829D01*
X116997184Y-93747424D01*
X116677195Y-94431273D01*
X116394938Y-95052643D01*
X116157400Y-95596798D01*
X115971571Y-96049001D01*
X115844441Y-96394518D01*
X115782998Y-96618613D01*
X115790506Y-96704880D01*
X115914821Y-96743047D01*
X116163506Y-96793217D01*
X116492826Y-96847056D01*
X116665233Y-96871557D01*
X117795512Y-97070811D01*
X118774637Y-97343354D01*
X119604960Y-97690993D01*
X120288830Y-98115531D01*
X120828601Y-98618776D01*
X121226623Y-99202531D01*
X121485246Y-99868604D01*
X121606823Y-100618798D01*
X121609920Y-100668432D01*
X121611967Y-101356494D01*
X121523543Y-101969096D01*
X121330568Y-102573388D01*
X121107640Y-103063775D01*
X120976644Y-103311525D01*
X120836896Y-103538201D01*
X120668250Y-103768136D01*
X120450558Y-104025663D01*
X120163673Y-104335115D01*
X119787449Y-104720825D01*
X119480867Y-105028535D01*
X117747090Y-106823024D01*
X116126527Y-108628425D01*
X114628700Y-110432733D01*
X113263131Y-112223945D01*
X112039341Y-113990055D01*
X110966853Y-115719061D01*
X110874807Y-115878125D01*
X110564280Y-116438405D01*
X110221612Y-117091249D01*
X109863405Y-117801993D01*
X109506259Y-118535970D01*
X109166774Y-119258515D01*
X108861552Y-119934960D01*
X108607193Y-120530641D01*
X108430901Y-120981577D01*
X108296450Y-121353217D01*
X108186286Y-121662487D01*
X108111735Y-121877254D01*
X108084122Y-121965388D01*
X108084121Y-121965474D01*
X103646154Y-121965474D01*
X103721909Y-121703405D01*
X104101000Y-120593083D01*
X104575351Y-119383826D01*
X105130555Y-118105718D01*
X105752202Y-116788844D01*
X106425882Y-115463290D01*
X107137187Y-114159140D01*
X107871708Y-112906479D01*
X108152917Y-112451818D01*
X108947204Y-111224510D01*
X109760671Y-110045147D01*
X110610859Y-108891966D01*
X111515311Y-107743205D01*
X112491569Y-106577101D01*
X113557174Y-105371892D01*
X114729670Y-104105815D01*
X115682669Y-103110517D01*
X116096471Y-102681303D01*
X116468448Y-102290996D01*
X116783091Y-101956237D01*
X117024885Y-101693667D01*
X117178320Y-101519929D01*
X117228121Y-101452542D01*
X117149657Y-101416083D01*
X116936011Y-101363872D01*
X116619805Y-101302877D01*
X116233660Y-101240067D01*
X116233288Y-101240011D01*
X115472627Y-101118428D01*
X114736323Y-100986141D01*
X114049473Y-100848680D01*
X113437178Y-100711573D01*
X112924535Y-100580351D01*
X112536644Y-100460543D01*
X112347807Y-100384017D01*
X111811619Y-100035934D01*
X111403157Y-99581957D01*
X111125721Y-99031050D01*
X110982613Y-98392179D01*
X110977137Y-97674310D01*
X111091469Y-96972930D01*
X111190424Y-96644166D01*
X111360817Y-96182932D01*
X111594596Y-95606276D01*
X111883707Y-94931242D01*
X112220099Y-94174877D01*
X112595719Y-93354228D01*
X113002513Y-92486341D01*
X113432430Y-91588263D01*
X113877416Y-90677038D01*
X114329419Y-89769714D01*
X114780387Y-88883337D01*
X115222266Y-88034954D01*
X115647004Y-87241610D01*
X115938185Y-86713152D01*
X117263829Y-84411069D01*
X118598966Y-82238513D01*
X119970248Y-80156551D01*
X121404333Y-78126249D01*
X122927873Y-76108671D01*
X124567525Y-74064886D01*
X124741601Y-73854310D01*
X125116615Y-73400625D01*
X125463570Y-72978578D01*
X125765114Y-72609461D01*
X126003895Y-72314565D01*
X126162560Y-72115178D01*
X126213407Y-72048420D01*
X126378285Y-71819354D01*
X126128504Y-71690187D01*
X125946146Y-71615805D01*
X125644623Y-71513840D01*
X125268788Y-71398792D01*
X124935650Y-71304596D01*
X124181994Y-71073601D01*
X123583524Y-70828812D01*
X123126146Y-70560634D01*
X122795764Y-70259472D01*
X122578283Y-69915731D01*
X122483409Y-69635309D01*
X122438914Y-69337717D01*
X122449867Y-69020820D01*
X122522695Y-68672092D01*
X122663827Y-68279008D01*
X122879690Y-67829041D01*
X123176711Y-67309665D01*
X123561318Y-66708356D01*
X124039939Y-66012586D01*
X124619000Y-65209831D01*
X125059451Y-64615152D01*
X126245414Y-63064220D01*
X127544857Y-61433536D01*
X128937133Y-59746709D01*
X130401597Y-58027351D01*
X131917602Y-56299073D01*
X133464503Y-54585486D01*
X135021654Y-52910201D01*
X136568410Y-51296830D01*
X137756137Y-50094818D01*
X138521065Y-49335783D01*
X139183241Y-48688626D01*
X139755988Y-48141933D01*
X140252625Y-47684288D01*
X140686472Y-47304276D01*
X141070850Y-46990482D01*
X141419079Y-46731490D01*
X141744479Y-46515885D01*
X142060371Y-46332252D01*
X142279600Y-46218296D01*
X142617741Y-46055154D01*
X142880965Y-45949825D01*
X143129212Y-45887656D01*
X143422425Y-45853990D01*
X143820544Y-45834172D01*
X143856130Y-45832841D01*
X144653120Y-45858110D01*
G37*
X143907121Y-113807577D02*
X144138767Y-113898627D01*
X144439639Y-114051817D01*
X144711454Y-114213370D01*
X145106378Y-114427348D01*
X145529360Y-114593927D01*
X145718454Y-114645490D01*
X146101354Y-114747065D01*
X146513112Y-114882543D01*
X146710736Y-114958892D01*
X147009428Y-115066753D01*
X147306785Y-115129326D01*
X147666993Y-115156983D01*
X147962289Y-115161152D01*
X148457715Y-115145258D01*
X148832521Y-115086634D01*
X149133363Y-114968865D01*
X149406899Y-114775535D01*
X149613121Y-114580344D01*
X149830080Y-114377261D01*
X150009327Y-114273395D01*
X150219575Y-114236252D01*
X150348442Y-114232603D01*
X150857848Y-114287869D01*
X151259284Y-114464826D01*
X151401371Y-114578628D01*
X151580954Y-114746824D01*
X151974138Y-114481468D01*
X152646314Y-114125175D01*
X153363885Y-113929944D01*
X153873149Y-113891152D01*
X154412169Y-113944138D01*
X154911167Y-114112434D01*
X155397217Y-114410045D01*
X155897394Y-114850976D01*
X156065310Y-115025117D01*
X156641387Y-115641974D01*
X157191254Y-115482390D01*
X157543931Y-115400850D01*
X157982649Y-115328676D01*
X158424158Y-115279085D01*
X158512749Y-115272561D01*
X158940567Y-115253928D01*
X159272183Y-115267617D01*
X159578790Y-115320406D01*
X159877579Y-115402495D01*
X160563805Y-115687104D01*
X161249053Y-116116380D01*
X161899302Y-116668911D01*
X161916327Y-116685606D01*
X162351079Y-117113554D01*
X162790235Y-116891017D01*
X163073357Y-116767822D01*
X163455592Y-116628304D01*
X163871405Y-116495701D01*
X164041256Y-116447398D01*
X164331165Y-116371554D01*
X164587093Y-116315299D01*
X164842390Y-116275744D01*
X165130405Y-116250001D01*
X165484489Y-116235181D01*
X165937991Y-116228396D01*
X166524262Y-116226759D01*
X166588788Y-116226766D01*
X167226240Y-116229637D01*
X167730104Y-116239580D01*
X168136061Y-116259146D01*
X168479795Y-116290887D01*
X168796990Y-116337353D01*
X169123329Y-116401096D01*
X169171121Y-116411401D01*
X170069750Y-116636194D01*
X170934065Y-116908464D01*
X171738431Y-117217127D01*
X172457217Y-117551103D01*
X173064789Y-117899311D01*
X173535515Y-118250669D01*
X173630249Y-118339120D01*
X173896002Y-118638087D01*
X174056059Y-118925172D01*
X174128923Y-119160501D01*
X174175559Y-119497762D01*
X174190309Y-119941903D01*
X174175555Y-120433975D01*
X174133677Y-120915027D01*
X174067058Y-121326111D01*
X174036452Y-121449250D01*
X173851782Y-121821226D01*
X173544354Y-122147228D01*
X173160742Y-122382225D01*
X173017393Y-122434552D01*
X172724886Y-122488969D01*
X172286535Y-122524914D01*
X171724808Y-122542497D01*
X171062172Y-122541827D01*
X170321093Y-122523013D01*
X169524039Y-122486166D01*
X168693476Y-122431393D01*
X168451454Y-122412327D01*
X167823677Y-122361908D01*
X167144412Y-122308846D01*
X166473504Y-122257720D01*
X165870795Y-122213110D01*
X165530454Y-122188834D01*
X164211472Y-122066103D01*
X162784038Y-121877271D01*
X161292189Y-121629858D01*
X159779964Y-121331384D01*
X158291402Y-120989372D01*
X157842420Y-120875885D01*
X156750004Y-120618847D01*
X155761170Y-120442526D01*
X154834136Y-120340788D01*
X153973454Y-120307633D01*
X153508328Y-120311140D01*
X153155548Y-120331848D01*
X152858400Y-120377384D01*
X152560166Y-120455375D01*
X152337031Y-120527708D01*
X151701643Y-120783446D01*
X151150853Y-121102443D01*
X150631941Y-121519440D01*
X150237948Y-121911033D01*
X149674058Y-122558374D01*
X149224038Y-123193670D01*
X148850541Y-123876900D01*
X148516223Y-124668041D01*
X148508366Y-124688866D01*
X148412128Y-124969437D01*
X148331733Y-125267360D01*
X148265082Y-125602690D01*
X148210080Y-125995483D01*
X148164627Y-126465795D01*
X148126629Y-127033681D01*
X148093987Y-127719198D01*
X148064604Y-128542401D01*
X148048287Y-129088818D01*
X148003113Y-130446333D01*
X147948792Y-131655759D01*
X147885642Y-132711695D01*
X147813981Y-133608737D01*
X147742610Y-134274652D01*
X147697745Y-134634485D01*
X146369433Y-134620459D01*
X145987334Y-134615458D01*
X145463000Y-134607164D01*
X144823491Y-134596079D01*
X144095861Y-134582702D01*
X143307170Y-134567535D01*
X142484474Y-134551079D01*
X141654829Y-134533833D01*
X141442788Y-134529312D01*
X140677824Y-134511551D01*
X139965426Y-134492376D01*
X139323389Y-134472461D01*
X138769508Y-134452478D01*
X138321577Y-134433100D01*
X137997391Y-134414999D01*
X137814746Y-134398849D01*
X137780918Y-134390902D01*
X137743409Y-134272202D01*
X137709677Y-134006681D01*
X137680369Y-133616824D01*
X137656134Y-133125115D01*
X137637619Y-132554039D01*
X137625474Y-131926080D01*
X137620345Y-131263722D01*
X137622882Y-130589448D01*
X137633732Y-129925745D01*
X137642730Y-129596818D01*
X137666805Y-128412952D01*
X137657917Y-127377280D01*
X137614005Y-126471505D01*
X137533008Y-125677330D01*
X137412864Y-124976459D01*
X137251514Y-124350597D01*
X137046894Y-123781445D01*
X136966863Y-123597076D01*
X136523092Y-122774056D01*
X135975055Y-122013575D01*
X135348194Y-121343403D01*
X134667953Y-120791309D01*
X134073083Y-120438708D01*
X133305106Y-120128696D01*
X132459068Y-119905576D01*
X131582882Y-119775815D01*
X130724466Y-119745877D01*
X129931733Y-119822227D01*
X129758788Y-119856594D01*
X128431283Y-120142187D01*
X127173309Y-120393758D01*
X125959909Y-120614387D01*
X124766128Y-120807156D01*
X123567012Y-120975145D01*
X122337605Y-121121434D01*
X121052952Y-121249104D01*
X119688098Y-121361236D01*
X118218088Y-121460911D01*
X116617967Y-121551209D01*
X115639412Y-121599602D01*
X115012835Y-121628856D01*
X114532053Y-121649056D01*
X114173720Y-121659255D01*
X113914493Y-121658506D01*
X113731026Y-121645863D01*
X113599975Y-121620379D01*
X113497996Y-121581106D01*
X113401744Y-121527098D01*
X113369946Y-121507541D01*
X113150558Y-121331361D01*
X112909864Y-121072736D01*
X112666021Y-120760746D01*
X112437186Y-120424473D01*
X112241514Y-120092997D01*
X112097164Y-119795397D01*
X112022292Y-119560755D01*
X112035054Y-119418150D01*
X112054201Y-119400203D01*
X112159033Y-119370474D01*
X112406413Y-119315861D01*
X112772144Y-119240962D01*
X113232028Y-119150378D01*
X113761868Y-119048707D01*
X114337465Y-118940548D01*
X114934621Y-118830501D01*
X115529138Y-118723166D01*
X116096819Y-118623140D01*
X116552823Y-118545175D01*
X116864238Y-118483752D01*
X117062222Y-118410160D01*
X117201869Y-118295742D01*
X117312374Y-118150069D01*
X117581313Y-117841984D01*
X117949838Y-117528423D01*
X118356364Y-117255842D01*
X118739305Y-117070697D01*
X118746811Y-117068025D01*
X119315614Y-116949261D01*
X119959553Y-116970146D01*
X120687064Y-117131175D01*
X120883236Y-117193471D01*
X121243907Y-117318678D01*
X121566182Y-117438341D01*
X121799922Y-117533531D01*
X121862748Y-117563280D01*
X121978581Y-117612430D01*
X122091787Y-117615261D01*
X122240073Y-117558736D01*
X122461150Y-117429821D01*
X122707263Y-117271357D01*
X123263132Y-116934524D01*
X123743725Y-116707657D01*
X124189715Y-116577319D01*
X124641778Y-116530067D01*
X124932788Y-116536004D01*
X125530660Y-116624710D01*
X126075695Y-116829774D01*
X126616390Y-117170834D01*
X126743596Y-117269271D01*
X126936747Y-117420049D01*
X127066316Y-117514997D01*
X127095347Y-117531818D01*
X127145107Y-117464327D01*
X127252684Y-117288178D01*
X127381601Y-117064667D01*
X127796360Y-116447110D01*
X128256580Y-115987185D01*
X128686861Y-115715675D01*
X129255604Y-115512838D01*
X129921573Y-115398107D01*
X130633565Y-115378088D01*
X131041934Y-115411785D01*
X131710372Y-115495600D01*
X132006002Y-115168374D01*
X132473118Y-114740595D01*
X133022043Y-114380350D01*
X133587702Y-114129002D01*
X133691366Y-114097064D01*
X134175068Y-114001099D01*
X134672148Y-113993194D01*
X135215823Y-114077543D01*
X135839305Y-114258342D01*
X136292924Y-114425574D01*
X136828294Y-114633440D01*
X137237714Y-114785462D01*
X137551843Y-114890197D01*
X137801341Y-114956202D01*
X138016865Y-114992037D01*
X138229076Y-115006257D01*
X138379380Y-115007964D01*
X138807584Y-114972243D01*
X139334750Y-114875540D01*
X139907972Y-114731777D01*
X140474343Y-114554875D01*
X140980959Y-114358755D01*
X141156902Y-114277117D01*
X141926031Y-113956969D01*
X142657034Y-113771274D01*
X143332285Y-113723042D01*
X143907121Y-113807577D01*
G36*
X143907121Y-113807577D02*
G01*
X144138767Y-113898627D01*
X144439639Y-114051817D01*
X144711454Y-114213370D01*
X145106378Y-114427348D01*
X145529360Y-114593927D01*
X145718454Y-114645490D01*
X146101354Y-114747065D01*
X146513112Y-114882543D01*
X146710736Y-114958892D01*
X147009428Y-115066753D01*
X147306785Y-115129326D01*
X147666993Y-115156983D01*
X147962289Y-115161152D01*
X148457715Y-115145258D01*
X148832521Y-115086634D01*
X149133363Y-114968865D01*
X149406899Y-114775535D01*
X149613121Y-114580344D01*
X149830080Y-114377261D01*
X150009327Y-114273395D01*
X150219575Y-114236252D01*
X150348442Y-114232603D01*
X150857848Y-114287869D01*
X151259284Y-114464826D01*
X151401371Y-114578628D01*
X151580954Y-114746824D01*
X151974138Y-114481468D01*
X152646314Y-114125175D01*
X153363885Y-113929944D01*
X153873149Y-113891152D01*
X154412169Y-113944138D01*
X154911167Y-114112434D01*
X155397217Y-114410045D01*
X155897394Y-114850976D01*
X156065310Y-115025117D01*
X156641387Y-115641974D01*
X157191254Y-115482390D01*
X157543931Y-115400850D01*
X157982649Y-115328676D01*
X158424158Y-115279085D01*
X158512749Y-115272561D01*
X158940567Y-115253928D01*
X159272183Y-115267617D01*
X159578790Y-115320406D01*
X159877579Y-115402495D01*
X160563805Y-115687104D01*
X161249053Y-116116380D01*
X161899302Y-116668911D01*
X161916327Y-116685606D01*
X162351079Y-117113554D01*
X162790235Y-116891017D01*
X163073357Y-116767822D01*
X163455592Y-116628304D01*
X163871405Y-116495701D01*
X164041256Y-116447398D01*
X164331165Y-116371554D01*
X164587093Y-116315299D01*
X164842390Y-116275744D01*
X165130405Y-116250001D01*
X165484489Y-116235181D01*
X165937991Y-116228396D01*
X166524262Y-116226759D01*
X166588788Y-116226766D01*
X167226240Y-116229637D01*
X167730104Y-116239580D01*
X168136061Y-116259146D01*
X168479795Y-116290887D01*
X168796990Y-116337353D01*
X169123329Y-116401096D01*
X169171121Y-116411401D01*
X170069750Y-116636194D01*
X170934065Y-116908464D01*
X171738431Y-117217127D01*
X172457217Y-117551103D01*
X173064789Y-117899311D01*
X173535515Y-118250669D01*
X173630249Y-118339120D01*
X173896002Y-118638087D01*
X174056059Y-118925172D01*
X174128923Y-119160501D01*
X174175559Y-119497762D01*
X174190309Y-119941903D01*
X174175555Y-120433975D01*
X174133677Y-120915027D01*
X174067058Y-121326111D01*
X174036452Y-121449250D01*
X173851782Y-121821226D01*
X173544354Y-122147228D01*
X173160742Y-122382225D01*
X173017393Y-122434552D01*
X172724886Y-122488969D01*
X172286535Y-122524914D01*
X171724808Y-122542497D01*
X171062172Y-122541827D01*
X170321093Y-122523013D01*
X169524039Y-122486166D01*
X168693476Y-122431393D01*
X168451454Y-122412327D01*
X167823677Y-122361908D01*
X167144412Y-122308846D01*
X166473504Y-122257720D01*
X165870795Y-122213110D01*
X165530454Y-122188834D01*
X164211472Y-122066103D01*
X162784038Y-121877271D01*
X161292189Y-121629858D01*
X159779964Y-121331384D01*
X158291402Y-120989372D01*
X157842420Y-120875885D01*
X156750004Y-120618847D01*
X155761170Y-120442526D01*
X154834136Y-120340788D01*
X153973454Y-120307633D01*
X153508328Y-120311140D01*
X153155548Y-120331848D01*
X152858400Y-120377384D01*
X152560166Y-120455375D01*
X152337031Y-120527708D01*
X151701643Y-120783446D01*
X151150853Y-121102443D01*
X150631941Y-121519440D01*
X150237948Y-121911033D01*
X149674058Y-122558374D01*
X149224038Y-123193670D01*
X148850541Y-123876900D01*
X148516223Y-124668041D01*
X148508366Y-124688866D01*
X148412128Y-124969437D01*
X148331733Y-125267360D01*
X148265082Y-125602690D01*
X148210080Y-125995483D01*
X148164627Y-126465795D01*
X148126629Y-127033681D01*
X148093987Y-127719198D01*
X148064604Y-128542401D01*
X148048287Y-129088818D01*
X148003113Y-130446333D01*
X147948792Y-131655759D01*
X147885642Y-132711695D01*
X147813981Y-133608737D01*
X147742610Y-134274652D01*
X147697745Y-134634485D01*
X146369433Y-134620459D01*
X145987334Y-134615458D01*
X145463000Y-134607164D01*
X144823491Y-134596079D01*
X144095861Y-134582702D01*
X143307170Y-134567535D01*
X142484474Y-134551079D01*
X141654829Y-134533833D01*
X141442788Y-134529312D01*
X140677824Y-134511551D01*
X139965426Y-134492376D01*
X139323389Y-134472461D01*
X138769508Y-134452478D01*
X138321577Y-134433100D01*
X137997391Y-134414999D01*
X137814746Y-134398849D01*
X137780918Y-134390902D01*
X137743409Y-134272202D01*
X137709677Y-134006681D01*
X137680369Y-133616824D01*
X137656134Y-133125115D01*
X137637619Y-132554039D01*
X137625474Y-131926080D01*
X137620345Y-131263722D01*
X137622882Y-130589448D01*
X137633732Y-129925745D01*
X137642730Y-129596818D01*
X137666805Y-128412952D01*
X137657917Y-127377280D01*
X137614005Y-126471505D01*
X137533008Y-125677330D01*
X137412864Y-124976459D01*
X137251514Y-124350597D01*
X137046894Y-123781445D01*
X136966863Y-123597076D01*
X136523092Y-122774056D01*
X135975055Y-122013575D01*
X135348194Y-121343403D01*
X134667953Y-120791309D01*
X134073083Y-120438708D01*
X133305106Y-120128696D01*
X132459068Y-119905576D01*
X131582882Y-119775815D01*
X130724466Y-119745877D01*
X129931733Y-119822227D01*
X129758788Y-119856594D01*
X128431283Y-120142187D01*
X127173309Y-120393758D01*
X125959909Y-120614387D01*
X124766128Y-120807156D01*
X123567012Y-120975145D01*
X122337605Y-121121434D01*
X121052952Y-121249104D01*
X119688098Y-121361236D01*
X118218088Y-121460911D01*
X116617967Y-121551209D01*
X115639412Y-121599602D01*
X115012835Y-121628856D01*
X114532053Y-121649056D01*
X114173720Y-121659255D01*
X113914493Y-121658506D01*
X113731026Y-121645863D01*
X113599975Y-121620379D01*
X113497996Y-121581106D01*
X113401744Y-121527098D01*
X113369946Y-121507541D01*
X113150558Y-121331361D01*
X112909864Y-121072736D01*
X112666021Y-120760746D01*
X112437186Y-120424473D01*
X112241514Y-120092997D01*
X112097164Y-119795397D01*
X112022292Y-119560755D01*
X112035054Y-119418150D01*
X112054201Y-119400203D01*
X112159033Y-119370474D01*
X112406413Y-119315861D01*
X112772144Y-119240962D01*
X113232028Y-119150378D01*
X113761868Y-119048707D01*
X114337465Y-118940548D01*
X114934621Y-118830501D01*
X115529138Y-118723166D01*
X116096819Y-118623140D01*
X116552823Y-118545175D01*
X116864238Y-118483752D01*
X117062222Y-118410160D01*
X117201869Y-118295742D01*
X117312374Y-118150069D01*
X117581313Y-117841984D01*
X117949838Y-117528423D01*
X118356364Y-117255842D01*
X118739305Y-117070697D01*
X118746811Y-117068025D01*
X119315614Y-116949261D01*
X119959553Y-116970146D01*
X120687064Y-117131175D01*
X120883236Y-117193471D01*
X121243907Y-117318678D01*
X121566182Y-117438341D01*
X121799922Y-117533531D01*
X121862748Y-117563280D01*
X121978581Y-117612430D01*
X122091787Y-117615261D01*
X122240073Y-117558736D01*
X122461150Y-117429821D01*
X122707263Y-117271357D01*
X123263132Y-116934524D01*
X123743725Y-116707657D01*
X124189715Y-116577319D01*
X124641778Y-116530067D01*
X124932788Y-116536004D01*
X125530660Y-116624710D01*
X126075695Y-116829774D01*
X126616390Y-117170834D01*
X126743596Y-117269271D01*
X126936747Y-117420049D01*
X127066316Y-117514997D01*
X127095347Y-117531818D01*
X127145107Y-117464327D01*
X127252684Y-117288178D01*
X127381601Y-117064667D01*
X127796360Y-116447110D01*
X128256580Y-115987185D01*
X128686861Y-115715675D01*
X129255604Y-115512838D01*
X129921573Y-115398107D01*
X130633565Y-115378088D01*
X131041934Y-115411785D01*
X131710372Y-115495600D01*
X132006002Y-115168374D01*
X132473118Y-114740595D01*
X133022043Y-114380350D01*
X133587702Y-114129002D01*
X133691366Y-114097064D01*
X134175068Y-114001099D01*
X134672148Y-113993194D01*
X135215823Y-114077543D01*
X135839305Y-114258342D01*
X136292924Y-114425574D01*
X136828294Y-114633440D01*
X137237714Y-114785462D01*
X137551843Y-114890197D01*
X137801341Y-114956202D01*
X138016865Y-114992037D01*
X138229076Y-115006257D01*
X138379380Y-115007964D01*
X138807584Y-114972243D01*
X139334750Y-114875540D01*
X139907972Y-114731777D01*
X140474343Y-114554875D01*
X140980959Y-114358755D01*
X141156902Y-114277117D01*
X141926031Y-113956969D01*
X142657034Y-113771274D01*
X143332285Y-113723042D01*
X143907121Y-113807577D01*
G37*
X149122700Y-109972613D02*
X149255057Y-110090726D01*
X149383079Y-110304074D01*
X149469596Y-110541774D01*
X149486121Y-110665630D01*
X149441511Y-110911509D01*
X149331540Y-111144801D01*
X149191996Y-111293730D01*
X149166875Y-111305895D01*
X149040195Y-111328763D01*
X148778359Y-111358482D01*
X148415242Y-111391767D01*
X147984717Y-111425333D01*
X147809511Y-111437544D01*
X146766053Y-111517092D01*
X145772112Y-111610708D01*
X144882134Y-111713160D01*
X144721166Y-111734283D01*
X144472215Y-111740265D01*
X144288365Y-111654530D01*
X144186959Y-111563020D01*
X144031206Y-111349673D01*
X143995108Y-111100033D01*
X143998914Y-111040871D01*
X144026790Y-110854228D01*
X144088261Y-110709283D01*
X144203659Y-110599131D01*
X144393319Y-110516869D01*
X144677575Y-110455593D01*
X145076759Y-110408399D01*
X145611205Y-110368383D01*
X146057121Y-110342036D01*
X146776999Y-110293202D01*
X147417221Y-110232648D01*
X147947818Y-110163684D01*
X148336402Y-110090208D01*
X148663440Y-110019659D01*
X148934454Y-109976620D01*
X149101879Y-109968203D01*
X149122700Y-109972613D01*
G36*
X149122700Y-109972613D02*
G01*
X149255057Y-110090726D01*
X149383079Y-110304074D01*
X149469596Y-110541774D01*
X149486121Y-110665630D01*
X149441511Y-110911509D01*
X149331540Y-111144801D01*
X149191996Y-111293730D01*
X149166875Y-111305895D01*
X149040195Y-111328763D01*
X148778359Y-111358482D01*
X148415242Y-111391767D01*
X147984717Y-111425333D01*
X147809511Y-111437544D01*
X146766053Y-111517092D01*
X145772112Y-111610708D01*
X144882134Y-111713160D01*
X144721166Y-111734283D01*
X144472215Y-111740265D01*
X144288365Y-111654530D01*
X144186959Y-111563020D01*
X144031206Y-111349673D01*
X143995108Y-111100033D01*
X143998914Y-111040871D01*
X144026790Y-110854228D01*
X144088261Y-110709283D01*
X144203659Y-110599131D01*
X144393319Y-110516869D01*
X144677575Y-110455593D01*
X145076759Y-110408399D01*
X145611205Y-110368383D01*
X146057121Y-110342036D01*
X146776999Y-110293202D01*
X147417221Y-110232648D01*
X147947818Y-110163684D01*
X148336402Y-110090208D01*
X148663440Y-110019659D01*
X148934454Y-109976620D01*
X149101879Y-109968203D01*
X149122700Y-109972613D01*
G37*
X137624500Y-110097972D02*
X137921522Y-110139257D01*
X137994428Y-110150976D01*
X138272490Y-110186725D01*
X138681497Y-110226990D01*
X139183237Y-110268612D01*
X139739496Y-110308436D01*
X140312060Y-110343303D01*
X140342121Y-110344952D01*
X140979736Y-110381748D01*
X141468023Y-110418075D01*
X141826842Y-110460429D01*
X142076055Y-110515307D01*
X142235524Y-110589205D01*
X142325109Y-110688622D01*
X142364672Y-110820052D01*
X142374075Y-110989995D01*
X142374121Y-111009642D01*
X142321153Y-111289010D01*
X142185324Y-111521437D01*
X142001246Y-111659725D01*
X141883989Y-111678041D01*
X141735006Y-111659348D01*
X141470267Y-111620380D01*
X141141039Y-111568750D01*
X141061788Y-111555918D01*
X140743990Y-111515033D01*
X140302671Y-111473226D01*
X139783582Y-111434086D01*
X139232475Y-111401200D01*
X138883310Y-111385061D01*
X138332275Y-111360866D01*
X137925045Y-111336951D01*
X137636129Y-111309965D01*
X137440040Y-111276558D01*
X137311286Y-111233377D01*
X137224379Y-111177072D01*
X137211143Y-111165220D01*
X137074826Y-110936781D01*
X137037700Y-110646226D01*
X137099758Y-110366071D01*
X137211261Y-110206516D01*
X137315966Y-110128297D01*
X137438180Y-110093217D01*
X137624500Y-110097972D01*
G36*
X137624500Y-110097972D02*
G01*
X137921522Y-110139257D01*
X137994428Y-110150976D01*
X138272490Y-110186725D01*
X138681497Y-110226990D01*
X139183237Y-110268612D01*
X139739496Y-110308436D01*
X140312060Y-110343303D01*
X140342121Y-110344952D01*
X140979736Y-110381748D01*
X141468023Y-110418075D01*
X141826842Y-110460429D01*
X142076055Y-110515307D01*
X142235524Y-110589205D01*
X142325109Y-110688622D01*
X142364672Y-110820052D01*
X142374075Y-110989995D01*
X142374121Y-111009642D01*
X142321153Y-111289010D01*
X142185324Y-111521437D01*
X142001246Y-111659725D01*
X141883989Y-111678041D01*
X141735006Y-111659348D01*
X141470267Y-111620380D01*
X141141039Y-111568750D01*
X141061788Y-111555918D01*
X140743990Y-111515033D01*
X140302671Y-111473226D01*
X139783582Y-111434086D01*
X139232475Y-111401200D01*
X138883310Y-111385061D01*
X138332275Y-111360866D01*
X137925045Y-111336951D01*
X137636129Y-111309965D01*
X137440040Y-111276558D01*
X137311286Y-111233377D01*
X137224379Y-111177072D01*
X137211143Y-111165220D01*
X137074826Y-110936781D01*
X137037700Y-110646226D01*
X137099758Y-110366071D01*
X137211261Y-110206516D01*
X137315966Y-110128297D01*
X137438180Y-110093217D01*
X137624500Y-110097972D01*
G37*
X135275149Y-105292975D02*
X135523649Y-105387273D01*
X135597648Y-105422883D01*
X135874367Y-105536908D01*
X136286852Y-105671236D01*
X136803902Y-105817951D01*
X137394315Y-105969137D01*
X138026892Y-106116878D01*
X138670432Y-106253259D01*
X139293735Y-106370364D01*
X139411485Y-106390484D01*
X141109174Y-106622616D01*
X142771263Y-106739300D01*
X144428304Y-106739420D01*
X146110844Y-106621857D01*
X147849434Y-106385494D01*
X149674624Y-106029214D01*
X149750335Y-106012348D01*
X150336785Y-105882241D01*
X150778448Y-105787886D01*
X151095406Y-105726421D01*
X151307743Y-105694979D01*
X151435543Y-105690697D01*
X151498887Y-105710710D01*
X151517860Y-105752153D01*
X151518121Y-105760205D01*
X151451945Y-105912693D01*
X151279633Y-106115713D01*
X151040506Y-106333106D01*
X150773883Y-106528708D01*
X150544595Y-106655493D01*
X150042569Y-106840659D01*
X149395021Y-107020066D01*
X148625764Y-107188020D01*
X147758609Y-107338824D01*
X147568757Y-107367420D01*
X147031694Y-107430450D01*
X146361354Y-107484283D01*
X145593598Y-107527902D01*
X144764286Y-107560288D01*
X143909277Y-107580424D01*
X143064431Y-107587291D01*
X142265607Y-107579871D01*
X141548667Y-107557147D01*
X141315788Y-107544921D01*
X140844862Y-107510375D01*
X140382223Y-107460808D01*
X139899123Y-107391111D01*
X139366811Y-107296172D01*
X138756541Y-107170882D01*
X138039562Y-107010129D01*
X137222452Y-106817284D01*
X136548903Y-106647937D01*
X136023639Y-106494736D01*
X135627715Y-106347209D01*
X135342188Y-106194887D01*
X135148112Y-106027300D01*
X135026545Y-105833979D01*
X134958540Y-105604453D01*
X134951091Y-105561986D01*
X134929720Y-105359070D01*
X134969506Y-105272757D01*
X135085082Y-105255152D01*
X135275149Y-105292975D01*
G36*
X135275149Y-105292975D02*
G01*
X135523649Y-105387273D01*
X135597648Y-105422883D01*
X135874367Y-105536908D01*
X136286852Y-105671236D01*
X136803902Y-105817951D01*
X137394315Y-105969137D01*
X138026892Y-106116878D01*
X138670432Y-106253259D01*
X139293735Y-106370364D01*
X139411485Y-106390484D01*
X141109174Y-106622616D01*
X142771263Y-106739300D01*
X144428304Y-106739420D01*
X146110844Y-106621857D01*
X147849434Y-106385494D01*
X149674624Y-106029214D01*
X149750335Y-106012348D01*
X150336785Y-105882241D01*
X150778448Y-105787886D01*
X151095406Y-105726421D01*
X151307743Y-105694979D01*
X151435543Y-105690697D01*
X151498887Y-105710710D01*
X151517860Y-105752153D01*
X151518121Y-105760205D01*
X151451945Y-105912693D01*
X151279633Y-106115713D01*
X151040506Y-106333106D01*
X150773883Y-106528708D01*
X150544595Y-106655493D01*
X150042569Y-106840659D01*
X149395021Y-107020066D01*
X148625764Y-107188020D01*
X147758609Y-107338824D01*
X147568757Y-107367420D01*
X147031694Y-107430450D01*
X146361354Y-107484283D01*
X145593598Y-107527902D01*
X144764286Y-107560288D01*
X143909277Y-107580424D01*
X143064431Y-107587291D01*
X142265607Y-107579871D01*
X141548667Y-107557147D01*
X141315788Y-107544921D01*
X140844862Y-107510375D01*
X140382223Y-107460808D01*
X139899123Y-107391111D01*
X139366811Y-107296172D01*
X138756541Y-107170882D01*
X138039562Y-107010129D01*
X137222452Y-106817284D01*
X136548903Y-106647937D01*
X136023639Y-106494736D01*
X135627715Y-106347209D01*
X135342188Y-106194887D01*
X135148112Y-106027300D01*
X135026545Y-105833979D01*
X134958540Y-105604453D01*
X134951091Y-105561986D01*
X134929720Y-105359070D01*
X134969506Y-105272757D01*
X135085082Y-105255152D01*
X135275149Y-105292975D01*
G37*
X134809011Y-104129164D02*
X135227621Y-104271959D01*
X135346788Y-104317615D01*
X135866842Y-104497930D01*
X136516456Y-104688748D01*
X137256972Y-104881157D01*
X138049735Y-105066244D01*
X138856086Y-105235095D01*
X139637369Y-105378796D01*
X140354928Y-105488435D01*
X140511454Y-105508456D01*
X140954088Y-105574452D01*
X141434286Y-105664332D01*
X141851106Y-105759125D01*
X141866121Y-105763035D01*
X142665077Y-105899976D01*
X143512433Y-105915979D01*
X144332715Y-105810509D01*
X144658231Y-105747442D01*
X145086859Y-105672575D01*
X145553925Y-105596914D01*
X145856715Y-105551175D01*
X146957013Y-105377391D01*
X148088346Y-105174175D01*
X149195994Y-104952290D01*
X150225233Y-104722500D01*
X150831718Y-104572587D01*
X151276448Y-104460464D01*
X151661107Y-104369242D01*
X151957119Y-104305240D01*
X152135908Y-104274774D01*
X152175386Y-104275528D01*
X152195647Y-104404217D01*
X152122921Y-104612087D01*
X151978132Y-104853023D01*
X151833415Y-105029195D01*
X151718301Y-105143051D01*
X151595593Y-105237539D01*
X151443556Y-105319176D01*
X151240459Y-105394477D01*
X150964566Y-105469959D01*
X150594145Y-105552137D01*
X150107463Y-105647527D01*
X149482785Y-105762646D01*
X149241499Y-105806283D01*
X148696468Y-105906362D01*
X148163716Y-106007340D01*
X147683533Y-106101352D01*
X147296208Y-106180532D01*
X147073121Y-106229586D01*
X146771481Y-106278177D01*
X146325621Y-106319804D01*
X145760531Y-106353934D01*
X145101202Y-106380035D01*
X144372625Y-106397573D01*
X143599791Y-106406017D01*
X142807690Y-106404834D01*
X142021313Y-106393490D01*
X141265651Y-106371454D01*
X140977121Y-106359506D01*
X140460459Y-106330747D01*
X139987962Y-106290473D01*
X139531198Y-106233085D01*
X139061730Y-106152984D01*
X138551127Y-106044571D01*
X137970953Y-105902248D01*
X137292776Y-105720414D01*
X136488160Y-105493472D01*
X136290039Y-105436556D01*
X135693608Y-105259773D01*
X135239653Y-105110397D01*
X134905912Y-104976642D01*
X134670127Y-104846721D01*
X134510036Y-104708848D01*
X134403380Y-104551237D01*
X134342367Y-104405307D01*
X134302172Y-104207051D01*
X134358443Y-104095649D01*
X134523337Y-104070041D01*
X134809011Y-104129164D01*
G36*
X134809011Y-104129164D02*
G01*
X135227621Y-104271959D01*
X135346788Y-104317615D01*
X135866842Y-104497930D01*
X136516456Y-104688748D01*
X137256972Y-104881157D01*
X138049735Y-105066244D01*
X138856086Y-105235095D01*
X139637369Y-105378796D01*
X140354928Y-105488435D01*
X140511454Y-105508456D01*
X140954088Y-105574452D01*
X141434286Y-105664332D01*
X141851106Y-105759125D01*
X141866121Y-105763035D01*
X142665077Y-105899976D01*
X143512433Y-105915979D01*
X144332715Y-105810509D01*
X144658231Y-105747442D01*
X145086859Y-105672575D01*
X145553925Y-105596914D01*
X145856715Y-105551175D01*
X146957013Y-105377391D01*
X148088346Y-105174175D01*
X149195994Y-104952290D01*
X150225233Y-104722500D01*
X150831718Y-104572587D01*
X151276448Y-104460464D01*
X151661107Y-104369242D01*
X151957119Y-104305240D01*
X152135908Y-104274774D01*
X152175386Y-104275528D01*
X152195647Y-104404217D01*
X152122921Y-104612087D01*
X151978132Y-104853023D01*
X151833415Y-105029195D01*
X151718301Y-105143051D01*
X151595593Y-105237539D01*
X151443556Y-105319176D01*
X151240459Y-105394477D01*
X150964566Y-105469959D01*
X150594145Y-105552137D01*
X150107463Y-105647527D01*
X149482785Y-105762646D01*
X149241499Y-105806283D01*
X148696468Y-105906362D01*
X148163716Y-106007340D01*
X147683533Y-106101352D01*
X147296208Y-106180532D01*
X147073121Y-106229586D01*
X146771481Y-106278177D01*
X146325621Y-106319804D01*
X145760531Y-106353934D01*
X145101202Y-106380035D01*
X144372625Y-106397573D01*
X143599791Y-106406017D01*
X142807690Y-106404834D01*
X142021313Y-106393490D01*
X141265651Y-106371454D01*
X140977121Y-106359506D01*
X140460459Y-106330747D01*
X139987962Y-106290473D01*
X139531198Y-106233085D01*
X139061730Y-106152984D01*
X138551127Y-106044571D01*
X137970953Y-105902248D01*
X137292776Y-105720414D01*
X136488160Y-105493472D01*
X136290039Y-105436556D01*
X135693608Y-105259773D01*
X135239653Y-105110397D01*
X134905912Y-104976642D01*
X134670127Y-104846721D01*
X134510036Y-104708848D01*
X134403380Y-104551237D01*
X134342367Y-104405307D01*
X134302172Y-104207051D01*
X134358443Y-104095649D01*
X134523337Y-104070041D01*
X134809011Y-104129164D01*
G37*
X134221568Y-102086204D02*
X134430044Y-102127866D01*
X134728389Y-102201642D01*
X135134397Y-102310445D01*
X135665865Y-102457191D01*
X136340587Y-102644795D01*
X136444459Y-102673644D01*
X137682499Y-103006045D01*
X138769197Y-103273601D01*
X139709212Y-103477323D01*
X140507202Y-103618222D01*
X141156737Y-103696394D01*
X141844353Y-103753682D01*
X141897570Y-104262837D01*
X141926918Y-104583946D01*
X141946246Y-104872742D01*
X141950788Y-105013571D01*
X141950788Y-105255152D01*
X141379288Y-105241602D01*
X141032123Y-105230219D01*
X140707852Y-105214343D01*
X140511454Y-105200311D01*
X139164504Y-105029066D01*
X137858926Y-104775070D01*
X136639211Y-104448000D01*
X135909842Y-104199427D01*
X135293819Y-103962185D01*
X134822104Y-103764282D01*
X134476787Y-103596488D01*
X134239958Y-103449573D01*
X134093707Y-103314306D01*
X134043295Y-103237490D01*
X133891109Y-102825398D01*
X133861650Y-102446874D01*
X133904384Y-102257560D01*
X133930445Y-102182383D01*
X133957399Y-102124744D01*
X134003041Y-102087558D01*
X134085165Y-102073739D01*
X134221568Y-102086204D01*
G36*
X134221568Y-102086204D02*
G01*
X134430044Y-102127866D01*
X134728389Y-102201642D01*
X135134397Y-102310445D01*
X135665865Y-102457191D01*
X136340587Y-102644795D01*
X136444459Y-102673644D01*
X137682499Y-103006045D01*
X138769197Y-103273601D01*
X139709212Y-103477323D01*
X140507202Y-103618222D01*
X141156737Y-103696394D01*
X141844353Y-103753682D01*
X141897570Y-104262837D01*
X141926918Y-104583946D01*
X141946246Y-104872742D01*
X141950788Y-105013571D01*
X141950788Y-105255152D01*
X141379288Y-105241602D01*
X141032123Y-105230219D01*
X140707852Y-105214343D01*
X140511454Y-105200311D01*
X139164504Y-105029066D01*
X137858926Y-104775070D01*
X136639211Y-104448000D01*
X135909842Y-104199427D01*
X135293819Y-103962185D01*
X134822104Y-103764282D01*
X134476787Y-103596488D01*
X134239958Y-103449573D01*
X134093707Y-103314306D01*
X134043295Y-103237490D01*
X133891109Y-102825398D01*
X133861650Y-102446874D01*
X133904384Y-102257560D01*
X133930445Y-102182383D01*
X133957399Y-102124744D01*
X134003041Y-102087558D01*
X134085165Y-102073739D01*
X134221568Y-102086204D01*
G37*
X144490788Y-104408485D02*
X143855788Y-104408485D01*
X143535827Y-104418990D01*
X143312813Y-104447429D01*
X143221382Y-104489181D01*
X143220788Y-104493152D01*
X143299097Y-104536583D01*
X143508983Y-104566595D01*
X143812879Y-104577818D01*
X144406121Y-104577818D01*
X144406121Y-105255152D01*
X142398317Y-105255152D01*
X142350594Y-104558879D01*
X142333160Y-104229430D01*
X142328822Y-103966439D01*
X142337993Y-103814331D01*
X142343492Y-103796879D01*
X142438941Y-103771826D01*
X142669902Y-103751172D01*
X143002570Y-103736948D01*
X143403139Y-103731186D01*
X143437451Y-103731152D01*
X144490788Y-103731152D01*
X144490788Y-104408485D01*
G36*
X144490788Y-104408485D02*
G01*
X143855788Y-104408485D01*
X143535827Y-104418990D01*
X143312813Y-104447429D01*
X143221382Y-104489181D01*
X143220788Y-104493152D01*
X143299097Y-104536583D01*
X143508983Y-104566595D01*
X143812879Y-104577818D01*
X144406121Y-104577818D01*
X144406121Y-105255152D01*
X142398317Y-105255152D01*
X142350594Y-104558879D01*
X142333160Y-104229430D01*
X142328822Y-103966439D01*
X142337993Y-103814331D01*
X142343492Y-103796879D01*
X142438941Y-103771826D01*
X142669902Y-103751172D01*
X143002570Y-103736948D01*
X143403139Y-103731186D01*
X143437451Y-103731152D01*
X144490788Y-103731152D01*
X144490788Y-104408485D01*
G37*
X152841908Y-102226352D02*
X152897025Y-102264003D01*
X152905400Y-102276089D01*
X152919370Y-102414897D01*
X152885285Y-102657455D01*
X152817059Y-102949925D01*
X152728609Y-103238470D01*
X152633849Y-103469254D01*
X152571716Y-103567054D01*
X152431220Y-103692264D01*
X152233219Y-103808941D01*
X151951631Y-103927895D01*
X151560374Y-104059940D01*
X151033367Y-104215887D01*
X150948832Y-104239802D01*
X149743282Y-104554717D01*
X148605119Y-104796625D01*
X147456992Y-104980418D01*
X146530250Y-105090384D01*
X145970752Y-105148509D01*
X145555257Y-105191206D01*
X145259238Y-105219502D01*
X145058166Y-105234424D01*
X144927514Y-105236999D01*
X144842753Y-105228257D01*
X144779354Y-105209223D01*
X144712791Y-105180926D01*
X144681288Y-105167846D01*
X144550034Y-105076537D01*
X144499212Y-104909013D01*
X144495566Y-104771046D01*
X144528026Y-104462913D01*
X144599658Y-104164986D01*
X144601400Y-104159927D01*
X144702454Y-103869037D01*
X145760788Y-103717482D01*
X146494407Y-103601920D01*
X147329005Y-103452843D01*
X148219358Y-103279663D01*
X149120244Y-103091795D01*
X149986440Y-102898650D01*
X150772723Y-102709642D01*
X151401120Y-102543438D01*
X151921453Y-102398989D01*
X152302654Y-102299152D01*
X152567767Y-102239831D01*
X152739837Y-102216929D01*
X152841908Y-102226352D01*
G36*
X152841908Y-102226352D02*
G01*
X152897025Y-102264003D01*
X152905400Y-102276089D01*
X152919370Y-102414897D01*
X152885285Y-102657455D01*
X152817059Y-102949925D01*
X152728609Y-103238470D01*
X152633849Y-103469254D01*
X152571716Y-103567054D01*
X152431220Y-103692264D01*
X152233219Y-103808941D01*
X151951631Y-103927895D01*
X151560374Y-104059940D01*
X151033367Y-104215887D01*
X150948832Y-104239802D01*
X149743282Y-104554717D01*
X148605119Y-104796625D01*
X147456992Y-104980418D01*
X146530250Y-105090384D01*
X145970752Y-105148509D01*
X145555257Y-105191206D01*
X145259238Y-105219502D01*
X145058166Y-105234424D01*
X144927514Y-105236999D01*
X144842753Y-105228257D01*
X144779354Y-105209223D01*
X144712791Y-105180926D01*
X144681288Y-105167846D01*
X144550034Y-105076537D01*
X144499212Y-104909013D01*
X144495566Y-104771046D01*
X144528026Y-104462913D01*
X144599658Y-104164986D01*
X144601400Y-104159927D01*
X144702454Y-103869037D01*
X145760788Y-103717482D01*
X146494407Y-103601920D01*
X147329005Y-103452843D01*
X148219358Y-103279663D01*
X149120244Y-103091795D01*
X149986440Y-102898650D01*
X150772723Y-102709642D01*
X151401120Y-102543438D01*
X151921453Y-102398989D01*
X152302654Y-102299152D01*
X152567767Y-102239831D01*
X152739837Y-102216929D01*
X152841908Y-102226352D01*
G37*
X144318852Y-82857053D02*
X145143768Y-82875571D01*
X145914530Y-82910988D01*
X146594027Y-82963332D01*
X147012545Y-83012450D01*
X148109529Y-83215136D01*
X149069780Y-83492394D01*
X149888348Y-83842183D01*
X150560281Y-84262462D01*
X150994585Y-84654159D01*
X151404118Y-85171528D01*
X151653959Y-85680514D01*
X151750115Y-86207622D01*
X151698594Y-86779357D01*
X151576904Y-87223223D01*
X151458953Y-87633810D01*
X151360026Y-88083994D01*
X151304284Y-88454181D01*
X151245764Y-89048067D01*
X151599952Y-89293520D01*
X151833429Y-89472672D01*
X152020293Y-89646141D01*
X152074798Y-89711234D01*
X152166582Y-89955096D01*
X152193950Y-90281599D01*
X152159469Y-90617865D01*
X152065707Y-90891016D01*
X152031374Y-90943436D01*
X151928324Y-91094091D01*
X151924239Y-91205411D01*
X152019842Y-91360961D01*
X152035180Y-91382541D01*
X152256158Y-91751793D01*
X152482616Y-92231374D01*
X152690609Y-92764854D01*
X152856193Y-93295804D01*
X152870913Y-93352111D01*
X152951328Y-93685123D01*
X152992788Y-93940158D01*
X152997399Y-94181252D01*
X152967268Y-94472438D01*
X152918282Y-94792452D01*
X152727825Y-95732035D01*
X152449507Y-96708037D01*
X152072024Y-97758332D01*
X151920273Y-98136190D01*
X151730867Y-98585777D01*
X151574922Y-98918349D01*
X151426963Y-99175637D01*
X151261514Y-99399371D01*
X151053099Y-99631282D01*
X150930362Y-99757712D01*
X150533496Y-100132680D01*
X150107223Y-100473219D01*
X149619281Y-100800865D01*
X149037409Y-101137155D01*
X148329344Y-101503626D01*
X148273444Y-101531350D01*
X147476079Y-101888036D01*
X146698603Y-102150471D01*
X145878974Y-102336190D01*
X144991463Y-102458943D01*
X144541028Y-102502554D01*
X144169721Y-102525926D01*
X143825868Y-102528133D01*
X143457791Y-102508250D01*
X143013816Y-102465348D01*
X142585788Y-102415815D01*
X141930439Y-102336482D01*
X141411825Y-102268429D01*
X140998578Y-102202554D01*
X140659329Y-102129758D01*
X140362712Y-102040941D01*
X140077358Y-101927001D01*
X139771900Y-101778840D01*
X139414969Y-101587357D01*
X139068858Y-101395515D01*
X138387476Y-101012766D01*
X137836139Y-100692562D01*
X137394132Y-100420346D01*
X137040738Y-100181563D01*
X136755243Y-99961656D01*
X136516928Y-99746069D01*
X136305080Y-99520244D01*
X136169416Y-99358175D01*
X135587454Y-98534628D01*
X135108495Y-97644167D01*
X134746868Y-96721756D01*
X134516906Y-95802362D01*
X134439547Y-95137485D01*
X134429249Y-94317561D01*
X134499458Y-93617119D01*
X134659777Y-93001867D01*
X134919808Y-92437514D01*
X135289153Y-91889768D01*
X135381467Y-91773686D01*
X135768078Y-91299080D01*
X135601625Y-90932283D01*
X135497795Y-90641982D01*
X135438492Y-90357342D01*
X135433314Y-90279145D01*
X135488521Y-89982319D01*
X135632255Y-89673981D01*
X135826467Y-89424150D01*
X135947021Y-89333768D01*
X136078708Y-89194507D01*
X136108788Y-89083798D01*
X136116697Y-89031293D01*
X137506413Y-89031293D01*
X137509905Y-89281553D01*
X137547055Y-89625744D01*
X137610915Y-90048445D01*
X137688989Y-90339767D01*
X137801580Y-90537552D01*
X137968994Y-90679645D01*
X138168785Y-90784543D01*
X138338273Y-90854257D01*
X138502960Y-90894729D01*
X138688871Y-90902054D01*
X138922034Y-90872328D01*
X139228477Y-90801648D01*
X139634227Y-90686110D01*
X140165310Y-90521809D01*
X140346825Y-90464341D01*
X142318129Y-90464341D01*
X142465323Y-90714233D01*
X142525135Y-90784253D01*
X142858123Y-91038070D01*
X143287583Y-91190991D01*
X143770589Y-91238257D01*
X144264218Y-91175107D01*
X144676469Y-91022811D01*
X144984418Y-90798323D01*
X145142539Y-90533919D01*
X145157778Y-90253677D01*
X145037084Y-89981676D01*
X144787402Y-89741994D01*
X144415680Y-89558709D01*
X144239356Y-89507768D01*
X143713985Y-89447824D01*
X143218001Y-89514735D01*
X142787980Y-89698706D01*
X142466263Y-89982545D01*
X142319490Y-90234708D01*
X142318129Y-90464341D01*
X140346825Y-90464341D01*
X140385875Y-90451978D01*
X141645947Y-90051787D01*
X142089701Y-89295485D01*
X141795512Y-89288588D01*
X141501416Y-89217164D01*
X141304328Y-89044527D01*
X141205412Y-88809063D01*
X141205835Y-88549157D01*
X141306759Y-88303197D01*
X141509351Y-88109567D01*
X141756895Y-88015835D01*
X141954306Y-88002614D01*
X142118834Y-88073198D01*
X142295393Y-88230065D01*
X142474811Y-88447963D01*
X142528956Y-88635232D01*
X142521324Y-88710182D01*
X142480532Y-88923574D01*
X142665616Y-88749696D01*
X142765248Y-88672793D01*
X142891951Y-88622359D01*
X143081029Y-88592989D01*
X143367787Y-88579277D01*
X143787533Y-88575820D01*
X143801372Y-88575818D01*
X144752042Y-88575818D01*
X145182141Y-88977985D01*
X145446525Y-89243785D01*
X145695668Y-89524986D01*
X145845602Y-89719182D01*
X145965765Y-89873737D01*
X146108586Y-90002378D01*
X146307595Y-90125627D01*
X146596320Y-90264006D01*
X147008292Y-90438036D01*
X147043941Y-90452627D01*
X147569518Y-90661139D01*
X147979136Y-90804982D01*
X148309732Y-90892263D01*
X148598243Y-90931091D01*
X148881607Y-90929573D01*
X149113148Y-90906812D01*
X149439292Y-90852053D01*
X149664291Y-90764657D01*
X149805142Y-90616618D01*
X149878842Y-90379928D01*
X149902387Y-90026582D01*
X149895779Y-89617232D01*
X149867121Y-88726295D01*
X149575917Y-88483335D01*
X149271651Y-88292083D01*
X148820328Y-88096404D01*
X148243783Y-87904095D01*
X147563851Y-87722956D01*
X147242454Y-87649864D01*
X145840686Y-87418925D01*
X144380691Y-87322025D01*
X142852688Y-87359568D01*
X141246893Y-87531956D01*
X139553525Y-87839594D01*
X138872479Y-87995063D01*
X137783838Y-88256958D01*
X137624379Y-88617442D01*
X137543041Y-88829867D01*
X137506413Y-89031293D01*
X136116697Y-89031293D01*
X136135338Y-88907556D01*
X136202413Y-88651682D01*
X136240654Y-88531997D01*
X136372521Y-88143592D01*
X136117831Y-87853516D01*
X135907618Y-87536563D01*
X135783348Y-87145640D01*
X135734401Y-86643468D01*
X135732683Y-86501485D01*
X135752138Y-85993634D01*
X135821390Y-85596862D01*
X135958145Y-85255983D01*
X136180108Y-84915811D01*
X136283918Y-84783345D01*
X136537354Y-84493127D01*
X136783402Y-84276643D01*
X137081671Y-84088137D01*
X137403054Y-83924260D01*
X138169605Y-83610994D01*
X139086214Y-83339097D01*
X140159090Y-83106851D01*
X140680788Y-83017017D01*
X141219832Y-82951440D01*
X141890270Y-82902627D01*
X142654993Y-82870608D01*
X143476890Y-82855407D01*
X144318852Y-82857053D01*
G36*
X144318852Y-82857053D02*
G01*
X145143768Y-82875571D01*
X145914530Y-82910988D01*
X146594027Y-82963332D01*
X147012545Y-83012450D01*
X148109529Y-83215136D01*
X149069780Y-83492394D01*
X149888348Y-83842183D01*
X150560281Y-84262462D01*
X150994585Y-84654159D01*
X151404118Y-85171528D01*
X151653959Y-85680514D01*
X151750115Y-86207622D01*
X151698594Y-86779357D01*
X151576904Y-87223223D01*
X151458953Y-87633810D01*
X151360026Y-88083994D01*
X151304284Y-88454181D01*
X151245764Y-89048067D01*
X151599952Y-89293520D01*
X151833429Y-89472672D01*
X152020293Y-89646141D01*
X152074798Y-89711234D01*
X152166582Y-89955096D01*
X152193950Y-90281599D01*
X152159469Y-90617865D01*
X152065707Y-90891016D01*
X152031374Y-90943436D01*
X151928324Y-91094091D01*
X151924239Y-91205411D01*
X152019842Y-91360961D01*
X152035180Y-91382541D01*
X152256158Y-91751793D01*
X152482616Y-92231374D01*
X152690609Y-92764854D01*
X152856193Y-93295804D01*
X152870913Y-93352111D01*
X152951328Y-93685123D01*
X152992788Y-93940158D01*
X152997399Y-94181252D01*
X152967268Y-94472438D01*
X152918282Y-94792452D01*
X152727825Y-95732035D01*
X152449507Y-96708037D01*
X152072024Y-97758332D01*
X151920273Y-98136190D01*
X151730867Y-98585777D01*
X151574922Y-98918349D01*
X151426963Y-99175637D01*
X151261514Y-99399371D01*
X151053099Y-99631282D01*
X150930362Y-99757712D01*
X150533496Y-100132680D01*
X150107223Y-100473219D01*
X149619281Y-100800865D01*
X149037409Y-101137155D01*
X148329344Y-101503626D01*
X148273444Y-101531350D01*
X147476079Y-101888036D01*
X146698603Y-102150471D01*
X145878974Y-102336190D01*
X144991463Y-102458943D01*
X144541028Y-102502554D01*
X144169721Y-102525926D01*
X143825868Y-102528133D01*
X143457791Y-102508250D01*
X143013816Y-102465348D01*
X142585788Y-102415815D01*
X141930439Y-102336482D01*
X141411825Y-102268429D01*
X140998578Y-102202554D01*
X140659329Y-102129758D01*
X140362712Y-102040941D01*
X140077358Y-101927001D01*
X139771900Y-101778840D01*
X139414969Y-101587357D01*
X139068858Y-101395515D01*
X138387476Y-101012766D01*
X137836139Y-100692562D01*
X137394132Y-100420346D01*
X137040738Y-100181563D01*
X136755243Y-99961656D01*
X136516928Y-99746069D01*
X136305080Y-99520244D01*
X136169416Y-99358175D01*
X135587454Y-98534628D01*
X135108495Y-97644167D01*
X134746868Y-96721756D01*
X134516906Y-95802362D01*
X134439547Y-95137485D01*
X134429249Y-94317561D01*
X134499458Y-93617119D01*
X134659777Y-93001867D01*
X134919808Y-92437514D01*
X135289153Y-91889768D01*
X135381467Y-91773686D01*
X135768078Y-91299080D01*
X135601625Y-90932283D01*
X135497795Y-90641982D01*
X135438492Y-90357342D01*
X135433314Y-90279145D01*
X135488521Y-89982319D01*
X135632255Y-89673981D01*
X135826467Y-89424150D01*
X135947021Y-89333768D01*
X136078708Y-89194507D01*
X136108788Y-89083798D01*
X136116697Y-89031293D01*
X137506413Y-89031293D01*
X137509905Y-89281553D01*
X137547055Y-89625744D01*
X137610915Y-90048445D01*
X137688989Y-90339767D01*
X137801580Y-90537552D01*
X137968994Y-90679645D01*
X138168785Y-90784543D01*
X138338273Y-90854257D01*
X138502960Y-90894729D01*
X138688871Y-90902054D01*
X138922034Y-90872328D01*
X139228477Y-90801648D01*
X139634227Y-90686110D01*
X140165310Y-90521809D01*
X140346825Y-90464341D01*
X142318129Y-90464341D01*
X142465323Y-90714233D01*
X142525135Y-90784253D01*
X142858123Y-91038070D01*
X143287583Y-91190991D01*
X143770589Y-91238257D01*
X144264218Y-91175107D01*
X144676469Y-91022811D01*
X144984418Y-90798323D01*
X145142539Y-90533919D01*
X145157778Y-90253677D01*
X145037084Y-89981676D01*
X144787402Y-89741994D01*
X144415680Y-89558709D01*
X144239356Y-89507768D01*
X143713985Y-89447824D01*
X143218001Y-89514735D01*
X142787980Y-89698706D01*
X142466263Y-89982545D01*
X142319490Y-90234708D01*
X142318129Y-90464341D01*
X140346825Y-90464341D01*
X140385875Y-90451978D01*
X141645947Y-90051787D01*
X142089701Y-89295485D01*
X141795512Y-89288588D01*
X141501416Y-89217164D01*
X141304328Y-89044527D01*
X141205412Y-88809063D01*
X141205835Y-88549157D01*
X141306759Y-88303197D01*
X141509351Y-88109567D01*
X141756895Y-88015835D01*
X141954306Y-88002614D01*
X142118834Y-88073198D01*
X142295393Y-88230065D01*
X142474811Y-88447963D01*
X142528956Y-88635232D01*
X142521324Y-88710182D01*
X142480532Y-88923574D01*
X142665616Y-88749696D01*
X142765248Y-88672793D01*
X142891951Y-88622359D01*
X143081029Y-88592989D01*
X143367787Y-88579277D01*
X143787533Y-88575820D01*
X143801372Y-88575818D01*
X144752042Y-88575818D01*
X145182141Y-88977985D01*
X145446525Y-89243785D01*
X145695668Y-89524986D01*
X145845602Y-89719182D01*
X145965765Y-89873737D01*
X146108586Y-90002378D01*
X146307595Y-90125627D01*
X146596320Y-90264006D01*
X147008292Y-90438036D01*
X147043941Y-90452627D01*
X147569518Y-90661139D01*
X147979136Y-90804982D01*
X148309732Y-90892263D01*
X148598243Y-90931091D01*
X148881607Y-90929573D01*
X149113148Y-90906812D01*
X149439292Y-90852053D01*
X149664291Y-90764657D01*
X149805142Y-90616618D01*
X149878842Y-90379928D01*
X149902387Y-90026582D01*
X149895779Y-89617232D01*
X149867121Y-88726295D01*
X149575917Y-88483335D01*
X149271651Y-88292083D01*
X148820328Y-88096404D01*
X148243783Y-87904095D01*
X147563851Y-87722956D01*
X147242454Y-87649864D01*
X145840686Y-87418925D01*
X144380691Y-87322025D01*
X142852688Y-87359568D01*
X141246893Y-87531956D01*
X139553525Y-87839594D01*
X138872479Y-87995063D01*
X137783838Y-88256958D01*
X137624379Y-88617442D01*
X137543041Y-88829867D01*
X137506413Y-89031293D01*
X136116697Y-89031293D01*
X136135338Y-88907556D01*
X136202413Y-88651682D01*
X136240654Y-88531997D01*
X136372521Y-88143592D01*
X136117831Y-87853516D01*
X135907618Y-87536563D01*
X135783348Y-87145640D01*
X135734401Y-86643468D01*
X135732683Y-86501485D01*
X135752138Y-85993634D01*
X135821390Y-85596862D01*
X135958145Y-85255983D01*
X136180108Y-84915811D01*
X136283918Y-84783345D01*
X136537354Y-84493127D01*
X136783402Y-84276643D01*
X137081671Y-84088137D01*
X137403054Y-83924260D01*
X138169605Y-83610994D01*
X139086214Y-83339097D01*
X140159090Y-83106851D01*
X140680788Y-83017017D01*
X141219832Y-82951440D01*
X141890270Y-82902627D01*
X142654993Y-82870608D01*
X143476890Y-82855407D01*
X144318852Y-82857053D01*
G37*
X153951069Y-93545426D02*
X154180617Y-93663431D01*
X154310535Y-93845071D01*
X154355607Y-93999821D01*
X154422791Y-94290777D01*
X154506331Y-94687123D01*
X154600471Y-95158040D01*
X154699456Y-95672710D01*
X154797531Y-96200317D01*
X154888940Y-96710041D01*
X154967928Y-97171065D01*
X155028739Y-97552572D01*
X155065618Y-97823743D01*
X155074121Y-97933727D01*
X155003014Y-98208131D01*
X154819897Y-98397573D01*
X154570072Y-98479749D01*
X154298842Y-98432355D01*
X154190122Y-98368945D01*
X154124554Y-98250491D01*
X154039194Y-97992402D01*
X153939536Y-97622477D01*
X153831075Y-97168513D01*
X153719306Y-96658312D01*
X153609722Y-96119671D01*
X153507818Y-95580391D01*
X153419089Y-95068269D01*
X153349029Y-94611105D01*
X153303132Y-94236698D01*
X153286893Y-93972848D01*
X153298951Y-93860041D01*
X153457531Y-93644511D01*
X153692472Y-93539379D01*
X153951069Y-93545426D01*
G36*
X153951069Y-93545426D02*
G01*
X154180617Y-93663431D01*
X154310535Y-93845071D01*
X154355607Y-93999821D01*
X154422791Y-94290777D01*
X154506331Y-94687123D01*
X154600471Y-95158040D01*
X154699456Y-95672710D01*
X154797531Y-96200317D01*
X154888940Y-96710041D01*
X154967928Y-97171065D01*
X155028739Y-97552572D01*
X155065618Y-97823743D01*
X155074121Y-97933727D01*
X155003014Y-98208131D01*
X154819897Y-98397573D01*
X154570072Y-98479749D01*
X154298842Y-98432355D01*
X154190122Y-98368945D01*
X154124554Y-98250491D01*
X154039194Y-97992402D01*
X153939536Y-97622477D01*
X153831075Y-97168513D01*
X153719306Y-96658312D01*
X153609722Y-96119671D01*
X153507818Y-95580391D01*
X153419089Y-95068269D01*
X153349029Y-94611105D01*
X153303132Y-94236698D01*
X153286893Y-93972848D01*
X153298951Y-93860041D01*
X153457531Y-93644511D01*
X153692472Y-93539379D01*
X153951069Y-93545426D01*
G37*
X132931844Y-92758490D02*
X133144673Y-92947980D01*
X133252788Y-93214711D01*
X133258343Y-93296606D01*
X133216009Y-93439363D01*
X133098640Y-93700530D01*
X132920688Y-94054757D01*
X132696602Y-94476698D01*
X132440833Y-94941003D01*
X132167832Y-95422325D01*
X131892049Y-95895315D01*
X131627936Y-96334625D01*
X131389942Y-96714908D01*
X131192517Y-97010814D01*
X131050114Y-97196996D01*
X131014279Y-97232985D01*
X130742634Y-97363414D01*
X130428884Y-97366266D01*
X130137519Y-97245533D01*
X130051272Y-97173333D01*
X129907092Y-96969400D01*
X129843598Y-96761318D01*
X129843454Y-96753246D01*
X129885734Y-96620885D01*
X130002987Y-96369649D01*
X130180831Y-96024505D01*
X130404886Y-95610417D01*
X130660772Y-95152350D01*
X130934107Y-94675270D01*
X131210512Y-94204143D01*
X131475604Y-93763932D01*
X131715003Y-93379604D01*
X131914330Y-93076123D01*
X132059202Y-92878455D01*
X132103183Y-92830318D01*
X132367287Y-92681974D01*
X132658111Y-92663926D01*
X132931844Y-92758490D01*
G36*
X132931844Y-92758490D02*
G01*
X133144673Y-92947980D01*
X133252788Y-93214711D01*
X133258343Y-93296606D01*
X133216009Y-93439363D01*
X133098640Y-93700530D01*
X132920688Y-94054757D01*
X132696602Y-94476698D01*
X132440833Y-94941003D01*
X132167832Y-95422325D01*
X131892049Y-95895315D01*
X131627936Y-96334625D01*
X131389942Y-96714908D01*
X131192517Y-97010814D01*
X131050114Y-97196996D01*
X131014279Y-97232985D01*
X130742634Y-97363414D01*
X130428884Y-97366266D01*
X130137519Y-97245533D01*
X130051272Y-97173333D01*
X129907092Y-96969400D01*
X129843598Y-96761318D01*
X129843454Y-96753246D01*
X129885734Y-96620885D01*
X130002987Y-96369649D01*
X130180831Y-96024505D01*
X130404886Y-95610417D01*
X130660772Y-95152350D01*
X130934107Y-94675270D01*
X131210512Y-94204143D01*
X131475604Y-93763932D01*
X131715003Y-93379604D01*
X131914330Y-93076123D01*
X132059202Y-92878455D01*
X132103183Y-92830318D01*
X132367287Y-92681974D01*
X132658111Y-92663926D01*
X132931844Y-92758490D01*
G37*
X146081169Y-88006683D02*
X146338503Y-88154502D01*
X146517084Y-88433816D01*
X146560933Y-88724443D01*
X146450706Y-88999990D01*
X146369796Y-89104985D01*
X146171145Y-89222180D01*
X145897600Y-89254143D01*
X145619656Y-89202446D01*
X145422121Y-89083818D01*
X145273462Y-88828028D01*
X145258186Y-88534507D01*
X145372740Y-88264422D01*
X145475872Y-88158630D01*
X145781998Y-88004986D01*
X146081169Y-88006683D01*
G36*
X146081169Y-88006683D02*
G01*
X146338503Y-88154502D01*
X146517084Y-88433816D01*
X146560933Y-88724443D01*
X146450706Y-88999990D01*
X146369796Y-89104985D01*
X146171145Y-89222180D01*
X145897600Y-89254143D01*
X145619656Y-89202446D01*
X145422121Y-89083818D01*
X145273462Y-88828028D01*
X145258186Y-88534507D01*
X145372740Y-88264422D01*
X145475872Y-88158630D01*
X145781998Y-88004986D01*
X146081169Y-88006683D01*
G37*
%TD*%
M02*
