%TF.GenerationSoftware,KiCad,Pcbnew,9.0.6*%
%TF.CreationDate,2025-11-21T09:20:11+01:00*%
%TF.ProjectId,BL_Santa,424c5f53-616e-4746-912e-6b696361645f,rev?*%
%TF.SameCoordinates,Original*%
%TF.FileFunction,Legend,Top*%
%TF.FilePolarity,Positive*%
%FSLAX46Y46*%
G04 Gerber Fmt 4.6, Leading zero omitted, Abs format (unit mm)*
G04 Created by KiCad (PCBNEW 9.0.6) date 2025-11-21 09:20:11*
%MOMM*%
%LPD*%
G01*
G04 APERTURE LIST*
%ADD10C,0.010000*%
G04 APERTURE END LIST*
D10*
%TO.C,G\u002A\u002A\u002A*%
X152548078Y-84974871D02*
X152805412Y-85122690D01*
X152983993Y-85402004D01*
X153027842Y-85692631D01*
X152917615Y-85968178D01*
X152836705Y-86073173D01*
X152638054Y-86190368D01*
X152364509Y-86222331D01*
X152086565Y-86170634D01*
X151889030Y-86052006D01*
X151740371Y-85796216D01*
X151725095Y-85502695D01*
X151839649Y-85232610D01*
X151942781Y-85126818D01*
X152248907Y-84973174D01*
X152548078Y-84974871D01*
G36*
X152548078Y-84974871D02*
G01*
X152805412Y-85122690D01*
X152983993Y-85402004D01*
X153027842Y-85692631D01*
X152917615Y-85968178D01*
X152836705Y-86073173D01*
X152638054Y-86190368D01*
X152364509Y-86222331D01*
X152086565Y-86170634D01*
X151889030Y-86052006D01*
X151740371Y-85796216D01*
X151725095Y-85502695D01*
X151839649Y-85232610D01*
X151942781Y-85126818D01*
X152248907Y-84973174D01*
X152548078Y-84974871D01*
G37*
X150957697Y-101376673D02*
X150322697Y-101376673D01*
X150002736Y-101387178D01*
X149779722Y-101415617D01*
X149688291Y-101457369D01*
X149687697Y-101461340D01*
X149766006Y-101504771D01*
X149975892Y-101534783D01*
X150279788Y-101546006D01*
X150873030Y-101546006D01*
X150873030Y-102223340D01*
X148865226Y-102223340D01*
X148817503Y-101527067D01*
X148800069Y-101197618D01*
X148795731Y-100934627D01*
X148804902Y-100782519D01*
X148810401Y-100765067D01*
X148905850Y-100740014D01*
X149136811Y-100719360D01*
X149469479Y-100705136D01*
X149870048Y-100699374D01*
X149904360Y-100699340D01*
X150957697Y-100699340D01*
X150957697Y-101376673D01*
G36*
X150957697Y-101376673D02*
G01*
X150322697Y-101376673D01*
X150002736Y-101387178D01*
X149779722Y-101415617D01*
X149688291Y-101457369D01*
X149687697Y-101461340D01*
X149766006Y-101504771D01*
X149975892Y-101534783D01*
X150279788Y-101546006D01*
X150873030Y-101546006D01*
X150873030Y-102223340D01*
X148865226Y-102223340D01*
X148817503Y-101527067D01*
X148800069Y-101197618D01*
X148795731Y-100934627D01*
X148804902Y-100782519D01*
X148810401Y-100765067D01*
X148905850Y-100740014D01*
X149136811Y-100719360D01*
X149469479Y-100705136D01*
X149870048Y-100699374D01*
X149904360Y-100699340D01*
X150957697Y-100699340D01*
X150957697Y-101376673D01*
G37*
X140688477Y-99054392D02*
X140896953Y-99096054D01*
X141195298Y-99169830D01*
X141601306Y-99278633D01*
X142132774Y-99425379D01*
X142807496Y-99612983D01*
X142911368Y-99641832D01*
X144149408Y-99974233D01*
X145236106Y-100241789D01*
X146176121Y-100445511D01*
X146974111Y-100586410D01*
X147623646Y-100664582D01*
X148311262Y-100721870D01*
X148364479Y-101231025D01*
X148393827Y-101552134D01*
X148413155Y-101840930D01*
X148417697Y-101981759D01*
X148417697Y-102223340D01*
X147846197Y-102209790D01*
X147499032Y-102198407D01*
X147174761Y-102182531D01*
X146978363Y-102168499D01*
X145631413Y-101997254D01*
X144325835Y-101743258D01*
X143106120Y-101416188D01*
X142376751Y-101167615D01*
X141760728Y-100930373D01*
X141289013Y-100732470D01*
X140943696Y-100564676D01*
X140706867Y-100417761D01*
X140560616Y-100282494D01*
X140510204Y-100205678D01*
X140358018Y-99793586D01*
X140328559Y-99415062D01*
X140371293Y-99225748D01*
X140397354Y-99150571D01*
X140424308Y-99092932D01*
X140469950Y-99055746D01*
X140552074Y-99041927D01*
X140688477Y-99054392D01*
G36*
X140688477Y-99054392D02*
G01*
X140896953Y-99096054D01*
X141195298Y-99169830D01*
X141601306Y-99278633D01*
X142132774Y-99425379D01*
X142807496Y-99612983D01*
X142911368Y-99641832D01*
X144149408Y-99974233D01*
X145236106Y-100241789D01*
X146176121Y-100445511D01*
X146974111Y-100586410D01*
X147623646Y-100664582D01*
X148311262Y-100721870D01*
X148364479Y-101231025D01*
X148393827Y-101552134D01*
X148413155Y-101840930D01*
X148417697Y-101981759D01*
X148417697Y-102223340D01*
X147846197Y-102209790D01*
X147499032Y-102198407D01*
X147174761Y-102182531D01*
X146978363Y-102168499D01*
X145631413Y-101997254D01*
X144325835Y-101743258D01*
X143106120Y-101416188D01*
X142376751Y-101167615D01*
X141760728Y-100930373D01*
X141289013Y-100732470D01*
X140943696Y-100564676D01*
X140706867Y-100417761D01*
X140560616Y-100282494D01*
X140510204Y-100205678D01*
X140358018Y-99793586D01*
X140328559Y-99415062D01*
X140371293Y-99225748D01*
X140397354Y-99150571D01*
X140424308Y-99092932D01*
X140469950Y-99055746D01*
X140552074Y-99041927D01*
X140688477Y-99054392D01*
G37*
X155404269Y-107263798D02*
X155516848Y-107435951D01*
X155607274Y-107749561D01*
X155554017Y-108008427D01*
X155466197Y-108137290D01*
X155393541Y-108204909D01*
X155287933Y-108256706D01*
X155122446Y-108297447D01*
X154870157Y-108331897D01*
X154504140Y-108364820D01*
X153997472Y-108400983D01*
X153963363Y-108403270D01*
X153430813Y-108441100D01*
X152891285Y-108483261D01*
X152397025Y-108525424D01*
X152000281Y-108563254D01*
X151889030Y-108575245D01*
X151494490Y-108619492D01*
X151234037Y-108643817D01*
X151073357Y-108646046D01*
X150978134Y-108624004D01*
X150914056Y-108575518D01*
X150856688Y-108509840D01*
X150706559Y-108249032D01*
X150669204Y-107981584D01*
X150740751Y-107754069D01*
X150917325Y-107613062D01*
X150931680Y-107608210D01*
X151062952Y-107588118D01*
X151332997Y-107562107D01*
X151711457Y-107532571D01*
X152167974Y-107501905D01*
X152608697Y-107475965D01*
X153141190Y-107440771D01*
X153653166Y-107396343D01*
X154104960Y-107346896D01*
X154456908Y-107296646D01*
X154631265Y-107261025D01*
X154996282Y-107182618D01*
X155242250Y-107181231D01*
X155404269Y-107263798D01*
G36*
X155404269Y-107263798D02*
G01*
X155516848Y-107435951D01*
X155607274Y-107749561D01*
X155554017Y-108008427D01*
X155466197Y-108137290D01*
X155393541Y-108204909D01*
X155287933Y-108256706D01*
X155122446Y-108297447D01*
X154870157Y-108331897D01*
X154504140Y-108364820D01*
X153997472Y-108400983D01*
X153963363Y-108403270D01*
X153430813Y-108441100D01*
X152891285Y-108483261D01*
X152397025Y-108525424D01*
X152000281Y-108563254D01*
X151889030Y-108575245D01*
X151494490Y-108619492D01*
X151234037Y-108643817D01*
X151073357Y-108646046D01*
X150978134Y-108624004D01*
X150914056Y-108575518D01*
X150856688Y-108509840D01*
X150706559Y-108249032D01*
X150669204Y-107981584D01*
X150740751Y-107754069D01*
X150917325Y-107613062D01*
X150931680Y-107608210D01*
X151062952Y-107588118D01*
X151332997Y-107562107D01*
X151711457Y-107532571D01*
X152167974Y-107501905D01*
X152608697Y-107475965D01*
X153141190Y-107440771D01*
X153653166Y-107396343D01*
X154104960Y-107346896D01*
X154456908Y-107296646D01*
X154631265Y-107261025D01*
X154996282Y-107182618D01*
X155242250Y-107181231D01*
X155404269Y-107263798D01*
G37*
X144177150Y-107354719D02*
X144297549Y-107373134D01*
X144561415Y-107392501D01*
X144942894Y-107411626D01*
X145416132Y-107429314D01*
X145955278Y-107444371D01*
X146258697Y-107450872D01*
X146947670Y-107466039D01*
X147485833Y-107484947D01*
X147891707Y-107512056D01*
X148183813Y-107551829D01*
X148380674Y-107608729D01*
X148500809Y-107687217D01*
X148562742Y-107791757D01*
X148584993Y-107926810D01*
X148587030Y-108011836D01*
X148536442Y-108272331D01*
X148432196Y-108433217D01*
X148343184Y-108499370D01*
X148231372Y-108538828D01*
X148064548Y-108552957D01*
X147810501Y-108543121D01*
X147437019Y-108510686D01*
X147190030Y-108485868D01*
X146888856Y-108463330D01*
X146467037Y-108443035D01*
X145973260Y-108426800D01*
X145456212Y-108416439D01*
X145276985Y-108414523D01*
X144771057Y-108408751D01*
X144406842Y-108398557D01*
X144156721Y-108380615D01*
X143993079Y-108351601D01*
X143888297Y-108308194D01*
X143814759Y-108247067D01*
X143805902Y-108237478D01*
X143689338Y-108023856D01*
X143655197Y-107840428D01*
X143714207Y-107626020D01*
X143858696Y-107446311D01*
X144039852Y-107346722D01*
X144177150Y-107354719D01*
G36*
X144177150Y-107354719D02*
G01*
X144297549Y-107373134D01*
X144561415Y-107392501D01*
X144942894Y-107411626D01*
X145416132Y-107429314D01*
X145955278Y-107444371D01*
X146258697Y-107450872D01*
X146947670Y-107466039D01*
X147485833Y-107484947D01*
X147891707Y-107512056D01*
X148183813Y-107551829D01*
X148380674Y-107608729D01*
X148500809Y-107687217D01*
X148562742Y-107791757D01*
X148584993Y-107926810D01*
X148587030Y-108011836D01*
X148536442Y-108272331D01*
X148432196Y-108433217D01*
X148343184Y-108499370D01*
X148231372Y-108538828D01*
X148064548Y-108552957D01*
X147810501Y-108543121D01*
X147437019Y-108510686D01*
X147190030Y-108485868D01*
X146888856Y-108463330D01*
X146467037Y-108443035D01*
X145973260Y-108426800D01*
X145456212Y-108416439D01*
X145276985Y-108414523D01*
X144771057Y-108408751D01*
X144406842Y-108398557D01*
X144156721Y-108380615D01*
X143993079Y-108351601D01*
X143888297Y-108308194D01*
X143814759Y-108247067D01*
X143805902Y-108237478D01*
X143689338Y-108023856D01*
X143655197Y-107840428D01*
X143714207Y-107626020D01*
X143858696Y-107446311D01*
X144039852Y-107346722D01*
X144177150Y-107354719D01*
G37*
X159308817Y-99194540D02*
X159363934Y-99232191D01*
X159372309Y-99244277D01*
X159386279Y-99383085D01*
X159352194Y-99625643D01*
X159283968Y-99918113D01*
X159195518Y-100206658D01*
X159100758Y-100437442D01*
X159038625Y-100535242D01*
X158898129Y-100660452D01*
X158700128Y-100777129D01*
X158418540Y-100896083D01*
X158027283Y-101028128D01*
X157500276Y-101184075D01*
X157415741Y-101207990D01*
X156210191Y-101522905D01*
X155072028Y-101764813D01*
X153923901Y-101948606D01*
X152997159Y-102058572D01*
X152437661Y-102116697D01*
X152022166Y-102159394D01*
X151726147Y-102187690D01*
X151525075Y-102202612D01*
X151394423Y-102205187D01*
X151309662Y-102196445D01*
X151246263Y-102177411D01*
X151179700Y-102149114D01*
X151148197Y-102136034D01*
X151016943Y-102044725D01*
X150966121Y-101877201D01*
X150962475Y-101739234D01*
X150994935Y-101431101D01*
X151066567Y-101133174D01*
X151068309Y-101128115D01*
X151169363Y-100837225D01*
X152227697Y-100685670D01*
X152961316Y-100570108D01*
X153795914Y-100421031D01*
X154686267Y-100247851D01*
X155587153Y-100059983D01*
X156453349Y-99866838D01*
X157239632Y-99677830D01*
X157868029Y-99511626D01*
X158388362Y-99367177D01*
X158769563Y-99267340D01*
X159034676Y-99208019D01*
X159206746Y-99185117D01*
X159308817Y-99194540D01*
G36*
X159308817Y-99194540D02*
G01*
X159363934Y-99232191D01*
X159372309Y-99244277D01*
X159386279Y-99383085D01*
X159352194Y-99625643D01*
X159283968Y-99918113D01*
X159195518Y-100206658D01*
X159100758Y-100437442D01*
X159038625Y-100535242D01*
X158898129Y-100660452D01*
X158700128Y-100777129D01*
X158418540Y-100896083D01*
X158027283Y-101028128D01*
X157500276Y-101184075D01*
X157415741Y-101207990D01*
X156210191Y-101522905D01*
X155072028Y-101764813D01*
X153923901Y-101948606D01*
X152997159Y-102058572D01*
X152437661Y-102116697D01*
X152022166Y-102159394D01*
X151726147Y-102187690D01*
X151525075Y-102202612D01*
X151394423Y-102205187D01*
X151309662Y-102196445D01*
X151246263Y-102177411D01*
X151179700Y-102149114D01*
X151148197Y-102136034D01*
X151016943Y-102044725D01*
X150966121Y-101877201D01*
X150962475Y-101739234D01*
X150994935Y-101431101D01*
X151066567Y-101133174D01*
X151068309Y-101128115D01*
X151169363Y-100837225D01*
X152227697Y-100685670D01*
X152961316Y-100570108D01*
X153795914Y-100421031D01*
X154686267Y-100247851D01*
X155587153Y-100059983D01*
X156453349Y-99866838D01*
X157239632Y-99677830D01*
X157868029Y-99511626D01*
X158388362Y-99367177D01*
X158769563Y-99267340D01*
X159034676Y-99208019D01*
X159206746Y-99185117D01*
X159308817Y-99194540D01*
G37*
X141742058Y-102261163D02*
X141990558Y-102355461D01*
X142064557Y-102391071D01*
X142341276Y-102505096D01*
X142753761Y-102639424D01*
X143270811Y-102786139D01*
X143861224Y-102937325D01*
X144493801Y-103085066D01*
X145137341Y-103221447D01*
X145760644Y-103338552D01*
X145878394Y-103358672D01*
X147576083Y-103590804D01*
X149238172Y-103707488D01*
X150895213Y-103707608D01*
X152577753Y-103590045D01*
X154316343Y-103353682D01*
X156141533Y-102997402D01*
X156217244Y-102980536D01*
X156803694Y-102850429D01*
X157245357Y-102756074D01*
X157562315Y-102694609D01*
X157774652Y-102663167D01*
X157902452Y-102658885D01*
X157965796Y-102678898D01*
X157984769Y-102720341D01*
X157985030Y-102728393D01*
X157918854Y-102880881D01*
X157746542Y-103083901D01*
X157507415Y-103301294D01*
X157240792Y-103496896D01*
X157011504Y-103623681D01*
X156509478Y-103808847D01*
X155861930Y-103988254D01*
X155092673Y-104156208D01*
X154225518Y-104307012D01*
X154035666Y-104335608D01*
X153498603Y-104398638D01*
X152828263Y-104452471D01*
X152060507Y-104496090D01*
X151231195Y-104528476D01*
X150376186Y-104548612D01*
X149531340Y-104555479D01*
X148732516Y-104548059D01*
X148015576Y-104525335D01*
X147782697Y-104513109D01*
X147311771Y-104478563D01*
X146849132Y-104428996D01*
X146366032Y-104359299D01*
X145833720Y-104264360D01*
X145223450Y-104139070D01*
X144506471Y-103978317D01*
X143689361Y-103785472D01*
X143015812Y-103616125D01*
X142490548Y-103462924D01*
X142094624Y-103315397D01*
X141809097Y-103163075D01*
X141615021Y-102995488D01*
X141493454Y-102802167D01*
X141425449Y-102572641D01*
X141418000Y-102530174D01*
X141396629Y-102327258D01*
X141436415Y-102240945D01*
X141551991Y-102223340D01*
X141742058Y-102261163D01*
G36*
X141742058Y-102261163D02*
G01*
X141990558Y-102355461D01*
X142064557Y-102391071D01*
X142341276Y-102505096D01*
X142753761Y-102639424D01*
X143270811Y-102786139D01*
X143861224Y-102937325D01*
X144493801Y-103085066D01*
X145137341Y-103221447D01*
X145760644Y-103338552D01*
X145878394Y-103358672D01*
X147576083Y-103590804D01*
X149238172Y-103707488D01*
X150895213Y-103707608D01*
X152577753Y-103590045D01*
X154316343Y-103353682D01*
X156141533Y-102997402D01*
X156217244Y-102980536D01*
X156803694Y-102850429D01*
X157245357Y-102756074D01*
X157562315Y-102694609D01*
X157774652Y-102663167D01*
X157902452Y-102658885D01*
X157965796Y-102678898D01*
X157984769Y-102720341D01*
X157985030Y-102728393D01*
X157918854Y-102880881D01*
X157746542Y-103083901D01*
X157507415Y-103301294D01*
X157240792Y-103496896D01*
X157011504Y-103623681D01*
X156509478Y-103808847D01*
X155861930Y-103988254D01*
X155092673Y-104156208D01*
X154225518Y-104307012D01*
X154035666Y-104335608D01*
X153498603Y-104398638D01*
X152828263Y-104452471D01*
X152060507Y-104496090D01*
X151231195Y-104528476D01*
X150376186Y-104548612D01*
X149531340Y-104555479D01*
X148732516Y-104548059D01*
X148015576Y-104525335D01*
X147782697Y-104513109D01*
X147311771Y-104478563D01*
X146849132Y-104428996D01*
X146366032Y-104359299D01*
X145833720Y-104264360D01*
X145223450Y-104139070D01*
X144506471Y-103978317D01*
X143689361Y-103785472D01*
X143015812Y-103616125D01*
X142490548Y-103462924D01*
X142094624Y-103315397D01*
X141809097Y-103163075D01*
X141615021Y-102995488D01*
X141493454Y-102802167D01*
X141425449Y-102572641D01*
X141418000Y-102530174D01*
X141396629Y-102327258D01*
X141436415Y-102240945D01*
X141551991Y-102223340D01*
X141742058Y-102261163D01*
G37*
X141275920Y-101097352D02*
X141694530Y-101240147D01*
X141813697Y-101285803D01*
X142333751Y-101466118D01*
X142983365Y-101656936D01*
X143723881Y-101849345D01*
X144516644Y-102034432D01*
X145322995Y-102203283D01*
X146104278Y-102346984D01*
X146821837Y-102456623D01*
X146978363Y-102476644D01*
X147420997Y-102542640D01*
X147901195Y-102632520D01*
X148318015Y-102727313D01*
X148333030Y-102731223D01*
X149131986Y-102868164D01*
X149979342Y-102884167D01*
X150799624Y-102778697D01*
X151125140Y-102715630D01*
X151553768Y-102640763D01*
X152020834Y-102565102D01*
X152323624Y-102519363D01*
X153423922Y-102345579D01*
X154555255Y-102142363D01*
X155662903Y-101920478D01*
X156692142Y-101690688D01*
X157298627Y-101540775D01*
X157743357Y-101428652D01*
X158128016Y-101337430D01*
X158424028Y-101273428D01*
X158602817Y-101242962D01*
X158642295Y-101243716D01*
X158662556Y-101372405D01*
X158589830Y-101580275D01*
X158445041Y-101821211D01*
X158300324Y-101997383D01*
X158185210Y-102111239D01*
X158062502Y-102205727D01*
X157910465Y-102287364D01*
X157707368Y-102362665D01*
X157431475Y-102438147D01*
X157061054Y-102520325D01*
X156574372Y-102615715D01*
X155949694Y-102730834D01*
X155708408Y-102774471D01*
X155163377Y-102874550D01*
X154630625Y-102975528D01*
X154150442Y-103069540D01*
X153763117Y-103148720D01*
X153540030Y-103197774D01*
X153238390Y-103246365D01*
X152792530Y-103287992D01*
X152227440Y-103322122D01*
X151568111Y-103348223D01*
X150839534Y-103365761D01*
X150066700Y-103374205D01*
X149274599Y-103373022D01*
X148488222Y-103361678D01*
X147732560Y-103339642D01*
X147444030Y-103327694D01*
X146927368Y-103298935D01*
X146454871Y-103258661D01*
X145998107Y-103201273D01*
X145528639Y-103121172D01*
X145018036Y-103012759D01*
X144437862Y-102870436D01*
X143759685Y-102688602D01*
X142955069Y-102461660D01*
X142756948Y-102404744D01*
X142160517Y-102227961D01*
X141706562Y-102078585D01*
X141372821Y-101944830D01*
X141137036Y-101814909D01*
X140976945Y-101677036D01*
X140870289Y-101519425D01*
X140809276Y-101373495D01*
X140769081Y-101175239D01*
X140825352Y-101063837D01*
X140990246Y-101038229D01*
X141275920Y-101097352D01*
G36*
X141275920Y-101097352D02*
G01*
X141694530Y-101240147D01*
X141813697Y-101285803D01*
X142333751Y-101466118D01*
X142983365Y-101656936D01*
X143723881Y-101849345D01*
X144516644Y-102034432D01*
X145322995Y-102203283D01*
X146104278Y-102346984D01*
X146821837Y-102456623D01*
X146978363Y-102476644D01*
X147420997Y-102542640D01*
X147901195Y-102632520D01*
X148318015Y-102727313D01*
X148333030Y-102731223D01*
X149131986Y-102868164D01*
X149979342Y-102884167D01*
X150799624Y-102778697D01*
X151125140Y-102715630D01*
X151553768Y-102640763D01*
X152020834Y-102565102D01*
X152323624Y-102519363D01*
X153423922Y-102345579D01*
X154555255Y-102142363D01*
X155662903Y-101920478D01*
X156692142Y-101690688D01*
X157298627Y-101540775D01*
X157743357Y-101428652D01*
X158128016Y-101337430D01*
X158424028Y-101273428D01*
X158602817Y-101242962D01*
X158642295Y-101243716D01*
X158662556Y-101372405D01*
X158589830Y-101580275D01*
X158445041Y-101821211D01*
X158300324Y-101997383D01*
X158185210Y-102111239D01*
X158062502Y-102205727D01*
X157910465Y-102287364D01*
X157707368Y-102362665D01*
X157431475Y-102438147D01*
X157061054Y-102520325D01*
X156574372Y-102615715D01*
X155949694Y-102730834D01*
X155708408Y-102774471D01*
X155163377Y-102874550D01*
X154630625Y-102975528D01*
X154150442Y-103069540D01*
X153763117Y-103148720D01*
X153540030Y-103197774D01*
X153238390Y-103246365D01*
X152792530Y-103287992D01*
X152227440Y-103322122D01*
X151568111Y-103348223D01*
X150839534Y-103365761D01*
X150066700Y-103374205D01*
X149274599Y-103373022D01*
X148488222Y-103361678D01*
X147732560Y-103339642D01*
X147444030Y-103327694D01*
X146927368Y-103298935D01*
X146454871Y-103258661D01*
X145998107Y-103201273D01*
X145528639Y-103121172D01*
X145018036Y-103012759D01*
X144437862Y-102870436D01*
X143759685Y-102688602D01*
X142955069Y-102461660D01*
X142756948Y-102404744D01*
X142160517Y-102227961D01*
X141706562Y-102078585D01*
X141372821Y-101944830D01*
X141137036Y-101814909D01*
X140976945Y-101677036D01*
X140870289Y-101519425D01*
X140809276Y-101373495D01*
X140769081Y-101175239D01*
X140825352Y-101063837D01*
X140990246Y-101038229D01*
X141275920Y-101097352D01*
G37*
X150785761Y-79825241D02*
X151610677Y-79843759D01*
X152381439Y-79879176D01*
X153060936Y-79931520D01*
X153479454Y-79980638D01*
X154576438Y-80183324D01*
X155536689Y-80460582D01*
X156355257Y-80810371D01*
X157027190Y-81230650D01*
X157461494Y-81622347D01*
X157871027Y-82139716D01*
X158120868Y-82648702D01*
X158217024Y-83175810D01*
X158165503Y-83747545D01*
X158043813Y-84191411D01*
X157925862Y-84601998D01*
X157826935Y-85052182D01*
X157771193Y-85422369D01*
X157712673Y-86016255D01*
X158066861Y-86261708D01*
X158300338Y-86440860D01*
X158487202Y-86614329D01*
X158541707Y-86679422D01*
X158633491Y-86923284D01*
X158660859Y-87249787D01*
X158626378Y-87586053D01*
X158532616Y-87859204D01*
X158498283Y-87911624D01*
X158395233Y-88062279D01*
X158391148Y-88173599D01*
X158486751Y-88329149D01*
X158502089Y-88350729D01*
X158723067Y-88719981D01*
X158949525Y-89199562D01*
X159157518Y-89733042D01*
X159323102Y-90263992D01*
X159337822Y-90320299D01*
X159418237Y-90653311D01*
X159459697Y-90908346D01*
X159464308Y-91149440D01*
X159434177Y-91440626D01*
X159385191Y-91760640D01*
X159194734Y-92700223D01*
X158916416Y-93676225D01*
X158538933Y-94726520D01*
X158387182Y-95104378D01*
X158197776Y-95553965D01*
X158041831Y-95886537D01*
X157893872Y-96143825D01*
X157728423Y-96367559D01*
X157520008Y-96599470D01*
X157397271Y-96725900D01*
X157000405Y-97100868D01*
X156574132Y-97441407D01*
X156086190Y-97769053D01*
X155504318Y-98105343D01*
X154796253Y-98471814D01*
X154740353Y-98499538D01*
X153942988Y-98856224D01*
X153165512Y-99118659D01*
X152345883Y-99304378D01*
X151458372Y-99427131D01*
X151007937Y-99470742D01*
X150636630Y-99494114D01*
X150292777Y-99496321D01*
X149924700Y-99476438D01*
X149480725Y-99433536D01*
X149052697Y-99384003D01*
X148397348Y-99304670D01*
X147878734Y-99236617D01*
X147465487Y-99170742D01*
X147126238Y-99097946D01*
X146829621Y-99009129D01*
X146544267Y-98895189D01*
X146238809Y-98747028D01*
X145881878Y-98555545D01*
X145535767Y-98363703D01*
X144854385Y-97980954D01*
X144303048Y-97660750D01*
X143861041Y-97388534D01*
X143507647Y-97149751D01*
X143222152Y-96929844D01*
X142983837Y-96714257D01*
X142771989Y-96488432D01*
X142636325Y-96326363D01*
X142054363Y-95502816D01*
X141575404Y-94612355D01*
X141213777Y-93689944D01*
X140983815Y-92770550D01*
X140906456Y-92105673D01*
X140896158Y-91285749D01*
X140966367Y-90585307D01*
X141126686Y-89970055D01*
X141386717Y-89405702D01*
X141756062Y-88857956D01*
X141848376Y-88741874D01*
X142234987Y-88267268D01*
X142068534Y-87900471D01*
X141964704Y-87610170D01*
X141905401Y-87325530D01*
X141900223Y-87247333D01*
X141955430Y-86950507D01*
X142099164Y-86642169D01*
X142293376Y-86392338D01*
X142413930Y-86301956D01*
X142545617Y-86162695D01*
X142575697Y-86051986D01*
X142583606Y-85999481D01*
X143973322Y-85999481D01*
X143976814Y-86249741D01*
X144013964Y-86593932D01*
X144077824Y-87016633D01*
X144155898Y-87307955D01*
X144268489Y-87505740D01*
X144435903Y-87647833D01*
X144635694Y-87752731D01*
X144805182Y-87822445D01*
X144969869Y-87862917D01*
X145155780Y-87870242D01*
X145388943Y-87840516D01*
X145695386Y-87769836D01*
X146101136Y-87654298D01*
X146632219Y-87489997D01*
X146813734Y-87432529D01*
X148785038Y-87432529D01*
X148932232Y-87682421D01*
X148992044Y-87752441D01*
X149325032Y-88006258D01*
X149754492Y-88159179D01*
X150237498Y-88206445D01*
X150731127Y-88143295D01*
X151143378Y-87990999D01*
X151451327Y-87766511D01*
X151609448Y-87502107D01*
X151624687Y-87221865D01*
X151503993Y-86949864D01*
X151254311Y-86710182D01*
X150882589Y-86526897D01*
X150706265Y-86475956D01*
X150180894Y-86416012D01*
X149684910Y-86482923D01*
X149254889Y-86666894D01*
X148933172Y-86950733D01*
X148786399Y-87202896D01*
X148785038Y-87432529D01*
X146813734Y-87432529D01*
X146852784Y-87420166D01*
X148112856Y-87019975D01*
X148556610Y-86263673D01*
X148262421Y-86256776D01*
X147968325Y-86185352D01*
X147771237Y-86012715D01*
X147672321Y-85777251D01*
X147672744Y-85517345D01*
X147773668Y-85271385D01*
X147976260Y-85077755D01*
X148223804Y-84984023D01*
X148421215Y-84970802D01*
X148585743Y-85041386D01*
X148762302Y-85198253D01*
X148941720Y-85416151D01*
X148995865Y-85603420D01*
X148988233Y-85678370D01*
X148947441Y-85891762D01*
X149132525Y-85717884D01*
X149232157Y-85640981D01*
X149358860Y-85590547D01*
X149547938Y-85561177D01*
X149834696Y-85547465D01*
X150254442Y-85544008D01*
X150268281Y-85544006D01*
X151218951Y-85544006D01*
X151649050Y-85946173D01*
X151913434Y-86211973D01*
X152162577Y-86493174D01*
X152312511Y-86687370D01*
X152432674Y-86841925D01*
X152575495Y-86970566D01*
X152774504Y-87093815D01*
X153063229Y-87232194D01*
X153475201Y-87406224D01*
X153510850Y-87420815D01*
X154036427Y-87629327D01*
X154446045Y-87773170D01*
X154776641Y-87860451D01*
X155065152Y-87899279D01*
X155348516Y-87897761D01*
X155580057Y-87875000D01*
X155906201Y-87820241D01*
X156131200Y-87732845D01*
X156272051Y-87584806D01*
X156345751Y-87348116D01*
X156369296Y-86994770D01*
X156362688Y-86585420D01*
X156334030Y-85694483D01*
X156042826Y-85451523D01*
X155738560Y-85260271D01*
X155287237Y-85064592D01*
X154710692Y-84872283D01*
X154030760Y-84691144D01*
X153709363Y-84618052D01*
X152307595Y-84387113D01*
X150847600Y-84290213D01*
X149319597Y-84327756D01*
X147713802Y-84500144D01*
X146020434Y-84807782D01*
X145339388Y-84963251D01*
X144250747Y-85225146D01*
X144091288Y-85585630D01*
X144009950Y-85798055D01*
X143973322Y-85999481D01*
X142583606Y-85999481D01*
X142602247Y-85875744D01*
X142669322Y-85619870D01*
X142707563Y-85500185D01*
X142839430Y-85111780D01*
X142584740Y-84821704D01*
X142374527Y-84504751D01*
X142250257Y-84113828D01*
X142201310Y-83611656D01*
X142199592Y-83469673D01*
X142219047Y-82961822D01*
X142288299Y-82565050D01*
X142425054Y-82224171D01*
X142647017Y-81883999D01*
X142750827Y-81751533D01*
X143004263Y-81461315D01*
X143250311Y-81244831D01*
X143548580Y-81056325D01*
X143869963Y-80892448D01*
X144636514Y-80579182D01*
X145553123Y-80307285D01*
X146625999Y-80075039D01*
X147147697Y-79985205D01*
X147686741Y-79919628D01*
X148357179Y-79870815D01*
X149121902Y-79838796D01*
X149943799Y-79823595D01*
X150785761Y-79825241D01*
G36*
X150785761Y-79825241D02*
G01*
X151610677Y-79843759D01*
X152381439Y-79879176D01*
X153060936Y-79931520D01*
X153479454Y-79980638D01*
X154576438Y-80183324D01*
X155536689Y-80460582D01*
X156355257Y-80810371D01*
X157027190Y-81230650D01*
X157461494Y-81622347D01*
X157871027Y-82139716D01*
X158120868Y-82648702D01*
X158217024Y-83175810D01*
X158165503Y-83747545D01*
X158043813Y-84191411D01*
X157925862Y-84601998D01*
X157826935Y-85052182D01*
X157771193Y-85422369D01*
X157712673Y-86016255D01*
X158066861Y-86261708D01*
X158300338Y-86440860D01*
X158487202Y-86614329D01*
X158541707Y-86679422D01*
X158633491Y-86923284D01*
X158660859Y-87249787D01*
X158626378Y-87586053D01*
X158532616Y-87859204D01*
X158498283Y-87911624D01*
X158395233Y-88062279D01*
X158391148Y-88173599D01*
X158486751Y-88329149D01*
X158502089Y-88350729D01*
X158723067Y-88719981D01*
X158949525Y-89199562D01*
X159157518Y-89733042D01*
X159323102Y-90263992D01*
X159337822Y-90320299D01*
X159418237Y-90653311D01*
X159459697Y-90908346D01*
X159464308Y-91149440D01*
X159434177Y-91440626D01*
X159385191Y-91760640D01*
X159194734Y-92700223D01*
X158916416Y-93676225D01*
X158538933Y-94726520D01*
X158387182Y-95104378D01*
X158197776Y-95553965D01*
X158041831Y-95886537D01*
X157893872Y-96143825D01*
X157728423Y-96367559D01*
X157520008Y-96599470D01*
X157397271Y-96725900D01*
X157000405Y-97100868D01*
X156574132Y-97441407D01*
X156086190Y-97769053D01*
X155504318Y-98105343D01*
X154796253Y-98471814D01*
X154740353Y-98499538D01*
X153942988Y-98856224D01*
X153165512Y-99118659D01*
X152345883Y-99304378D01*
X151458372Y-99427131D01*
X151007937Y-99470742D01*
X150636630Y-99494114D01*
X150292777Y-99496321D01*
X149924700Y-99476438D01*
X149480725Y-99433536D01*
X149052697Y-99384003D01*
X148397348Y-99304670D01*
X147878734Y-99236617D01*
X147465487Y-99170742D01*
X147126238Y-99097946D01*
X146829621Y-99009129D01*
X146544267Y-98895189D01*
X146238809Y-98747028D01*
X145881878Y-98555545D01*
X145535767Y-98363703D01*
X144854385Y-97980954D01*
X144303048Y-97660750D01*
X143861041Y-97388534D01*
X143507647Y-97149751D01*
X143222152Y-96929844D01*
X142983837Y-96714257D01*
X142771989Y-96488432D01*
X142636325Y-96326363D01*
X142054363Y-95502816D01*
X141575404Y-94612355D01*
X141213777Y-93689944D01*
X140983815Y-92770550D01*
X140906456Y-92105673D01*
X140896158Y-91285749D01*
X140966367Y-90585307D01*
X141126686Y-89970055D01*
X141386717Y-89405702D01*
X141756062Y-88857956D01*
X141848376Y-88741874D01*
X142234987Y-88267268D01*
X142068534Y-87900471D01*
X141964704Y-87610170D01*
X141905401Y-87325530D01*
X141900223Y-87247333D01*
X141955430Y-86950507D01*
X142099164Y-86642169D01*
X142293376Y-86392338D01*
X142413930Y-86301956D01*
X142545617Y-86162695D01*
X142575697Y-86051986D01*
X142583606Y-85999481D01*
X143973322Y-85999481D01*
X143976814Y-86249741D01*
X144013964Y-86593932D01*
X144077824Y-87016633D01*
X144155898Y-87307955D01*
X144268489Y-87505740D01*
X144435903Y-87647833D01*
X144635694Y-87752731D01*
X144805182Y-87822445D01*
X144969869Y-87862917D01*
X145155780Y-87870242D01*
X145388943Y-87840516D01*
X145695386Y-87769836D01*
X146101136Y-87654298D01*
X146632219Y-87489997D01*
X146813734Y-87432529D01*
X148785038Y-87432529D01*
X148932232Y-87682421D01*
X148992044Y-87752441D01*
X149325032Y-88006258D01*
X149754492Y-88159179D01*
X150237498Y-88206445D01*
X150731127Y-88143295D01*
X151143378Y-87990999D01*
X151451327Y-87766511D01*
X151609448Y-87502107D01*
X151624687Y-87221865D01*
X151503993Y-86949864D01*
X151254311Y-86710182D01*
X150882589Y-86526897D01*
X150706265Y-86475956D01*
X150180894Y-86416012D01*
X149684910Y-86482923D01*
X149254889Y-86666894D01*
X148933172Y-86950733D01*
X148786399Y-87202896D01*
X148785038Y-87432529D01*
X146813734Y-87432529D01*
X146852784Y-87420166D01*
X148112856Y-87019975D01*
X148556610Y-86263673D01*
X148262421Y-86256776D01*
X147968325Y-86185352D01*
X147771237Y-86012715D01*
X147672321Y-85777251D01*
X147672744Y-85517345D01*
X147773668Y-85271385D01*
X147976260Y-85077755D01*
X148223804Y-84984023D01*
X148421215Y-84970802D01*
X148585743Y-85041386D01*
X148762302Y-85198253D01*
X148941720Y-85416151D01*
X148995865Y-85603420D01*
X148988233Y-85678370D01*
X148947441Y-85891762D01*
X149132525Y-85717884D01*
X149232157Y-85640981D01*
X149358860Y-85590547D01*
X149547938Y-85561177D01*
X149834696Y-85547465D01*
X150254442Y-85544008D01*
X150268281Y-85544006D01*
X151218951Y-85544006D01*
X151649050Y-85946173D01*
X151913434Y-86211973D01*
X152162577Y-86493174D01*
X152312511Y-86687370D01*
X152432674Y-86841925D01*
X152575495Y-86970566D01*
X152774504Y-87093815D01*
X153063229Y-87232194D01*
X153475201Y-87406224D01*
X153510850Y-87420815D01*
X154036427Y-87629327D01*
X154446045Y-87773170D01*
X154776641Y-87860451D01*
X155065152Y-87899279D01*
X155348516Y-87897761D01*
X155580057Y-87875000D01*
X155906201Y-87820241D01*
X156131200Y-87732845D01*
X156272051Y-87584806D01*
X156345751Y-87348116D01*
X156369296Y-86994770D01*
X156362688Y-86585420D01*
X156334030Y-85694483D01*
X156042826Y-85451523D01*
X155738560Y-85260271D01*
X155287237Y-85064592D01*
X154710692Y-84872283D01*
X154030760Y-84691144D01*
X153709363Y-84618052D01*
X152307595Y-84387113D01*
X150847600Y-84290213D01*
X149319597Y-84327756D01*
X147713802Y-84500144D01*
X146020434Y-84807782D01*
X145339388Y-84963251D01*
X144250747Y-85225146D01*
X144091288Y-85585630D01*
X144009950Y-85798055D01*
X143973322Y-85999481D01*
X142583606Y-85999481D01*
X142602247Y-85875744D01*
X142669322Y-85619870D01*
X142707563Y-85500185D01*
X142839430Y-85111780D01*
X142584740Y-84821704D01*
X142374527Y-84504751D01*
X142250257Y-84113828D01*
X142201310Y-83611656D01*
X142199592Y-83469673D01*
X142219047Y-82961822D01*
X142288299Y-82565050D01*
X142425054Y-82224171D01*
X142647017Y-81883999D01*
X142750827Y-81751533D01*
X143004263Y-81461315D01*
X143250311Y-81244831D01*
X143548580Y-81056325D01*
X143869963Y-80892448D01*
X144636514Y-80579182D01*
X145553123Y-80307285D01*
X146625999Y-80075039D01*
X147147697Y-79985205D01*
X147686741Y-79919628D01*
X148357179Y-79870815D01*
X149121902Y-79838796D01*
X149943799Y-79823595D01*
X150785761Y-79825241D01*
G37*
X150374030Y-110775765D02*
X150605676Y-110866815D01*
X150906548Y-111020005D01*
X151178363Y-111181558D01*
X151573287Y-111395536D01*
X151996269Y-111562115D01*
X152185363Y-111613678D01*
X152568263Y-111715253D01*
X152980021Y-111850731D01*
X153177645Y-111927080D01*
X153476337Y-112034941D01*
X153773694Y-112097514D01*
X154133902Y-112125171D01*
X154429198Y-112129340D01*
X154924624Y-112113446D01*
X155299430Y-112054822D01*
X155600272Y-111937053D01*
X155873808Y-111743723D01*
X156080030Y-111548532D01*
X156296989Y-111345449D01*
X156476236Y-111241583D01*
X156686484Y-111204440D01*
X156815351Y-111200791D01*
X157324757Y-111256057D01*
X157726193Y-111433014D01*
X157868280Y-111546816D01*
X158047863Y-111715012D01*
X158441047Y-111449656D01*
X159113223Y-111093363D01*
X159830794Y-110898132D01*
X160340058Y-110859340D01*
X160879078Y-110912326D01*
X161378076Y-111080622D01*
X161864126Y-111378233D01*
X162364303Y-111819164D01*
X162532219Y-111993305D01*
X163108296Y-112610162D01*
X163658163Y-112450578D01*
X164010840Y-112369038D01*
X164449558Y-112296864D01*
X164891067Y-112247273D01*
X164979658Y-112240749D01*
X165407476Y-112222116D01*
X165739092Y-112235805D01*
X166045699Y-112288594D01*
X166344488Y-112370683D01*
X167030714Y-112655292D01*
X167715962Y-113084568D01*
X168366211Y-113637099D01*
X168383236Y-113653794D01*
X168817988Y-114081742D01*
X169257144Y-113859205D01*
X169540266Y-113736010D01*
X169922501Y-113596492D01*
X170338314Y-113463889D01*
X170508165Y-113415586D01*
X170798074Y-113339742D01*
X171054002Y-113283487D01*
X171309299Y-113243932D01*
X171597314Y-113218189D01*
X171951398Y-113203369D01*
X172404900Y-113196584D01*
X172991171Y-113194947D01*
X173055697Y-113194954D01*
X173693149Y-113197825D01*
X174197013Y-113207768D01*
X174602970Y-113227334D01*
X174946704Y-113259075D01*
X175263899Y-113305541D01*
X175590238Y-113369284D01*
X175638030Y-113379589D01*
X176536659Y-113604382D01*
X177400974Y-113876652D01*
X178205340Y-114185315D01*
X178924126Y-114519291D01*
X179531698Y-114867499D01*
X180002424Y-115218857D01*
X180097158Y-115307308D01*
X180362911Y-115606275D01*
X180522968Y-115893360D01*
X180595832Y-116128689D01*
X180642468Y-116465950D01*
X180657218Y-116910091D01*
X180642464Y-117402163D01*
X180600586Y-117883215D01*
X180533967Y-118294299D01*
X180503361Y-118417438D01*
X180318691Y-118789414D01*
X180011263Y-119115416D01*
X179627651Y-119350413D01*
X179484302Y-119402740D01*
X179191795Y-119457157D01*
X178753444Y-119493102D01*
X178191717Y-119510685D01*
X177529081Y-119510015D01*
X176788002Y-119491201D01*
X175990948Y-119454354D01*
X175160385Y-119399581D01*
X174918363Y-119380515D01*
X174290586Y-119330096D01*
X173611321Y-119277034D01*
X172940413Y-119225908D01*
X172337704Y-119181298D01*
X171997363Y-119157022D01*
X170678381Y-119034291D01*
X169250947Y-118845459D01*
X167759098Y-118598046D01*
X166246873Y-118299572D01*
X164758311Y-117957560D01*
X164309329Y-117844073D01*
X163216913Y-117587035D01*
X162228079Y-117410714D01*
X161301045Y-117308976D01*
X160440363Y-117275821D01*
X159975237Y-117279328D01*
X159622457Y-117300036D01*
X159325309Y-117345572D01*
X159027075Y-117423563D01*
X158803940Y-117495896D01*
X158168552Y-117751634D01*
X157617762Y-118070631D01*
X157098850Y-118487628D01*
X156704857Y-118879221D01*
X156140967Y-119526562D01*
X155690947Y-120161858D01*
X155317450Y-120845088D01*
X154983132Y-121636229D01*
X154975275Y-121657054D01*
X154879037Y-121937625D01*
X154798642Y-122235548D01*
X154731991Y-122570878D01*
X154676989Y-122963671D01*
X154631536Y-123433983D01*
X154593538Y-124001869D01*
X154560896Y-124687386D01*
X154531513Y-125510589D01*
X154515196Y-126057006D01*
X154470022Y-127414521D01*
X154415701Y-128623947D01*
X154352551Y-129679883D01*
X154280890Y-130576925D01*
X154209519Y-131242840D01*
X154164654Y-131602673D01*
X152836342Y-131588647D01*
X152454243Y-131583646D01*
X151929909Y-131575352D01*
X151290400Y-131564267D01*
X150562770Y-131550890D01*
X149774079Y-131535723D01*
X148951383Y-131519267D01*
X148121738Y-131502021D01*
X147909697Y-131497500D01*
X147144733Y-131479739D01*
X146432335Y-131460564D01*
X145790298Y-131440649D01*
X145236417Y-131420666D01*
X144788486Y-131401288D01*
X144464300Y-131383187D01*
X144281655Y-131367037D01*
X144247827Y-131359090D01*
X144210318Y-131240390D01*
X144176586Y-130974869D01*
X144147278Y-130585012D01*
X144123043Y-130093303D01*
X144104528Y-129522227D01*
X144092383Y-128894268D01*
X144087254Y-128231910D01*
X144089791Y-127557636D01*
X144100641Y-126893933D01*
X144109639Y-126565006D01*
X144133714Y-125381140D01*
X144124826Y-124345468D01*
X144080914Y-123439693D01*
X143999917Y-122645518D01*
X143879773Y-121944647D01*
X143718423Y-121318785D01*
X143513803Y-120749633D01*
X143433772Y-120565264D01*
X142990001Y-119742244D01*
X142441964Y-118981763D01*
X141815103Y-118311591D01*
X141134862Y-117759497D01*
X140539992Y-117406896D01*
X139772015Y-117096884D01*
X138925977Y-116873764D01*
X138049791Y-116744003D01*
X137191375Y-116714065D01*
X136398642Y-116790415D01*
X136225697Y-116824782D01*
X134898192Y-117110375D01*
X133640218Y-117361946D01*
X132426818Y-117582575D01*
X131233037Y-117775344D01*
X130033921Y-117943333D01*
X128804514Y-118089622D01*
X127519861Y-118217292D01*
X126155007Y-118329424D01*
X124684997Y-118429099D01*
X123084876Y-118519397D01*
X122106321Y-118567790D01*
X121479744Y-118597044D01*
X120998962Y-118617244D01*
X120640629Y-118627443D01*
X120381402Y-118626694D01*
X120197935Y-118614051D01*
X120066884Y-118588567D01*
X119964905Y-118549294D01*
X119868653Y-118495286D01*
X119836855Y-118475729D01*
X119617467Y-118299549D01*
X119376773Y-118040924D01*
X119132930Y-117728934D01*
X118904095Y-117392661D01*
X118708423Y-117061185D01*
X118564073Y-116763585D01*
X118489201Y-116528943D01*
X118501963Y-116386338D01*
X118521110Y-116368391D01*
X118625942Y-116338662D01*
X118873322Y-116284049D01*
X119239053Y-116209150D01*
X119698937Y-116118566D01*
X120228777Y-116016895D01*
X120804374Y-115908736D01*
X121401530Y-115798689D01*
X121996047Y-115691354D01*
X122563728Y-115591328D01*
X123019732Y-115513363D01*
X123331147Y-115451940D01*
X123529131Y-115378348D01*
X123668778Y-115263930D01*
X123779283Y-115118257D01*
X124048222Y-114810172D01*
X124416747Y-114496611D01*
X124823273Y-114224030D01*
X125206214Y-114038885D01*
X125213720Y-114036213D01*
X125782523Y-113917449D01*
X126426462Y-113938334D01*
X127153973Y-114099363D01*
X127350145Y-114161659D01*
X127710816Y-114286866D01*
X128033091Y-114406529D01*
X128266831Y-114501719D01*
X128329657Y-114531468D01*
X128445490Y-114580618D01*
X128558696Y-114583449D01*
X128706982Y-114526924D01*
X128928059Y-114398009D01*
X129174172Y-114239545D01*
X129730041Y-113902712D01*
X130210634Y-113675845D01*
X130656624Y-113545507D01*
X131108687Y-113498255D01*
X131399697Y-113504192D01*
X131997569Y-113592898D01*
X132542604Y-113797962D01*
X133083299Y-114139022D01*
X133210505Y-114237459D01*
X133403656Y-114388237D01*
X133533225Y-114483185D01*
X133562256Y-114500006D01*
X133612016Y-114432515D01*
X133719593Y-114256366D01*
X133848510Y-114032855D01*
X134263269Y-113415298D01*
X134723489Y-112955373D01*
X135153770Y-112683863D01*
X135722513Y-112481026D01*
X136388482Y-112366295D01*
X137100474Y-112346276D01*
X137508843Y-112379973D01*
X138177281Y-112463788D01*
X138472911Y-112136562D01*
X138940027Y-111708783D01*
X139488952Y-111348538D01*
X140054611Y-111097190D01*
X140158275Y-111065252D01*
X140641977Y-110969287D01*
X141139057Y-110961382D01*
X141682732Y-111045731D01*
X142306214Y-111226530D01*
X142759833Y-111393762D01*
X143295203Y-111601628D01*
X143704623Y-111753650D01*
X144018752Y-111858385D01*
X144268250Y-111924390D01*
X144483774Y-111960225D01*
X144695985Y-111974445D01*
X144846289Y-111976152D01*
X145274493Y-111940431D01*
X145801659Y-111843728D01*
X146374881Y-111699965D01*
X146941252Y-111523063D01*
X147447868Y-111326943D01*
X147623811Y-111245305D01*
X148392940Y-110925157D01*
X149123943Y-110739462D01*
X149799194Y-110691230D01*
X150374030Y-110775765D01*
G36*
X150374030Y-110775765D02*
G01*
X150605676Y-110866815D01*
X150906548Y-111020005D01*
X151178363Y-111181558D01*
X151573287Y-111395536D01*
X151996269Y-111562115D01*
X152185363Y-111613678D01*
X152568263Y-111715253D01*
X152980021Y-111850731D01*
X153177645Y-111927080D01*
X153476337Y-112034941D01*
X153773694Y-112097514D01*
X154133902Y-112125171D01*
X154429198Y-112129340D01*
X154924624Y-112113446D01*
X155299430Y-112054822D01*
X155600272Y-111937053D01*
X155873808Y-111743723D01*
X156080030Y-111548532D01*
X156296989Y-111345449D01*
X156476236Y-111241583D01*
X156686484Y-111204440D01*
X156815351Y-111200791D01*
X157324757Y-111256057D01*
X157726193Y-111433014D01*
X157868280Y-111546816D01*
X158047863Y-111715012D01*
X158441047Y-111449656D01*
X159113223Y-111093363D01*
X159830794Y-110898132D01*
X160340058Y-110859340D01*
X160879078Y-110912326D01*
X161378076Y-111080622D01*
X161864126Y-111378233D01*
X162364303Y-111819164D01*
X162532219Y-111993305D01*
X163108296Y-112610162D01*
X163658163Y-112450578D01*
X164010840Y-112369038D01*
X164449558Y-112296864D01*
X164891067Y-112247273D01*
X164979658Y-112240749D01*
X165407476Y-112222116D01*
X165739092Y-112235805D01*
X166045699Y-112288594D01*
X166344488Y-112370683D01*
X167030714Y-112655292D01*
X167715962Y-113084568D01*
X168366211Y-113637099D01*
X168383236Y-113653794D01*
X168817988Y-114081742D01*
X169257144Y-113859205D01*
X169540266Y-113736010D01*
X169922501Y-113596492D01*
X170338314Y-113463889D01*
X170508165Y-113415586D01*
X170798074Y-113339742D01*
X171054002Y-113283487D01*
X171309299Y-113243932D01*
X171597314Y-113218189D01*
X171951398Y-113203369D01*
X172404900Y-113196584D01*
X172991171Y-113194947D01*
X173055697Y-113194954D01*
X173693149Y-113197825D01*
X174197013Y-113207768D01*
X174602970Y-113227334D01*
X174946704Y-113259075D01*
X175263899Y-113305541D01*
X175590238Y-113369284D01*
X175638030Y-113379589D01*
X176536659Y-113604382D01*
X177400974Y-113876652D01*
X178205340Y-114185315D01*
X178924126Y-114519291D01*
X179531698Y-114867499D01*
X180002424Y-115218857D01*
X180097158Y-115307308D01*
X180362911Y-115606275D01*
X180522968Y-115893360D01*
X180595832Y-116128689D01*
X180642468Y-116465950D01*
X180657218Y-116910091D01*
X180642464Y-117402163D01*
X180600586Y-117883215D01*
X180533967Y-118294299D01*
X180503361Y-118417438D01*
X180318691Y-118789414D01*
X180011263Y-119115416D01*
X179627651Y-119350413D01*
X179484302Y-119402740D01*
X179191795Y-119457157D01*
X178753444Y-119493102D01*
X178191717Y-119510685D01*
X177529081Y-119510015D01*
X176788002Y-119491201D01*
X175990948Y-119454354D01*
X175160385Y-119399581D01*
X174918363Y-119380515D01*
X174290586Y-119330096D01*
X173611321Y-119277034D01*
X172940413Y-119225908D01*
X172337704Y-119181298D01*
X171997363Y-119157022D01*
X170678381Y-119034291D01*
X169250947Y-118845459D01*
X167759098Y-118598046D01*
X166246873Y-118299572D01*
X164758311Y-117957560D01*
X164309329Y-117844073D01*
X163216913Y-117587035D01*
X162228079Y-117410714D01*
X161301045Y-117308976D01*
X160440363Y-117275821D01*
X159975237Y-117279328D01*
X159622457Y-117300036D01*
X159325309Y-117345572D01*
X159027075Y-117423563D01*
X158803940Y-117495896D01*
X158168552Y-117751634D01*
X157617762Y-118070631D01*
X157098850Y-118487628D01*
X156704857Y-118879221D01*
X156140967Y-119526562D01*
X155690947Y-120161858D01*
X155317450Y-120845088D01*
X154983132Y-121636229D01*
X154975275Y-121657054D01*
X154879037Y-121937625D01*
X154798642Y-122235548D01*
X154731991Y-122570878D01*
X154676989Y-122963671D01*
X154631536Y-123433983D01*
X154593538Y-124001869D01*
X154560896Y-124687386D01*
X154531513Y-125510589D01*
X154515196Y-126057006D01*
X154470022Y-127414521D01*
X154415701Y-128623947D01*
X154352551Y-129679883D01*
X154280890Y-130576925D01*
X154209519Y-131242840D01*
X154164654Y-131602673D01*
X152836342Y-131588647D01*
X152454243Y-131583646D01*
X151929909Y-131575352D01*
X151290400Y-131564267D01*
X150562770Y-131550890D01*
X149774079Y-131535723D01*
X148951383Y-131519267D01*
X148121738Y-131502021D01*
X147909697Y-131497500D01*
X147144733Y-131479739D01*
X146432335Y-131460564D01*
X145790298Y-131440649D01*
X145236417Y-131420666D01*
X144788486Y-131401288D01*
X144464300Y-131383187D01*
X144281655Y-131367037D01*
X144247827Y-131359090D01*
X144210318Y-131240390D01*
X144176586Y-130974869D01*
X144147278Y-130585012D01*
X144123043Y-130093303D01*
X144104528Y-129522227D01*
X144092383Y-128894268D01*
X144087254Y-128231910D01*
X144089791Y-127557636D01*
X144100641Y-126893933D01*
X144109639Y-126565006D01*
X144133714Y-125381140D01*
X144124826Y-124345468D01*
X144080914Y-123439693D01*
X143999917Y-122645518D01*
X143879773Y-121944647D01*
X143718423Y-121318785D01*
X143513803Y-120749633D01*
X143433772Y-120565264D01*
X142990001Y-119742244D01*
X142441964Y-118981763D01*
X141815103Y-118311591D01*
X141134862Y-117759497D01*
X140539992Y-117406896D01*
X139772015Y-117096884D01*
X138925977Y-116873764D01*
X138049791Y-116744003D01*
X137191375Y-116714065D01*
X136398642Y-116790415D01*
X136225697Y-116824782D01*
X134898192Y-117110375D01*
X133640218Y-117361946D01*
X132426818Y-117582575D01*
X131233037Y-117775344D01*
X130033921Y-117943333D01*
X128804514Y-118089622D01*
X127519861Y-118217292D01*
X126155007Y-118329424D01*
X124684997Y-118429099D01*
X123084876Y-118519397D01*
X122106321Y-118567790D01*
X121479744Y-118597044D01*
X120998962Y-118617244D01*
X120640629Y-118627443D01*
X120381402Y-118626694D01*
X120197935Y-118614051D01*
X120066884Y-118588567D01*
X119964905Y-118549294D01*
X119868653Y-118495286D01*
X119836855Y-118475729D01*
X119617467Y-118299549D01*
X119376773Y-118040924D01*
X119132930Y-117728934D01*
X118904095Y-117392661D01*
X118708423Y-117061185D01*
X118564073Y-116763585D01*
X118489201Y-116528943D01*
X118501963Y-116386338D01*
X118521110Y-116368391D01*
X118625942Y-116338662D01*
X118873322Y-116284049D01*
X119239053Y-116209150D01*
X119698937Y-116118566D01*
X120228777Y-116016895D01*
X120804374Y-115908736D01*
X121401530Y-115798689D01*
X121996047Y-115691354D01*
X122563728Y-115591328D01*
X123019732Y-115513363D01*
X123331147Y-115451940D01*
X123529131Y-115378348D01*
X123668778Y-115263930D01*
X123779283Y-115118257D01*
X124048222Y-114810172D01*
X124416747Y-114496611D01*
X124823273Y-114224030D01*
X125206214Y-114038885D01*
X125213720Y-114036213D01*
X125782523Y-113917449D01*
X126426462Y-113938334D01*
X127153973Y-114099363D01*
X127350145Y-114161659D01*
X127710816Y-114286866D01*
X128033091Y-114406529D01*
X128266831Y-114501719D01*
X128329657Y-114531468D01*
X128445490Y-114580618D01*
X128558696Y-114583449D01*
X128706982Y-114526924D01*
X128928059Y-114398009D01*
X129174172Y-114239545D01*
X129730041Y-113902712D01*
X130210634Y-113675845D01*
X130656624Y-113545507D01*
X131108687Y-113498255D01*
X131399697Y-113504192D01*
X131997569Y-113592898D01*
X132542604Y-113797962D01*
X133083299Y-114139022D01*
X133210505Y-114237459D01*
X133403656Y-114388237D01*
X133533225Y-114483185D01*
X133562256Y-114500006D01*
X133612016Y-114432515D01*
X133719593Y-114256366D01*
X133848510Y-114032855D01*
X134263269Y-113415298D01*
X134723489Y-112955373D01*
X135153770Y-112683863D01*
X135722513Y-112481026D01*
X136388482Y-112366295D01*
X137100474Y-112346276D01*
X137508843Y-112379973D01*
X138177281Y-112463788D01*
X138472911Y-112136562D01*
X138940027Y-111708783D01*
X139488952Y-111348538D01*
X140054611Y-111097190D01*
X140158275Y-111065252D01*
X140641977Y-110969287D01*
X141139057Y-110961382D01*
X141682732Y-111045731D01*
X142306214Y-111226530D01*
X142759833Y-111393762D01*
X143295203Y-111601628D01*
X143704623Y-111753650D01*
X144018752Y-111858385D01*
X144268250Y-111924390D01*
X144483774Y-111960225D01*
X144695985Y-111974445D01*
X144846289Y-111976152D01*
X145274493Y-111940431D01*
X145801659Y-111843728D01*
X146374881Y-111699965D01*
X146941252Y-111523063D01*
X147447868Y-111326943D01*
X147623811Y-111245305D01*
X148392940Y-110925157D01*
X149123943Y-110739462D01*
X149799194Y-110691230D01*
X150374030Y-110775765D01*
G37*
X151120029Y-42826298D02*
X151860744Y-42971438D01*
X152578566Y-43247584D01*
X153306876Y-43665870D01*
X153662489Y-43914873D01*
X153893756Y-44104076D01*
X154222240Y-44399470D01*
X154629998Y-44783104D01*
X155099083Y-45237028D01*
X155611553Y-45743291D01*
X156149460Y-46283940D01*
X156694862Y-46841026D01*
X157229812Y-47396597D01*
X157736367Y-47932701D01*
X158196582Y-48431389D01*
X158375300Y-48629340D01*
X159678957Y-50106175D01*
X160996671Y-51640137D01*
X162313082Y-53211762D01*
X163612829Y-54801583D01*
X164880552Y-56390134D01*
X166100892Y-57957949D01*
X167258488Y-59485562D01*
X168337980Y-60953508D01*
X169324008Y-62342321D01*
X170133585Y-63530673D01*
X170593790Y-64237517D01*
X170954251Y-64830723D01*
X171221383Y-65328575D01*
X171401600Y-65749359D01*
X171501319Y-66111360D01*
X171526954Y-66432864D01*
X171484920Y-66732157D01*
X171381633Y-67027523D01*
X171369719Y-67054168D01*
X171205851Y-67340599D01*
X170984926Y-67579637D01*
X170685265Y-67782721D01*
X170285188Y-67961292D01*
X169763015Y-68126788D01*
X169097067Y-68290649D01*
X168975368Y-68317557D01*
X168538934Y-68421333D01*
X168129595Y-68533742D01*
X167794376Y-68640957D01*
X167586128Y-68726066D01*
X167238894Y-68907006D01*
X169472546Y-71785673D01*
X170524068Y-73150928D01*
X171474691Y-74408573D01*
X172336295Y-75577308D01*
X173120763Y-76675833D01*
X173839975Y-77722850D01*
X174505813Y-78737058D01*
X175130159Y-79737156D01*
X175724893Y-80741847D01*
X176301896Y-81769829D01*
X176873051Y-82839803D01*
X177450239Y-83970469D01*
X178045341Y-85180528D01*
X178240908Y-85586340D01*
X178884658Y-86938977D01*
X179455632Y-88163444D01*
X179962492Y-89280034D01*
X180413902Y-90309041D01*
X180818525Y-91270758D01*
X181185022Y-92185478D01*
X181522059Y-93073494D01*
X181838297Y-93955101D01*
X181943763Y-94260331D01*
X182123873Y-94825315D01*
X182230876Y-95278676D01*
X182266180Y-95660849D01*
X182231194Y-96012269D01*
X182127325Y-96373368D01*
X182026170Y-96626320D01*
X181721167Y-97121496D01*
X181260641Y-97552108D01*
X180645834Y-97917610D01*
X179877990Y-98217457D01*
X178958353Y-98451101D01*
X177888164Y-98617995D01*
X177378821Y-98669377D01*
X176756382Y-98723404D01*
X176282476Y-98766343D01*
X175936889Y-98801235D01*
X175699412Y-98831121D01*
X175549832Y-98859044D01*
X175467939Y-98888045D01*
X175433522Y-98921165D01*
X175426368Y-98961446D01*
X175426363Y-98963196D01*
X175482919Y-99054695D01*
X175641411Y-99248152D01*
X175885079Y-99524757D01*
X176197163Y-99865701D01*
X176560899Y-100252174D01*
X176760114Y-100459937D01*
X178173623Y-101962824D01*
X179458447Y-103411670D01*
X180634835Y-104833013D01*
X181723034Y-106253393D01*
X182743289Y-107699349D01*
X183715850Y-109197419D01*
X184660963Y-110774143D01*
X184758667Y-110944006D01*
X185298339Y-111912247D01*
X185826137Y-112909868D01*
X186335342Y-113920879D01*
X186819235Y-114929288D01*
X187271099Y-115919106D01*
X187684215Y-116874342D01*
X188051866Y-117779004D01*
X188367333Y-118617103D01*
X188623898Y-119372647D01*
X188814844Y-120029645D01*
X188933451Y-120572108D01*
X188973030Y-120975164D01*
X188891213Y-121682359D01*
X188657074Y-122367263D01*
X188287577Y-123003657D01*
X187799686Y-123565323D01*
X187210367Y-124026044D01*
X186878047Y-124212796D01*
X186630016Y-124332474D01*
X186423340Y-124418311D01*
X186219977Y-124477720D01*
X185981887Y-124518114D01*
X185671029Y-124546904D01*
X185249363Y-124571505D01*
X184965382Y-124585503D01*
X184446517Y-124604871D01*
X183772032Y-124620822D01*
X182955607Y-124633371D01*
X182010919Y-124642530D01*
X180951647Y-124648315D01*
X179791471Y-124650738D01*
X178544068Y-124649814D01*
X177223118Y-124645557D01*
X175842300Y-124637980D01*
X174415292Y-124627097D01*
X172955772Y-124612922D01*
X171477421Y-124595470D01*
X169993915Y-124574754D01*
X169683688Y-124570000D01*
X163900408Y-124479994D01*
X163343573Y-124740569D01*
X162671827Y-125107244D01*
X162036750Y-125551675D01*
X161494396Y-126033026D01*
X161337200Y-126202266D01*
X161074776Y-126522730D01*
X160847771Y-126851568D01*
X160651742Y-127205732D01*
X160482243Y-127602176D01*
X160334831Y-128057854D01*
X160205062Y-128589717D01*
X160088490Y-129214721D01*
X159980672Y-129949817D01*
X159877164Y-130811959D01*
X159773520Y-131818100D01*
X159721723Y-132364673D01*
X159585450Y-133822994D01*
X159461731Y-135121665D01*
X159349477Y-136269815D01*
X159247596Y-137276577D01*
X159154998Y-138151081D01*
X159070594Y-138902459D01*
X158993294Y-139539843D01*
X158922006Y-140072363D01*
X158855640Y-140509151D01*
X158793107Y-140859339D01*
X158733316Y-141132057D01*
X158675177Y-141336437D01*
X158638846Y-141434365D01*
X158373554Y-141879098D01*
X157990526Y-142271638D01*
X157579142Y-142540088D01*
X157470213Y-142591842D01*
X157362889Y-142633626D01*
X157238542Y-142666546D01*
X157078544Y-142691702D01*
X156864266Y-142710200D01*
X156577082Y-142723141D01*
X156198362Y-142731629D01*
X155709480Y-142736768D01*
X155091807Y-142739659D01*
X154326715Y-142741407D01*
X154175030Y-142741680D01*
X153395756Y-142742249D01*
X152598801Y-142741353D01*
X151817965Y-142739133D01*
X151087051Y-142735732D01*
X150439861Y-142731293D01*
X149910197Y-142725957D01*
X149687697Y-142722798D01*
X148881149Y-142707120D01*
X147998787Y-142685587D01*
X147068326Y-142659207D01*
X146117480Y-142628991D01*
X145173963Y-142595947D01*
X144265491Y-142561085D01*
X143419777Y-142525412D01*
X142664536Y-142489939D01*
X142027482Y-142455674D01*
X141602030Y-142428424D01*
X140985212Y-142377336D01*
X140507693Y-142318002D01*
X140139440Y-142242184D01*
X139850419Y-142141645D01*
X139610595Y-142008149D01*
X139389935Y-141833457D01*
X139371290Y-141816618D01*
X139244596Y-141686505D01*
X139131011Y-141532223D01*
X139028731Y-141342255D01*
X138935952Y-141105087D01*
X138850869Y-140809203D01*
X138771677Y-140443088D01*
X138696573Y-139995226D01*
X138623750Y-139454103D01*
X138551406Y-138808202D01*
X138477734Y-138046010D01*
X138400932Y-137156009D01*
X138319193Y-136126685D01*
X138230714Y-134946523D01*
X138175354Y-134185006D01*
X138081716Y-132908487D01*
X137996143Y-131791344D01*
X137917689Y-130823860D01*
X137845406Y-129996318D01*
X137778347Y-129299002D01*
X137715566Y-128722193D01*
X137656115Y-128256174D01*
X137599047Y-127891230D01*
X137543415Y-127617642D01*
X137530073Y-127564114D01*
X137291688Y-126906136D01*
X136930218Y-126238827D01*
X136476604Y-125604104D01*
X135961790Y-125043883D01*
X135416718Y-124600083D01*
X135275466Y-124509899D01*
X134937075Y-124342219D01*
X134512332Y-124196770D01*
X133992547Y-124072828D01*
X133369032Y-123969665D01*
X132633099Y-123886558D01*
X131776060Y-123822780D01*
X130789225Y-123777606D01*
X129663906Y-123750309D01*
X128391414Y-123740165D01*
X126963062Y-123746448D01*
X126235030Y-123754874D01*
X124228287Y-123772730D01*
X122382227Y-123769166D01*
X120689489Y-123743610D01*
X119142710Y-123695488D01*
X117734530Y-123624225D01*
X116457586Y-123529249D01*
X115304516Y-123409986D01*
X114267958Y-123265861D01*
X113340551Y-123096302D01*
X112514933Y-122900735D01*
X111783741Y-122678585D01*
X111603694Y-122614757D01*
X111055957Y-122329033D01*
X110615551Y-121916376D01*
X110287723Y-121384954D01*
X110077719Y-120742936D01*
X109995478Y-120110926D01*
X109984970Y-119720137D01*
X110008573Y-119395199D01*
X110076481Y-119060217D01*
X110113063Y-118933662D01*
X114551030Y-118933662D01*
X114571871Y-118948371D01*
X114647386Y-118965791D01*
X114797060Y-118988364D01*
X115040380Y-119018534D01*
X115396833Y-119058742D01*
X115885904Y-119111432D01*
X116413697Y-119167148D01*
X116682117Y-119186452D01*
X117102143Y-119204913D01*
X117656046Y-119222175D01*
X118326098Y-119237881D01*
X119094572Y-119251674D01*
X119943739Y-119263200D01*
X120855873Y-119272100D01*
X121813244Y-119278020D01*
X121959363Y-119278628D01*
X123469435Y-119289091D01*
X124943525Y-119308262D01*
X126368576Y-119335599D01*
X127731532Y-119370561D01*
X129019337Y-119412608D01*
X130218935Y-119461200D01*
X131317268Y-119515795D01*
X132301282Y-119575853D01*
X133157918Y-119640834D01*
X133874122Y-119710197D01*
X134436836Y-119783401D01*
X134534825Y-119799303D01*
X135490371Y-120003218D01*
X136381806Y-120275862D01*
X137174279Y-120604916D01*
X137790790Y-120950026D01*
X138664498Y-121618009D01*
X139473492Y-122425315D01*
X140196635Y-123347640D01*
X140812792Y-124360676D01*
X140895310Y-124520195D01*
X141208896Y-125217226D01*
X141491081Y-125991721D01*
X141729957Y-126798904D01*
X141913616Y-127593997D01*
X142030151Y-128332223D01*
X142067852Y-128929426D01*
X142074368Y-129114309D01*
X142092780Y-129446343D01*
X142121493Y-129903883D01*
X142158917Y-130465285D01*
X142203458Y-131108905D01*
X142253524Y-131813098D01*
X142307523Y-132556221D01*
X142363861Y-133316627D01*
X142420946Y-134072674D01*
X142477186Y-134802716D01*
X142530988Y-135485109D01*
X142580760Y-136098209D01*
X142624909Y-136620371D01*
X142661842Y-137029951D01*
X142670419Y-137118929D01*
X142767358Y-138105519D01*
X143962694Y-138164929D01*
X144616541Y-138194445D01*
X145350010Y-138222345D01*
X146147066Y-138248414D01*
X146991678Y-138272439D01*
X147867812Y-138294205D01*
X148759435Y-138313500D01*
X149650514Y-138330108D01*
X150525016Y-138343816D01*
X151366908Y-138354410D01*
X152160157Y-138361677D01*
X152888729Y-138365401D01*
X153536593Y-138365370D01*
X154087714Y-138361369D01*
X154526060Y-138353184D01*
X154835597Y-138340602D01*
X155000293Y-138323409D01*
X155023374Y-138312506D01*
X155035575Y-138201631D01*
X155065835Y-137973808D01*
X155105098Y-137695854D01*
X155133410Y-137466623D01*
X155173269Y-137096393D01*
X155221955Y-136612896D01*
X155276748Y-136043866D01*
X155334926Y-135417035D01*
X155393771Y-134760134D01*
X155399909Y-134690187D01*
X155507215Y-133486115D01*
X155605678Y-132432419D01*
X155697816Y-131510524D01*
X155786145Y-130701856D01*
X155873183Y-129987838D01*
X155961448Y-129349895D01*
X156053457Y-128769452D01*
X156151727Y-128227934D01*
X156258775Y-127706766D01*
X156377119Y-127187371D01*
X156466127Y-126822521D01*
X156639004Y-126180178D01*
X156815899Y-125650212D01*
X157021047Y-125176880D01*
X157278686Y-124704438D01*
X157613050Y-124177141D01*
X157622300Y-124163228D01*
X158346897Y-123223694D01*
X159199863Y-122379271D01*
X160160570Y-121644609D01*
X161208391Y-121034359D01*
X162322697Y-120563171D01*
X162970298Y-120364915D01*
X163784697Y-120149210D01*
X167340697Y-120182108D01*
X168227216Y-120189437D01*
X169187390Y-120195792D01*
X170208534Y-120201187D01*
X171277968Y-120205640D01*
X172383009Y-120209166D01*
X173510974Y-120211782D01*
X174649180Y-120213502D01*
X175784947Y-120214344D01*
X176905591Y-120214324D01*
X177998429Y-120213456D01*
X179050780Y-120211758D01*
X180049962Y-120209245D01*
X180983291Y-120205933D01*
X181838086Y-120201839D01*
X182601664Y-120196978D01*
X183261343Y-120191366D01*
X183804440Y-120185019D01*
X184218273Y-120177954D01*
X184490160Y-120170186D01*
X184607419Y-120161731D01*
X184610978Y-120160321D01*
X184606150Y-120056644D01*
X184536010Y-119819733D01*
X184408978Y-119468790D01*
X184233474Y-119023018D01*
X184017920Y-118501619D01*
X183770736Y-117923798D01*
X183500343Y-117308755D01*
X183215162Y-116675695D01*
X182923613Y-116043820D01*
X182634116Y-115432332D01*
X182355094Y-114860436D01*
X182094965Y-114347332D01*
X181906082Y-113992006D01*
X180808104Y-112084833D01*
X179626121Y-110233756D01*
X178345265Y-108418945D01*
X176950670Y-106620571D01*
X175427468Y-104818803D01*
X173760791Y-102993811D01*
X173291892Y-102502435D01*
X172926301Y-102117783D01*
X172583564Y-101748262D01*
X172288759Y-101421584D01*
X172066967Y-101165460D01*
X171957482Y-101027956D01*
X171658206Y-100486387D01*
X171453758Y-99833058D01*
X171353770Y-99102546D01*
X171345209Y-98829512D01*
X171412802Y-97961191D01*
X171626007Y-97174619D01*
X171989144Y-96458216D01*
X172454015Y-95856989D01*
X172901334Y-95443896D01*
X173427069Y-95106405D01*
X174049328Y-94837769D01*
X174786215Y-94631241D01*
X175655837Y-94480076D01*
X176355225Y-94403413D01*
X176785862Y-94361800D01*
X177154508Y-94319670D01*
X177429042Y-94281188D01*
X177577340Y-94250519D01*
X177593003Y-94242922D01*
X177590553Y-94136217D01*
X177521759Y-93892805D01*
X177393554Y-93528632D01*
X177212876Y-93059646D01*
X176986659Y-92501795D01*
X176721839Y-91871026D01*
X176425351Y-91183286D01*
X176104132Y-90454524D01*
X175765116Y-89700687D01*
X175415238Y-88937723D01*
X175061436Y-88181578D01*
X174710643Y-87448201D01*
X174369795Y-86753539D01*
X174122882Y-86263673D01*
X173681943Y-85408606D01*
X173259146Y-84607837D01*
X172845642Y-83847956D01*
X172432581Y-83115549D01*
X172011112Y-82397207D01*
X171572386Y-81679517D01*
X171107554Y-80949068D01*
X170607765Y-80192449D01*
X170064171Y-79396248D01*
X169467921Y-78547053D01*
X168810165Y-77631454D01*
X168082055Y-76636038D01*
X167274739Y-75547395D01*
X166379369Y-74352112D01*
X165448777Y-73118339D01*
X164931692Y-72400076D01*
X164440794Y-71653192D01*
X164007732Y-70927996D01*
X163678253Y-70304006D01*
X163518069Y-69950979D01*
X163419768Y-69655677D01*
X163364871Y-69343685D01*
X163334895Y-68940587D01*
X163333718Y-68916698D01*
X163339090Y-68198897D01*
X163439629Y-67562570D01*
X163648342Y-66941123D01*
X163773716Y-66663696D01*
X164077403Y-66163668D01*
X164486840Y-65672021D01*
X164955364Y-65236553D01*
X165436313Y-64905064D01*
X165547434Y-64846765D01*
X165796157Y-64719298D01*
X165969907Y-64619216D01*
X166028363Y-64571647D01*
X165979054Y-64494572D01*
X165838866Y-64298139D01*
X165619405Y-63997787D01*
X165332278Y-63608954D01*
X164989092Y-63147080D01*
X164601454Y-62627603D01*
X164180971Y-62065964D01*
X163739249Y-61477599D01*
X163287896Y-60877949D01*
X162838517Y-60282453D01*
X162402721Y-59706549D01*
X161992113Y-59165677D01*
X161618302Y-58675275D01*
X161292892Y-58250783D01*
X161027493Y-57907639D01*
X160833709Y-57661282D01*
X160825844Y-57651452D01*
X160467448Y-57198713D01*
X160064582Y-56681350D01*
X159670526Y-56168186D01*
X159383855Y-55788785D01*
X158560537Y-54735419D01*
X157703106Y-53728232D01*
X156827261Y-52782026D01*
X155948700Y-51911603D01*
X155083119Y-51131764D01*
X154246218Y-50457311D01*
X153453692Y-49903047D01*
X152721240Y-49483772D01*
X152671041Y-49459091D01*
X152315080Y-49291586D01*
X152039591Y-49184007D01*
X151781915Y-49120955D01*
X151479389Y-49087031D01*
X151075867Y-49067085D01*
X150415962Y-49072441D01*
X149796390Y-49148618D01*
X149175198Y-49306182D01*
X148510432Y-49555696D01*
X147782697Y-49896374D01*
X146876016Y-50402584D01*
X145953540Y-51020062D01*
X145009260Y-51754659D01*
X144037165Y-52612225D01*
X143031245Y-53598610D01*
X141985491Y-54719663D01*
X140893892Y-55981236D01*
X139750439Y-57389178D01*
X138733780Y-58704673D01*
X138409522Y-59135777D01*
X138040363Y-59631577D01*
X137638441Y-60175319D01*
X137215895Y-60750254D01*
X136784864Y-61339630D01*
X136357487Y-61926694D01*
X135945901Y-62494697D01*
X135562246Y-63026886D01*
X135218661Y-63506509D01*
X134927284Y-63916817D01*
X134700253Y-64241056D01*
X134549708Y-64462476D01*
X134487914Y-64563991D01*
X134527584Y-64672482D01*
X134693858Y-64783561D01*
X134703290Y-64787807D01*
X135043953Y-64979297D01*
X135435790Y-65261653D01*
X135826297Y-65591861D01*
X136162968Y-65926906D01*
X136312780Y-66106367D01*
X136746419Y-66787377D01*
X137039651Y-67486833D01*
X137185693Y-68182400D01*
X137177762Y-68851741D01*
X137167474Y-68921113D01*
X137062264Y-69420739D01*
X136906062Y-69898390D01*
X136685551Y-70377064D01*
X136387413Y-70879763D01*
X135998330Y-71429486D01*
X135504986Y-72049234D01*
X135040363Y-72594743D01*
X134660196Y-73037871D01*
X134262617Y-73511920D01*
X133885037Y-73971601D01*
X133564868Y-74371623D01*
X133443667Y-74527702D01*
X132242500Y-76117550D01*
X131146272Y-77613481D01*
X130138728Y-79039841D01*
X129203615Y-80420974D01*
X128324677Y-81781227D01*
X127485662Y-83144945D01*
X126670313Y-84536473D01*
X126173372Y-85417006D01*
X125784968Y-86125622D01*
X125385370Y-86874905D01*
X124981567Y-87650123D01*
X124580549Y-88436537D01*
X124189304Y-89219414D01*
X123814822Y-89984017D01*
X123464093Y-90715612D01*
X123144104Y-91399461D01*
X122861847Y-92020831D01*
X122624309Y-92564986D01*
X122438480Y-93017189D01*
X122311350Y-93362706D01*
X122249907Y-93586801D01*
X122257415Y-93673068D01*
X122381730Y-93711235D01*
X122630415Y-93761405D01*
X122959735Y-93815244D01*
X123132142Y-93839745D01*
X124262421Y-94038999D01*
X125241546Y-94311542D01*
X126071869Y-94659181D01*
X126755739Y-95083719D01*
X127295510Y-95586964D01*
X127693532Y-96170719D01*
X127952155Y-96836792D01*
X128073732Y-97586986D01*
X128076829Y-97636620D01*
X128078876Y-98324682D01*
X127990452Y-98937284D01*
X127797477Y-99541576D01*
X127574549Y-100031963D01*
X127443553Y-100279713D01*
X127303805Y-100506389D01*
X127135159Y-100736324D01*
X126917467Y-100993851D01*
X126630582Y-101303303D01*
X126254358Y-101689013D01*
X125947776Y-101996723D01*
X124213999Y-103791212D01*
X122593436Y-105596613D01*
X121095609Y-107400921D01*
X119730040Y-109192133D01*
X118506250Y-110958243D01*
X117433762Y-112687249D01*
X117341716Y-112846313D01*
X117031189Y-113406593D01*
X116688521Y-114059437D01*
X116330314Y-114770181D01*
X115973168Y-115504158D01*
X115633683Y-116226703D01*
X115328461Y-116903148D01*
X115074102Y-117498829D01*
X114897810Y-117949765D01*
X114763359Y-118321405D01*
X114653195Y-118630675D01*
X114578644Y-118845442D01*
X114551031Y-118933576D01*
X114551030Y-118933662D01*
X110113063Y-118933662D01*
X110188818Y-118671593D01*
X110567909Y-117561271D01*
X111042260Y-116352014D01*
X111597464Y-115073906D01*
X112219111Y-113757032D01*
X112892791Y-112431478D01*
X113604096Y-111127328D01*
X114338617Y-109874667D01*
X114619826Y-109420006D01*
X115414113Y-108192698D01*
X116227580Y-107013335D01*
X117077768Y-105860154D01*
X117982220Y-104711393D01*
X118958478Y-103545289D01*
X120024083Y-102340080D01*
X121196579Y-101074003D01*
X122149578Y-100078705D01*
X122563380Y-99649491D01*
X122935357Y-99259184D01*
X123250000Y-98924425D01*
X123491794Y-98661855D01*
X123645229Y-98488117D01*
X123695030Y-98420730D01*
X123616566Y-98384271D01*
X123402920Y-98332060D01*
X123086714Y-98271065D01*
X122700569Y-98208255D01*
X122700197Y-98208199D01*
X121939536Y-98086616D01*
X121203232Y-97954329D01*
X120516382Y-97816868D01*
X119904087Y-97679761D01*
X119391444Y-97548539D01*
X119003553Y-97428731D01*
X118814716Y-97352205D01*
X118278528Y-97004122D01*
X117870066Y-96550145D01*
X117592630Y-95999238D01*
X117449522Y-95360367D01*
X117444046Y-94642498D01*
X117558378Y-93941118D01*
X117657333Y-93612354D01*
X117827726Y-93151120D01*
X118061505Y-92574464D01*
X118350616Y-91899430D01*
X118687008Y-91143065D01*
X119062628Y-90322416D01*
X119469422Y-89454529D01*
X119899339Y-88556451D01*
X120344325Y-87645226D01*
X120796328Y-86737902D01*
X121247296Y-85851525D01*
X121689175Y-85003142D01*
X122113913Y-84209798D01*
X122405094Y-83681340D01*
X123730738Y-81379257D01*
X125065875Y-79206701D01*
X126437157Y-77124739D01*
X127871242Y-75094437D01*
X129394782Y-73076859D01*
X131034434Y-71033074D01*
X131208510Y-70822498D01*
X131583524Y-70368813D01*
X131930479Y-69946766D01*
X132232023Y-69577649D01*
X132470804Y-69282753D01*
X132629469Y-69083366D01*
X132680316Y-69016608D01*
X132845194Y-68787542D01*
X132595413Y-68658375D01*
X132413055Y-68583993D01*
X132111532Y-68482028D01*
X131735697Y-68366980D01*
X131402559Y-68272784D01*
X130648903Y-68041789D01*
X130050433Y-67797000D01*
X129593055Y-67528822D01*
X129262673Y-67227660D01*
X129045192Y-66883919D01*
X128950318Y-66603497D01*
X128905823Y-66305905D01*
X128916776Y-65989008D01*
X128989604Y-65640280D01*
X129130736Y-65247196D01*
X129346599Y-64797229D01*
X129643620Y-64277853D01*
X130028227Y-63676544D01*
X130506848Y-62980774D01*
X131085909Y-62178019D01*
X131526360Y-61583340D01*
X132712323Y-60032408D01*
X134011766Y-58401724D01*
X135404042Y-56714897D01*
X136868506Y-54995539D01*
X138384511Y-53267261D01*
X139931412Y-51553674D01*
X141488563Y-49878389D01*
X143035319Y-48265018D01*
X144223046Y-47063006D01*
X144987974Y-46303971D01*
X145650150Y-45656814D01*
X146222897Y-45110121D01*
X146719534Y-44652476D01*
X147153381Y-44272464D01*
X147537759Y-43958670D01*
X147885988Y-43699678D01*
X148211388Y-43484073D01*
X148527280Y-43300440D01*
X148746509Y-43186484D01*
X149084650Y-43023342D01*
X149347874Y-42918013D01*
X149596121Y-42855844D01*
X149889334Y-42822178D01*
X150287453Y-42802360D01*
X150323039Y-42801029D01*
X151120029Y-42826298D01*
G36*
X151120029Y-42826298D02*
G01*
X151860744Y-42971438D01*
X152578566Y-43247584D01*
X153306876Y-43665870D01*
X153662489Y-43914873D01*
X153893756Y-44104076D01*
X154222240Y-44399470D01*
X154629998Y-44783104D01*
X155099083Y-45237028D01*
X155611553Y-45743291D01*
X156149460Y-46283940D01*
X156694862Y-46841026D01*
X157229812Y-47396597D01*
X157736367Y-47932701D01*
X158196582Y-48431389D01*
X158375300Y-48629340D01*
X159678957Y-50106175D01*
X160996671Y-51640137D01*
X162313082Y-53211762D01*
X163612829Y-54801583D01*
X164880552Y-56390134D01*
X166100892Y-57957949D01*
X167258488Y-59485562D01*
X168337980Y-60953508D01*
X169324008Y-62342321D01*
X170133585Y-63530673D01*
X170593790Y-64237517D01*
X170954251Y-64830723D01*
X171221383Y-65328575D01*
X171401600Y-65749359D01*
X171501319Y-66111360D01*
X171526954Y-66432864D01*
X171484920Y-66732157D01*
X171381633Y-67027523D01*
X171369719Y-67054168D01*
X171205851Y-67340599D01*
X170984926Y-67579637D01*
X170685265Y-67782721D01*
X170285188Y-67961292D01*
X169763015Y-68126788D01*
X169097067Y-68290649D01*
X168975368Y-68317557D01*
X168538934Y-68421333D01*
X168129595Y-68533742D01*
X167794376Y-68640957D01*
X167586128Y-68726066D01*
X167238894Y-68907006D01*
X169472546Y-71785673D01*
X170524068Y-73150928D01*
X171474691Y-74408573D01*
X172336295Y-75577308D01*
X173120763Y-76675833D01*
X173839975Y-77722850D01*
X174505813Y-78737058D01*
X175130159Y-79737156D01*
X175724893Y-80741847D01*
X176301896Y-81769829D01*
X176873051Y-82839803D01*
X177450239Y-83970469D01*
X178045341Y-85180528D01*
X178240908Y-85586340D01*
X178884658Y-86938977D01*
X179455632Y-88163444D01*
X179962492Y-89280034D01*
X180413902Y-90309041D01*
X180818525Y-91270758D01*
X181185022Y-92185478D01*
X181522059Y-93073494D01*
X181838297Y-93955101D01*
X181943763Y-94260331D01*
X182123873Y-94825315D01*
X182230876Y-95278676D01*
X182266180Y-95660849D01*
X182231194Y-96012269D01*
X182127325Y-96373368D01*
X182026170Y-96626320D01*
X181721167Y-97121496D01*
X181260641Y-97552108D01*
X180645834Y-97917610D01*
X179877990Y-98217457D01*
X178958353Y-98451101D01*
X177888164Y-98617995D01*
X177378821Y-98669377D01*
X176756382Y-98723404D01*
X176282476Y-98766343D01*
X175936889Y-98801235D01*
X175699412Y-98831121D01*
X175549832Y-98859044D01*
X175467939Y-98888045D01*
X175433522Y-98921165D01*
X175426368Y-98961446D01*
X175426363Y-98963196D01*
X175482919Y-99054695D01*
X175641411Y-99248152D01*
X175885079Y-99524757D01*
X176197163Y-99865701D01*
X176560899Y-100252174D01*
X176760114Y-100459937D01*
X178173623Y-101962824D01*
X179458447Y-103411670D01*
X180634835Y-104833013D01*
X181723034Y-106253393D01*
X182743289Y-107699349D01*
X183715850Y-109197419D01*
X184660963Y-110774143D01*
X184758667Y-110944006D01*
X185298339Y-111912247D01*
X185826137Y-112909868D01*
X186335342Y-113920879D01*
X186819235Y-114929288D01*
X187271099Y-115919106D01*
X187684215Y-116874342D01*
X188051866Y-117779004D01*
X188367333Y-118617103D01*
X188623898Y-119372647D01*
X188814844Y-120029645D01*
X188933451Y-120572108D01*
X188973030Y-120975164D01*
X188891213Y-121682359D01*
X188657074Y-122367263D01*
X188287577Y-123003657D01*
X187799686Y-123565323D01*
X187210367Y-124026044D01*
X186878047Y-124212796D01*
X186630016Y-124332474D01*
X186423340Y-124418311D01*
X186219977Y-124477720D01*
X185981887Y-124518114D01*
X185671029Y-124546904D01*
X185249363Y-124571505D01*
X184965382Y-124585503D01*
X184446517Y-124604871D01*
X183772032Y-124620822D01*
X182955607Y-124633371D01*
X182010919Y-124642530D01*
X180951647Y-124648315D01*
X179791471Y-124650738D01*
X178544068Y-124649814D01*
X177223118Y-124645557D01*
X175842300Y-124637980D01*
X174415292Y-124627097D01*
X172955772Y-124612922D01*
X171477421Y-124595470D01*
X169993915Y-124574754D01*
X169683688Y-124570000D01*
X163900408Y-124479994D01*
X163343573Y-124740569D01*
X162671827Y-125107244D01*
X162036750Y-125551675D01*
X161494396Y-126033026D01*
X161337200Y-126202266D01*
X161074776Y-126522730D01*
X160847771Y-126851568D01*
X160651742Y-127205732D01*
X160482243Y-127602176D01*
X160334831Y-128057854D01*
X160205062Y-128589717D01*
X160088490Y-129214721D01*
X159980672Y-129949817D01*
X159877164Y-130811959D01*
X159773520Y-131818100D01*
X159721723Y-132364673D01*
X159585450Y-133822994D01*
X159461731Y-135121665D01*
X159349477Y-136269815D01*
X159247596Y-137276577D01*
X159154998Y-138151081D01*
X159070594Y-138902459D01*
X158993294Y-139539843D01*
X158922006Y-140072363D01*
X158855640Y-140509151D01*
X158793107Y-140859339D01*
X158733316Y-141132057D01*
X158675177Y-141336437D01*
X158638846Y-141434365D01*
X158373554Y-141879098D01*
X157990526Y-142271638D01*
X157579142Y-142540088D01*
X157470213Y-142591842D01*
X157362889Y-142633626D01*
X157238542Y-142666546D01*
X157078544Y-142691702D01*
X156864266Y-142710200D01*
X156577082Y-142723141D01*
X156198362Y-142731629D01*
X155709480Y-142736768D01*
X155091807Y-142739659D01*
X154326715Y-142741407D01*
X154175030Y-142741680D01*
X153395756Y-142742249D01*
X152598801Y-142741353D01*
X151817965Y-142739133D01*
X151087051Y-142735732D01*
X150439861Y-142731293D01*
X149910197Y-142725957D01*
X149687697Y-142722798D01*
X148881149Y-142707120D01*
X147998787Y-142685587D01*
X147068326Y-142659207D01*
X146117480Y-142628991D01*
X145173963Y-142595947D01*
X144265491Y-142561085D01*
X143419777Y-142525412D01*
X142664536Y-142489939D01*
X142027482Y-142455674D01*
X141602030Y-142428424D01*
X140985212Y-142377336D01*
X140507693Y-142318002D01*
X140139440Y-142242184D01*
X139850419Y-142141645D01*
X139610595Y-142008149D01*
X139389935Y-141833457D01*
X139371290Y-141816618D01*
X139244596Y-141686505D01*
X139131011Y-141532223D01*
X139028731Y-141342255D01*
X138935952Y-141105087D01*
X138850869Y-140809203D01*
X138771677Y-140443088D01*
X138696573Y-139995226D01*
X138623750Y-139454103D01*
X138551406Y-138808202D01*
X138477734Y-138046010D01*
X138400932Y-137156009D01*
X138319193Y-136126685D01*
X138230714Y-134946523D01*
X138175354Y-134185006D01*
X138081716Y-132908487D01*
X137996143Y-131791344D01*
X137917689Y-130823860D01*
X137845406Y-129996318D01*
X137778347Y-129299002D01*
X137715566Y-128722193D01*
X137656115Y-128256174D01*
X137599047Y-127891230D01*
X137543415Y-127617642D01*
X137530073Y-127564114D01*
X137291688Y-126906136D01*
X136930218Y-126238827D01*
X136476604Y-125604104D01*
X135961790Y-125043883D01*
X135416718Y-124600083D01*
X135275466Y-124509899D01*
X134937075Y-124342219D01*
X134512332Y-124196770D01*
X133992547Y-124072828D01*
X133369032Y-123969665D01*
X132633099Y-123886558D01*
X131776060Y-123822780D01*
X130789225Y-123777606D01*
X129663906Y-123750309D01*
X128391414Y-123740165D01*
X126963062Y-123746448D01*
X126235030Y-123754874D01*
X124228287Y-123772730D01*
X122382227Y-123769166D01*
X120689489Y-123743610D01*
X119142710Y-123695488D01*
X117734530Y-123624225D01*
X116457586Y-123529249D01*
X115304516Y-123409986D01*
X114267958Y-123265861D01*
X113340551Y-123096302D01*
X112514933Y-122900735D01*
X111783741Y-122678585D01*
X111603694Y-122614757D01*
X111055957Y-122329033D01*
X110615551Y-121916376D01*
X110287723Y-121384954D01*
X110077719Y-120742936D01*
X109995478Y-120110926D01*
X109984970Y-119720137D01*
X110008573Y-119395199D01*
X110076481Y-119060217D01*
X110113063Y-118933662D01*
X114551030Y-118933662D01*
X114571871Y-118948371D01*
X114647386Y-118965791D01*
X114797060Y-118988364D01*
X115040380Y-119018534D01*
X115396833Y-119058742D01*
X115885904Y-119111432D01*
X116413697Y-119167148D01*
X116682117Y-119186452D01*
X117102143Y-119204913D01*
X117656046Y-119222175D01*
X118326098Y-119237881D01*
X119094572Y-119251674D01*
X119943739Y-119263200D01*
X120855873Y-119272100D01*
X121813244Y-119278020D01*
X121959363Y-119278628D01*
X123469435Y-119289091D01*
X124943525Y-119308262D01*
X126368576Y-119335599D01*
X127731532Y-119370561D01*
X129019337Y-119412608D01*
X130218935Y-119461200D01*
X131317268Y-119515795D01*
X132301282Y-119575853D01*
X133157918Y-119640834D01*
X133874122Y-119710197D01*
X134436836Y-119783401D01*
X134534825Y-119799303D01*
X135490371Y-120003218D01*
X136381806Y-120275862D01*
X137174279Y-120604916D01*
X137790790Y-120950026D01*
X138664498Y-121618009D01*
X139473492Y-122425315D01*
X140196635Y-123347640D01*
X140812792Y-124360676D01*
X140895310Y-124520195D01*
X141208896Y-125217226D01*
X141491081Y-125991721D01*
X141729957Y-126798904D01*
X141913616Y-127593997D01*
X142030151Y-128332223D01*
X142067852Y-128929426D01*
X142074368Y-129114309D01*
X142092780Y-129446343D01*
X142121493Y-129903883D01*
X142158917Y-130465285D01*
X142203458Y-131108905D01*
X142253524Y-131813098D01*
X142307523Y-132556221D01*
X142363861Y-133316627D01*
X142420946Y-134072674D01*
X142477186Y-134802716D01*
X142530988Y-135485109D01*
X142580760Y-136098209D01*
X142624909Y-136620371D01*
X142661842Y-137029951D01*
X142670419Y-137118929D01*
X142767358Y-138105519D01*
X143962694Y-138164929D01*
X144616541Y-138194445D01*
X145350010Y-138222345D01*
X146147066Y-138248414D01*
X146991678Y-138272439D01*
X147867812Y-138294205D01*
X148759435Y-138313500D01*
X149650514Y-138330108D01*
X150525016Y-138343816D01*
X151366908Y-138354410D01*
X152160157Y-138361677D01*
X152888729Y-138365401D01*
X153536593Y-138365370D01*
X154087714Y-138361369D01*
X154526060Y-138353184D01*
X154835597Y-138340602D01*
X155000293Y-138323409D01*
X155023374Y-138312506D01*
X155035575Y-138201631D01*
X155065835Y-137973808D01*
X155105098Y-137695854D01*
X155133410Y-137466623D01*
X155173269Y-137096393D01*
X155221955Y-136612896D01*
X155276748Y-136043866D01*
X155334926Y-135417035D01*
X155393771Y-134760134D01*
X155399909Y-134690187D01*
X155507215Y-133486115D01*
X155605678Y-132432419D01*
X155697816Y-131510524D01*
X155786145Y-130701856D01*
X155873183Y-129987838D01*
X155961448Y-129349895D01*
X156053457Y-128769452D01*
X156151727Y-128227934D01*
X156258775Y-127706766D01*
X156377119Y-127187371D01*
X156466127Y-126822521D01*
X156639004Y-126180178D01*
X156815899Y-125650212D01*
X157021047Y-125176880D01*
X157278686Y-124704438D01*
X157613050Y-124177141D01*
X157622300Y-124163228D01*
X158346897Y-123223694D01*
X159199863Y-122379271D01*
X160160570Y-121644609D01*
X161208391Y-121034359D01*
X162322697Y-120563171D01*
X162970298Y-120364915D01*
X163784697Y-120149210D01*
X167340697Y-120182108D01*
X168227216Y-120189437D01*
X169187390Y-120195792D01*
X170208534Y-120201187D01*
X171277968Y-120205640D01*
X172383009Y-120209166D01*
X173510974Y-120211782D01*
X174649180Y-120213502D01*
X175784947Y-120214344D01*
X176905591Y-120214324D01*
X177998429Y-120213456D01*
X179050780Y-120211758D01*
X180049962Y-120209245D01*
X180983291Y-120205933D01*
X181838086Y-120201839D01*
X182601664Y-120196978D01*
X183261343Y-120191366D01*
X183804440Y-120185019D01*
X184218273Y-120177954D01*
X184490160Y-120170186D01*
X184607419Y-120161731D01*
X184610978Y-120160321D01*
X184606150Y-120056644D01*
X184536010Y-119819733D01*
X184408978Y-119468790D01*
X184233474Y-119023018D01*
X184017920Y-118501619D01*
X183770736Y-117923798D01*
X183500343Y-117308755D01*
X183215162Y-116675695D01*
X182923613Y-116043820D01*
X182634116Y-115432332D01*
X182355094Y-114860436D01*
X182094965Y-114347332D01*
X181906082Y-113992006D01*
X180808104Y-112084833D01*
X179626121Y-110233756D01*
X178345265Y-108418945D01*
X176950670Y-106620571D01*
X175427468Y-104818803D01*
X173760791Y-102993811D01*
X173291892Y-102502435D01*
X172926301Y-102117783D01*
X172583564Y-101748262D01*
X172288759Y-101421584D01*
X172066967Y-101165460D01*
X171957482Y-101027956D01*
X171658206Y-100486387D01*
X171453758Y-99833058D01*
X171353770Y-99102546D01*
X171345209Y-98829512D01*
X171412802Y-97961191D01*
X171626007Y-97174619D01*
X171989144Y-96458216D01*
X172454015Y-95856989D01*
X172901334Y-95443896D01*
X173427069Y-95106405D01*
X174049328Y-94837769D01*
X174786215Y-94631241D01*
X175655837Y-94480076D01*
X176355225Y-94403413D01*
X176785862Y-94361800D01*
X177154508Y-94319670D01*
X177429042Y-94281188D01*
X177577340Y-94250519D01*
X177593003Y-94242922D01*
X177590553Y-94136217D01*
X177521759Y-93892805D01*
X177393554Y-93528632D01*
X177212876Y-93059646D01*
X176986659Y-92501795D01*
X176721839Y-91871026D01*
X176425351Y-91183286D01*
X176104132Y-90454524D01*
X175765116Y-89700687D01*
X175415238Y-88937723D01*
X175061436Y-88181578D01*
X174710643Y-87448201D01*
X174369795Y-86753539D01*
X174122882Y-86263673D01*
X173681943Y-85408606D01*
X173259146Y-84607837D01*
X172845642Y-83847956D01*
X172432581Y-83115549D01*
X172011112Y-82397207D01*
X171572386Y-81679517D01*
X171107554Y-80949068D01*
X170607765Y-80192449D01*
X170064171Y-79396248D01*
X169467921Y-78547053D01*
X168810165Y-77631454D01*
X168082055Y-76636038D01*
X167274739Y-75547395D01*
X166379369Y-74352112D01*
X165448777Y-73118339D01*
X164931692Y-72400076D01*
X164440794Y-71653192D01*
X164007732Y-70927996D01*
X163678253Y-70304006D01*
X163518069Y-69950979D01*
X163419768Y-69655677D01*
X163364871Y-69343685D01*
X163334895Y-68940587D01*
X163333718Y-68916698D01*
X163339090Y-68198897D01*
X163439629Y-67562570D01*
X163648342Y-66941123D01*
X163773716Y-66663696D01*
X164077403Y-66163668D01*
X164486840Y-65672021D01*
X164955364Y-65236553D01*
X165436313Y-64905064D01*
X165547434Y-64846765D01*
X165796157Y-64719298D01*
X165969907Y-64619216D01*
X166028363Y-64571647D01*
X165979054Y-64494572D01*
X165838866Y-64298139D01*
X165619405Y-63997787D01*
X165332278Y-63608954D01*
X164989092Y-63147080D01*
X164601454Y-62627603D01*
X164180971Y-62065964D01*
X163739249Y-61477599D01*
X163287896Y-60877949D01*
X162838517Y-60282453D01*
X162402721Y-59706549D01*
X161992113Y-59165677D01*
X161618302Y-58675275D01*
X161292892Y-58250783D01*
X161027493Y-57907639D01*
X160833709Y-57661282D01*
X160825844Y-57651452D01*
X160467448Y-57198713D01*
X160064582Y-56681350D01*
X159670526Y-56168186D01*
X159383855Y-55788785D01*
X158560537Y-54735419D01*
X157703106Y-53728232D01*
X156827261Y-52782026D01*
X155948700Y-51911603D01*
X155083119Y-51131764D01*
X154246218Y-50457311D01*
X153453692Y-49903047D01*
X152721240Y-49483772D01*
X152671041Y-49459091D01*
X152315080Y-49291586D01*
X152039591Y-49184007D01*
X151781915Y-49120955D01*
X151479389Y-49087031D01*
X151075867Y-49067085D01*
X150415962Y-49072441D01*
X149796390Y-49148618D01*
X149175198Y-49306182D01*
X148510432Y-49555696D01*
X147782697Y-49896374D01*
X146876016Y-50402584D01*
X145953540Y-51020062D01*
X145009260Y-51754659D01*
X144037165Y-52612225D01*
X143031245Y-53598610D01*
X141985491Y-54719663D01*
X140893892Y-55981236D01*
X139750439Y-57389178D01*
X138733780Y-58704673D01*
X138409522Y-59135777D01*
X138040363Y-59631577D01*
X137638441Y-60175319D01*
X137215895Y-60750254D01*
X136784864Y-61339630D01*
X136357487Y-61926694D01*
X135945901Y-62494697D01*
X135562246Y-63026886D01*
X135218661Y-63506509D01*
X134927284Y-63916817D01*
X134700253Y-64241056D01*
X134549708Y-64462476D01*
X134487914Y-64563991D01*
X134527584Y-64672482D01*
X134693858Y-64783561D01*
X134703290Y-64787807D01*
X135043953Y-64979297D01*
X135435790Y-65261653D01*
X135826297Y-65591861D01*
X136162968Y-65926906D01*
X136312780Y-66106367D01*
X136746419Y-66787377D01*
X137039651Y-67486833D01*
X137185693Y-68182400D01*
X137177762Y-68851741D01*
X137167474Y-68921113D01*
X137062264Y-69420739D01*
X136906062Y-69898390D01*
X136685551Y-70377064D01*
X136387413Y-70879763D01*
X135998330Y-71429486D01*
X135504986Y-72049234D01*
X135040363Y-72594743D01*
X134660196Y-73037871D01*
X134262617Y-73511920D01*
X133885037Y-73971601D01*
X133564868Y-74371623D01*
X133443667Y-74527702D01*
X132242500Y-76117550D01*
X131146272Y-77613481D01*
X130138728Y-79039841D01*
X129203615Y-80420974D01*
X128324677Y-81781227D01*
X127485662Y-83144945D01*
X126670313Y-84536473D01*
X126173372Y-85417006D01*
X125784968Y-86125622D01*
X125385370Y-86874905D01*
X124981567Y-87650123D01*
X124580549Y-88436537D01*
X124189304Y-89219414D01*
X123814822Y-89984017D01*
X123464093Y-90715612D01*
X123144104Y-91399461D01*
X122861847Y-92020831D01*
X122624309Y-92564986D01*
X122438480Y-93017189D01*
X122311350Y-93362706D01*
X122249907Y-93586801D01*
X122257415Y-93673068D01*
X122381730Y-93711235D01*
X122630415Y-93761405D01*
X122959735Y-93815244D01*
X123132142Y-93839745D01*
X124262421Y-94038999D01*
X125241546Y-94311542D01*
X126071869Y-94659181D01*
X126755739Y-95083719D01*
X127295510Y-95586964D01*
X127693532Y-96170719D01*
X127952155Y-96836792D01*
X128073732Y-97586986D01*
X128076829Y-97636620D01*
X128078876Y-98324682D01*
X127990452Y-98937284D01*
X127797477Y-99541576D01*
X127574549Y-100031963D01*
X127443553Y-100279713D01*
X127303805Y-100506389D01*
X127135159Y-100736324D01*
X126917467Y-100993851D01*
X126630582Y-101303303D01*
X126254358Y-101689013D01*
X125947776Y-101996723D01*
X124213999Y-103791212D01*
X122593436Y-105596613D01*
X121095609Y-107400921D01*
X119730040Y-109192133D01*
X118506250Y-110958243D01*
X117433762Y-112687249D01*
X117341716Y-112846313D01*
X117031189Y-113406593D01*
X116688521Y-114059437D01*
X116330314Y-114770181D01*
X115973168Y-115504158D01*
X115633683Y-116226703D01*
X115328461Y-116903148D01*
X115074102Y-117498829D01*
X114897810Y-117949765D01*
X114763359Y-118321405D01*
X114653195Y-118630675D01*
X114578644Y-118845442D01*
X114551031Y-118933576D01*
X114551030Y-118933662D01*
X110113063Y-118933662D01*
X110188818Y-118671593D01*
X110567909Y-117561271D01*
X111042260Y-116352014D01*
X111597464Y-115073906D01*
X112219111Y-113757032D01*
X112892791Y-112431478D01*
X113604096Y-111127328D01*
X114338617Y-109874667D01*
X114619826Y-109420006D01*
X115414113Y-108192698D01*
X116227580Y-107013335D01*
X117077768Y-105860154D01*
X117982220Y-104711393D01*
X118958478Y-103545289D01*
X120024083Y-102340080D01*
X121196579Y-101074003D01*
X122149578Y-100078705D01*
X122563380Y-99649491D01*
X122935357Y-99259184D01*
X123250000Y-98924425D01*
X123491794Y-98661855D01*
X123645229Y-98488117D01*
X123695030Y-98420730D01*
X123616566Y-98384271D01*
X123402920Y-98332060D01*
X123086714Y-98271065D01*
X122700569Y-98208255D01*
X122700197Y-98208199D01*
X121939536Y-98086616D01*
X121203232Y-97954329D01*
X120516382Y-97816868D01*
X119904087Y-97679761D01*
X119391444Y-97548539D01*
X119003553Y-97428731D01*
X118814716Y-97352205D01*
X118278528Y-97004122D01*
X117870066Y-96550145D01*
X117592630Y-95999238D01*
X117449522Y-95360367D01*
X117444046Y-94642498D01*
X117558378Y-93941118D01*
X117657333Y-93612354D01*
X117827726Y-93151120D01*
X118061505Y-92574464D01*
X118350616Y-91899430D01*
X118687008Y-91143065D01*
X119062628Y-90322416D01*
X119469422Y-89454529D01*
X119899339Y-88556451D01*
X120344325Y-87645226D01*
X120796328Y-86737902D01*
X121247296Y-85851525D01*
X121689175Y-85003142D01*
X122113913Y-84209798D01*
X122405094Y-83681340D01*
X123730738Y-81379257D01*
X125065875Y-79206701D01*
X126437157Y-77124739D01*
X127871242Y-75094437D01*
X129394782Y-73076859D01*
X131034434Y-71033074D01*
X131208510Y-70822498D01*
X131583524Y-70368813D01*
X131930479Y-69946766D01*
X132232023Y-69577649D01*
X132470804Y-69282753D01*
X132629469Y-69083366D01*
X132680316Y-69016608D01*
X132845194Y-68787542D01*
X132595413Y-68658375D01*
X132413055Y-68583993D01*
X132111532Y-68482028D01*
X131735697Y-68366980D01*
X131402559Y-68272784D01*
X130648903Y-68041789D01*
X130050433Y-67797000D01*
X129593055Y-67528822D01*
X129262673Y-67227660D01*
X129045192Y-66883919D01*
X128950318Y-66603497D01*
X128905823Y-66305905D01*
X128916776Y-65989008D01*
X128989604Y-65640280D01*
X129130736Y-65247196D01*
X129346599Y-64797229D01*
X129643620Y-64277853D01*
X130028227Y-63676544D01*
X130506848Y-62980774D01*
X131085909Y-62178019D01*
X131526360Y-61583340D01*
X132712323Y-60032408D01*
X134011766Y-58401724D01*
X135404042Y-56714897D01*
X136868506Y-54995539D01*
X138384511Y-53267261D01*
X139931412Y-51553674D01*
X141488563Y-49878389D01*
X143035319Y-48265018D01*
X144223046Y-47063006D01*
X144987974Y-46303971D01*
X145650150Y-45656814D01*
X146222897Y-45110121D01*
X146719534Y-44652476D01*
X147153381Y-44272464D01*
X147537759Y-43958670D01*
X147885988Y-43699678D01*
X148211388Y-43484073D01*
X148527280Y-43300440D01*
X148746509Y-43186484D01*
X149084650Y-43023342D01*
X149347874Y-42918013D01*
X149596121Y-42855844D01*
X149889334Y-42822178D01*
X150287453Y-42802360D01*
X150323039Y-42801029D01*
X151120029Y-42826298D01*
G37*
%TD*%
M02*
