%TF.GenerationSoftware,KiCad,Pcbnew,9.0.6*%
%TF.CreationDate,2025-11-21T09:20:11+01:00*%
%TF.ProjectId,BL_Santa,424c5f53-616e-4746-912e-6b696361645f,rev?*%
%TF.SameCoordinates,Original*%
%TF.FileFunction,Profile,NP*%
%FSLAX46Y46*%
G04 Gerber Fmt 4.6, Leading zero omitted, Abs format (unit mm)*
G04 Created by KiCad (PCBNEW 9.0.6) date 2025-11-21 09:20:11*
%MOMM*%
%LPD*%
G01*
G04 APERTURE LIST*
%TA.AperFunction,Profile*%
%ADD10C,0.150000*%
%TD*%
%TA.AperFunction,Profile*%
%ADD11C,0.100000*%
%TD*%
G04 APERTURE END LIST*
D10*
X152064214Y-45589214D02*
G75*
G02*
X149235786Y-45589214I-1414214J0D01*
G01*
X149235786Y-45589214D02*
G75*
G02*
X152064214Y-45589214I1414214J0D01*
G01*
D11*
X182087260Y-96506498D02*
X182159491Y-96300124D01*
X182115570Y-94800996D02*
X182023230Y-94598590D01*
X181534281Y-93202650D02*
X181004057Y-91823115D01*
X182213466Y-96088986D02*
X182248391Y-95873880D01*
X182248391Y-95873880D02*
X182263472Y-95656922D01*
X182233045Y-95223271D02*
X182185420Y-95009752D01*
X182263472Y-95656922D02*
X182258709Y-95439171D01*
X182159491Y-96300124D02*
X182213466Y-96088986D01*
X182258709Y-95439171D02*
X182233045Y-95223271D01*
X182185420Y-95009752D02*
X182115570Y-94800996D01*
X181889881Y-96895965D02*
X181997301Y-96705465D01*
X182023230Y-94598590D02*
X181534281Y-93202650D01*
X181997301Y-96705465D02*
X182087260Y-96506498D01*
X137996090Y-54104877D02*
X136348532Y-56026199D01*
X113595426Y-123042586D02*
X114151341Y-123148684D01*
X132764226Y-69361870D02*
X132318404Y-69916171D01*
X118578079Y-92063621D02*
X118004463Y-93405321D01*
X130805783Y-63022726D02*
X130368427Y-63660371D01*
X129405874Y-65242048D02*
X129286547Y-65533089D01*
X149282672Y-43178948D02*
X149023645Y-43288485D01*
X180831019Y-97806130D02*
X181122061Y-97664049D01*
X110241624Y-120294098D02*
X110270041Y-120520845D01*
X138108009Y-129796861D02*
X138192940Y-130894880D01*
X110380107Y-118932289D02*
X110275729Y-119378376D01*
X150383337Y-42936061D02*
X150098117Y-42963974D01*
X166303825Y-58322753D02*
X165122462Y-56806560D01*
X139212907Y-141234255D02*
X139376155Y-141508363D01*
X169964596Y-68020963D02*
X170200075Y-67948468D01*
X181627414Y-97245479D02*
X181766850Y-97076939D01*
X153721581Y-44081785D02*
X153334496Y-43806327D01*
X167555832Y-68658608D02*
X167778611Y-68551982D01*
X127021981Y-76750086D02*
X126202832Y-77957643D01*
X136348532Y-56026199D02*
X134726903Y-57968714D01*
X138689033Y-137591211D02*
X138798570Y-138708545D01*
X159908854Y-130377620D02*
X160020508Y-129544713D01*
X186159986Y-124441172D02*
X186501562Y-124351213D01*
X161554825Y-125940828D02*
X161792950Y-125709847D01*
X140100319Y-142116903D02*
X140397975Y-142230145D01*
X111805363Y-115262258D02*
X111292204Y-116469550D01*
X168983257Y-68228661D02*
X169478821Y-68134470D01*
X158168956Y-142111347D02*
X158386444Y-141865285D01*
X114213518Y-110602687D02*
X113560289Y-111741188D01*
X120489162Y-102203235D02*
X119613128Y-103179811D01*
X183436104Y-124544888D02*
X185807032Y-124492236D01*
X130863197Y-67981541D02*
X131343680Y-68115420D01*
X188952395Y-120852632D02*
X188909532Y-120497297D01*
X159056103Y-139131084D02*
X159215382Y-137612378D01*
X139100724Y-140932101D02*
X139212907Y-141234255D01*
X138192940Y-130894880D02*
X138291100Y-131991047D01*
X122787066Y-99820400D02*
X122080629Y-100529483D01*
X159351642Y-136091026D02*
X159510921Y-134573378D01*
X150675172Y-42933468D02*
X150383337Y-42936061D01*
X129160870Y-66145335D02*
X129170660Y-66451457D01*
X188914824Y-121556159D02*
X188953453Y-121206644D01*
X148524112Y-43553598D02*
X148047598Y-43868822D01*
X176322261Y-124563673D02*
X178693718Y-124576109D01*
X131256897Y-62394871D02*
X130805783Y-63022726D01*
X149547784Y-43086953D02*
X149282672Y-43178948D01*
X172304832Y-75614231D02*
X171356038Y-74331533D01*
X138291100Y-131991047D02*
X138447204Y-134231272D01*
X163923107Y-55303808D02*
X161489473Y-52328810D01*
X157474955Y-142543411D02*
X157629472Y-142481234D01*
X156826198Y-142653478D02*
X157314089Y-142592359D01*
X175958459Y-99766690D02*
X175665830Y-99436491D01*
X148770968Y-43413554D02*
X148524112Y-43553598D01*
X151616294Y-43035835D02*
X151151157Y-42956275D01*
X155077039Y-45309609D02*
X154088557Y-44377377D01*
X160160473Y-128714716D02*
X160336156Y-127889482D01*
X139583059Y-141751250D02*
X139826475Y-141956302D01*
X129949327Y-64309922D02*
X129553511Y-64973496D01*
X184612175Y-110784720D02*
X184026653Y-109805763D01*
X161121703Y-126440890D02*
X161330988Y-126184774D01*
X156336455Y-142691049D02*
X156826198Y-142653478D01*
X119170216Y-90729858D02*
X118578079Y-92063621D01*
X136027593Y-124823494D02*
X136237936Y-125008967D01*
X155844595Y-142711421D02*
X156336455Y-142691049D01*
X115613956Y-108382042D02*
X114898259Y-109482707D01*
X182142028Y-106952764D02*
X181471310Y-106031486D01*
X131407709Y-71009693D02*
X130496220Y-72103215D01*
X121641950Y-97924928D02*
X122261075Y-98028115D01*
X133272225Y-123838981D02*
X133732600Y-123899570D01*
X150914620Y-42937146D02*
X150675172Y-42933468D01*
X171475894Y-66074691D02*
X171434090Y-65896362D01*
X136237936Y-125008967D02*
X136438490Y-125205816D01*
X170859415Y-67628058D02*
X171058382Y-67476187D01*
X186830704Y-124225007D02*
X187144234Y-124065464D01*
X171346777Y-67129319D02*
X171422713Y-66959986D01*
X137825963Y-127616697D02*
X137922536Y-128158298D01*
X121064630Y-86782015D02*
X120412962Y-88088790D01*
X160594124Y-127278560D02*
X160752080Y-126988312D01*
X187657525Y-116906112D02*
X187206411Y-115858628D01*
X128727748Y-74381010D02*
X127863884Y-75557875D01*
X120659554Y-123665414D02*
X122077189Y-123684464D01*
X120818833Y-97752155D02*
X121234757Y-97830207D01*
X123476040Y-99097824D02*
X122787066Y-99820400D01*
X112940689Y-112897680D02*
X112355193Y-114071105D01*
X118802446Y-97179068D02*
X119177889Y-97360043D01*
X187206411Y-115858628D02*
X186732543Y-114821463D01*
X129286547Y-65533089D02*
X129202145Y-65836831D01*
X158829885Y-140640001D02*
X158954239Y-139887262D01*
X130049604Y-72657781D02*
X129614630Y-73220549D01*
X178693718Y-124576109D02*
X181065175Y-124571346D01*
X185716545Y-112779411D02*
X185175472Y-111775848D01*
X134726903Y-57968714D02*
X133127498Y-59928692D01*
X178024588Y-98538231D02*
X178665672Y-98444833D01*
X162579555Y-125101042D02*
X162862130Y-124928004D01*
X117996261Y-96385319D02*
X118123261Y-96582963D01*
X135093350Y-124208603D02*
X135339677Y-124341953D01*
X175415270Y-98879279D02*
X175498085Y-98808635D01*
X152928890Y-43558281D02*
X152506616Y-43343307D01*
X175498085Y-98808635D02*
X175610532Y-98758364D01*
X188667703Y-119578930D02*
X188516891Y-119127816D01*
X165451603Y-124420534D02*
X166143488Y-124434822D01*
X159510921Y-134573378D02*
X159667025Y-132892217D01*
X111292204Y-116469550D02*
X110816272Y-117693247D01*
X188837830Y-121898529D02*
X188914824Y-121556159D01*
X175375053Y-98973470D02*
X175415270Y-98879279D01*
X188002542Y-117792994D02*
X187657525Y-116906112D01*
X156042238Y-46265097D02*
X155077039Y-45309609D01*
X175610532Y-98758364D02*
X175740443Y-98724498D01*
X185807032Y-124492236D02*
X186159986Y-124441172D01*
X181471310Y-106031486D02*
X180779955Y-105125554D01*
X166143488Y-124434822D02*
X166835902Y-124438526D01*
X132318404Y-69916171D02*
X131407709Y-71009693D01*
X121234757Y-97830207D02*
X121641950Y-97924928D01*
X186235392Y-113794881D02*
X185716545Y-112779411D01*
X130400706Y-67812472D02*
X130863197Y-67981541D01*
X114898259Y-109482707D02*
X114213518Y-110602687D01*
X126314486Y-123671500D02*
X128986774Y-123657741D01*
X168009592Y-68463611D02*
X168489016Y-68329467D01*
X117810788Y-95961193D02*
X117892809Y-96177622D01*
X139376155Y-141508363D02*
X139583059Y-141751250D01*
X170649072Y-67755322D02*
X170859415Y-67628058D01*
X161489473Y-52328810D02*
X159722323Y-50265380D01*
X167181712Y-68937479D02*
X167214255Y-68880329D01*
X112556726Y-122792026D02*
X113063164Y-122923788D01*
X137135137Y-126088994D02*
X137415066Y-126577415D01*
X110371852Y-120966403D02*
X110445221Y-121181774D01*
X122077189Y-123684464D02*
X123501704Y-123688697D01*
X137415066Y-126577415D02*
X137646047Y-127088589D01*
X142574964Y-142399213D02*
X144116424Y-142479382D01*
X157629472Y-142481234D02*
X157915221Y-142317987D01*
X159817308Y-131214232D02*
X159908854Y-130377620D01*
X158386444Y-141865285D02*
X158564773Y-141589325D01*
X166835902Y-124438526D02*
X171578817Y-124506788D01*
X171150986Y-65201832D02*
X170966571Y-64877453D01*
X147203049Y-142574367D02*
X150291262Y-142629136D01*
X138933772Y-139822175D02*
X139100724Y-140932101D01*
X118123261Y-96582963D02*
X118274602Y-96767906D01*
X177304657Y-83762064D02*
X176565677Y-82347604D01*
X118760906Y-104178347D02*
X117934084Y-105198315D01*
X117677968Y-95031977D02*
X117684582Y-95270896D01*
X117133191Y-106239184D02*
X116359022Y-107300426D01*
X110270041Y-120520845D02*
X110313459Y-120745741D01*
X184026653Y-109805763D02*
X183419964Y-108841093D01*
X188799466Y-120034806D02*
X188667703Y-119578930D01*
X161792950Y-125709847D02*
X162043510Y-125492624D01*
X180534422Y-97934188D02*
X180831019Y-97806130D01*
X118274602Y-96767906D02*
X118451344Y-96939356D01*
X133127498Y-59928692D02*
X132187435Y-61157151D01*
X163452679Y-124629819D02*
X163758272Y-124505730D01*
X135807460Y-124649928D02*
X136027593Y-124823494D01*
X171311588Y-65543408D02*
X171150986Y-65201832D01*
X187716263Y-123655625D02*
X187971585Y-123411679D01*
X149819511Y-43015118D02*
X149547784Y-43086953D01*
X132989651Y-68667340D02*
X133199465Y-68798573D01*
X177200676Y-101025576D02*
X176573879Y-100400631D01*
X127863884Y-75557875D02*
X127021981Y-76750086D01*
X118623058Y-97067150D02*
X118802446Y-97179068D01*
X119261762Y-123625198D02*
X120659554Y-123665414D01*
X126202832Y-77957643D02*
X125405114Y-79179222D01*
X110313459Y-120745741D02*
X110371852Y-120966403D01*
X110275729Y-119378376D02*
X110229745Y-119835046D01*
X143129000Y-48514000D02*
X141382753Y-50344888D01*
X181122061Y-97664049D02*
X181304358Y-97540489D01*
X124118183Y-98336090D02*
X123805181Y-98723175D01*
X177381122Y-98604906D02*
X178024588Y-98538231D01*
X123501704Y-98217821D02*
X124118183Y-98336090D01*
X167241772Y-69043577D02*
X167186739Y-68992777D01*
X129580499Y-67266373D02*
X129768617Y-67436235D01*
X129170660Y-66451457D02*
X129197118Y-66600153D01*
X181766850Y-97076939D02*
X181889881Y-96895965D01*
X170428939Y-67861155D02*
X170649072Y-67755322D01*
X131343680Y-68115420D02*
X131830512Y-68238980D01*
X123805181Y-98723175D02*
X123476040Y-99097824D01*
X173224787Y-76917038D02*
X172304832Y-75614231D01*
X152068466Y-43167095D02*
X151616294Y-43035835D01*
X131408238Y-123689227D02*
X132344597Y-123754314D01*
X110757879Y-121787404D02*
X110893266Y-121972348D01*
X144116424Y-142479382D02*
X145659472Y-142534945D01*
X150098117Y-42963974D02*
X149819511Y-43015118D01*
X187440303Y-123874699D02*
X187716263Y-123655625D01*
X117892809Y-96177622D02*
X117996261Y-96385319D01*
X175389076Y-99093856D02*
X175375053Y-98973470D01*
X163758272Y-124505730D02*
X164069157Y-124399367D01*
X110893266Y-121972348D02*
X111043628Y-122146708D01*
X116359022Y-107300426D02*
X115613956Y-108382042D01*
X117687228Y-94792265D02*
X117677968Y-95031977D01*
X154088557Y-44377377D02*
X153721581Y-44081785D01*
X112355193Y-114071105D02*
X111805363Y-115262258D01*
X167428303Y-68722638D02*
X167555832Y-68658608D01*
X171503410Y-66254078D02*
X171475894Y-66074691D01*
X122881786Y-98120190D02*
X123501704Y-98217821D01*
X159667025Y-132892217D02*
X159817308Y-131214232D01*
X149023645Y-43288485D02*
X148770968Y-43413554D01*
X129197118Y-66600153D02*
X129238922Y-66745409D01*
X162862130Y-124928004D02*
X163153700Y-124770313D01*
X175665830Y-99436491D02*
X175389076Y-99093856D01*
X147593309Y-44219685D02*
X147158599Y-44592271D01*
X178665672Y-98444833D02*
X179301994Y-98317569D01*
X129467257Y-67147046D02*
X129580499Y-67266373D01*
X110816272Y-117693247D02*
X110380107Y-118932289D01*
X167186739Y-68992777D02*
X167181712Y-68937479D01*
X160020508Y-129544713D02*
X160160473Y-128714716D01*
X187144234Y-124065464D02*
X187440303Y-123874699D01*
X160454953Y-127579390D02*
X160594124Y-127278560D01*
X183419964Y-108841093D02*
X182791580Y-107889653D01*
X171475100Y-66786419D02*
X171504469Y-66610736D01*
X156987064Y-47241779D02*
X156042238Y-46265097D01*
X110229745Y-119835046D02*
X110241624Y-120294098D01*
X170773161Y-64576093D02*
X169702923Y-62979334D01*
X181065175Y-124571346D02*
X183436104Y-124544888D01*
X157915221Y-142317987D02*
X158168956Y-142111347D01*
X124628828Y-80415354D02*
X123874502Y-81664450D01*
X188726705Y-122230845D02*
X188837830Y-121898529D01*
X178580476Y-102506447D02*
X177806307Y-101668513D01*
X137922536Y-128158298D02*
X137998471Y-128702281D01*
X129373330Y-67019781D02*
X129467257Y-67147046D01*
X174967860Y-79588003D02*
X174112993Y-78241276D01*
X186732543Y-114821463D02*
X186235392Y-113794881D01*
X133199465Y-68798573D02*
X132764226Y-69361870D01*
X129553511Y-64973496D02*
X129405874Y-65242048D01*
X148047598Y-43868822D02*
X147593309Y-44219685D01*
X134643294Y-124080280D02*
X135093350Y-124208603D01*
X171434090Y-65896362D02*
X171311588Y-65543408D01*
X188405766Y-122856849D02*
X188581449Y-122551255D01*
X145659472Y-142534945D02*
X147203049Y-142574367D01*
X129238922Y-66745409D02*
X129297395Y-66885373D01*
X132187435Y-61157151D02*
X131256897Y-62394871D01*
X185175472Y-111775848D02*
X184612175Y-110784720D01*
X111043628Y-122146708D02*
X111210554Y-122309426D01*
X157314089Y-142592359D02*
X157474955Y-142543411D01*
X129297395Y-66885373D02*
X129373330Y-67019781D01*
X171504469Y-66610736D02*
X171513200Y-66432936D01*
X119782196Y-89405091D02*
X119170216Y-90729858D01*
X161330988Y-126184774D02*
X161554825Y-125940828D01*
X138447204Y-134231272D02*
X138598546Y-136472290D01*
X158824593Y-49244751D02*
X157913634Y-48236029D01*
X167273787Y-68823444D02*
X167428303Y-68722638D01*
X188351527Y-118680670D02*
X188002542Y-117792994D01*
X153379475Y-142696340D02*
X155351412Y-142717507D01*
X110637970Y-121593729D02*
X110757879Y-121787404D01*
X170966571Y-64877453D02*
X170773161Y-64576093D01*
X158789933Y-140970201D02*
X158829885Y-140640001D01*
X188953453Y-121206644D02*
X188952395Y-120852632D01*
X147158599Y-44592271D02*
X146743733Y-44973138D01*
X176111917Y-98686133D02*
X177381122Y-98604906D01*
X110534121Y-121391059D02*
X110637970Y-121593729D01*
X111628621Y-122485109D02*
X112078201Y-122645711D01*
X163153700Y-124770313D02*
X163452679Y-124629819D01*
X134189534Y-123978680D02*
X134643294Y-124080280D01*
X123501704Y-123688697D02*
X126314486Y-123671500D01*
X125405114Y-79179222D02*
X124628828Y-80415354D01*
X180439172Y-90457073D02*
X179845448Y-89103201D01*
X119177889Y-97360043D02*
X119573440Y-97495510D01*
X179845448Y-89103201D02*
X179228969Y-87758591D01*
X169702923Y-62979334D02*
X168598024Y-61406918D01*
X179926146Y-98149294D02*
X180534422Y-97934188D01*
X132770576Y-68555157D02*
X132989651Y-68667340D01*
X144914936Y-46722376D02*
X143129000Y-48514000D01*
X117934084Y-105198315D02*
X117133191Y-106239184D01*
X137998471Y-128702281D02*
X138108009Y-129796861D01*
X150291262Y-142629136D02*
X153379475Y-142696340D01*
X130368427Y-63660371D02*
X129949327Y-64309922D01*
X117748082Y-94314164D02*
X117687228Y-94792265D01*
X159722323Y-50265380D02*
X158824593Y-49244751D01*
X181304358Y-97540489D02*
X181473427Y-97400524D01*
X151151157Y-42956275D02*
X150914620Y-42937146D01*
X165122462Y-56806560D02*
X163923107Y-55303808D01*
X140710976Y-142289147D02*
X140872372Y-142297349D01*
X187971585Y-123411679D02*
X188201508Y-123143921D01*
X121736406Y-85485823D02*
X121064630Y-86782015D01*
X129614630Y-73220549D02*
X128727748Y-74381010D01*
X180779955Y-105125554D02*
X180067168Y-104235762D01*
X139826475Y-141956302D02*
X140100319Y-142116903D01*
X140872372Y-142297349D02*
X141034561Y-142289147D01*
X113063164Y-122923788D02*
X113595426Y-123042586D01*
X188909532Y-120497297D02*
X188799466Y-120034806D01*
X160752080Y-126988312D02*
X160928292Y-126709177D01*
X162305976Y-125289689D02*
X162579555Y-125101042D01*
X129969171Y-67582020D02*
X130180308Y-67706639D01*
X119982750Y-97597639D02*
X120818833Y-97752155D01*
X122261075Y-98028115D02*
X122881786Y-98120190D01*
X188201508Y-123143921D02*
X188405766Y-122856849D01*
X117684582Y-95270896D02*
X117707866Y-95505845D01*
X155351412Y-142717507D02*
X155844595Y-142711421D01*
X160336156Y-127889482D02*
X160454953Y-127579390D01*
X118451344Y-96939356D02*
X118623058Y-97067150D01*
X115329265Y-123325954D02*
X116582859Y-123460627D01*
X160928292Y-126709177D02*
X161121703Y-126440890D01*
X122080629Y-100529483D02*
X121387157Y-101248620D01*
X182791580Y-107889653D02*
X182142028Y-106952764D01*
X110445221Y-121181774D02*
X110534121Y-121391059D01*
X132543564Y-68459642D02*
X132770576Y-68555157D01*
X171356038Y-74331533D02*
X170379991Y-73070265D01*
X111210554Y-122309426D02*
X111628621Y-122485109D01*
X181004057Y-91823115D02*
X180439172Y-90457073D01*
X175786215Y-80956426D02*
X174967860Y-79588003D01*
X117857090Y-93847704D02*
X117748082Y-94314164D01*
X171513200Y-66432936D02*
X171503410Y-66254078D01*
X137646047Y-127088589D02*
X137825963Y-127616697D01*
X176565677Y-82347604D02*
X175786215Y-80956426D01*
X117749670Y-95736297D02*
X117810788Y-95961193D01*
X136808377Y-125629678D02*
X137135137Y-126088994D01*
X117898630Y-123558523D02*
X119261762Y-123625198D01*
X162043510Y-125492624D02*
X162305976Y-125289689D01*
X167463757Y-59855403D02*
X166303825Y-58322753D01*
X158564773Y-141589325D02*
X158700504Y-141288229D01*
X113560289Y-111741188D02*
X112940689Y-112897680D01*
X171058382Y-67476187D02*
X171244384Y-67295212D01*
X123874502Y-81664450D02*
X123141078Y-82926247D01*
X132344597Y-123754314D02*
X133272225Y-123838981D01*
X138798570Y-138708545D02*
X138933772Y-139822175D01*
X177806307Y-101668513D02*
X177200676Y-101025576D01*
X141034561Y-142289147D02*
X142574964Y-142399213D01*
X132309937Y-68376828D02*
X132543564Y-68459642D01*
X112078201Y-122645711D02*
X112556726Y-122792026D01*
X175875644Y-98703066D02*
X176111917Y-98686133D01*
X135339677Y-124341953D02*
X135578066Y-124489061D01*
X168598024Y-61406918D02*
X167463757Y-59855403D01*
X131830512Y-68238980D02*
X132309937Y-68376828D01*
X135578066Y-124489061D02*
X135807460Y-124649928D01*
X114151341Y-123148684D02*
X115329265Y-123325954D01*
X164069157Y-124399367D02*
X165451603Y-124420534D01*
X167214255Y-68880329D02*
X167273787Y-68823444D01*
X119613128Y-103179811D02*
X118760906Y-104178347D01*
X118004463Y-93405321D02*
X117857090Y-93847704D01*
X130235606Y-123664885D02*
X131408238Y-123689227D01*
X188581449Y-122551255D02*
X188726705Y-122230845D01*
X130496220Y-72103215D02*
X130049604Y-72657781D01*
X186501562Y-124351213D02*
X186830704Y-124225007D01*
X179334009Y-103362373D02*
X178580476Y-102506447D01*
X122428026Y-84200214D02*
X121736406Y-85485823D01*
X158954239Y-139887262D02*
X159056103Y-139131084D01*
X168489016Y-68329467D02*
X168983257Y-68228661D01*
X129768617Y-67436235D02*
X129969171Y-67582020D01*
X119573440Y-97495510D02*
X119982750Y-97597639D01*
X179301994Y-98317569D02*
X179926146Y-98149294D01*
X170200075Y-67948468D02*
X170428939Y-67861155D01*
X181473427Y-97400524D02*
X181627414Y-97245479D01*
X130180308Y-67706639D02*
X130400706Y-67812472D01*
X169478821Y-68134470D02*
X169964596Y-68020963D01*
X168034463Y-70041319D02*
X167241772Y-69043577D01*
X153334496Y-43806327D02*
X152928890Y-43558281D01*
X178595558Y-86421653D02*
X177304657Y-83762064D01*
X159215382Y-137612378D02*
X159351642Y-136091026D01*
X179228969Y-87758591D02*
X178595558Y-86421653D01*
X123141078Y-82926247D02*
X122428026Y-84200214D01*
X138598546Y-136472290D02*
X138689033Y-137591211D01*
X140397975Y-142230145D02*
X140710976Y-142289147D01*
X129202145Y-65836831D02*
X129160870Y-66145335D01*
X176573879Y-100400631D02*
X175958459Y-99766690D01*
X139673282Y-52209907D02*
X137996090Y-54104877D01*
X152506616Y-43343307D02*
X152068466Y-43167095D01*
X175740443Y-98724498D02*
X175875644Y-98703066D01*
X121387157Y-101248620D02*
X120489162Y-102203235D01*
X180067168Y-104235762D02*
X179334009Y-103362373D01*
X158700504Y-141288229D02*
X158789933Y-140970201D01*
X120412962Y-88088790D02*
X119782196Y-89405091D01*
X168818158Y-71049116D02*
X168034463Y-70041319D01*
X171578817Y-124506788D02*
X176322261Y-124563673D01*
X167778611Y-68551982D02*
X168009592Y-68463611D01*
X128986774Y-123657741D02*
X130235606Y-123664885D01*
X188516891Y-119127816D02*
X188351527Y-118680670D01*
X133732600Y-123899570D02*
X134189534Y-123978680D01*
X141382753Y-50344888D02*
X139673282Y-52209907D01*
X117707866Y-95505845D02*
X117749670Y-95736297D01*
X136438490Y-125205816D02*
X136808377Y-125629678D01*
X146743733Y-44973138D02*
X145823514Y-45841817D01*
X145823514Y-45841817D02*
X144914936Y-46722376D01*
X170379991Y-73070265D02*
X168818158Y-71049116D01*
X116582859Y-123460627D02*
X117898630Y-123558523D01*
X171244384Y-67295212D02*
X171346777Y-67129319D01*
X171422713Y-66959986D02*
X171475100Y-66786419D01*
X157913634Y-48236029D02*
X156987064Y-47241779D01*
X174112993Y-78241276D02*
X173224787Y-76917038D01*
M02*
