%TF.GenerationSoftware,KiCad,Pcbnew,9.0.6*%
%TF.CreationDate,2025-11-21T14:44:10+01:00*%
%TF.ProjectId,BL_Santa,424c5f53-616e-4746-912e-6b696361645f,rev?*%
%TF.SameCoordinates,Original*%
%TF.FileFunction,Legend,Bot*%
%TF.FilePolarity,Positive*%
%FSLAX46Y46*%
G04 Gerber Fmt 4.6, Leading zero omitted, Abs format (unit mm)*
G04 Created by KiCad (PCBNEW 9.0.6) date 2025-11-21 14:44:10*
%MOMM*%
%LPD*%
G01*
G04 APERTURE LIST*
%ADD10C,0.050000*%
%ADD11C,0.150000*%
%ADD12C,0.120000*%
%ADD13C,0.010000*%
G04 APERTURE END LIST*
D10*
X143615714Y-116420019D02*
X143615714Y-117229542D01*
X143615714Y-117229542D02*
X143572857Y-117324780D01*
X143572857Y-117324780D02*
X143530000Y-117372400D01*
X143530000Y-117372400D02*
X143444285Y-117420019D01*
X143444285Y-117420019D02*
X143272857Y-117420019D01*
X143272857Y-117420019D02*
X143187142Y-117372400D01*
X143187142Y-117372400D02*
X143144285Y-117324780D01*
X143144285Y-117324780D02*
X143101428Y-117229542D01*
X143101428Y-117229542D02*
X143101428Y-116420019D01*
X142201428Y-117420019D02*
X142715714Y-117420019D01*
X142458571Y-117420019D02*
X142458571Y-116420019D01*
X142458571Y-116420019D02*
X142544285Y-116562876D01*
X142544285Y-116562876D02*
X142630000Y-116658114D01*
X142630000Y-116658114D02*
X142715714Y-116705733D01*
X142208570Y-121016209D02*
X142079998Y-121063828D01*
X142079998Y-121063828D02*
X142037141Y-121111447D01*
X142037141Y-121111447D02*
X141994284Y-121206685D01*
X141994284Y-121206685D02*
X141994284Y-121349542D01*
X141994284Y-121349542D02*
X142037141Y-121444780D01*
X142037141Y-121444780D02*
X142079998Y-121492400D01*
X142079998Y-121492400D02*
X142165713Y-121540019D01*
X142165713Y-121540019D02*
X142508570Y-121540019D01*
X142508570Y-121540019D02*
X142508570Y-120540019D01*
X142508570Y-120540019D02*
X142208570Y-120540019D01*
X142208570Y-120540019D02*
X142122856Y-120587638D01*
X142122856Y-120587638D02*
X142079998Y-120635257D01*
X142079998Y-120635257D02*
X142037141Y-120730495D01*
X142037141Y-120730495D02*
X142037141Y-120825733D01*
X142037141Y-120825733D02*
X142079998Y-120920971D01*
X142079998Y-120920971D02*
X142122856Y-120968590D01*
X142122856Y-120968590D02*
X142208570Y-121016209D01*
X142208570Y-121016209D02*
X142508570Y-121016209D01*
X141651427Y-121254304D02*
X141222856Y-121254304D01*
X141737141Y-121540019D02*
X141437141Y-120540019D01*
X141437141Y-120540019D02*
X141137141Y-121540019D01*
X140965712Y-120540019D02*
X140451427Y-120540019D01*
X140708569Y-121540019D02*
X140708569Y-120540019D01*
X140365713Y-121635257D02*
X139679998Y-121635257D01*
X139465713Y-121540019D02*
X139465713Y-120540019D01*
X139465713Y-121016209D02*
X138951427Y-121016209D01*
X138951427Y-121540019D02*
X138951427Y-120540019D01*
X138094284Y-121540019D02*
X138522856Y-121540019D01*
X138522856Y-121540019D02*
X138522856Y-120540019D01*
X137794285Y-121540019D02*
X137794285Y-120540019D01*
X137794285Y-120540019D02*
X137579999Y-120540019D01*
X137579999Y-120540019D02*
X137451428Y-120587638D01*
X137451428Y-120587638D02*
X137365713Y-120682876D01*
X137365713Y-120682876D02*
X137322856Y-120778114D01*
X137322856Y-120778114D02*
X137279999Y-120968590D01*
X137279999Y-120968590D02*
X137279999Y-121111447D01*
X137279999Y-121111447D02*
X137322856Y-121301923D01*
X137322856Y-121301923D02*
X137365713Y-121397161D01*
X137365713Y-121397161D02*
X137451428Y-121492400D01*
X137451428Y-121492400D02*
X137579999Y-121540019D01*
X137579999Y-121540019D02*
X137794285Y-121540019D01*
X137108571Y-121635257D02*
X136422856Y-121635257D01*
X136251428Y-121492400D02*
X136122857Y-121540019D01*
X136122857Y-121540019D02*
X135908571Y-121540019D01*
X135908571Y-121540019D02*
X135822857Y-121492400D01*
X135822857Y-121492400D02*
X135779999Y-121444780D01*
X135779999Y-121444780D02*
X135737142Y-121349542D01*
X135737142Y-121349542D02*
X135737142Y-121254304D01*
X135737142Y-121254304D02*
X135779999Y-121159066D01*
X135779999Y-121159066D02*
X135822857Y-121111447D01*
X135822857Y-121111447D02*
X135908571Y-121063828D01*
X135908571Y-121063828D02*
X136079999Y-121016209D01*
X136079999Y-121016209D02*
X136165714Y-120968590D01*
X136165714Y-120968590D02*
X136208571Y-120920971D01*
X136208571Y-120920971D02*
X136251428Y-120825733D01*
X136251428Y-120825733D02*
X136251428Y-120730495D01*
X136251428Y-120730495D02*
X136208571Y-120635257D01*
X136208571Y-120635257D02*
X136165714Y-120587638D01*
X136165714Y-120587638D02*
X136079999Y-120540019D01*
X136079999Y-120540019D02*
X135865714Y-120540019D01*
X135865714Y-120540019D02*
X135737142Y-120587638D01*
X135351428Y-121540019D02*
X135351428Y-120540019D01*
X135351428Y-120540019D02*
X135051428Y-121254304D01*
X135051428Y-121254304D02*
X134751428Y-120540019D01*
X134751428Y-120540019D02*
X134751428Y-121540019D01*
X134322857Y-121540019D02*
X134322857Y-120540019D01*
X134322857Y-120540019D02*
X134108571Y-120540019D01*
X134108571Y-120540019D02*
X133980000Y-120587638D01*
X133980000Y-120587638D02*
X133894285Y-120682876D01*
X133894285Y-120682876D02*
X133851428Y-120778114D01*
X133851428Y-120778114D02*
X133808571Y-120968590D01*
X133808571Y-120968590D02*
X133808571Y-121111447D01*
X133808571Y-121111447D02*
X133851428Y-121301923D01*
X133851428Y-121301923D02*
X133894285Y-121397161D01*
X133894285Y-121397161D02*
X133980000Y-121492400D01*
X133980000Y-121492400D02*
X134108571Y-121540019D01*
X134108571Y-121540019D02*
X134322857Y-121540019D01*
D11*
X173604819Y-120383333D02*
X173604819Y-119811905D01*
X173604819Y-120097619D02*
X172604819Y-120097619D01*
X172604819Y-120097619D02*
X172747676Y-120002381D01*
X172747676Y-120002381D02*
X172842914Y-119907143D01*
X172842914Y-119907143D02*
X172890533Y-119811905D01*
X172604819Y-121002381D02*
X172604819Y-121097619D01*
X172604819Y-121097619D02*
X172652438Y-121192857D01*
X172652438Y-121192857D02*
X172700057Y-121240476D01*
X172700057Y-121240476D02*
X172795295Y-121288095D01*
X172795295Y-121288095D02*
X172985771Y-121335714D01*
X172985771Y-121335714D02*
X173223866Y-121335714D01*
X173223866Y-121335714D02*
X173414342Y-121288095D01*
X173414342Y-121288095D02*
X173509580Y-121240476D01*
X173509580Y-121240476D02*
X173557200Y-121192857D01*
X173557200Y-121192857D02*
X173604819Y-121097619D01*
X173604819Y-121097619D02*
X173604819Y-121002381D01*
X173604819Y-121002381D02*
X173557200Y-120907143D01*
X173557200Y-120907143D02*
X173509580Y-120859524D01*
X173509580Y-120859524D02*
X173414342Y-120811905D01*
X173414342Y-120811905D02*
X173223866Y-120764286D01*
X173223866Y-120764286D02*
X172985771Y-120764286D01*
X172985771Y-120764286D02*
X172795295Y-120811905D01*
X172795295Y-120811905D02*
X172700057Y-120859524D01*
X172700057Y-120859524D02*
X172652438Y-120907143D01*
X172652438Y-120907143D02*
X172604819Y-121002381D01*
X172604819Y-121954762D02*
X172604819Y-122050000D01*
X172604819Y-122050000D02*
X172652438Y-122145238D01*
X172652438Y-122145238D02*
X172700057Y-122192857D01*
X172700057Y-122192857D02*
X172795295Y-122240476D01*
X172795295Y-122240476D02*
X172985771Y-122288095D01*
X172985771Y-122288095D02*
X173223866Y-122288095D01*
X173223866Y-122288095D02*
X173414342Y-122240476D01*
X173414342Y-122240476D02*
X173509580Y-122192857D01*
X173509580Y-122192857D02*
X173557200Y-122145238D01*
X173557200Y-122145238D02*
X173604819Y-122050000D01*
X173604819Y-122050000D02*
X173604819Y-121954762D01*
X173604819Y-121954762D02*
X173557200Y-121859524D01*
X173557200Y-121859524D02*
X173509580Y-121811905D01*
X173509580Y-121811905D02*
X173414342Y-121764286D01*
X173414342Y-121764286D02*
X173223866Y-121716667D01*
X173223866Y-121716667D02*
X172985771Y-121716667D01*
X172985771Y-121716667D02*
X172795295Y-121764286D01*
X172795295Y-121764286D02*
X172700057Y-121811905D01*
X172700057Y-121811905D02*
X172652438Y-121859524D01*
X172652438Y-121859524D02*
X172604819Y-121954762D01*
D10*
%TO.C,G\u002A\u002A\u002A*%
X134175000Y-140100000D02*
X134750000Y-140575000D01*
X134750000Y-140575000D02*
X135175000Y-140250000D01*
X135175000Y-140250000D02*
X134175000Y-140100000D01*
D12*
X135500000Y-141688605D02*
X136400000Y-141675000D01*
X135899999Y-143070050D02*
X135499999Y-143070050D01*
X135900000Y-142075000D02*
X135650000Y-142075000D01*
X135900000Y-142125000D02*
X135900000Y-142575000D01*
X135900000Y-142575000D02*
X135600000Y-142575000D01*
X135900000Y-143075000D02*
X135900000Y-143575000D01*
X135900000Y-143575000D02*
X135450000Y-143575000D01*
D10*
X136125000Y-139375000D02*
X136475000Y-138200000D01*
D12*
X136400000Y-141675000D02*
X136450000Y-144125000D01*
X136450000Y-144125000D02*
X135250000Y-144125000D01*
D10*
X136475000Y-138200000D02*
X138275000Y-138250000D01*
D12*
X136725000Y-144125000D02*
X137500000Y-141675000D01*
X137125000Y-144125000D02*
X136725000Y-144125000D01*
X137375000Y-143525000D02*
X137125000Y-144125000D01*
X137450000Y-143125000D02*
X137675000Y-142375000D01*
X137500000Y-141675000D02*
X137825000Y-141675000D01*
X137675000Y-142375000D02*
X137950000Y-143125000D01*
D10*
X137700000Y-140300000D02*
X139375000Y-140400000D01*
D12*
X137825000Y-141675000D02*
X138725000Y-144125000D01*
X137950000Y-143125000D02*
X137450000Y-143125000D01*
X137975000Y-143525000D02*
X137375000Y-143525000D01*
X138225000Y-144125000D02*
X137975000Y-143525000D01*
X138225000Y-144125000D02*
X138725000Y-144125000D01*
D10*
X138275000Y-138250000D02*
X136125000Y-139375000D01*
X138400000Y-139725000D02*
X137700000Y-140300000D01*
D12*
X138900000Y-143650000D02*
X138900000Y-144100000D01*
X138900000Y-144100000D02*
X140150000Y-144100000D01*
D10*
X139400000Y-140400000D02*
X138400000Y-139725000D01*
X139550000Y-139950000D02*
X141175000Y-141075000D01*
X139600000Y-137625000D02*
X140725000Y-138850000D01*
X139625000Y-137225000D02*
X139550000Y-139950000D01*
D12*
X139650000Y-143650000D02*
X138900000Y-143650000D01*
X139675000Y-141650000D02*
X139650000Y-143650000D01*
X140125000Y-141650000D02*
X139675000Y-141650000D01*
X140150000Y-144100000D02*
X140125000Y-141650000D01*
X140325000Y-144100000D02*
X141025000Y-143150000D01*
X140425000Y-144100000D02*
X140325000Y-144100000D01*
D10*
X140725000Y-138850000D02*
X140150000Y-140350000D01*
D12*
X140825000Y-144100000D02*
X140425000Y-144100000D01*
X141066269Y-141644594D02*
X142175000Y-141650000D01*
D10*
X141175000Y-141075000D02*
X142850000Y-140850000D01*
D12*
X141225000Y-142100000D02*
X141675000Y-142100000D01*
X141575000Y-143150000D02*
X140825000Y-144100000D01*
X141675000Y-142100000D02*
X141675000Y-142650000D01*
X141675000Y-142650000D02*
X141175000Y-142650000D01*
X141725000Y-143150000D02*
X141575000Y-143150000D01*
X141725000Y-144100000D02*
X141725000Y-143150000D01*
X142175000Y-141650000D02*
X142175000Y-144100000D01*
X142175000Y-144100000D02*
X141725000Y-144100000D01*
D10*
X142325000Y-141300000D02*
X143300000Y-141650000D01*
D12*
X142625000Y-141650000D02*
X143925000Y-141650000D01*
X142625000Y-142150000D02*
X142625000Y-141650000D01*
X142625000Y-143600000D02*
X143475000Y-143600000D01*
X142625000Y-144100000D02*
X142625000Y-143600000D01*
D10*
X142725000Y-141025000D02*
X142325000Y-141300000D01*
D12*
X142825000Y-142600000D02*
X143475000Y-142600000D01*
X142825000Y-143050000D02*
X142825000Y-142600000D01*
D10*
X142850000Y-140850000D02*
X144675000Y-141750000D01*
X143100000Y-138850000D02*
X139625000Y-137225000D01*
X143100000Y-138850000D02*
X145425000Y-140000000D01*
D12*
X143475000Y-142150000D02*
X142625000Y-142150000D01*
X143475000Y-142600000D02*
X143475000Y-142150000D01*
X143475000Y-143050000D02*
X142825000Y-143050000D01*
X143475000Y-143600000D02*
X143475000Y-143050000D01*
D10*
X143500000Y-141625000D02*
X142725000Y-141025000D01*
X143850000Y-137425000D02*
X143100000Y-138850000D01*
X143850000Y-137425000D02*
X146050000Y-138600000D01*
D12*
X143875000Y-144100000D02*
X142625000Y-144100000D01*
X143925000Y-141650000D02*
X143975000Y-144100000D01*
X143975000Y-144100000D02*
X143875000Y-144100000D01*
X145075000Y-141663605D02*
X145975000Y-141650000D01*
D10*
X145425000Y-140000000D02*
X146900000Y-141725000D01*
X145425000Y-140000000D02*
X151075000Y-142850000D01*
D12*
X145474999Y-143045050D02*
X145074999Y-143045050D01*
X145475000Y-142050000D02*
X145225000Y-142050000D01*
X145475000Y-142100000D02*
X145475000Y-142550000D01*
X145475000Y-142550000D02*
X145175000Y-142550000D01*
X145475000Y-143050000D02*
X145475000Y-143550000D01*
X145475000Y-143550000D02*
X145025000Y-143550000D01*
X145975000Y-141650000D02*
X146025000Y-144100000D01*
X146025000Y-144100000D02*
X144825000Y-144100000D01*
D10*
X146050000Y-138600000D02*
X144475000Y-139500000D01*
X146150000Y-138425000D02*
X145425000Y-140000000D01*
D12*
X146425000Y-142500000D02*
X146425000Y-143200000D01*
D10*
X146725000Y-141825000D02*
X139625000Y-137225000D01*
D12*
X146925000Y-142500000D02*
X146925000Y-143150000D01*
D10*
X147175000Y-138675000D02*
X145425000Y-140000000D01*
X147175000Y-138675000D02*
X146150000Y-138425000D01*
X147250000Y-142750000D02*
X147625000Y-142925000D01*
X147575000Y-142350000D02*
X147250000Y-142750000D01*
D12*
X147625000Y-142500000D02*
X147625000Y-143200000D01*
D10*
X148125000Y-143100000D02*
X148675000Y-143375000D01*
D12*
X148125000Y-143200000D02*
X148125000Y-142500000D01*
D10*
X148175000Y-142375000D02*
X148400000Y-143000000D01*
X148400000Y-143000000D02*
X151075000Y-142850000D01*
X148675000Y-143375000D02*
X148100000Y-142575000D01*
X149750000Y-143325000D02*
X148925000Y-142975000D01*
X151075000Y-142850000D02*
X147175000Y-138675000D01*
X151075000Y-142850000D02*
X148175000Y-142375000D01*
X151075000Y-142850000D02*
X149750000Y-143325000D01*
D12*
X135050001Y-142774999D02*
G75*
G02*
X135500000Y-141688605I449999J449999D01*
G01*
X135250001Y-144124999D02*
G75*
G02*
X135073744Y-142816063I249998J699999D01*
G01*
X135450001Y-143574999D02*
G75*
G02*
X135499999Y-143070050I49999J249999D01*
G01*
X135600000Y-142575000D02*
G75*
G02*
X135660634Y-142082464I0J250000D01*
G01*
X141050001Y-143099999D02*
G75*
G02*
X141066269Y-141644594I249999J724999D01*
G01*
X141175001Y-142649999D02*
G75*
G02*
X141175001Y-142100001I124999J274999D01*
G01*
X144625001Y-142749999D02*
G75*
G02*
X145075000Y-141663605I449999J449999D01*
G01*
X144825001Y-144099999D02*
G75*
G02*
X144648744Y-142791063I249998J699999D01*
G01*
X145025001Y-143549999D02*
G75*
G02*
X145074999Y-143045050I49999J249999D01*
G01*
X145175000Y-142550000D02*
G75*
G02*
X145235634Y-142057464I0J250000D01*
G01*
X146425000Y-142500000D02*
G75*
G02*
X148125000Y-142500000I850000J0D01*
G01*
X146925000Y-142500000D02*
G75*
G02*
X147625000Y-142500000I350000J0D01*
G01*
X147625000Y-143200000D02*
G75*
G02*
X146925000Y-143200000I-350000J0D01*
G01*
X148125000Y-143200000D02*
G75*
G02*
X146425000Y-143200000I-850000J0D01*
G01*
D13*
X156622361Y-197095226D02*
X156558542Y-197159045D01*
X156494723Y-197095226D01*
X156558542Y-197031407D01*
X156622361Y-197095226D01*
G36*
X156622361Y-197095226D02*
G01*
X156558542Y-197159045D01*
X156494723Y-197095226D01*
X156558542Y-197031407D01*
X156622361Y-197095226D01*
G37*
D12*
%TO.C,S1*%
X159512400Y-126706600D02*
X169469200Y-126706600D01*
X159512400Y-122769600D02*
X159487000Y-126706600D01*
X169469200Y-126706600D02*
X169469200Y-122769600D01*
X169469200Y-122769600D02*
X159512400Y-122769600D01*
%TO.C,R2*%
X176750000Y-124390000D02*
X176750000Y-123620000D01*
X176750000Y-116310000D02*
X176750000Y-117080000D01*
X178120000Y-123620000D02*
X175380000Y-123620000D01*
X175380000Y-117080000D01*
X178120000Y-117080000D01*
X178120000Y-123620000D01*
%TD*%
M02*
