%TF.GenerationSoftware,KiCad,Pcbnew,9.0.6*%
%TF.CreationDate,2025-11-21T14:44:11+01:00*%
%TF.ProjectId,BL_Santa,424c5f53-616e-4746-912e-6b696361645f,rev?*%
%TF.SameCoordinates,Original*%
%TF.FileFunction,Soldermask,Top*%
%TF.FilePolarity,Negative*%
%FSLAX46Y46*%
G04 Gerber Fmt 4.6, Leading zero omitted, Abs format (unit mm)*
G04 Created by KiCad (PCBNEW 9.0.6) date 2025-11-21 14:44:11*
%MOMM*%
%LPD*%
G01*
G04 APERTURE LIST*
G04 Aperture macros list*
%AMRoundRect*
0 Rectangle with rounded corners*
0 $1 Rounding radius*
0 $2 $3 $4 $5 $6 $7 $8 $9 X,Y pos of 4 corners*
0 Add a 4 corners polygon primitive as box body*
4,1,4,$2,$3,$4,$5,$6,$7,$8,$9,$2,$3,0*
0 Add four circle primitives for the rounded corners*
1,1,$1+$1,$2,$3*
1,1,$1+$1,$4,$5*
1,1,$1+$1,$6,$7*
1,1,$1+$1,$8,$9*
0 Add four rect primitives between the rounded corners*
20,1,$1+$1,$2,$3,$4,$5,0*
20,1,$1+$1,$4,$5,$6,$7,0*
20,1,$1+$1,$6,$7,$8,$9,0*
20,1,$1+$1,$8,$9,$2,$3,0*%
G04 Aperture macros list end*
%ADD10C,0.010000*%
%ADD11RoundRect,0.200000X0.900000X-0.900000X0.900000X0.900000X-0.900000X0.900000X-0.900000X-0.900000X0*%
%ADD12C,2.200000*%
%ADD13C,2.400000*%
%ADD14C,2.000000*%
G04 APERTURE END LIST*
D10*
%TO.C,G\u002A\u002A\u002A*%
X144683762Y-53536115D02*
X145387467Y-53726828D01*
X146085561Y-54085497D01*
X146128765Y-54113366D01*
X146622930Y-54463920D01*
X147110004Y-54870528D01*
X147612164Y-55354814D01*
X148151585Y-55938401D01*
X148750443Y-56642912D01*
X148859881Y-56776415D01*
X149226532Y-57218453D01*
X149610109Y-57668418D01*
X149976899Y-58087585D01*
X150293186Y-58437229D01*
X150450799Y-58603818D01*
X150649607Y-58816770D01*
X150942428Y-59142252D01*
X151314474Y-59563037D01*
X151750962Y-60061898D01*
X152237104Y-60621608D01*
X152758117Y-61224941D01*
X153299213Y-61854669D01*
X153845608Y-62493565D01*
X154382516Y-63124403D01*
X154895152Y-63729955D01*
X155368729Y-64292995D01*
X155788463Y-64796295D01*
X156139567Y-65222629D01*
X156278511Y-65393797D01*
X156570685Y-65763718D01*
X156843816Y-66123363D01*
X157069411Y-66434308D01*
X157218977Y-66658132D01*
X157230914Y-66678082D01*
X157358461Y-66910378D01*
X157405065Y-67068136D01*
X157380654Y-67219701D01*
X157328967Y-67353121D01*
X157204669Y-67573068D01*
X157061887Y-67724649D01*
X157042297Y-67736663D01*
X156897453Y-67784731D01*
X156624913Y-67850487D01*
X156264231Y-67925135D01*
X155870963Y-67997137D01*
X155225834Y-68114127D01*
X154731634Y-68221416D01*
X154370993Y-68328010D01*
X154126544Y-68442919D01*
X153980916Y-68575149D01*
X153916742Y-68733709D01*
X153916654Y-68927605D01*
X153928388Y-69004586D01*
X153998267Y-69251201D01*
X154142344Y-69636445D01*
X154355604Y-70149282D01*
X154633033Y-70778674D01*
X154969618Y-71513586D01*
X155360345Y-72342982D01*
X155800200Y-73255826D01*
X156284169Y-74241081D01*
X156549995Y-74775152D01*
X156981017Y-75632652D01*
X157408277Y-76472337D01*
X157840538Y-77310535D01*
X158286564Y-78163575D01*
X158755119Y-79047786D01*
X159254966Y-79979495D01*
X159794870Y-80975031D01*
X160383594Y-82050723D01*
X161029902Y-83222900D01*
X161742558Y-84507889D01*
X162530326Y-85922019D01*
X162593841Y-86035818D01*
X163336128Y-87367890D01*
X163998424Y-88561898D01*
X164585066Y-89626622D01*
X165100393Y-90570837D01*
X165548743Y-91403324D01*
X165934454Y-92132858D01*
X166261864Y-92768219D01*
X166535311Y-93318183D01*
X166759133Y-93791530D01*
X166937669Y-94197036D01*
X167075256Y-94543480D01*
X167176232Y-94839640D01*
X167244936Y-95094293D01*
X167285706Y-95316218D01*
X167302879Y-95514192D01*
X167304051Y-95566668D01*
X167290407Y-95904105D01*
X167228278Y-96155249D01*
X167096349Y-96400947D01*
X167075780Y-96432445D01*
X166954285Y-96613146D01*
X166841629Y-96756962D01*
X166717517Y-96868517D01*
X166561649Y-96952437D01*
X166353729Y-97013348D01*
X166073458Y-97055874D01*
X165700539Y-97084642D01*
X165214673Y-97104276D01*
X164595564Y-97119403D01*
X164010382Y-97130984D01*
X163261405Y-97146620D01*
X162661513Y-97163945D01*
X162190472Y-97187012D01*
X161828051Y-97219872D01*
X161554018Y-97266578D01*
X161348139Y-97331182D01*
X161190182Y-97417735D01*
X161059915Y-97530291D01*
X160937105Y-97672900D01*
X160869698Y-97759988D01*
X160685744Y-98116018D01*
X160659192Y-98505018D01*
X160789445Y-98942208D01*
X160820629Y-99009097D01*
X160918875Y-99175039D01*
X161103713Y-99453089D01*
X161359198Y-99820594D01*
X161669385Y-100254901D01*
X162018330Y-100733360D01*
X162326742Y-101148818D01*
X163767830Y-103094331D01*
X165114109Y-104955296D01*
X166389914Y-106767492D01*
X167619579Y-108566701D01*
X168827438Y-110388701D01*
X170037824Y-112269273D01*
X171275072Y-114244197D01*
X171683839Y-114907152D01*
X172230026Y-115797539D01*
X172691642Y-116553234D01*
X173073915Y-117183105D01*
X173382075Y-117696019D01*
X173621353Y-118100844D01*
X173796979Y-118406447D01*
X173914181Y-118621696D01*
X173978190Y-118755459D01*
X173994236Y-118816604D01*
X173992066Y-118820984D01*
X173919227Y-118783968D01*
X173759152Y-118654001D01*
X173544393Y-118457818D01*
X173511437Y-118426226D01*
X172973579Y-117996493D01*
X172294665Y-117596170D01*
X171501518Y-117232501D01*
X170620958Y-116912729D01*
X169679808Y-116644098D01*
X168704887Y-116433853D01*
X167723019Y-116289236D01*
X166761023Y-116217492D01*
X165845722Y-116225865D01*
X165474823Y-116255728D01*
X164757608Y-116358632D01*
X164044003Y-116511540D01*
X163384805Y-116701284D01*
X162830807Y-116914697D01*
X162710422Y-116972358D01*
X162313121Y-117172819D01*
X161689839Y-116595738D01*
X161140913Y-116144420D01*
X160573207Y-115778874D01*
X160419839Y-115698427D01*
X160089752Y-115542645D01*
X159823259Y-115444669D01*
X159555397Y-115388821D01*
X159221203Y-115359422D01*
X158968788Y-115348215D01*
X158497880Y-115342888D01*
X158099137Y-115373345D01*
X157686266Y-115449332D01*
X157362279Y-115529643D01*
X156560103Y-115741054D01*
X155941269Y-115074939D01*
X155456259Y-114598802D01*
X155007662Y-114263777D01*
X154567187Y-114054495D01*
X154106540Y-113955588D01*
X153856983Y-113942705D01*
X153234345Y-114005399D01*
X152621726Y-114207472D01*
X151987333Y-114559447D01*
X151980810Y-114563734D01*
X151475788Y-114896124D01*
X151373374Y-114701659D01*
X151172779Y-114493609D01*
X150842363Y-114356329D01*
X150502121Y-114306326D01*
X150204172Y-114298965D01*
X150018915Y-114332094D01*
X149890867Y-114426424D01*
X149782454Y-114574960D01*
X149561583Y-114831781D01*
X149267110Y-115016617D01*
X148872547Y-115139536D01*
X148351408Y-115210608D01*
X148062965Y-115228614D01*
X147659601Y-115243820D01*
X147376971Y-115241058D01*
X147166840Y-115213472D01*
X146980971Y-115154203D01*
X146771130Y-115056395D01*
X146739513Y-115040461D01*
X146381455Y-114893855D01*
X145978166Y-114777672D01*
X145789315Y-114741851D01*
X145375081Y-114641029D01*
X144873109Y-114439810D01*
X144446916Y-114229011D01*
X144076653Y-114037123D01*
X143811236Y-113912293D01*
X143606035Y-113842015D01*
X143416419Y-113813782D01*
X143197760Y-113815089D01*
X143010271Y-113826431D01*
X142571019Y-113884515D01*
X142115208Y-114009784D01*
X141654454Y-114186995D01*
X140706417Y-114552494D01*
X139828686Y-114822878D01*
X139042618Y-114992203D01*
X138564121Y-115047052D01*
X138175256Y-115056198D01*
X137804835Y-115025524D01*
X137416330Y-114946352D01*
X136973216Y-114810001D01*
X136438966Y-114607790D01*
X136062742Y-114452614D01*
X135304003Y-114200866D01*
X134590334Y-114101320D01*
X133932365Y-114155275D01*
X133826376Y-114179918D01*
X133389244Y-114315725D01*
X133013395Y-114495069D01*
X132646756Y-114748688D01*
X132237258Y-115107317D01*
X132207097Y-115135771D01*
X131734407Y-115583280D01*
X131029095Y-115494842D01*
X130187107Y-115449037D01*
X129446385Y-115537391D01*
X128802007Y-115762161D01*
X128249047Y-116125607D01*
X127782584Y-116629987D01*
X127474026Y-117125721D01*
X127333274Y-117391474D01*
X127226004Y-117590820D01*
X127173863Y-117683564D01*
X127172718Y-117685179D01*
X127100159Y-117650963D01*
X126924312Y-117536996D01*
X126677648Y-117364739D01*
X126568013Y-117285480D01*
X126078910Y-116960589D01*
X125642581Y-116750615D01*
X125207764Y-116636870D01*
X124723198Y-116600666D01*
X124689309Y-116600552D01*
X124080364Y-116680586D01*
X123435110Y-116921422D01*
X122750216Y-117324366D01*
X122628885Y-117409597D01*
X122394860Y-117566858D01*
X122208368Y-117672714D01*
X122127922Y-117701152D01*
X122011495Y-117671303D01*
X121779033Y-117591317D01*
X121471074Y-117475538D01*
X121302618Y-117409174D01*
X120539829Y-117147079D01*
X119869382Y-117015164D01*
X119271577Y-117016646D01*
X118726710Y-117154741D01*
X118215080Y-117432667D01*
X117716984Y-117853640D01*
X117555477Y-118020986D01*
X117095407Y-118517917D01*
X114685264Y-118960811D01*
X114061913Y-119075904D01*
X113488176Y-119182872D01*
X112986518Y-119277446D01*
X112579401Y-119355356D01*
X112289292Y-119412329D01*
X112138654Y-119444098D01*
X112126954Y-119447134D01*
X112001725Y-119433548D01*
X111978788Y-119359929D01*
X112026996Y-119173388D01*
X112167978Y-118857976D01*
X112396269Y-118422749D01*
X112706406Y-117876759D01*
X113092924Y-117229062D01*
X113550359Y-116488710D01*
X114073247Y-115664759D01*
X114656123Y-114766262D01*
X115293524Y-113802273D01*
X115688000Y-113213818D01*
X118048381Y-109800436D01*
X120547694Y-106360233D01*
X123164833Y-102921722D01*
X125308062Y-100217485D01*
X125763955Y-99644843D01*
X126116686Y-99183719D01*
X126376284Y-98819691D01*
X126552780Y-98538334D01*
X126656203Y-98325228D01*
X126683765Y-98239292D01*
X126674741Y-98002740D01*
X126573316Y-97703786D01*
X126408652Y-97397909D01*
X126209911Y-97140588D01*
X126032005Y-96999402D01*
X125909603Y-96951089D01*
X125728515Y-96906688D01*
X125473138Y-96864570D01*
X125127867Y-96823106D01*
X124677099Y-96780668D01*
X124105232Y-96735627D01*
X123396660Y-96686354D01*
X122535781Y-96631220D01*
X122459696Y-96626496D01*
X121987901Y-96591812D01*
X121563840Y-96550500D01*
X121221882Y-96506675D01*
X120996400Y-96464453D01*
X120935696Y-96444041D01*
X120558345Y-96179246D01*
X120327653Y-95844288D01*
X120239596Y-95428629D01*
X120290151Y-94921731D01*
X120314434Y-94816879D01*
X120408361Y-94535363D01*
X120582221Y-94116628D01*
X120622632Y-94027860D01*
X127599960Y-94027860D01*
X127606331Y-94485908D01*
X127674417Y-94769573D01*
X127809242Y-94989914D01*
X128002490Y-95179818D01*
X128226314Y-95378404D01*
X128520360Y-95642671D01*
X128830223Y-95923663D01*
X128910172Y-95996624D01*
X129198987Y-96248930D01*
X129474979Y-96470047D01*
X129691790Y-96623465D01*
X129746179Y-96654965D01*
X129938610Y-96799456D01*
X130012788Y-96953945D01*
X130088482Y-97178019D01*
X130290770Y-97330005D01*
X130558801Y-97381152D01*
X130784513Y-97417495D01*
X130941617Y-97505223D01*
X130944121Y-97508152D01*
X131102070Y-97595672D01*
X131352733Y-97634739D01*
X131382026Y-97635152D01*
X131568955Y-97646265D01*
X131755192Y-97688555D01*
X131969027Y-97775441D01*
X132238754Y-97920345D01*
X132592665Y-98136689D01*
X133018963Y-98411682D01*
X133781471Y-98909859D01*
X133782235Y-100960672D01*
X133782998Y-103011485D01*
X134108705Y-104027485D01*
X134268286Y-104488959D01*
X134450144Y-104957831D01*
X134629926Y-105373961D01*
X134760092Y-105636152D01*
X134980820Y-105981077D01*
X135283051Y-106375959D01*
X135636533Y-106788458D01*
X136011016Y-107186233D01*
X136376247Y-107536943D01*
X136701976Y-107808247D01*
X136927821Y-107953591D01*
X137138417Y-108076326D01*
X137270327Y-108218079D01*
X137366909Y-108436625D01*
X137420618Y-108610286D01*
X137504964Y-108967406D01*
X137575959Y-109384350D01*
X137607914Y-109660844D01*
X137629273Y-109965640D01*
X137623260Y-110143414D01*
X137580837Y-110235485D01*
X137492967Y-110283166D01*
X137470130Y-110290699D01*
X137311675Y-110403495D01*
X137164516Y-110603651D01*
X137146288Y-110639415D01*
X137062553Y-110839627D01*
X137063921Y-110974192D01*
X137155904Y-111126925D01*
X137180531Y-111160165D01*
X137352965Y-111391123D01*
X136876475Y-111860272D01*
X136488937Y-112286561D01*
X136245439Y-112667964D01*
X136134634Y-113026893D01*
X136135353Y-113324111D01*
X136272742Y-113743245D01*
X136549725Y-114113292D01*
X136940080Y-114419489D01*
X137417585Y-114647072D01*
X137956016Y-114781279D01*
X138529150Y-114807346D01*
X138735406Y-114787884D01*
X139129839Y-114713327D01*
X139622658Y-114587922D01*
X140157326Y-114429178D01*
X140677307Y-114254601D01*
X141126063Y-114081699D01*
X141358608Y-113975572D01*
X141666274Y-113799199D01*
X141866084Y-113619931D01*
X142012706Y-113387348D01*
X142026240Y-113359853D01*
X142178127Y-112914777D01*
X142178396Y-112486799D01*
X142070933Y-112120708D01*
X141992625Y-111900907D01*
X141989800Y-111756608D01*
X142069653Y-111608361D01*
X142124154Y-111533138D01*
X142256636Y-111253933D01*
X142228922Y-110975708D01*
X142038909Y-110677806D01*
X142036783Y-110675350D01*
X141924524Y-110518377D01*
X141926826Y-110395121D01*
X141979907Y-110302008D01*
X142179969Y-110107853D01*
X142482472Y-109928651D01*
X142821368Y-109796262D01*
X143130613Y-109742548D01*
X143139769Y-109742485D01*
X143396530Y-109784776D01*
X143711837Y-109893905D01*
X144028625Y-110043254D01*
X144289829Y-110206206D01*
X144431960Y-110345210D01*
X144461194Y-110472397D01*
X144376530Y-110628849D01*
X144292847Y-110725345D01*
X144108011Y-111022139D01*
X144085890Y-111325700D01*
X144226362Y-111613302D01*
X144326037Y-111752166D01*
X144331023Y-111858917D01*
X144237692Y-112008989D01*
X144205195Y-112053158D01*
X144071897Y-112360266D01*
X144040673Y-112741598D01*
X144109870Y-113137534D01*
X144243516Y-113436372D01*
X144574693Y-113829337D01*
X145023019Y-114157941D01*
X145539551Y-114390799D01*
X145856155Y-114470509D01*
X146239629Y-114559649D01*
X146637514Y-114685928D01*
X146872155Y-114781110D01*
X147117758Y-114885525D01*
X147338598Y-114945824D01*
X147592413Y-114970640D01*
X147936940Y-114968607D01*
X148089583Y-114963152D01*
X148583378Y-114924772D01*
X148953461Y-114855883D01*
X149120075Y-114794310D01*
X149422673Y-114570451D01*
X149658871Y-114234895D01*
X149846393Y-113761562D01*
X149865564Y-113697371D01*
X149950199Y-113313789D01*
X149948709Y-112982754D01*
X149851521Y-112648946D01*
X149649065Y-112257047D01*
X149603034Y-112179913D01*
X149435905Y-111877270D01*
X149343606Y-111616559D01*
X149302139Y-111314801D01*
X149292446Y-111105940D01*
X149274748Y-110778954D01*
X149234001Y-110563862D01*
X149151967Y-110403295D01*
X149020454Y-110250334D01*
X148819562Y-109925060D01*
X148769774Y-109530467D01*
X148869876Y-109071222D01*
X149118656Y-108551989D01*
X149514901Y-107977434D01*
X149657236Y-107801115D01*
X149969176Y-107463605D01*
X150277071Y-107224657D01*
X150620193Y-107043352D01*
X150876867Y-106918542D01*
X151069841Y-106792823D01*
X151238279Y-106629034D01*
X151421346Y-106390015D01*
X151623131Y-106091746D01*
X152007489Y-105482971D01*
X152355363Y-104879039D01*
X152649269Y-104313330D01*
X152871726Y-103819219D01*
X152992522Y-103477152D01*
X153058835Y-103208203D01*
X153105858Y-102920225D01*
X153134470Y-102587147D01*
X153145553Y-102182897D01*
X153139987Y-101681404D01*
X153118651Y-101056595D01*
X153093146Y-100497810D01*
X153019971Y-99000136D01*
X153428622Y-98740977D01*
X153769491Y-98561740D01*
X154088011Y-98487882D01*
X154232612Y-98481818D01*
X154592349Y-98437474D01*
X154870087Y-98291318D01*
X155206613Y-98127980D01*
X155467320Y-98090586D01*
X155756050Y-98052033D01*
X156097276Y-97965126D01*
X156273770Y-97904004D01*
X156591071Y-97793487D01*
X156901516Y-97706533D01*
X157040129Y-97678034D01*
X157435699Y-97533109D01*
X157761236Y-97238239D01*
X158008645Y-96801083D01*
X158032686Y-96739462D01*
X158171609Y-96252876D01*
X158186803Y-95822572D01*
X158076536Y-95387399D01*
X157988510Y-95180094D01*
X157732887Y-94717807D01*
X157453782Y-94404401D01*
X157123853Y-94219468D01*
X156715762Y-94142599D01*
X156592168Y-94137775D01*
X156193196Y-94131757D01*
X156149982Y-93748367D01*
X156076053Y-93433346D01*
X155911995Y-93194988D01*
X155843109Y-93129398D01*
X155649801Y-92980949D01*
X155490659Y-92899282D01*
X155458712Y-92893818D01*
X155340150Y-92946626D01*
X155137927Y-93086114D01*
X154892601Y-93283880D01*
X154854208Y-93317152D01*
X154582256Y-93542856D01*
X154379008Y-93671950D01*
X154195379Y-93729472D01*
X154023781Y-93740801D01*
X153723451Y-93782562D01*
X153443767Y-93884641D01*
X153413172Y-93902068D01*
X153149223Y-94063019D01*
X152924214Y-93203252D01*
X152791167Y-92749274D01*
X152627574Y-92269533D01*
X152461110Y-91843001D01*
X152396962Y-91698650D01*
X152251160Y-91382169D01*
X152170304Y-91174813D01*
X152146895Y-91032651D01*
X152173434Y-90911755D01*
X152239183Y-90774452D01*
X152344875Y-90422078D01*
X152340700Y-90114065D01*
X152303941Y-89907081D01*
X152228344Y-89734321D01*
X152085181Y-89551684D01*
X151845724Y-89315073D01*
X151780937Y-89254789D01*
X151541493Y-89024852D01*
X151380900Y-88830839D01*
X151293147Y-88636703D01*
X151272225Y-88406400D01*
X151312124Y-88103883D01*
X151406834Y-87693108D01*
X151475788Y-87424608D01*
X151627250Y-86696440D01*
X151685767Y-86004985D01*
X151687454Y-85857216D01*
X151696436Y-85495271D01*
X151721267Y-85237486D01*
X151758773Y-85112076D01*
X151772121Y-85104485D01*
X151837983Y-85176304D01*
X151856788Y-85296817D01*
X151893737Y-85608265D01*
X151990628Y-85985305D01*
X152126528Y-86368225D01*
X152280501Y-86697313D01*
X152418739Y-86899729D01*
X152817284Y-87221421D01*
X153266894Y-87411148D01*
X153731837Y-87459480D01*
X154166674Y-87361095D01*
X154457232Y-87179778D01*
X154742753Y-86904335D01*
X154976824Y-86588878D01*
X155113032Y-86287520D01*
X155122099Y-86247174D01*
X155144868Y-85739966D01*
X155032515Y-85267554D01*
X154804318Y-84856492D01*
X154479552Y-84533332D01*
X154077494Y-84324628D01*
X153677121Y-84256770D01*
X153572925Y-84243612D01*
X153473194Y-84194460D01*
X153359714Y-84088459D01*
X153214274Y-83904757D01*
X153018660Y-83622500D01*
X152754659Y-83220834D01*
X152703454Y-83141931D01*
X152002932Y-82171181D01*
X151252629Y-81339554D01*
X150464419Y-80659855D01*
X150275651Y-80524027D01*
X149694128Y-80172146D01*
X148982111Y-79825418D01*
X148178038Y-79500663D01*
X147320345Y-79214702D01*
X147207329Y-79181375D01*
X146693863Y-79036340D01*
X146284936Y-78934466D01*
X145924120Y-78866351D01*
X145554986Y-78822591D01*
X145121106Y-78793785D01*
X144794329Y-78779291D01*
X144133278Y-78766390D01*
X143506668Y-78779316D01*
X142972556Y-78816502D01*
X142839788Y-78832056D01*
X142327932Y-78924945D01*
X141738645Y-79072222D01*
X141127480Y-79256561D01*
X140549987Y-79460634D01*
X140061720Y-79667115D01*
X139898092Y-79749591D01*
X139355805Y-80098958D01*
X138797174Y-80559089D01*
X138272429Y-81085049D01*
X137901166Y-81535949D01*
X137688656Y-81840551D01*
X137458540Y-82199711D01*
X137229616Y-82580324D01*
X137020684Y-82949287D01*
X136850541Y-83273495D01*
X136737986Y-83519846D01*
X136701454Y-83648630D01*
X136772937Y-83730872D01*
X136947903Y-83820690D01*
X136976621Y-83831393D01*
X137251788Y-83929534D01*
X136997788Y-84060945D01*
X136514897Y-84401571D01*
X136113771Y-84866012D01*
X135816646Y-85419559D01*
X135645754Y-86027505D01*
X135623185Y-86206787D01*
X135626414Y-86624594D01*
X135696594Y-87066496D01*
X135819267Y-87475304D01*
X135979975Y-87793831D01*
X136045265Y-87876367D01*
X136152937Y-88014483D01*
X136176693Y-88149097D01*
X136125825Y-88354292D01*
X136110950Y-88399934D01*
X136051415Y-88683410D01*
X136046324Y-88952845D01*
X136052634Y-88993551D01*
X136069157Y-89172198D01*
X136038665Y-89252776D01*
X136034992Y-89253152D01*
X135939092Y-89307614D01*
X135770653Y-89446753D01*
X135656109Y-89553560D01*
X135451697Y-89797813D01*
X135357264Y-90050976D01*
X135368483Y-90353637D01*
X135481028Y-90746383D01*
X135518252Y-90847056D01*
X135689631Y-91297960D01*
X135310375Y-91719783D01*
X134906750Y-92254426D01*
X134617247Y-92820899D01*
X134462942Y-93376761D01*
X134454122Y-93444152D01*
X134415217Y-93765204D01*
X134373953Y-94071395D01*
X134360197Y-94163818D01*
X134314057Y-94460152D01*
X134089589Y-94195753D01*
X133866961Y-93988059D01*
X133587021Y-93794297D01*
X133505288Y-93749532D01*
X133244103Y-93579407D01*
X133146094Y-93417014D01*
X133145454Y-93403396D01*
X133068097Y-93176820D01*
X132861695Y-93001638D01*
X132564754Y-92904733D01*
X132415528Y-92893818D01*
X132209898Y-92887419D01*
X132088122Y-92842730D01*
X132013992Y-92721512D01*
X131951302Y-92485529D01*
X131927497Y-92378408D01*
X131814329Y-92097392D01*
X131631057Y-91864411D01*
X131420453Y-91726783D01*
X131321922Y-91708485D01*
X131124980Y-91769696D01*
X130885617Y-91923107D01*
X130660196Y-92123383D01*
X130505080Y-92325187D01*
X130477979Y-92387315D01*
X130437711Y-92481058D01*
X130368729Y-92499562D01*
X130224304Y-92440898D01*
X130088433Y-92371208D01*
X129792941Y-92253291D01*
X129497430Y-92233492D01*
X129358980Y-92248268D01*
X128829754Y-92398206D01*
X128368365Y-92677784D01*
X127995687Y-93060353D01*
X127732594Y-93519262D01*
X127599960Y-94027860D01*
X120622632Y-94027860D01*
X120831079Y-93569986D01*
X121150001Y-92904750D01*
X121534053Y-92130231D01*
X121978300Y-91255743D01*
X122477810Y-90290596D01*
X123027646Y-89244105D01*
X123622877Y-88125579D01*
X124258566Y-86944333D01*
X124929780Y-85709679D01*
X125631585Y-84430928D01*
X126359047Y-83117393D01*
X127107231Y-81778386D01*
X127871204Y-80423219D01*
X128646031Y-79061206D01*
X128870024Y-78669818D01*
X129627371Y-77339085D01*
X130333849Y-76079194D01*
X130985691Y-74897463D01*
X131579131Y-73801207D01*
X132110403Y-72797741D01*
X132575739Y-71894381D01*
X132971375Y-71098443D01*
X133293543Y-70417243D01*
X133538477Y-69858097D01*
X133702410Y-69428319D01*
X133781577Y-69135227D01*
X133782793Y-69127355D01*
X133756524Y-68757626D01*
X133580503Y-68410311D01*
X133273702Y-68122162D01*
X133258772Y-68112252D01*
X133148755Y-68052967D01*
X133011178Y-68012379D01*
X132816332Y-67987998D01*
X132534506Y-67977335D01*
X132135990Y-67977901D01*
X131732506Y-67984393D01*
X131077182Y-67989049D01*
X130572679Y-67972542D01*
X130201446Y-67931733D01*
X129945933Y-67863484D01*
X129788589Y-67764656D01*
X129711864Y-67632111D01*
X129709335Y-67622596D01*
X129689600Y-67548028D01*
X129681142Y-67482911D01*
X129695618Y-67408285D01*
X129744688Y-67305194D01*
X129840008Y-67154680D01*
X129993237Y-66937785D01*
X130216033Y-66635550D01*
X130520053Y-66229019D01*
X130777767Y-65885152D01*
X132467183Y-63715249D01*
X134174226Y-61691884D01*
X135893832Y-59820531D01*
X137620934Y-58106666D01*
X139350465Y-56555763D01*
X139622454Y-56326961D01*
X140505754Y-55599947D01*
X141271196Y-54990062D01*
X141921369Y-54495412D01*
X142458863Y-54114104D01*
X142886268Y-53844246D01*
X143206173Y-53683945D01*
X143270890Y-53660361D01*
X143977289Y-53513809D01*
X144683762Y-53536115D01*
G36*
X144683762Y-53536115D02*
G01*
X145387467Y-53726828D01*
X146085561Y-54085497D01*
X146128765Y-54113366D01*
X146622930Y-54463920D01*
X147110004Y-54870528D01*
X147612164Y-55354814D01*
X148151585Y-55938401D01*
X148750443Y-56642912D01*
X148859881Y-56776415D01*
X149226532Y-57218453D01*
X149610109Y-57668418D01*
X149976899Y-58087585D01*
X150293186Y-58437229D01*
X150450799Y-58603818D01*
X150649607Y-58816770D01*
X150942428Y-59142252D01*
X151314474Y-59563037D01*
X151750962Y-60061898D01*
X152237104Y-60621608D01*
X152758117Y-61224941D01*
X153299213Y-61854669D01*
X153845608Y-62493565D01*
X154382516Y-63124403D01*
X154895152Y-63729955D01*
X155368729Y-64292995D01*
X155788463Y-64796295D01*
X156139567Y-65222629D01*
X156278511Y-65393797D01*
X156570685Y-65763718D01*
X156843816Y-66123363D01*
X157069411Y-66434308D01*
X157218977Y-66658132D01*
X157230914Y-66678082D01*
X157358461Y-66910378D01*
X157405065Y-67068136D01*
X157380654Y-67219701D01*
X157328967Y-67353121D01*
X157204669Y-67573068D01*
X157061887Y-67724649D01*
X157042297Y-67736663D01*
X156897453Y-67784731D01*
X156624913Y-67850487D01*
X156264231Y-67925135D01*
X155870963Y-67997137D01*
X155225834Y-68114127D01*
X154731634Y-68221416D01*
X154370993Y-68328010D01*
X154126544Y-68442919D01*
X153980916Y-68575149D01*
X153916742Y-68733709D01*
X153916654Y-68927605D01*
X153928388Y-69004586D01*
X153998267Y-69251201D01*
X154142344Y-69636445D01*
X154355604Y-70149282D01*
X154633033Y-70778674D01*
X154969618Y-71513586D01*
X155360345Y-72342982D01*
X155800200Y-73255826D01*
X156284169Y-74241081D01*
X156549995Y-74775152D01*
X156981017Y-75632652D01*
X157408277Y-76472337D01*
X157840538Y-77310535D01*
X158286564Y-78163575D01*
X158755119Y-79047786D01*
X159254966Y-79979495D01*
X159794870Y-80975031D01*
X160383594Y-82050723D01*
X161029902Y-83222900D01*
X161742558Y-84507889D01*
X162530326Y-85922019D01*
X162593841Y-86035818D01*
X163336128Y-87367890D01*
X163998424Y-88561898D01*
X164585066Y-89626622D01*
X165100393Y-90570837D01*
X165548743Y-91403324D01*
X165934454Y-92132858D01*
X166261864Y-92768219D01*
X166535311Y-93318183D01*
X166759133Y-93791530D01*
X166937669Y-94197036D01*
X167075256Y-94543480D01*
X167176232Y-94839640D01*
X167244936Y-95094293D01*
X167285706Y-95316218D01*
X167302879Y-95514192D01*
X167304051Y-95566668D01*
X167290407Y-95904105D01*
X167228278Y-96155249D01*
X167096349Y-96400947D01*
X167075780Y-96432445D01*
X166954285Y-96613146D01*
X166841629Y-96756962D01*
X166717517Y-96868517D01*
X166561649Y-96952437D01*
X166353729Y-97013348D01*
X166073458Y-97055874D01*
X165700539Y-97084642D01*
X165214673Y-97104276D01*
X164595564Y-97119403D01*
X164010382Y-97130984D01*
X163261405Y-97146620D01*
X162661513Y-97163945D01*
X162190472Y-97187012D01*
X161828051Y-97219872D01*
X161554018Y-97266578D01*
X161348139Y-97331182D01*
X161190182Y-97417735D01*
X161059915Y-97530291D01*
X160937105Y-97672900D01*
X160869698Y-97759988D01*
X160685744Y-98116018D01*
X160659192Y-98505018D01*
X160789445Y-98942208D01*
X160820629Y-99009097D01*
X160918875Y-99175039D01*
X161103713Y-99453089D01*
X161359198Y-99820594D01*
X161669385Y-100254901D01*
X162018330Y-100733360D01*
X162326742Y-101148818D01*
X163767830Y-103094331D01*
X165114109Y-104955296D01*
X166389914Y-106767492D01*
X167619579Y-108566701D01*
X168827438Y-110388701D01*
X170037824Y-112269273D01*
X171275072Y-114244197D01*
X171683839Y-114907152D01*
X172230026Y-115797539D01*
X172691642Y-116553234D01*
X173073915Y-117183105D01*
X173382075Y-117696019D01*
X173621353Y-118100844D01*
X173796979Y-118406447D01*
X173914181Y-118621696D01*
X173978190Y-118755459D01*
X173994236Y-118816604D01*
X173992066Y-118820984D01*
X173919227Y-118783968D01*
X173759152Y-118654001D01*
X173544393Y-118457818D01*
X173511437Y-118426226D01*
X172973579Y-117996493D01*
X172294665Y-117596170D01*
X171501518Y-117232501D01*
X170620958Y-116912729D01*
X169679808Y-116644098D01*
X168704887Y-116433853D01*
X167723019Y-116289236D01*
X166761023Y-116217492D01*
X165845722Y-116225865D01*
X165474823Y-116255728D01*
X164757608Y-116358632D01*
X164044003Y-116511540D01*
X163384805Y-116701284D01*
X162830807Y-116914697D01*
X162710422Y-116972358D01*
X162313121Y-117172819D01*
X161689839Y-116595738D01*
X161140913Y-116144420D01*
X160573207Y-115778874D01*
X160419839Y-115698427D01*
X160089752Y-115542645D01*
X159823259Y-115444669D01*
X159555397Y-115388821D01*
X159221203Y-115359422D01*
X158968788Y-115348215D01*
X158497880Y-115342888D01*
X158099137Y-115373345D01*
X157686266Y-115449332D01*
X157362279Y-115529643D01*
X156560103Y-115741054D01*
X155941269Y-115074939D01*
X155456259Y-114598802D01*
X155007662Y-114263777D01*
X154567187Y-114054495D01*
X154106540Y-113955588D01*
X153856983Y-113942705D01*
X153234345Y-114005399D01*
X152621726Y-114207472D01*
X151987333Y-114559447D01*
X151980810Y-114563734D01*
X151475788Y-114896124D01*
X151373374Y-114701659D01*
X151172779Y-114493609D01*
X150842363Y-114356329D01*
X150502121Y-114306326D01*
X150204172Y-114298965D01*
X150018915Y-114332094D01*
X149890867Y-114426424D01*
X149782454Y-114574960D01*
X149561583Y-114831781D01*
X149267110Y-115016617D01*
X148872547Y-115139536D01*
X148351408Y-115210608D01*
X148062965Y-115228614D01*
X147659601Y-115243820D01*
X147376971Y-115241058D01*
X147166840Y-115213472D01*
X146980971Y-115154203D01*
X146771130Y-115056395D01*
X146739513Y-115040461D01*
X146381455Y-114893855D01*
X145978166Y-114777672D01*
X145789315Y-114741851D01*
X145375081Y-114641029D01*
X144873109Y-114439810D01*
X144446916Y-114229011D01*
X144076653Y-114037123D01*
X143811236Y-113912293D01*
X143606035Y-113842015D01*
X143416419Y-113813782D01*
X143197760Y-113815089D01*
X143010271Y-113826431D01*
X142571019Y-113884515D01*
X142115208Y-114009784D01*
X141654454Y-114186995D01*
X140706417Y-114552494D01*
X139828686Y-114822878D01*
X139042618Y-114992203D01*
X138564121Y-115047052D01*
X138175256Y-115056198D01*
X137804835Y-115025524D01*
X137416330Y-114946352D01*
X136973216Y-114810001D01*
X136438966Y-114607790D01*
X136062742Y-114452614D01*
X135304003Y-114200866D01*
X134590334Y-114101320D01*
X133932365Y-114155275D01*
X133826376Y-114179918D01*
X133389244Y-114315725D01*
X133013395Y-114495069D01*
X132646756Y-114748688D01*
X132237258Y-115107317D01*
X132207097Y-115135771D01*
X131734407Y-115583280D01*
X131029095Y-115494842D01*
X130187107Y-115449037D01*
X129446385Y-115537391D01*
X128802007Y-115762161D01*
X128249047Y-116125607D01*
X127782584Y-116629987D01*
X127474026Y-117125721D01*
X127333274Y-117391474D01*
X127226004Y-117590820D01*
X127173863Y-117683564D01*
X127172718Y-117685179D01*
X127100159Y-117650963D01*
X126924312Y-117536996D01*
X126677648Y-117364739D01*
X126568013Y-117285480D01*
X126078910Y-116960589D01*
X125642581Y-116750615D01*
X125207764Y-116636870D01*
X124723198Y-116600666D01*
X124689309Y-116600552D01*
X124080364Y-116680586D01*
X123435110Y-116921422D01*
X122750216Y-117324366D01*
X122628885Y-117409597D01*
X122394860Y-117566858D01*
X122208368Y-117672714D01*
X122127922Y-117701152D01*
X122011495Y-117671303D01*
X121779033Y-117591317D01*
X121471074Y-117475538D01*
X121302618Y-117409174D01*
X120539829Y-117147079D01*
X119869382Y-117015164D01*
X119271577Y-117016646D01*
X118726710Y-117154741D01*
X118215080Y-117432667D01*
X117716984Y-117853640D01*
X117555477Y-118020986D01*
X117095407Y-118517917D01*
X114685264Y-118960811D01*
X114061913Y-119075904D01*
X113488176Y-119182872D01*
X112986518Y-119277446D01*
X112579401Y-119355356D01*
X112289292Y-119412329D01*
X112138654Y-119444098D01*
X112126954Y-119447134D01*
X112001725Y-119433548D01*
X111978788Y-119359929D01*
X112026996Y-119173388D01*
X112167978Y-118857976D01*
X112396269Y-118422749D01*
X112706406Y-117876759D01*
X113092924Y-117229062D01*
X113550359Y-116488710D01*
X114073247Y-115664759D01*
X114656123Y-114766262D01*
X115293524Y-113802273D01*
X115688000Y-113213818D01*
X118048381Y-109800436D01*
X120547694Y-106360233D01*
X123164833Y-102921722D01*
X125308062Y-100217485D01*
X125763955Y-99644843D01*
X126116686Y-99183719D01*
X126376284Y-98819691D01*
X126552780Y-98538334D01*
X126656203Y-98325228D01*
X126683765Y-98239292D01*
X126674741Y-98002740D01*
X126573316Y-97703786D01*
X126408652Y-97397909D01*
X126209911Y-97140588D01*
X126032005Y-96999402D01*
X125909603Y-96951089D01*
X125728515Y-96906688D01*
X125473138Y-96864570D01*
X125127867Y-96823106D01*
X124677099Y-96780668D01*
X124105232Y-96735627D01*
X123396660Y-96686354D01*
X122535781Y-96631220D01*
X122459696Y-96626496D01*
X121987901Y-96591812D01*
X121563840Y-96550500D01*
X121221882Y-96506675D01*
X120996400Y-96464453D01*
X120935696Y-96444041D01*
X120558345Y-96179246D01*
X120327653Y-95844288D01*
X120239596Y-95428629D01*
X120290151Y-94921731D01*
X120314434Y-94816879D01*
X120408361Y-94535363D01*
X120582221Y-94116628D01*
X120622632Y-94027860D01*
X127599960Y-94027860D01*
X127606331Y-94485908D01*
X127674417Y-94769573D01*
X127809242Y-94989914D01*
X128002490Y-95179818D01*
X128226314Y-95378404D01*
X128520360Y-95642671D01*
X128830223Y-95923663D01*
X128910172Y-95996624D01*
X129198987Y-96248930D01*
X129474979Y-96470047D01*
X129691790Y-96623465D01*
X129746179Y-96654965D01*
X129938610Y-96799456D01*
X130012788Y-96953945D01*
X130088482Y-97178019D01*
X130290770Y-97330005D01*
X130558801Y-97381152D01*
X130784513Y-97417495D01*
X130941617Y-97505223D01*
X130944121Y-97508152D01*
X131102070Y-97595672D01*
X131352733Y-97634739D01*
X131382026Y-97635152D01*
X131568955Y-97646265D01*
X131755192Y-97688555D01*
X131969027Y-97775441D01*
X132238754Y-97920345D01*
X132592665Y-98136689D01*
X133018963Y-98411682D01*
X133781471Y-98909859D01*
X133782235Y-100960672D01*
X133782998Y-103011485D01*
X134108705Y-104027485D01*
X134268286Y-104488959D01*
X134450144Y-104957831D01*
X134629926Y-105373961D01*
X134760092Y-105636152D01*
X134980820Y-105981077D01*
X135283051Y-106375959D01*
X135636533Y-106788458D01*
X136011016Y-107186233D01*
X136376247Y-107536943D01*
X136701976Y-107808247D01*
X136927821Y-107953591D01*
X137138417Y-108076326D01*
X137270327Y-108218079D01*
X137366909Y-108436625D01*
X137420618Y-108610286D01*
X137504964Y-108967406D01*
X137575959Y-109384350D01*
X137607914Y-109660844D01*
X137629273Y-109965640D01*
X137623260Y-110143414D01*
X137580837Y-110235485D01*
X137492967Y-110283166D01*
X137470130Y-110290699D01*
X137311675Y-110403495D01*
X137164516Y-110603651D01*
X137146288Y-110639415D01*
X137062553Y-110839627D01*
X137063921Y-110974192D01*
X137155904Y-111126925D01*
X137180531Y-111160165D01*
X137352965Y-111391123D01*
X136876475Y-111860272D01*
X136488937Y-112286561D01*
X136245439Y-112667964D01*
X136134634Y-113026893D01*
X136135353Y-113324111D01*
X136272742Y-113743245D01*
X136549725Y-114113292D01*
X136940080Y-114419489D01*
X137417585Y-114647072D01*
X137956016Y-114781279D01*
X138529150Y-114807346D01*
X138735406Y-114787884D01*
X139129839Y-114713327D01*
X139622658Y-114587922D01*
X140157326Y-114429178D01*
X140677307Y-114254601D01*
X141126063Y-114081699D01*
X141358608Y-113975572D01*
X141666274Y-113799199D01*
X141866084Y-113619931D01*
X142012706Y-113387348D01*
X142026240Y-113359853D01*
X142178127Y-112914777D01*
X142178396Y-112486799D01*
X142070933Y-112120708D01*
X141992625Y-111900907D01*
X141989800Y-111756608D01*
X142069653Y-111608361D01*
X142124154Y-111533138D01*
X142256636Y-111253933D01*
X142228922Y-110975708D01*
X142038909Y-110677806D01*
X142036783Y-110675350D01*
X141924524Y-110518377D01*
X141926826Y-110395121D01*
X141979907Y-110302008D01*
X142179969Y-110107853D01*
X142482472Y-109928651D01*
X142821368Y-109796262D01*
X143130613Y-109742548D01*
X143139769Y-109742485D01*
X143396530Y-109784776D01*
X143711837Y-109893905D01*
X144028625Y-110043254D01*
X144289829Y-110206206D01*
X144431960Y-110345210D01*
X144461194Y-110472397D01*
X144376530Y-110628849D01*
X144292847Y-110725345D01*
X144108011Y-111022139D01*
X144085890Y-111325700D01*
X144226362Y-111613302D01*
X144326037Y-111752166D01*
X144331023Y-111858917D01*
X144237692Y-112008989D01*
X144205195Y-112053158D01*
X144071897Y-112360266D01*
X144040673Y-112741598D01*
X144109870Y-113137534D01*
X144243516Y-113436372D01*
X144574693Y-113829337D01*
X145023019Y-114157941D01*
X145539551Y-114390799D01*
X145856155Y-114470509D01*
X146239629Y-114559649D01*
X146637514Y-114685928D01*
X146872155Y-114781110D01*
X147117758Y-114885525D01*
X147338598Y-114945824D01*
X147592413Y-114970640D01*
X147936940Y-114968607D01*
X148089583Y-114963152D01*
X148583378Y-114924772D01*
X148953461Y-114855883D01*
X149120075Y-114794310D01*
X149422673Y-114570451D01*
X149658871Y-114234895D01*
X149846393Y-113761562D01*
X149865564Y-113697371D01*
X149950199Y-113313789D01*
X149948709Y-112982754D01*
X149851521Y-112648946D01*
X149649065Y-112257047D01*
X149603034Y-112179913D01*
X149435905Y-111877270D01*
X149343606Y-111616559D01*
X149302139Y-111314801D01*
X149292446Y-111105940D01*
X149274748Y-110778954D01*
X149234001Y-110563862D01*
X149151967Y-110403295D01*
X149020454Y-110250334D01*
X148819562Y-109925060D01*
X148769774Y-109530467D01*
X148869876Y-109071222D01*
X149118656Y-108551989D01*
X149514901Y-107977434D01*
X149657236Y-107801115D01*
X149969176Y-107463605D01*
X150277071Y-107224657D01*
X150620193Y-107043352D01*
X150876867Y-106918542D01*
X151069841Y-106792823D01*
X151238279Y-106629034D01*
X151421346Y-106390015D01*
X151623131Y-106091746D01*
X152007489Y-105482971D01*
X152355363Y-104879039D01*
X152649269Y-104313330D01*
X152871726Y-103819219D01*
X152992522Y-103477152D01*
X153058835Y-103208203D01*
X153105858Y-102920225D01*
X153134470Y-102587147D01*
X153145553Y-102182897D01*
X153139987Y-101681404D01*
X153118651Y-101056595D01*
X153093146Y-100497810D01*
X153019971Y-99000136D01*
X153428622Y-98740977D01*
X153769491Y-98561740D01*
X154088011Y-98487882D01*
X154232612Y-98481818D01*
X154592349Y-98437474D01*
X154870087Y-98291318D01*
X155206613Y-98127980D01*
X155467320Y-98090586D01*
X155756050Y-98052033D01*
X156097276Y-97965126D01*
X156273770Y-97904004D01*
X156591071Y-97793487D01*
X156901516Y-97706533D01*
X157040129Y-97678034D01*
X157435699Y-97533109D01*
X157761236Y-97238239D01*
X158008645Y-96801083D01*
X158032686Y-96739462D01*
X158171609Y-96252876D01*
X158186803Y-95822572D01*
X158076536Y-95387399D01*
X157988510Y-95180094D01*
X157732887Y-94717807D01*
X157453782Y-94404401D01*
X157123853Y-94219468D01*
X156715762Y-94142599D01*
X156592168Y-94137775D01*
X156193196Y-94131757D01*
X156149982Y-93748367D01*
X156076053Y-93433346D01*
X155911995Y-93194988D01*
X155843109Y-93129398D01*
X155649801Y-92980949D01*
X155490659Y-92899282D01*
X155458712Y-92893818D01*
X155340150Y-92946626D01*
X155137927Y-93086114D01*
X154892601Y-93283880D01*
X154854208Y-93317152D01*
X154582256Y-93542856D01*
X154379008Y-93671950D01*
X154195379Y-93729472D01*
X154023781Y-93740801D01*
X153723451Y-93782562D01*
X153443767Y-93884641D01*
X153413172Y-93902068D01*
X153149223Y-94063019D01*
X152924214Y-93203252D01*
X152791167Y-92749274D01*
X152627574Y-92269533D01*
X152461110Y-91843001D01*
X152396962Y-91698650D01*
X152251160Y-91382169D01*
X152170304Y-91174813D01*
X152146895Y-91032651D01*
X152173434Y-90911755D01*
X152239183Y-90774452D01*
X152344875Y-90422078D01*
X152340700Y-90114065D01*
X152303941Y-89907081D01*
X152228344Y-89734321D01*
X152085181Y-89551684D01*
X151845724Y-89315073D01*
X151780937Y-89254789D01*
X151541493Y-89024852D01*
X151380900Y-88830839D01*
X151293147Y-88636703D01*
X151272225Y-88406400D01*
X151312124Y-88103883D01*
X151406834Y-87693108D01*
X151475788Y-87424608D01*
X151627250Y-86696440D01*
X151685767Y-86004985D01*
X151687454Y-85857216D01*
X151696436Y-85495271D01*
X151721267Y-85237486D01*
X151758773Y-85112076D01*
X151772121Y-85104485D01*
X151837983Y-85176304D01*
X151856788Y-85296817D01*
X151893737Y-85608265D01*
X151990628Y-85985305D01*
X152126528Y-86368225D01*
X152280501Y-86697313D01*
X152418739Y-86899729D01*
X152817284Y-87221421D01*
X153266894Y-87411148D01*
X153731837Y-87459480D01*
X154166674Y-87361095D01*
X154457232Y-87179778D01*
X154742753Y-86904335D01*
X154976824Y-86588878D01*
X155113032Y-86287520D01*
X155122099Y-86247174D01*
X155144868Y-85739966D01*
X155032515Y-85267554D01*
X154804318Y-84856492D01*
X154479552Y-84533332D01*
X154077494Y-84324628D01*
X153677121Y-84256770D01*
X153572925Y-84243612D01*
X153473194Y-84194460D01*
X153359714Y-84088459D01*
X153214274Y-83904757D01*
X153018660Y-83622500D01*
X152754659Y-83220834D01*
X152703454Y-83141931D01*
X152002932Y-82171181D01*
X151252629Y-81339554D01*
X150464419Y-80659855D01*
X150275651Y-80524027D01*
X149694128Y-80172146D01*
X148982111Y-79825418D01*
X148178038Y-79500663D01*
X147320345Y-79214702D01*
X147207329Y-79181375D01*
X146693863Y-79036340D01*
X146284936Y-78934466D01*
X145924120Y-78866351D01*
X145554986Y-78822591D01*
X145121106Y-78793785D01*
X144794329Y-78779291D01*
X144133278Y-78766390D01*
X143506668Y-78779316D01*
X142972556Y-78816502D01*
X142839788Y-78832056D01*
X142327932Y-78924945D01*
X141738645Y-79072222D01*
X141127480Y-79256561D01*
X140549987Y-79460634D01*
X140061720Y-79667115D01*
X139898092Y-79749591D01*
X139355805Y-80098958D01*
X138797174Y-80559089D01*
X138272429Y-81085049D01*
X137901166Y-81535949D01*
X137688656Y-81840551D01*
X137458540Y-82199711D01*
X137229616Y-82580324D01*
X137020684Y-82949287D01*
X136850541Y-83273495D01*
X136737986Y-83519846D01*
X136701454Y-83648630D01*
X136772937Y-83730872D01*
X136947903Y-83820690D01*
X136976621Y-83831393D01*
X137251788Y-83929534D01*
X136997788Y-84060945D01*
X136514897Y-84401571D01*
X136113771Y-84866012D01*
X135816646Y-85419559D01*
X135645754Y-86027505D01*
X135623185Y-86206787D01*
X135626414Y-86624594D01*
X135696594Y-87066496D01*
X135819267Y-87475304D01*
X135979975Y-87793831D01*
X136045265Y-87876367D01*
X136152937Y-88014483D01*
X136176693Y-88149097D01*
X136125825Y-88354292D01*
X136110950Y-88399934D01*
X136051415Y-88683410D01*
X136046324Y-88952845D01*
X136052634Y-88993551D01*
X136069157Y-89172198D01*
X136038665Y-89252776D01*
X136034992Y-89253152D01*
X135939092Y-89307614D01*
X135770653Y-89446753D01*
X135656109Y-89553560D01*
X135451697Y-89797813D01*
X135357264Y-90050976D01*
X135368483Y-90353637D01*
X135481028Y-90746383D01*
X135518252Y-90847056D01*
X135689631Y-91297960D01*
X135310375Y-91719783D01*
X134906750Y-92254426D01*
X134617247Y-92820899D01*
X134462942Y-93376761D01*
X134454122Y-93444152D01*
X134415217Y-93765204D01*
X134373953Y-94071395D01*
X134360197Y-94163818D01*
X134314057Y-94460152D01*
X134089589Y-94195753D01*
X133866961Y-93988059D01*
X133587021Y-93794297D01*
X133505288Y-93749532D01*
X133244103Y-93579407D01*
X133146094Y-93417014D01*
X133145454Y-93403396D01*
X133068097Y-93176820D01*
X132861695Y-93001638D01*
X132564754Y-92904733D01*
X132415528Y-92893818D01*
X132209898Y-92887419D01*
X132088122Y-92842730D01*
X132013992Y-92721512D01*
X131951302Y-92485529D01*
X131927497Y-92378408D01*
X131814329Y-92097392D01*
X131631057Y-91864411D01*
X131420453Y-91726783D01*
X131321922Y-91708485D01*
X131124980Y-91769696D01*
X130885617Y-91923107D01*
X130660196Y-92123383D01*
X130505080Y-92325187D01*
X130477979Y-92387315D01*
X130437711Y-92481058D01*
X130368729Y-92499562D01*
X130224304Y-92440898D01*
X130088433Y-92371208D01*
X129792941Y-92253291D01*
X129497430Y-92233492D01*
X129358980Y-92248268D01*
X128829754Y-92398206D01*
X128368365Y-92677784D01*
X127995687Y-93060353D01*
X127732594Y-93519262D01*
X127599960Y-94027860D01*
X120622632Y-94027860D01*
X120831079Y-93569986D01*
X121150001Y-92904750D01*
X121534053Y-92130231D01*
X121978300Y-91255743D01*
X122477810Y-90290596D01*
X123027646Y-89244105D01*
X123622877Y-88125579D01*
X124258566Y-86944333D01*
X124929780Y-85709679D01*
X125631585Y-84430928D01*
X126359047Y-83117393D01*
X127107231Y-81778386D01*
X127871204Y-80423219D01*
X128646031Y-79061206D01*
X128870024Y-78669818D01*
X129627371Y-77339085D01*
X130333849Y-76079194D01*
X130985691Y-74897463D01*
X131579131Y-73801207D01*
X132110403Y-72797741D01*
X132575739Y-71894381D01*
X132971375Y-71098443D01*
X133293543Y-70417243D01*
X133538477Y-69858097D01*
X133702410Y-69428319D01*
X133781577Y-69135227D01*
X133782793Y-69127355D01*
X133756524Y-68757626D01*
X133580503Y-68410311D01*
X133273702Y-68122162D01*
X133258772Y-68112252D01*
X133148755Y-68052967D01*
X133011178Y-68012379D01*
X132816332Y-67987998D01*
X132534506Y-67977335D01*
X132135990Y-67977901D01*
X131732506Y-67984393D01*
X131077182Y-67989049D01*
X130572679Y-67972542D01*
X130201446Y-67931733D01*
X129945933Y-67863484D01*
X129788589Y-67764656D01*
X129711864Y-67632111D01*
X129709335Y-67622596D01*
X129689600Y-67548028D01*
X129681142Y-67482911D01*
X129695618Y-67408285D01*
X129744688Y-67305194D01*
X129840008Y-67154680D01*
X129993237Y-66937785D01*
X130216033Y-66635550D01*
X130520053Y-66229019D01*
X130777767Y-65885152D01*
X132467183Y-63715249D01*
X134174226Y-61691884D01*
X135893832Y-59820531D01*
X137620934Y-58106666D01*
X139350465Y-56555763D01*
X139622454Y-56326961D01*
X140505754Y-55599947D01*
X141271196Y-54990062D01*
X141921369Y-54495412D01*
X142458863Y-54114104D01*
X142886268Y-53844246D01*
X143206173Y-53683945D01*
X143270890Y-53660361D01*
X143977289Y-53513809D01*
X144683762Y-53536115D01*
G37*
%TD*%
D11*
%TO.C,D3*%
X114400000Y-97940000D03*
D12*
X114400000Y-95400000D03*
%TD*%
D11*
%TO.C,D1*%
X126450000Y-69050000D03*
D12*
X126450000Y-66510000D03*
%TD*%
D11*
%TO.C,D2*%
X160850000Y-68950000D03*
D12*
X160850000Y-66410000D03*
%TD*%
%TO.C,D4*%
X171650000Y-96510000D03*
D11*
X171650000Y-99050000D03*
%TD*%
D13*
%TO.C,S1*%
X161900000Y-124700000D03*
X164440000Y-124700000D03*
X166980000Y-124700000D03*
%TD*%
D14*
%TO.C,R2*%
X176750000Y-125430000D03*
X176750000Y-115270000D03*
%TD*%
M02*
