%TF.GenerationSoftware,KiCad,Pcbnew,9.0.6*%
%TF.CreationDate,2025-11-21T09:20:11+01:00*%
%TF.ProjectId,BL_Santa,424c5f53-616e-4746-912e-6b696361645f,rev?*%
%TF.SameCoordinates,Original*%
%TF.FileFunction,Soldermask,Bot*%
%TF.FilePolarity,Negative*%
%FSLAX46Y46*%
G04 Gerber Fmt 4.6, Leading zero omitted, Abs format (unit mm)*
G04 Created by KiCad (PCBNEW 9.0.6) date 2025-11-21 09:20:11*
%MOMM*%
%LPD*%
G01*
G04 APERTURE LIST*
G04 Aperture macros list*
%AMRoundRect*
0 Rectangle with rounded corners*
0 $1 Rounding radius*
0 $2 $3 $4 $5 $6 $7 $8 $9 X,Y pos of 4 corners*
0 Add a 4 corners polygon primitive as box body*
4,1,4,$2,$3,$4,$5,$6,$7,$8,$9,$2,$3,0*
0 Add four circle primitives for the rounded corners*
1,1,$1+$1,$2,$3*
1,1,$1+$1,$4,$5*
1,1,$1+$1,$6,$7*
1,1,$1+$1,$8,$9*
0 Add four rect primitives between the rounded corners*
20,1,$1+$1,$2,$3,$4,$5,0*
20,1,$1+$1,$4,$5,$6,$7,0*
20,1,$1+$1,$6,$7,$8,$9,0*
20,1,$1+$1,$8,$9,$2,$3,0*%
G04 Aperture macros list end*
%ADD10C,0.250000*%
%ADD11C,0.010000*%
%ADD12RoundRect,0.200000X-2.500000X-1.000000X2.500000X-1.000000X2.500000X1.000000X-2.500000X1.000000X0*%
%ADD13C,18.180000*%
%ADD14RoundRect,0.200000X-0.900000X-0.900000X0.900000X-0.900000X0.900000X0.900000X-0.900000X0.900000X0*%
%ADD15C,2.200000*%
%ADD16RoundRect,0.200000X0.900000X0.900000X-0.900000X0.900000X-0.900000X-0.900000X0.900000X-0.900000X0*%
%ADD17C,2.400000*%
%ADD18C,2.000000*%
G04 APERTURE END LIST*
D10*
X153648431Y-140072619D02*
X153648431Y-139072619D01*
X153077003Y-140072619D02*
X153505574Y-139501190D01*
X153077003Y-139072619D02*
X153648431Y-139644047D01*
X152648431Y-140072619D02*
X152648431Y-139072619D01*
X152648431Y-139548809D02*
X152077003Y-139548809D01*
X152077003Y-140072619D02*
X152077003Y-139072619D01*
X151267479Y-139548809D02*
X151600812Y-139548809D01*
X151600812Y-140072619D02*
X151600812Y-139072619D01*
X151600812Y-139072619D02*
X151124622Y-139072619D01*
X149457955Y-140072619D02*
X150029383Y-140072619D01*
X149743669Y-140072619D02*
X149743669Y-139072619D01*
X149743669Y-139072619D02*
X149838907Y-139215476D01*
X149838907Y-139215476D02*
X149934145Y-139310714D01*
X149934145Y-139310714D02*
X150029383Y-139358333D01*
X148505574Y-140072619D02*
X149077002Y-140072619D01*
X148791288Y-140072619D02*
X148791288Y-139072619D01*
X148791288Y-139072619D02*
X148886526Y-139215476D01*
X148886526Y-139215476D02*
X148981764Y-139310714D01*
X148981764Y-139310714D02*
X149077002Y-139358333D01*
X148077002Y-139977380D02*
X148029383Y-140025000D01*
X148029383Y-140025000D02*
X148077002Y-140072619D01*
X148077002Y-140072619D02*
X148124621Y-140025000D01*
X148124621Y-140025000D02*
X148077002Y-139977380D01*
X148077002Y-139977380D02*
X148077002Y-140072619D01*
X147648431Y-139167857D02*
X147600812Y-139120238D01*
X147600812Y-139120238D02*
X147505574Y-139072619D01*
X147505574Y-139072619D02*
X147267479Y-139072619D01*
X147267479Y-139072619D02*
X147172241Y-139120238D01*
X147172241Y-139120238D02*
X147124622Y-139167857D01*
X147124622Y-139167857D02*
X147077003Y-139263095D01*
X147077003Y-139263095D02*
X147077003Y-139358333D01*
X147077003Y-139358333D02*
X147124622Y-139501190D01*
X147124622Y-139501190D02*
X147696050Y-140072619D01*
X147696050Y-140072619D02*
X147077003Y-140072619D01*
X146457955Y-139072619D02*
X146362717Y-139072619D01*
X146362717Y-139072619D02*
X146267479Y-139120238D01*
X146267479Y-139120238D02*
X146219860Y-139167857D01*
X146219860Y-139167857D02*
X146172241Y-139263095D01*
X146172241Y-139263095D02*
X146124622Y-139453571D01*
X146124622Y-139453571D02*
X146124622Y-139691666D01*
X146124622Y-139691666D02*
X146172241Y-139882142D01*
X146172241Y-139882142D02*
X146219860Y-139977380D01*
X146219860Y-139977380D02*
X146267479Y-140025000D01*
X146267479Y-140025000D02*
X146362717Y-140072619D01*
X146362717Y-140072619D02*
X146457955Y-140072619D01*
X146457955Y-140072619D02*
X146553193Y-140025000D01*
X146553193Y-140025000D02*
X146600812Y-139977380D01*
X146600812Y-139977380D02*
X146648431Y-139882142D01*
X146648431Y-139882142D02*
X146696050Y-139691666D01*
X146696050Y-139691666D02*
X146696050Y-139453571D01*
X146696050Y-139453571D02*
X146648431Y-139263095D01*
X146648431Y-139263095D02*
X146600812Y-139167857D01*
X146600812Y-139167857D02*
X146553193Y-139120238D01*
X146553193Y-139120238D02*
X146457955Y-139072619D01*
X145743669Y-139167857D02*
X145696050Y-139120238D01*
X145696050Y-139120238D02*
X145600812Y-139072619D01*
X145600812Y-139072619D02*
X145362717Y-139072619D01*
X145362717Y-139072619D02*
X145267479Y-139120238D01*
X145267479Y-139120238D02*
X145219860Y-139167857D01*
X145219860Y-139167857D02*
X145172241Y-139263095D01*
X145172241Y-139263095D02*
X145172241Y-139358333D01*
X145172241Y-139358333D02*
X145219860Y-139501190D01*
X145219860Y-139501190D02*
X145791288Y-140072619D01*
X145791288Y-140072619D02*
X145172241Y-140072619D01*
X144267479Y-139072619D02*
X144743669Y-139072619D01*
X144743669Y-139072619D02*
X144791288Y-139548809D01*
X144791288Y-139548809D02*
X144743669Y-139501190D01*
X144743669Y-139501190D02*
X144648431Y-139453571D01*
X144648431Y-139453571D02*
X144410336Y-139453571D01*
X144410336Y-139453571D02*
X144315098Y-139501190D01*
X144315098Y-139501190D02*
X144267479Y-139548809D01*
X144267479Y-139548809D02*
X144219860Y-139644047D01*
X144219860Y-139644047D02*
X144219860Y-139882142D01*
X144219860Y-139882142D02*
X144267479Y-139977380D01*
X144267479Y-139977380D02*
X144315098Y-140025000D01*
X144315098Y-140025000D02*
X144410336Y-140072619D01*
X144410336Y-140072619D02*
X144648431Y-140072619D01*
X144648431Y-140072619D02*
X144743669Y-140025000D01*
X144743669Y-140025000D02*
X144791288Y-139977380D01*
D11*
%TO.C,G\u002A\u002A\u002A*%
X151061612Y-50349978D02*
X151692657Y-50499622D01*
X152335853Y-50790211D01*
X152998619Y-51225904D01*
X153688377Y-51810861D01*
X154412547Y-52549239D01*
X155178551Y-53445199D01*
X155211967Y-53486611D01*
X155579342Y-53932311D01*
X156015464Y-54444994D01*
X156472271Y-54969048D01*
X156901700Y-55448862D01*
X157012241Y-55569612D01*
X157480792Y-56084417D01*
X157998290Y-56663879D01*
X158552809Y-57293799D01*
X159132423Y-57959977D01*
X159725203Y-58648212D01*
X160319225Y-59344305D01*
X160902562Y-60034056D01*
X161463287Y-60703265D01*
X161989473Y-61337733D01*
X162469195Y-61923260D01*
X162890525Y-62445646D01*
X163241537Y-62890690D01*
X163510304Y-63244195D01*
X163684901Y-63491958D01*
X163732904Y-63571278D01*
X163843361Y-63912668D01*
X163795309Y-64212914D01*
X163597259Y-64458758D01*
X163257722Y-64636943D01*
X163006497Y-64702703D01*
X162279531Y-64842556D01*
X161701803Y-64957516D01*
X161256171Y-65054168D01*
X160925490Y-65139099D01*
X160692619Y-65218895D01*
X160540413Y-65300142D01*
X160451730Y-65389426D01*
X160409427Y-65493333D01*
X160396360Y-65618450D01*
X160395422Y-65705827D01*
X160437852Y-65966696D01*
X160563184Y-66367745D01*
X160768483Y-66903190D01*
X161050814Y-67567248D01*
X161407242Y-68354134D01*
X161834832Y-69258065D01*
X162330648Y-70273255D01*
X162891756Y-71393922D01*
X163515220Y-72614281D01*
X164198106Y-73928547D01*
X164937477Y-75330937D01*
X165730399Y-76815666D01*
X166573937Y-78376951D01*
X167465155Y-80009008D01*
X168401119Y-81706052D01*
X169378893Y-83462299D01*
X169667502Y-83977673D01*
X170309646Y-85130712D01*
X170912005Y-86227895D01*
X171469075Y-87258576D01*
X171975351Y-88212107D01*
X172425329Y-89077841D01*
X172813504Y-89845131D01*
X173134372Y-90503329D01*
X173382429Y-91041789D01*
X173552169Y-91449863D01*
X173600679Y-91585528D01*
X173740156Y-92171079D01*
X173740387Y-92680154D01*
X173599904Y-93134723D01*
X173483439Y-93337923D01*
X173373701Y-93493634D01*
X173259575Y-93618804D01*
X173121604Y-93717416D01*
X172940334Y-93793454D01*
X172696309Y-93850899D01*
X172370075Y-93893735D01*
X171942175Y-93925943D01*
X171393155Y-93951507D01*
X170703560Y-93974410D01*
X170319794Y-93985545D01*
X169586197Y-94006900D01*
X169001464Y-94027842D01*
X168545202Y-94053068D01*
X168197018Y-94087277D01*
X167936521Y-94135168D01*
X167743317Y-94201438D01*
X167597014Y-94290786D01*
X167477219Y-94407910D01*
X167363541Y-94557509D01*
X167274589Y-94687145D01*
X167167960Y-94866237D01*
X167103828Y-95044589D01*
X167089243Y-95237132D01*
X167131256Y-95458796D01*
X167236917Y-95724508D01*
X167413277Y-96049200D01*
X167667387Y-96447800D01*
X168006296Y-96935238D01*
X168437056Y-97526444D01*
X168923595Y-98178909D01*
X170633623Y-100494959D01*
X172285349Y-102810256D01*
X173898541Y-105154319D01*
X175492967Y-107556667D01*
X177088396Y-110046817D01*
X178704595Y-112654288D01*
X179529140Y-114015364D01*
X179887651Y-114619233D01*
X180152944Y-115084046D01*
X180325789Y-115411599D01*
X180406957Y-115603692D01*
X180397217Y-115662122D01*
X180297340Y-115588687D01*
X180123246Y-115402500D01*
X179775565Y-115083279D01*
X179291268Y-114749593D01*
X178700381Y-114417041D01*
X178032930Y-114101224D01*
X177318940Y-113817741D01*
X176658086Y-113602188D01*
X175438648Y-113307216D01*
X174218659Y-113127035D01*
X173021465Y-113061337D01*
X171870415Y-113109813D01*
X170788857Y-113272153D01*
X169800137Y-113548049D01*
X169417563Y-113697977D01*
X168745371Y-113987210D01*
X168269133Y-113532957D01*
X167586706Y-112953506D01*
X166912717Y-112534793D01*
X166225634Y-112270894D01*
X165503927Y-112155888D01*
X164726067Y-112183851D01*
X163919584Y-112336418D01*
X163005625Y-112565262D01*
X162390182Y-111902797D01*
X161946960Y-111460570D01*
X161547175Y-111147716D01*
X161154347Y-110944322D01*
X160731997Y-110830472D01*
X160353089Y-110790727D01*
X159711887Y-110826277D01*
X159100329Y-111008736D01*
X158489830Y-111347161D01*
X158399505Y-111409856D01*
X157985460Y-111704231D01*
X157785148Y-111488203D01*
X157493649Y-111254494D01*
X157139245Y-111136804D01*
X156812744Y-111113342D01*
X156569488Y-111133803D01*
X156396649Y-111221451D01*
X156217181Y-111415693D01*
X156214139Y-111419501D01*
X155925152Y-111697373D01*
X155552462Y-111895899D01*
X155068523Y-112026158D01*
X154542220Y-112092042D01*
X154178425Y-112117296D01*
X153922172Y-112116008D01*
X153712517Y-112078590D01*
X153488519Y-111995453D01*
X153259321Y-111890187D01*
X152902241Y-111745127D01*
X152526283Y-111629044D01*
X152254523Y-111573701D01*
X151827688Y-111467550D01*
X151287587Y-111240815D01*
X151011708Y-111101458D01*
X150639288Y-110918834D01*
X150279058Y-110765870D01*
X149982697Y-110663434D01*
X149855668Y-110634716D01*
X149395765Y-110634832D01*
X148838364Y-110750187D01*
X148174211Y-110982954D01*
X147922923Y-111089015D01*
X146883276Y-111492848D01*
X145933175Y-111754544D01*
X145070567Y-111874388D01*
X144293397Y-111852662D01*
X143599610Y-111689648D01*
X143589089Y-111685862D01*
X142960511Y-111458112D01*
X142468482Y-111280970D01*
X142089952Y-111148452D01*
X141801874Y-111054573D01*
X141581199Y-110993351D01*
X141404877Y-110958801D01*
X141249861Y-110944940D01*
X141093101Y-110945785D01*
X140911550Y-110955351D01*
X140799959Y-110961771D01*
X140138592Y-111056956D01*
X139559840Y-111275890D01*
X139026036Y-111635924D01*
X138717311Y-111921160D01*
X138272305Y-112371764D01*
X137246827Y-112323310D01*
X136563337Y-112313307D01*
X136005045Y-112360078D01*
X135535092Y-112471296D01*
X135116617Y-112654630D01*
X134844173Y-112823357D01*
X134563867Y-113071280D01*
X134264223Y-113425538D01*
X133984380Y-113833551D01*
X133763472Y-114242736D01*
X133729379Y-114321121D01*
X133621745Y-114580972D01*
X133144417Y-114210672D01*
X132703701Y-113886534D01*
X132335910Y-113665773D01*
X131995951Y-113530333D01*
X131638733Y-113462158D01*
X131227756Y-113443206D01*
X130780686Y-113467461D01*
X130371238Y-113552515D01*
X129957620Y-113713827D01*
X129498042Y-113966858D01*
X129081938Y-114237054D01*
X128573298Y-114582465D01*
X127995527Y-114337376D01*
X127228965Y-114049091D01*
X126561221Y-113880696D01*
X125973313Y-113830437D01*
X125446262Y-113896559D01*
X124996007Y-114060027D01*
X124592233Y-114309581D01*
X124176569Y-114656771D01*
X123812439Y-115047573D01*
X123763991Y-115109496D01*
X123706723Y-115175814D01*
X123632188Y-115233709D01*
X123521695Y-115288019D01*
X123356555Y-115343578D01*
X123118077Y-115405224D01*
X122787570Y-115477793D01*
X122346343Y-115566120D01*
X121775707Y-115675043D01*
X121064495Y-115807996D01*
X120430925Y-115925454D01*
X119850660Y-116032183D01*
X119344728Y-116124382D01*
X118934158Y-116198250D01*
X118639979Y-116249987D01*
X118483219Y-116275791D01*
X118464058Y-116278006D01*
X118427163Y-116210331D01*
X118445930Y-116087506D01*
X118553865Y-115819421D01*
X118753167Y-115425484D01*
X119036425Y-114917380D01*
X119396231Y-114306798D01*
X119825175Y-113605425D01*
X120315850Y-112824948D01*
X120860845Y-111977054D01*
X121452753Y-111073431D01*
X122084163Y-110125765D01*
X122747667Y-109145745D01*
X123435856Y-108145056D01*
X123934054Y-107430340D01*
X125172434Y-105684712D01*
X126417050Y-103973529D01*
X127692879Y-102263564D01*
X129024897Y-100521594D01*
X130438079Y-98714396D01*
X131333851Y-97586806D01*
X131834537Y-96956557D01*
X132236500Y-96440978D01*
X132549413Y-96024652D01*
X132782951Y-95692158D01*
X132946789Y-95428076D01*
X133050600Y-95216989D01*
X133104059Y-95043475D01*
X133116841Y-94892116D01*
X133102629Y-94767658D01*
X132963818Y-94358251D01*
X132731537Y-94021989D01*
X132437847Y-93804312D01*
X132416273Y-93794880D01*
X132214782Y-93743051D01*
X131869594Y-93690808D01*
X131406309Y-93641209D01*
X130850527Y-93597313D01*
X130661293Y-93585211D01*
X129804436Y-93532083D01*
X129099690Y-93484013D01*
X128530049Y-93437487D01*
X128078507Y-93388994D01*
X127728060Y-93335020D01*
X127461702Y-93272052D01*
X127262426Y-93196578D01*
X127113229Y-93105084D01*
X126997103Y-92994059D01*
X126897044Y-92859989D01*
X126857995Y-92799573D01*
X126735625Y-92458734D01*
X126721334Y-92014611D01*
X126813033Y-91492513D01*
X126955734Y-91073186D01*
X134074217Y-91073186D01*
X134081516Y-91230965D01*
X134110984Y-91530364D01*
X134164290Y-91721541D01*
X134269910Y-91865544D01*
X134448203Y-92017052D01*
X134666200Y-92197360D01*
X134954065Y-92447640D01*
X135258674Y-92721475D01*
X135339114Y-92795478D01*
X135624189Y-93047671D01*
X135895238Y-93267540D01*
X136106582Y-93418660D01*
X136158226Y-93448689D01*
X136351965Y-93600519D01*
X136465693Y-93784108D01*
X136467296Y-93790130D01*
X136610366Y-94079374D01*
X136852560Y-94238075D01*
X137036449Y-94264673D01*
X137299904Y-94312494D01*
X137495451Y-94401006D01*
X137766791Y-94495473D01*
X137917543Y-94483624D01*
X138021569Y-94463907D01*
X138126301Y-94468655D01*
X138255791Y-94509619D01*
X138434092Y-94598550D01*
X138685255Y-94747197D01*
X139033334Y-94967312D01*
X139422725Y-95218962D01*
X140336361Y-95811589D01*
X140269392Y-96202298D01*
X140248039Y-96415094D01*
X140230708Y-96760732D01*
X140218473Y-97202742D01*
X140212409Y-97704659D01*
X140212732Y-98126425D01*
X140218078Y-98685245D01*
X140228519Y-99114125D01*
X140248499Y-99452459D01*
X140282466Y-99739639D01*
X140334868Y-100015059D01*
X140410149Y-100318110D01*
X140494671Y-100624092D01*
X140738815Y-101405971D01*
X141003262Y-102062024D01*
X141312218Y-102635714D01*
X141689889Y-103170503D01*
X142160479Y-103709855D01*
X142286301Y-103841071D01*
X142610574Y-104161208D01*
X142921266Y-104444537D01*
X143186610Y-104663614D01*
X143374841Y-104790996D01*
X143399305Y-104802585D01*
X143631519Y-104966026D01*
X143807587Y-105246853D01*
X143933054Y-105659398D01*
X144013463Y-106217992D01*
X144030966Y-106435506D01*
X144050473Y-106782337D01*
X144048260Y-106992827D01*
X144020358Y-107099039D01*
X143962797Y-107133032D01*
X143944491Y-107134006D01*
X143783655Y-107208086D01*
X143640591Y-107390969D01*
X143555529Y-107623621D01*
X143546756Y-107717678D01*
X143603308Y-107945901D01*
X143687802Y-108080861D01*
X143759422Y-108177898D01*
X143753138Y-108265758D01*
X143650041Y-108385208D01*
X143474988Y-108539607D01*
X143023934Y-108990724D01*
X142726426Y-109436777D01*
X142585866Y-109869314D01*
X142605653Y-110279884D01*
X142687749Y-110496484D01*
X143010943Y-110950283D01*
X143454544Y-111292544D01*
X144006163Y-111516800D01*
X144653412Y-111616579D01*
X144841856Y-111621340D01*
X145269129Y-111585002D01*
X145799726Y-111484402D01*
X146386098Y-111332159D01*
X146980693Y-111140891D01*
X147535961Y-110923219D01*
X147629548Y-110881532D01*
X147964963Y-110720518D01*
X148183360Y-110586853D01*
X148326065Y-110447882D01*
X148434405Y-110270948D01*
X148455048Y-110229245D01*
X148599311Y-109765174D01*
X148606345Y-109288001D01*
X148489138Y-108883163D01*
X148405877Y-108686772D01*
X148407627Y-108565739D01*
X148501146Y-108445253D01*
X148531471Y-108414624D01*
X148677121Y-108171145D01*
X148702221Y-107894485D01*
X148605961Y-107648346D01*
X148542089Y-107580028D01*
X148394676Y-107384144D01*
X148411865Y-107180509D01*
X148574285Y-106974196D01*
X148906488Y-106758838D01*
X149318155Y-106628305D01*
X149734944Y-106601459D01*
X149920955Y-106632523D01*
X150164543Y-106721374D01*
X150431090Y-106852915D01*
X150674989Y-106999849D01*
X150850634Y-107134878D01*
X150912756Y-107226164D01*
X150868848Y-107333217D01*
X150758296Y-107520828D01*
X150701089Y-107607728D01*
X150539712Y-107891121D01*
X150502936Y-108114238D01*
X150588374Y-108328819D01*
X150663039Y-108432555D01*
X150836657Y-108653274D01*
X150652007Y-108903027D01*
X150541058Y-109090503D01*
X150496514Y-109297107D01*
X150503961Y-109593515D01*
X150506015Y-109618952D01*
X150627445Y-110106015D01*
X150894593Y-110535397D01*
X151288622Y-110889364D01*
X151790696Y-111150183D01*
X152273208Y-111282720D01*
X152635020Y-111365096D01*
X152995092Y-111474677D01*
X153198756Y-111554383D01*
X153755735Y-111754375D01*
X154307821Y-111830971D01*
X154903313Y-111787256D01*
X155351837Y-111691883D01*
X155737407Y-111508199D01*
X156044068Y-111178780D01*
X156265393Y-110710929D01*
X156292710Y-110622844D01*
X156391129Y-110078001D01*
X156342190Y-109587859D01*
X156139960Y-109113987D01*
X156034125Y-108948143D01*
X155869220Y-108688799D01*
X155780201Y-108471929D01*
X155744373Y-108221328D01*
X155738756Y-107956256D01*
X155730325Y-107636845D01*
X155692691Y-107424356D01*
X155607342Y-107256717D01*
X155484756Y-107104608D01*
X155307618Y-106855288D01*
X155237463Y-106595292D01*
X155230756Y-106436260D01*
X155300352Y-106005291D01*
X155491527Y-105530226D01*
X155777856Y-105049246D01*
X156132916Y-104600531D01*
X156530283Y-104222262D01*
X156943535Y-103952620D01*
X156952669Y-103948167D01*
X157277136Y-103767595D01*
X157560480Y-103549219D01*
X157828413Y-103264975D01*
X158106651Y-102886801D01*
X158420907Y-102386634D01*
X158489443Y-102271023D01*
X158842367Y-101658798D01*
X159117212Y-101139907D01*
X159321931Y-100679508D01*
X159464479Y-100242754D01*
X159552809Y-99794801D01*
X159594874Y-99300803D01*
X159598628Y-98725917D01*
X159572026Y-98035297D01*
X159549352Y-97627616D01*
X159515348Y-97037749D01*
X159492694Y-96594032D01*
X159482039Y-96273620D01*
X159484034Y-96053667D01*
X159499327Y-95911327D01*
X159528570Y-95823757D01*
X159572412Y-95768111D01*
X159602971Y-95742845D01*
X159967073Y-95518819D01*
X160369851Y-95355953D01*
X160739139Y-95282304D01*
X160791735Y-95280673D01*
X161143168Y-95221794D01*
X161349859Y-95111340D01*
X161613092Y-94982788D01*
X161871996Y-94942006D01*
X162162295Y-94906182D01*
X162463637Y-94818692D01*
X162493642Y-94806307D01*
X162755886Y-94709779D01*
X163093142Y-94606853D01*
X163316004Y-94548450D01*
X163725721Y-94430227D01*
X164011637Y-94286935D01*
X164219032Y-94084232D01*
X164393184Y-93787777D01*
X164434473Y-93700155D01*
X164590208Y-93196308D01*
X164615299Y-92687289D01*
X164523059Y-92199259D01*
X164326797Y-91758377D01*
X164039825Y-91390802D01*
X163675455Y-91122695D01*
X163246996Y-90980215D01*
X163042256Y-90964066D01*
X162815530Y-90954446D01*
X162703157Y-90897152D01*
X162650166Y-90746014D01*
X162628012Y-90616149D01*
X162538297Y-90322761D01*
X162390489Y-90055183D01*
X162365485Y-90023482D01*
X162148848Y-89832431D01*
X161919467Y-89778462D01*
X161655354Y-89864563D01*
X161334524Y-90093720D01*
X161239880Y-90176404D01*
X160982483Y-90394297D01*
X160793101Y-90511858D01*
X160624801Y-90553096D01*
X160508282Y-90550678D01*
X160173128Y-90592594D01*
X159916310Y-90705387D01*
X159724737Y-90810760D01*
X159607479Y-90860731D01*
X159593121Y-90860280D01*
X159565911Y-90772777D01*
X159508663Y-90558496D01*
X159431313Y-90255204D01*
X159386156Y-90073673D01*
X159253314Y-89615301D01*
X159076396Y-89109495D01*
X158890819Y-88656475D01*
X158867300Y-88605395D01*
X158712751Y-88268579D01*
X158623977Y-88044172D01*
X158592365Y-87892463D01*
X158609300Y-87773742D01*
X158661603Y-87657100D01*
X158737506Y-87423858D01*
X158781948Y-87120084D01*
X158786756Y-86995921D01*
X158780175Y-86779548D01*
X158742515Y-86622119D01*
X158646900Y-86477908D01*
X158466454Y-86301190D01*
X158284791Y-86141902D01*
X158004711Y-85882822D01*
X157825481Y-85656504D01*
X157737870Y-85422369D01*
X157732648Y-85139839D01*
X157800585Y-84768335D01*
X157891886Y-84414643D01*
X158018778Y-83878397D01*
X158086925Y-83383021D01*
X158109216Y-82830458D01*
X158109422Y-82759739D01*
X158115363Y-82402123D01*
X158131394Y-82117764D01*
X158154824Y-81942297D01*
X158174059Y-81903340D01*
X158220322Y-81979995D01*
X158291367Y-82185854D01*
X158375536Y-82484750D01*
X158423760Y-82678040D01*
X158582355Y-83211303D01*
X158780373Y-83608312D01*
X159039838Y-83901248D01*
X159382774Y-84122293D01*
X159426824Y-84143737D01*
X159767531Y-84242865D01*
X160164499Y-84268357D01*
X160538479Y-84219750D01*
X160725725Y-84151331D01*
X161082021Y-83885049D01*
X161364123Y-83515978D01*
X161550879Y-83089428D01*
X161621136Y-82650707D01*
X161579541Y-82322437D01*
X161356505Y-81824823D01*
X161012797Y-81441477D01*
X160562777Y-81184824D01*
X160143694Y-81080106D01*
X160007911Y-81053426D01*
X159892912Y-80998123D01*
X159775807Y-80889410D01*
X159633704Y-80702503D01*
X159443711Y-80412617D01*
X159267969Y-80131945D01*
X158607176Y-79173727D01*
X157894516Y-78353511D01*
X157109450Y-77655892D01*
X156231440Y-77065469D01*
X155239946Y-76566837D01*
X154114431Y-76144593D01*
X153833756Y-76056452D01*
X153420888Y-75932019D01*
X153092654Y-75839596D01*
X152810553Y-75773750D01*
X152536083Y-75729049D01*
X152230745Y-75700061D01*
X151856037Y-75681353D01*
X151373458Y-75667492D01*
X151019154Y-75659312D01*
X150257514Y-75649962D01*
X149625297Y-75663731D01*
X149083484Y-75706359D01*
X148593059Y-75783589D01*
X148115004Y-75901160D01*
X147610303Y-76064816D01*
X147185018Y-76223502D01*
X146301236Y-76639445D01*
X145510414Y-77170305D01*
X144800989Y-77827359D01*
X144161393Y-78621886D01*
X143580061Y-79565163D01*
X143394839Y-79919353D01*
X143251895Y-80225553D01*
X143199446Y-80424190D01*
X143240408Y-80552628D01*
X143377700Y-80648231D01*
X143454486Y-80683188D01*
X143565915Y-80738354D01*
X143580159Y-80791411D01*
X143480187Y-80872238D01*
X143277235Y-80994150D01*
X142803628Y-81366574D01*
X142437554Y-81853081D01*
X142194381Y-82425698D01*
X142089481Y-83056450D01*
X142086553Y-83161181D01*
X142130539Y-83811176D01*
X142276195Y-84330291D01*
X142495396Y-84690186D01*
X142631233Y-84881166D01*
X142654452Y-85022979D01*
X142620169Y-85111803D01*
X142562731Y-85302639D01*
X142532245Y-85566727D01*
X142530756Y-85634053D01*
X142515385Y-85848612D01*
X142448876Y-86017800D01*
X142300636Y-86197934D01*
X142140252Y-86352886D01*
X141925643Y-86562909D01*
X141814009Y-86715700D01*
X141778978Y-86863312D01*
X141791882Y-87040440D01*
X141850869Y-87324584D01*
X141948384Y-87649612D01*
X141987603Y-87756453D01*
X142141191Y-88148567D01*
X141747139Y-88586848D01*
X141317451Y-89146197D01*
X141036549Y-89716484D01*
X140886455Y-90338037D01*
X140861629Y-90573437D01*
X140830002Y-90878993D01*
X140790287Y-91105925D01*
X140750085Y-91213190D01*
X140742487Y-91216673D01*
X140651002Y-91153006D01*
X140529968Y-90999917D01*
X140529862Y-90999754D01*
X140370524Y-90834132D01*
X140126042Y-90658094D01*
X139989036Y-90580802D01*
X139724063Y-90420864D01*
X139584301Y-90259995D01*
X139541096Y-90132542D01*
X139415395Y-89902540D01*
X139166550Y-89756080D01*
X138827432Y-89710867D01*
X138764843Y-89714386D01*
X138611692Y-89713481D01*
X138520049Y-89651855D01*
X138453322Y-89489235D01*
X138409135Y-89322899D01*
X138258293Y-88907993D01*
X138055339Y-88647901D01*
X137804650Y-88545835D01*
X137510601Y-88605012D01*
X137463161Y-88627924D01*
X137252267Y-88787668D01*
X137056081Y-89013854D01*
X137028691Y-89055620D01*
X136905850Y-89240866D01*
X136820321Y-89345414D01*
X136805871Y-89354006D01*
X136715308Y-89312492D01*
X136553298Y-89213679D01*
X136211291Y-89085627D01*
X135803841Y-89086538D01*
X135365217Y-89208515D01*
X134929690Y-89443658D01*
X134671053Y-89647495D01*
X134327198Y-90052426D01*
X134130620Y-90521298D01*
X134074217Y-91073186D01*
X126955734Y-91073186D01*
X127008631Y-90917750D01*
X127014551Y-90903598D01*
X127108836Y-90699614D01*
X127275257Y-90362139D01*
X127505606Y-89906742D01*
X127791674Y-89348991D01*
X128125254Y-88704455D01*
X128498139Y-87988703D01*
X128902119Y-87217302D01*
X129328987Y-86405822D01*
X129770536Y-85569831D01*
X130218557Y-84724898D01*
X130664842Y-83886590D01*
X131101183Y-83070477D01*
X131519373Y-82292128D01*
X131911204Y-81567110D01*
X132268466Y-80910992D01*
X132582954Y-80339344D01*
X132607713Y-80294673D01*
X132908429Y-79755286D01*
X133274702Y-79102849D01*
X133687499Y-78370998D01*
X134127786Y-77593374D01*
X134576527Y-76803614D01*
X135014689Y-76035358D01*
X135290605Y-75553340D01*
X136088756Y-74151862D01*
X136825466Y-72838958D01*
X137497880Y-71620195D01*
X138103141Y-70501139D01*
X138638393Y-69487357D01*
X139100782Y-68584415D01*
X139487449Y-67797880D01*
X139795541Y-67133319D01*
X140022199Y-66596297D01*
X140164570Y-66192382D01*
X140218089Y-65949219D01*
X140194354Y-65559618D01*
X140028779Y-65242377D01*
X139744168Y-64993714D01*
X139629362Y-64922766D01*
X139508930Y-64871689D01*
X139353966Y-64837236D01*
X139135563Y-64816160D01*
X138824815Y-64805216D01*
X138392815Y-64801157D01*
X138025335Y-64800673D01*
X137348106Y-64793968D01*
X136830245Y-64767385D01*
X136462095Y-64711219D01*
X136233996Y-64615765D01*
X136136289Y-64471318D01*
X136159317Y-64268174D01*
X136293420Y-63996629D01*
X136528939Y-63646977D01*
X136677082Y-63446006D01*
X137720981Y-62073011D01*
X138712426Y-60813230D01*
X139680455Y-59631446D01*
X140654111Y-58492440D01*
X141662434Y-57360994D01*
X141992725Y-56999602D01*
X142527804Y-56425944D01*
X143034629Y-55902729D01*
X143541526Y-55403197D01*
X144076822Y-54900589D01*
X144668842Y-54368143D01*
X145345912Y-53779099D01*
X145917422Y-53291824D01*
X146776986Y-52574959D01*
X147549689Y-51953924D01*
X148229615Y-51433032D01*
X148810851Y-51016594D01*
X149287482Y-50708921D01*
X149653592Y-50514327D01*
X149806289Y-50456889D01*
X150435296Y-50337120D01*
X151061612Y-50349978D01*
G36*
X151061612Y-50349978D02*
G01*
X151692657Y-50499622D01*
X152335853Y-50790211D01*
X152998619Y-51225904D01*
X153688377Y-51810861D01*
X154412547Y-52549239D01*
X155178551Y-53445199D01*
X155211967Y-53486611D01*
X155579342Y-53932311D01*
X156015464Y-54444994D01*
X156472271Y-54969048D01*
X156901700Y-55448862D01*
X157012241Y-55569612D01*
X157480792Y-56084417D01*
X157998290Y-56663879D01*
X158552809Y-57293799D01*
X159132423Y-57959977D01*
X159725203Y-58648212D01*
X160319225Y-59344305D01*
X160902562Y-60034056D01*
X161463287Y-60703265D01*
X161989473Y-61337733D01*
X162469195Y-61923260D01*
X162890525Y-62445646D01*
X163241537Y-62890690D01*
X163510304Y-63244195D01*
X163684901Y-63491958D01*
X163732904Y-63571278D01*
X163843361Y-63912668D01*
X163795309Y-64212914D01*
X163597259Y-64458758D01*
X163257722Y-64636943D01*
X163006497Y-64702703D01*
X162279531Y-64842556D01*
X161701803Y-64957516D01*
X161256171Y-65054168D01*
X160925490Y-65139099D01*
X160692619Y-65218895D01*
X160540413Y-65300142D01*
X160451730Y-65389426D01*
X160409427Y-65493333D01*
X160396360Y-65618450D01*
X160395422Y-65705827D01*
X160437852Y-65966696D01*
X160563184Y-66367745D01*
X160768483Y-66903190D01*
X161050814Y-67567248D01*
X161407242Y-68354134D01*
X161834832Y-69258065D01*
X162330648Y-70273255D01*
X162891756Y-71393922D01*
X163515220Y-72614281D01*
X164198106Y-73928547D01*
X164937477Y-75330937D01*
X165730399Y-76815666D01*
X166573937Y-78376951D01*
X167465155Y-80009008D01*
X168401119Y-81706052D01*
X169378893Y-83462299D01*
X169667502Y-83977673D01*
X170309646Y-85130712D01*
X170912005Y-86227895D01*
X171469075Y-87258576D01*
X171975351Y-88212107D01*
X172425329Y-89077841D01*
X172813504Y-89845131D01*
X173134372Y-90503329D01*
X173382429Y-91041789D01*
X173552169Y-91449863D01*
X173600679Y-91585528D01*
X173740156Y-92171079D01*
X173740387Y-92680154D01*
X173599904Y-93134723D01*
X173483439Y-93337923D01*
X173373701Y-93493634D01*
X173259575Y-93618804D01*
X173121604Y-93717416D01*
X172940334Y-93793454D01*
X172696309Y-93850899D01*
X172370075Y-93893735D01*
X171942175Y-93925943D01*
X171393155Y-93951507D01*
X170703560Y-93974410D01*
X170319794Y-93985545D01*
X169586197Y-94006900D01*
X169001464Y-94027842D01*
X168545202Y-94053068D01*
X168197018Y-94087277D01*
X167936521Y-94135168D01*
X167743317Y-94201438D01*
X167597014Y-94290786D01*
X167477219Y-94407910D01*
X167363541Y-94557509D01*
X167274589Y-94687145D01*
X167167960Y-94866237D01*
X167103828Y-95044589D01*
X167089243Y-95237132D01*
X167131256Y-95458796D01*
X167236917Y-95724508D01*
X167413277Y-96049200D01*
X167667387Y-96447800D01*
X168006296Y-96935238D01*
X168437056Y-97526444D01*
X168923595Y-98178909D01*
X170633623Y-100494959D01*
X172285349Y-102810256D01*
X173898541Y-105154319D01*
X175492967Y-107556667D01*
X177088396Y-110046817D01*
X178704595Y-112654288D01*
X179529140Y-114015364D01*
X179887651Y-114619233D01*
X180152944Y-115084046D01*
X180325789Y-115411599D01*
X180406957Y-115603692D01*
X180397217Y-115662122D01*
X180297340Y-115588687D01*
X180123246Y-115402500D01*
X179775565Y-115083279D01*
X179291268Y-114749593D01*
X178700381Y-114417041D01*
X178032930Y-114101224D01*
X177318940Y-113817741D01*
X176658086Y-113602188D01*
X175438648Y-113307216D01*
X174218659Y-113127035D01*
X173021465Y-113061337D01*
X171870415Y-113109813D01*
X170788857Y-113272153D01*
X169800137Y-113548049D01*
X169417563Y-113697977D01*
X168745371Y-113987210D01*
X168269133Y-113532957D01*
X167586706Y-112953506D01*
X166912717Y-112534793D01*
X166225634Y-112270894D01*
X165503927Y-112155888D01*
X164726067Y-112183851D01*
X163919584Y-112336418D01*
X163005625Y-112565262D01*
X162390182Y-111902797D01*
X161946960Y-111460570D01*
X161547175Y-111147716D01*
X161154347Y-110944322D01*
X160731997Y-110830472D01*
X160353089Y-110790727D01*
X159711887Y-110826277D01*
X159100329Y-111008736D01*
X158489830Y-111347161D01*
X158399505Y-111409856D01*
X157985460Y-111704231D01*
X157785148Y-111488203D01*
X157493649Y-111254494D01*
X157139245Y-111136804D01*
X156812744Y-111113342D01*
X156569488Y-111133803D01*
X156396649Y-111221451D01*
X156217181Y-111415693D01*
X156214139Y-111419501D01*
X155925152Y-111697373D01*
X155552462Y-111895899D01*
X155068523Y-112026158D01*
X154542220Y-112092042D01*
X154178425Y-112117296D01*
X153922172Y-112116008D01*
X153712517Y-112078590D01*
X153488519Y-111995453D01*
X153259321Y-111890187D01*
X152902241Y-111745127D01*
X152526283Y-111629044D01*
X152254523Y-111573701D01*
X151827688Y-111467550D01*
X151287587Y-111240815D01*
X151011708Y-111101458D01*
X150639288Y-110918834D01*
X150279058Y-110765870D01*
X149982697Y-110663434D01*
X149855668Y-110634716D01*
X149395765Y-110634832D01*
X148838364Y-110750187D01*
X148174211Y-110982954D01*
X147922923Y-111089015D01*
X146883276Y-111492848D01*
X145933175Y-111754544D01*
X145070567Y-111874388D01*
X144293397Y-111852662D01*
X143599610Y-111689648D01*
X143589089Y-111685862D01*
X142960511Y-111458112D01*
X142468482Y-111280970D01*
X142089952Y-111148452D01*
X141801874Y-111054573D01*
X141581199Y-110993351D01*
X141404877Y-110958801D01*
X141249861Y-110944940D01*
X141093101Y-110945785D01*
X140911550Y-110955351D01*
X140799959Y-110961771D01*
X140138592Y-111056956D01*
X139559840Y-111275890D01*
X139026036Y-111635924D01*
X138717311Y-111921160D01*
X138272305Y-112371764D01*
X137246827Y-112323310D01*
X136563337Y-112313307D01*
X136005045Y-112360078D01*
X135535092Y-112471296D01*
X135116617Y-112654630D01*
X134844173Y-112823357D01*
X134563867Y-113071280D01*
X134264223Y-113425538D01*
X133984380Y-113833551D01*
X133763472Y-114242736D01*
X133729379Y-114321121D01*
X133621745Y-114580972D01*
X133144417Y-114210672D01*
X132703701Y-113886534D01*
X132335910Y-113665773D01*
X131995951Y-113530333D01*
X131638733Y-113462158D01*
X131227756Y-113443206D01*
X130780686Y-113467461D01*
X130371238Y-113552515D01*
X129957620Y-113713827D01*
X129498042Y-113966858D01*
X129081938Y-114237054D01*
X128573298Y-114582465D01*
X127995527Y-114337376D01*
X127228965Y-114049091D01*
X126561221Y-113880696D01*
X125973313Y-113830437D01*
X125446262Y-113896559D01*
X124996007Y-114060027D01*
X124592233Y-114309581D01*
X124176569Y-114656771D01*
X123812439Y-115047573D01*
X123763991Y-115109496D01*
X123706723Y-115175814D01*
X123632188Y-115233709D01*
X123521695Y-115288019D01*
X123356555Y-115343578D01*
X123118077Y-115405224D01*
X122787570Y-115477793D01*
X122346343Y-115566120D01*
X121775707Y-115675043D01*
X121064495Y-115807996D01*
X120430925Y-115925454D01*
X119850660Y-116032183D01*
X119344728Y-116124382D01*
X118934158Y-116198250D01*
X118639979Y-116249987D01*
X118483219Y-116275791D01*
X118464058Y-116278006D01*
X118427163Y-116210331D01*
X118445930Y-116087506D01*
X118553865Y-115819421D01*
X118753167Y-115425484D01*
X119036425Y-114917380D01*
X119396231Y-114306798D01*
X119825175Y-113605425D01*
X120315850Y-112824948D01*
X120860845Y-111977054D01*
X121452753Y-111073431D01*
X122084163Y-110125765D01*
X122747667Y-109145745D01*
X123435856Y-108145056D01*
X123934054Y-107430340D01*
X125172434Y-105684712D01*
X126417050Y-103973529D01*
X127692879Y-102263564D01*
X129024897Y-100521594D01*
X130438079Y-98714396D01*
X131333851Y-97586806D01*
X131834537Y-96956557D01*
X132236500Y-96440978D01*
X132549413Y-96024652D01*
X132782951Y-95692158D01*
X132946789Y-95428076D01*
X133050600Y-95216989D01*
X133104059Y-95043475D01*
X133116841Y-94892116D01*
X133102629Y-94767658D01*
X132963818Y-94358251D01*
X132731537Y-94021989D01*
X132437847Y-93804312D01*
X132416273Y-93794880D01*
X132214782Y-93743051D01*
X131869594Y-93690808D01*
X131406309Y-93641209D01*
X130850527Y-93597313D01*
X130661293Y-93585211D01*
X129804436Y-93532083D01*
X129099690Y-93484013D01*
X128530049Y-93437487D01*
X128078507Y-93388994D01*
X127728060Y-93335020D01*
X127461702Y-93272052D01*
X127262426Y-93196578D01*
X127113229Y-93105084D01*
X126997103Y-92994059D01*
X126897044Y-92859989D01*
X126857995Y-92799573D01*
X126735625Y-92458734D01*
X126721334Y-92014611D01*
X126813033Y-91492513D01*
X126955734Y-91073186D01*
X134074217Y-91073186D01*
X134081516Y-91230965D01*
X134110984Y-91530364D01*
X134164290Y-91721541D01*
X134269910Y-91865544D01*
X134448203Y-92017052D01*
X134666200Y-92197360D01*
X134954065Y-92447640D01*
X135258674Y-92721475D01*
X135339114Y-92795478D01*
X135624189Y-93047671D01*
X135895238Y-93267540D01*
X136106582Y-93418660D01*
X136158226Y-93448689D01*
X136351965Y-93600519D01*
X136465693Y-93784108D01*
X136467296Y-93790130D01*
X136610366Y-94079374D01*
X136852560Y-94238075D01*
X137036449Y-94264673D01*
X137299904Y-94312494D01*
X137495451Y-94401006D01*
X137766791Y-94495473D01*
X137917543Y-94483624D01*
X138021569Y-94463907D01*
X138126301Y-94468655D01*
X138255791Y-94509619D01*
X138434092Y-94598550D01*
X138685255Y-94747197D01*
X139033334Y-94967312D01*
X139422725Y-95218962D01*
X140336361Y-95811589D01*
X140269392Y-96202298D01*
X140248039Y-96415094D01*
X140230708Y-96760732D01*
X140218473Y-97202742D01*
X140212409Y-97704659D01*
X140212732Y-98126425D01*
X140218078Y-98685245D01*
X140228519Y-99114125D01*
X140248499Y-99452459D01*
X140282466Y-99739639D01*
X140334868Y-100015059D01*
X140410149Y-100318110D01*
X140494671Y-100624092D01*
X140738815Y-101405971D01*
X141003262Y-102062024D01*
X141312218Y-102635714D01*
X141689889Y-103170503D01*
X142160479Y-103709855D01*
X142286301Y-103841071D01*
X142610574Y-104161208D01*
X142921266Y-104444537D01*
X143186610Y-104663614D01*
X143374841Y-104790996D01*
X143399305Y-104802585D01*
X143631519Y-104966026D01*
X143807587Y-105246853D01*
X143933054Y-105659398D01*
X144013463Y-106217992D01*
X144030966Y-106435506D01*
X144050473Y-106782337D01*
X144048260Y-106992827D01*
X144020358Y-107099039D01*
X143962797Y-107133032D01*
X143944491Y-107134006D01*
X143783655Y-107208086D01*
X143640591Y-107390969D01*
X143555529Y-107623621D01*
X143546756Y-107717678D01*
X143603308Y-107945901D01*
X143687802Y-108080861D01*
X143759422Y-108177898D01*
X143753138Y-108265758D01*
X143650041Y-108385208D01*
X143474988Y-108539607D01*
X143023934Y-108990724D01*
X142726426Y-109436777D01*
X142585866Y-109869314D01*
X142605653Y-110279884D01*
X142687749Y-110496484D01*
X143010943Y-110950283D01*
X143454544Y-111292544D01*
X144006163Y-111516800D01*
X144653412Y-111616579D01*
X144841856Y-111621340D01*
X145269129Y-111585002D01*
X145799726Y-111484402D01*
X146386098Y-111332159D01*
X146980693Y-111140891D01*
X147535961Y-110923219D01*
X147629548Y-110881532D01*
X147964963Y-110720518D01*
X148183360Y-110586853D01*
X148326065Y-110447882D01*
X148434405Y-110270948D01*
X148455048Y-110229245D01*
X148599311Y-109765174D01*
X148606345Y-109288001D01*
X148489138Y-108883163D01*
X148405877Y-108686772D01*
X148407627Y-108565739D01*
X148501146Y-108445253D01*
X148531471Y-108414624D01*
X148677121Y-108171145D01*
X148702221Y-107894485D01*
X148605961Y-107648346D01*
X148542089Y-107580028D01*
X148394676Y-107384144D01*
X148411865Y-107180509D01*
X148574285Y-106974196D01*
X148906488Y-106758838D01*
X149318155Y-106628305D01*
X149734944Y-106601459D01*
X149920955Y-106632523D01*
X150164543Y-106721374D01*
X150431090Y-106852915D01*
X150674989Y-106999849D01*
X150850634Y-107134878D01*
X150912756Y-107226164D01*
X150868848Y-107333217D01*
X150758296Y-107520828D01*
X150701089Y-107607728D01*
X150539712Y-107891121D01*
X150502936Y-108114238D01*
X150588374Y-108328819D01*
X150663039Y-108432555D01*
X150836657Y-108653274D01*
X150652007Y-108903027D01*
X150541058Y-109090503D01*
X150496514Y-109297107D01*
X150503961Y-109593515D01*
X150506015Y-109618952D01*
X150627445Y-110106015D01*
X150894593Y-110535397D01*
X151288622Y-110889364D01*
X151790696Y-111150183D01*
X152273208Y-111282720D01*
X152635020Y-111365096D01*
X152995092Y-111474677D01*
X153198756Y-111554383D01*
X153755735Y-111754375D01*
X154307821Y-111830971D01*
X154903313Y-111787256D01*
X155351837Y-111691883D01*
X155737407Y-111508199D01*
X156044068Y-111178780D01*
X156265393Y-110710929D01*
X156292710Y-110622844D01*
X156391129Y-110078001D01*
X156342190Y-109587859D01*
X156139960Y-109113987D01*
X156034125Y-108948143D01*
X155869220Y-108688799D01*
X155780201Y-108471929D01*
X155744373Y-108221328D01*
X155738756Y-107956256D01*
X155730325Y-107636845D01*
X155692691Y-107424356D01*
X155607342Y-107256717D01*
X155484756Y-107104608D01*
X155307618Y-106855288D01*
X155237463Y-106595292D01*
X155230756Y-106436260D01*
X155300352Y-106005291D01*
X155491527Y-105530226D01*
X155777856Y-105049246D01*
X156132916Y-104600531D01*
X156530283Y-104222262D01*
X156943535Y-103952620D01*
X156952669Y-103948167D01*
X157277136Y-103767595D01*
X157560480Y-103549219D01*
X157828413Y-103264975D01*
X158106651Y-102886801D01*
X158420907Y-102386634D01*
X158489443Y-102271023D01*
X158842367Y-101658798D01*
X159117212Y-101139907D01*
X159321931Y-100679508D01*
X159464479Y-100242754D01*
X159552809Y-99794801D01*
X159594874Y-99300803D01*
X159598628Y-98725917D01*
X159572026Y-98035297D01*
X159549352Y-97627616D01*
X159515348Y-97037749D01*
X159492694Y-96594032D01*
X159482039Y-96273620D01*
X159484034Y-96053667D01*
X159499327Y-95911327D01*
X159528570Y-95823757D01*
X159572412Y-95768111D01*
X159602971Y-95742845D01*
X159967073Y-95518819D01*
X160369851Y-95355953D01*
X160739139Y-95282304D01*
X160791735Y-95280673D01*
X161143168Y-95221794D01*
X161349859Y-95111340D01*
X161613092Y-94982788D01*
X161871996Y-94942006D01*
X162162295Y-94906182D01*
X162463637Y-94818692D01*
X162493642Y-94806307D01*
X162755886Y-94709779D01*
X163093142Y-94606853D01*
X163316004Y-94548450D01*
X163725721Y-94430227D01*
X164011637Y-94286935D01*
X164219032Y-94084232D01*
X164393184Y-93787777D01*
X164434473Y-93700155D01*
X164590208Y-93196308D01*
X164615299Y-92687289D01*
X164523059Y-92199259D01*
X164326797Y-91758377D01*
X164039825Y-91390802D01*
X163675455Y-91122695D01*
X163246996Y-90980215D01*
X163042256Y-90964066D01*
X162815530Y-90954446D01*
X162703157Y-90897152D01*
X162650166Y-90746014D01*
X162628012Y-90616149D01*
X162538297Y-90322761D01*
X162390489Y-90055183D01*
X162365485Y-90023482D01*
X162148848Y-89832431D01*
X161919467Y-89778462D01*
X161655354Y-89864563D01*
X161334524Y-90093720D01*
X161239880Y-90176404D01*
X160982483Y-90394297D01*
X160793101Y-90511858D01*
X160624801Y-90553096D01*
X160508282Y-90550678D01*
X160173128Y-90592594D01*
X159916310Y-90705387D01*
X159724737Y-90810760D01*
X159607479Y-90860731D01*
X159593121Y-90860280D01*
X159565911Y-90772777D01*
X159508663Y-90558496D01*
X159431313Y-90255204D01*
X159386156Y-90073673D01*
X159253314Y-89615301D01*
X159076396Y-89109495D01*
X158890819Y-88656475D01*
X158867300Y-88605395D01*
X158712751Y-88268579D01*
X158623977Y-88044172D01*
X158592365Y-87892463D01*
X158609300Y-87773742D01*
X158661603Y-87657100D01*
X158737506Y-87423858D01*
X158781948Y-87120084D01*
X158786756Y-86995921D01*
X158780175Y-86779548D01*
X158742515Y-86622119D01*
X158646900Y-86477908D01*
X158466454Y-86301190D01*
X158284791Y-86141902D01*
X158004711Y-85882822D01*
X157825481Y-85656504D01*
X157737870Y-85422369D01*
X157732648Y-85139839D01*
X157800585Y-84768335D01*
X157891886Y-84414643D01*
X158018778Y-83878397D01*
X158086925Y-83383021D01*
X158109216Y-82830458D01*
X158109422Y-82759739D01*
X158115363Y-82402123D01*
X158131394Y-82117764D01*
X158154824Y-81942297D01*
X158174059Y-81903340D01*
X158220322Y-81979995D01*
X158291367Y-82185854D01*
X158375536Y-82484750D01*
X158423760Y-82678040D01*
X158582355Y-83211303D01*
X158780373Y-83608312D01*
X159039838Y-83901248D01*
X159382774Y-84122293D01*
X159426824Y-84143737D01*
X159767531Y-84242865D01*
X160164499Y-84268357D01*
X160538479Y-84219750D01*
X160725725Y-84151331D01*
X161082021Y-83885049D01*
X161364123Y-83515978D01*
X161550879Y-83089428D01*
X161621136Y-82650707D01*
X161579541Y-82322437D01*
X161356505Y-81824823D01*
X161012797Y-81441477D01*
X160562777Y-81184824D01*
X160143694Y-81080106D01*
X160007911Y-81053426D01*
X159892912Y-80998123D01*
X159775807Y-80889410D01*
X159633704Y-80702503D01*
X159443711Y-80412617D01*
X159267969Y-80131945D01*
X158607176Y-79173727D01*
X157894516Y-78353511D01*
X157109450Y-77655892D01*
X156231440Y-77065469D01*
X155239946Y-76566837D01*
X154114431Y-76144593D01*
X153833756Y-76056452D01*
X153420888Y-75932019D01*
X153092654Y-75839596D01*
X152810553Y-75773750D01*
X152536083Y-75729049D01*
X152230745Y-75700061D01*
X151856037Y-75681353D01*
X151373458Y-75667492D01*
X151019154Y-75659312D01*
X150257514Y-75649962D01*
X149625297Y-75663731D01*
X149083484Y-75706359D01*
X148593059Y-75783589D01*
X148115004Y-75901160D01*
X147610303Y-76064816D01*
X147185018Y-76223502D01*
X146301236Y-76639445D01*
X145510414Y-77170305D01*
X144800989Y-77827359D01*
X144161393Y-78621886D01*
X143580061Y-79565163D01*
X143394839Y-79919353D01*
X143251895Y-80225553D01*
X143199446Y-80424190D01*
X143240408Y-80552628D01*
X143377700Y-80648231D01*
X143454486Y-80683188D01*
X143565915Y-80738354D01*
X143580159Y-80791411D01*
X143480187Y-80872238D01*
X143277235Y-80994150D01*
X142803628Y-81366574D01*
X142437554Y-81853081D01*
X142194381Y-82425698D01*
X142089481Y-83056450D01*
X142086553Y-83161181D01*
X142130539Y-83811176D01*
X142276195Y-84330291D01*
X142495396Y-84690186D01*
X142631233Y-84881166D01*
X142654452Y-85022979D01*
X142620169Y-85111803D01*
X142562731Y-85302639D01*
X142532245Y-85566727D01*
X142530756Y-85634053D01*
X142515385Y-85848612D01*
X142448876Y-86017800D01*
X142300636Y-86197934D01*
X142140252Y-86352886D01*
X141925643Y-86562909D01*
X141814009Y-86715700D01*
X141778978Y-86863312D01*
X141791882Y-87040440D01*
X141850869Y-87324584D01*
X141948384Y-87649612D01*
X141987603Y-87756453D01*
X142141191Y-88148567D01*
X141747139Y-88586848D01*
X141317451Y-89146197D01*
X141036549Y-89716484D01*
X140886455Y-90338037D01*
X140861629Y-90573437D01*
X140830002Y-90878993D01*
X140790287Y-91105925D01*
X140750085Y-91213190D01*
X140742487Y-91216673D01*
X140651002Y-91153006D01*
X140529968Y-90999917D01*
X140529862Y-90999754D01*
X140370524Y-90834132D01*
X140126042Y-90658094D01*
X139989036Y-90580802D01*
X139724063Y-90420864D01*
X139584301Y-90259995D01*
X139541096Y-90132542D01*
X139415395Y-89902540D01*
X139166550Y-89756080D01*
X138827432Y-89710867D01*
X138764843Y-89714386D01*
X138611692Y-89713481D01*
X138520049Y-89651855D01*
X138453322Y-89489235D01*
X138409135Y-89322899D01*
X138258293Y-88907993D01*
X138055339Y-88647901D01*
X137804650Y-88545835D01*
X137510601Y-88605012D01*
X137463161Y-88627924D01*
X137252267Y-88787668D01*
X137056081Y-89013854D01*
X137028691Y-89055620D01*
X136905850Y-89240866D01*
X136820321Y-89345414D01*
X136805871Y-89354006D01*
X136715308Y-89312492D01*
X136553298Y-89213679D01*
X136211291Y-89085627D01*
X135803841Y-89086538D01*
X135365217Y-89208515D01*
X134929690Y-89443658D01*
X134671053Y-89647495D01*
X134327198Y-90052426D01*
X134130620Y-90521298D01*
X134074217Y-91073186D01*
X126955734Y-91073186D01*
X127008631Y-90917750D01*
X127014551Y-90903598D01*
X127108836Y-90699614D01*
X127275257Y-90362139D01*
X127505606Y-89906742D01*
X127791674Y-89348991D01*
X128125254Y-88704455D01*
X128498139Y-87988703D01*
X128902119Y-87217302D01*
X129328987Y-86405822D01*
X129770536Y-85569831D01*
X130218557Y-84724898D01*
X130664842Y-83886590D01*
X131101183Y-83070477D01*
X131519373Y-82292128D01*
X131911204Y-81567110D01*
X132268466Y-80910992D01*
X132582954Y-80339344D01*
X132607713Y-80294673D01*
X132908429Y-79755286D01*
X133274702Y-79102849D01*
X133687499Y-78370998D01*
X134127786Y-77593374D01*
X134576527Y-76803614D01*
X135014689Y-76035358D01*
X135290605Y-75553340D01*
X136088756Y-74151862D01*
X136825466Y-72838958D01*
X137497880Y-71620195D01*
X138103141Y-70501139D01*
X138638393Y-69487357D01*
X139100782Y-68584415D01*
X139487449Y-67797880D01*
X139795541Y-67133319D01*
X140022199Y-66596297D01*
X140164570Y-66192382D01*
X140218089Y-65949219D01*
X140194354Y-65559618D01*
X140028779Y-65242377D01*
X139744168Y-64993714D01*
X139629362Y-64922766D01*
X139508930Y-64871689D01*
X139353966Y-64837236D01*
X139135563Y-64816160D01*
X138824815Y-64805216D01*
X138392815Y-64801157D01*
X138025335Y-64800673D01*
X137348106Y-64793968D01*
X136830245Y-64767385D01*
X136462095Y-64711219D01*
X136233996Y-64615765D01*
X136136289Y-64471318D01*
X136159317Y-64268174D01*
X136293420Y-63996629D01*
X136528939Y-63646977D01*
X136677082Y-63446006D01*
X137720981Y-62073011D01*
X138712426Y-60813230D01*
X139680455Y-59631446D01*
X140654111Y-58492440D01*
X141662434Y-57360994D01*
X141992725Y-56999602D01*
X142527804Y-56425944D01*
X143034629Y-55902729D01*
X143541526Y-55403197D01*
X144076822Y-54900589D01*
X144668842Y-54368143D01*
X145345912Y-53779099D01*
X145917422Y-53291824D01*
X146776986Y-52574959D01*
X147549689Y-51953924D01*
X148229615Y-51433032D01*
X148810851Y-51016594D01*
X149287482Y-50708921D01*
X149653592Y-50514327D01*
X149806289Y-50456889D01*
X150435296Y-50337120D01*
X151061612Y-50349978D01*
G37*
%TD*%
D12*
%TO.C,U1*%
X136396000Y-122024000D03*
X136396000Y-118468000D03*
X162290000Y-122024000D03*
X162290000Y-118468000D03*
D13*
X149350000Y-120500000D03*
%TD*%
D14*
%TO.C,D1*%
X120265000Y-94400000D03*
D15*
X122805000Y-94400000D03*
%TD*%
%TO.C,D3*%
X177170000Y-95300000D03*
D16*
X179710000Y-95300000D03*
%TD*%
D15*
%TO.C,D4*%
X165760000Y-65050000D03*
D16*
X168300000Y-65050000D03*
%TD*%
D14*
%TO.C,D2*%
X132015000Y-65300000D03*
D15*
X134555000Y-65300000D03*
%TD*%
D17*
%TO.C,S1*%
X171421900Y-117961900D03*
X173961900Y-117961900D03*
X176501900Y-117961900D03*
%TD*%
D18*
%TO.C,R2*%
X182000000Y-112000000D03*
X182000000Y-122160000D03*
%TD*%
M02*
